<?xml version="1.0" encoding="utf-8"?>
<!-- Generator: Adobe Illustrator 16.0.0, SVG Export Plug-In . SVG Version: 6.00 Build 0)  -->
<!DOCTYPE svg PUBLIC "-//W3C//DTD SVG 1.1//EN" "http://www.w3.org/Graphics/SVG/1.1/DTD/svg11.dtd">
<svg version="1.1" id="Layer_1" xmlns="http://www.w3.org/2000/svg" xmlns:xlink="http://www.w3.org/1999/xlink" x="0px" y="0px"
	 width="1000px" height="1000px" viewBox="0 0 1000 1000" enable-background="new 0 0 1000 1000" xml:space="preserve">
<g>
	<circle fill="none" stroke="#FFFFFF" stroke-width="40" stroke-miterlimit="10" cx="787.422" cy="504.648" r="79.508"/>
	<path fill="none" stroke="#FFFFFF" stroke-width="40" stroke-linecap="round" stroke-miterlimit="10" d="M661.166,695.488
		c14.555-26.777,37.021-49.345,64.639-62.521c27.636-13.185,59.552-16.181,89.119-8.143c29.291,7.963,54.971,26.329,73.355,50.319
		c19.656,25.652,30.832,57.243,32.748,89.434c0.203,3.423,0.305,6.853,0.305,10.281"/>
</g>
<g>
	<circle fill="none" stroke="#FFFFFF" stroke-width="40" stroke-miterlimit="10" cx="508.93" cy="460.481" r="116.336"/>
	<path fill="none" stroke="#FFFFFF" stroke-width="40" stroke-linecap="round" stroke-miterlimit="10" d="M295.131,855.855
		c0-124.862,91.725-226.084,204.87-226.084S704.87,730.993,704.87,855.855"/>
</g>
<g>
	<circle fill="none" stroke="#FFFFFF" stroke-width="40" stroke-miterlimit="10" cx="212.578" cy="504.648" r="79.508"/>
	<path fill="none" stroke="#FFFFFF" stroke-width="40" stroke-linecap="round" stroke-miterlimit="10" d="M338.834,695.488
		c-14.556-26.777-37.021-49.345-64.639-62.521c-27.636-13.185-59.551-16.181-89.119-8.143
		c-29.292,7.963-54.971,26.329-73.355,50.319c-19.656,25.652-30.832,57.243-32.749,89.434c-0.203,3.423-0.305,6.853-0.305,10.281"/>
</g>
<path fill="#FFFFFF" d="M967.5,40.059h-935c-11.34,0-20.532,9.192-20.532,20.532v599.782c0,11.34,9.192,20.532,20.532,20.532H124
	v-41.064H53.032V81.123h893.936v558.718H876v41.064h91.5c11.34,0,20.532-9.192,20.532-20.532V60.591
	C988.032,49.251,978.84,40.059,967.5,40.059z"/>
</svg>
