<?xml version="1.0" encoding="utf-8"?>
<!-- Generator: Adobe Illustrator 16.0.0, SVG Export Plug-In . SVG Version: 6.00 Build 0)  -->
<!DOCTYPE svg PUBLIC "-//W3C//DTD SVG 1.1//EN" "http://www.w3.org/Graphics/SVG/1.1/DTD/svg11.dtd">
<svg version="1.1" id="Layer_1" xmlns="http://www.w3.org/2000/svg" xmlns:xlink="http://www.w3.org/1999/xlink" x="0px" y="0px"
	 width="1000px" height="1000px" viewBox="0 0 1000 1000" enable-background="new 0 0 1000 1000" xml:space="preserve">
<g>
	<circle fill="none" stroke="#FFFFFF" stroke-width="40" stroke-miterlimit="10" cx="787.422" cy="482.272" r="79.508"/>
	<path fill="none" stroke="#FFFFFF" stroke-width="40" stroke-linecap="round" stroke-miterlimit="10" d="M661.166,673.112
		c14.555-26.777,37.021-49.347,64.639-62.521c27.638-13.185,59.554-16.181,89.119-8.143c29.291,7.963,54.971,26.329,73.355,50.317
		c19.656,25.652,30.832,57.243,32.748,89.436c0.203,3.423,0.305,6.853,0.305,10.281"/>
</g>
<g>
	<circle fill="none" stroke="#FFFFFF" stroke-width="40" stroke-miterlimit="10" cx="508.93" cy="438.105" r="116.336"/>
	<path fill="none" stroke="#FFFFFF" stroke-width="40" stroke-linecap="round" stroke-miterlimit="10" d="M295.131,833.479
		c0-124.861,91.727-226.084,204.87-226.084c113.146,0,204.869,101.223,204.869,226.084"/>
</g>
<g>
	<circle fill="none" stroke="#FFFFFF" stroke-width="40" stroke-miterlimit="10" cx="212.578" cy="482.272" r="79.508"/>
	<path fill="none" stroke="#FFFFFF" stroke-width="40" stroke-linecap="round" stroke-miterlimit="10" d="M338.834,673.112
		c-14.556-26.777-37.021-49.347-64.639-62.521c-27.636-13.185-59.551-16.181-89.119-8.143
		c-29.292,7.963-54.971,26.329-73.355,50.317c-19.656,25.652-30.832,57.243-32.749,89.436c-0.203,3.423-0.305,6.853-0.305,10.281"/>
</g>
<path fill="#FFFFFF" d="M356.578,170.461c0,79.529-144,144-144,144s-144-64.471-144-144s102-120,144-46
	C250.578,52.461,356.578,90.933,356.578,170.461z"/>
</svg>
