<?xml version="1.0" encoding="utf-8"?>
<!-- Generator: Adobe Illustrator 16.0.0, SVG Export Plug-In . SVG Version: 6.00 Build 0)  -->
<!DOCTYPE svg PUBLIC "-//W3C//DTD SVG 1.1//EN" "http://www.w3.org/Graphics/SVG/1.1/DTD/svg11.dtd">
<svg version="1.1" id="Layer_1" xmlns="http://www.w3.org/2000/svg" xmlns:xlink="http://www.w3.org/1999/xlink" x="0px" y="0px"
	 width="1000px" height="1000px" viewBox="0 0 1000 1000" enable-background="new 0 0 1000 1000" xml:space="preserve">
<g>
	<circle fill="none" stroke="#FFFFFF" stroke-width="40" stroke-miterlimit="10" cx="787.422" cy="384.648" r="79.508"/>
	<path fill="none" stroke="#FFFFFF" stroke-width="40" stroke-linecap="round" stroke-miterlimit="10" d="M661.166,575.488
		c14.555-26.777,37.021-49.346,64.639-62.521c27.637-13.185,59.553-16.181,89.119-8.143c29.291,7.963,54.971,26.329,73.355,50.318
		c19.656,25.652,30.832,57.243,32.748,89.435c0.203,3.423,0.305,6.853,0.305,10.281"/>
</g>
<g>
	<circle fill="none" stroke="#FFFFFF" stroke-width="40" stroke-miterlimit="10" cx="508.93" cy="340.481" r="116.336"/>
	<path fill="none" stroke="#FFFFFF" stroke-width="40" stroke-linecap="round" stroke-miterlimit="10" d="M295.131,735.855
		c0-124.862,91.726-226.084,204.87-226.084c113.146,0,204.869,101.222,204.869,226.084"/>
</g>
<g>
	<circle fill="none" stroke="#FFFFFF" stroke-width="40" stroke-miterlimit="10" cx="212.578" cy="384.648" r="79.508"/>
	<path fill="none" stroke="#FFFFFF" stroke-width="40" stroke-linecap="round" stroke-miterlimit="10" d="M338.834,575.488
		c-14.556-26.777-37.021-49.346-64.639-62.521c-27.636-13.185-59.551-16.181-89.119-8.143
		c-29.292,7.963-54.971,26.329-73.355,50.318c-19.656,25.652-30.832,57.243-32.749,89.435c-0.203,3.423-0.305,6.853-0.305,10.281"/>
</g>
<polygon fill="none" stroke="#FFFFFF" stroke-width="37.7271" stroke-linecap="round" stroke-linejoin="round" stroke-miterlimit="10" points="
	474.651,515.179 508.93,565.907 543.209,515.179 "/>
<polygon fill="#FFFFFF" stroke="#FFFFFF" stroke-width="36.1515" stroke-linecap="round" stroke-linejoin="round" stroke-miterlimit="10" points="
	508.93,581.993 474.651,734.869 508.93,765.169 543.209,736.247 "/>
<polygon fill="none" stroke="#FFFFFF" stroke-width="24.9665" stroke-linecap="round" stroke-linejoin="round" stroke-miterlimit="10" points="
	189.893,499.275 212.578,532.846 235.263,499.275 "/>
<polygon fill="#FFFFFF" stroke="#FFFFFF" stroke-width="23.9239" stroke-linecap="round" stroke-linejoin="round" stroke-miterlimit="10" points="
	212.578,543.491 189.893,644.659 212.578,664.711 235.263,645.571 "/>
<polygon fill="none" stroke="#FFFFFF" stroke-width="24.9665" stroke-linecap="round" stroke-linejoin="round" stroke-miterlimit="10" points="
	764.736,499.275 787.422,532.846 810.106,499.275 "/>
<polygon fill="#FFFFFF" stroke="#FFFFFF" stroke-width="23.9239" stroke-linecap="round" stroke-linejoin="round" stroke-miterlimit="10" points="
	787.422,543.491 764.736,644.659 787.422,664.711 810.106,645.571 "/>
</svg>
