<?xml version="1.0" encoding="utf-8"?>
<!-- Generator: Adobe Illustrator 16.0.0, SVG Export Plug-In . SVG Version: 6.00 Build 0)  -->
<!DOCTYPE svg PUBLIC "-//W3C//DTD SVG 1.1//EN" "http://www.w3.org/Graphics/SVG/1.1/DTD/svg11.dtd">
<svg version="1.1" xmlns="http://www.w3.org/2000/svg" xmlns:xlink="http://www.w3.org/1999/xlink" x="0px" y="0px" width="1000px"
	 height="1000px" viewBox="0 0 1000 1000" enable-background="new 0 0 1000 1000" xml:space="preserve">
<g id="Layer_2">
</g>
<g id="Layer_1">
	<circle fill="none" stroke="#FFFFFF" stroke-width="40" stroke-miterlimit="10" cx="455.996" cy="340.481" r="116.336"/>
	<path fill="none" stroke="#FFFFFF" stroke-width="40" stroke-linecap="round" stroke-miterlimit="10" d="M251.126,735.855
		c0-33.076,6.53-66.13,19.569-96.551c12.217-28.504,30.104-54.616,52.753-75.844c21.924-20.549,48.268-36.37,77.008-45.282
		c29.3-9.087,60.748-10.837,90.876-5.057c5.344,1.025,10.643,2.284,15.877,3.771"/>
	<circle fill="none" stroke="#FFFFFF" stroke-width="40" stroke-miterlimit="10" cx="743.033" cy="340.481" r="116.336"/>
	<path fill="none" stroke="#FFFFFF" stroke-width="40" stroke-linecap="round" stroke-miterlimit="10" d="M655.82,531.239
		c37.681-19.618,81.554-26.172,123.281-17.974c39.438,7.748,75.561,28.375,103.501,57.096
		c28.35,29.141,48.144,66.013,57.971,105.388c4.9,19.638,7.329,39.869,7.329,60.106"/>
	<rect x="22.5" y="69.5" fill="none" width="264" height="358"/>
	<text transform="matrix(1 0 0 1 22.5 424.4961)" fill="#FFFFFF" font-family="'MyriadPro-Regular'" font-size="500">$</text>
	<circle fill="none" stroke="#FFFFFF" stroke-width="40" stroke-miterlimit="10" cx="562.332" cy="580.915" r="80.915"/>
	<path fill="none" stroke="#FFFFFF" stroke-width="40" stroke-linecap="round" stroke-miterlimit="10" d="M419.839,855.909
		c0-86.845,63.798-157.248,142.493-157.248c78.696,0,142.492,70.403,142.492,157.248"/>
</g>
</svg>
