<?xml version="1.0" encoding="utf-8"?>
<!-- Generator: Adobe Illustrator 16.0.0, SVG Export Plug-In . SVG Version: 6.00 Build 0)  -->
<!DOCTYPE svg PUBLIC "-//W3C//DTD SVG 1.1//EN" "http://www.w3.org/Graphics/SVG/1.1/DTD/svg11.dtd">
<svg version="1.1" xmlns="http://www.w3.org/2000/svg" xmlns:xlink="http://www.w3.org/1999/xlink" x="0px" y="0px" width="1000px"
	 height="1000px" viewBox="0 0 1000 1000" enable-background="new 0 0 1000 1000" xml:space="preserve">
<g id="Layer_2_1_">
</g>
<g id="Layer_1">
	<g id="Layer_2">
	</g>
	
		<rect x="206" y="236" fill="none" stroke="#FFFFFF" stroke-width="40" stroke-linecap="round" stroke-linejoin="round" stroke-miterlimit="10" width="672" height="640"/>
	<rect x="257.262" y="352.381" fill="#FFFFFF" width="99.909" height="64"/>
	<rect x="374.654" y="352.381" fill="#FFFFFF" width="99.909" height="64"/>
	<rect x="492.046" y="352.381" fill="#FFFFFF" width="99.909" height="64"/>
	<rect x="609.438" y="352.381" fill="#FFFFFF" width="99.908" height="64"/>
	<rect x="726.83" y="352.381" fill="#FFFFFF" width="99.908" height="64"/>
	<rect x="257.262" y="438.19" fill="#FFFFFF" width="99.909" height="64.001"/>
	<rect x="257.262" y="523.998" fill="#FFFFFF" width="99.909" height="64.002"/>
	<rect x="257.262" y="609.809" fill="#FFFFFF" width="99.909" height="64"/>
	<rect x="257.262" y="695.617" fill="#FFFFFF" width="99.909" height="64.002"/>
	
		<rect x="374.654" y="438.19" fill="none" stroke="#FFFFFF" stroke-width="5" stroke-miterlimit="10" width="99.909" height="64.001"/>
	
		<rect x="374.654" y="523.998" fill="none" stroke="#FFFFFF" stroke-width="5" stroke-miterlimit="10" width="99.909" height="64.002"/>
	<rect x="374.654" y="609.809" fill="none" stroke="#FFFFFF" stroke-width="5" stroke-miterlimit="10" width="99.909" height="64"/>
	
		<rect x="374.654" y="695.617" fill="none" stroke="#FFFFFF" stroke-width="5" stroke-miterlimit="10" width="99.909" height="64.002"/>
	
		<rect x="492.045" y="438.19" fill="none" stroke="#FFFFFF" stroke-width="5" stroke-miterlimit="10" width="99.91" height="64.001"/>
	
		<rect x="492.045" y="523.998" fill="none" stroke="#FFFFFF" stroke-width="5" stroke-miterlimit="10" width="99.91" height="64.002"/>
	<rect x="492.045" y="609.809" fill="none" stroke="#FFFFFF" stroke-width="5" stroke-miterlimit="10" width="99.91" height="64"/>
	
		<rect x="492.045" y="695.617" fill="none" stroke="#FFFFFF" stroke-width="5" stroke-miterlimit="10" width="99.91" height="64.002"/>
	
		<rect x="609.438" y="438.19" fill="none" stroke="#FFFFFF" stroke-width="5" stroke-miterlimit="10" width="99.91" height="64.001"/>
	
		<rect x="609.438" y="523.998" fill="none" stroke="#FFFFFF" stroke-width="5" stroke-miterlimit="10" width="99.91" height="64.002"/>
	<rect x="609.438" y="609.809" fill="none" stroke="#FFFFFF" stroke-width="5" stroke-miterlimit="10" width="99.91" height="64"/>
	
		<rect x="609.438" y="695.617" fill="none" stroke="#FFFFFF" stroke-width="5" stroke-miterlimit="10" width="99.91" height="64.002"/>
	
		<rect x="726.829" y="438.19" fill="none" stroke="#FFFFFF" stroke-width="5" stroke-miterlimit="10" width="99.91" height="64.001"/>
	
		<rect x="726.829" y="523.998" fill="none" stroke="#FFFFFF" stroke-width="5" stroke-miterlimit="10" width="99.91" height="64.002"/>
	<rect x="726.829" y="609.809" fill="none" stroke="#FFFFFF" stroke-width="5" stroke-miterlimit="10" width="99.91" height="64"/>
	
		<rect x="726.829" y="695.617" fill="none" stroke="#FFFFFF" stroke-width="5" stroke-miterlimit="10" width="99.91" height="64.002"/>
	<path fill="#FFFFFF" d="M198.5,800H166V200h632v28.5h40V180c0-11.046-8.954-20-20-20H146c-11.046,0-20,8.954-20,20v640
		c0,11.046,8.954,20,20,20h52.5V800z"/>
	<path fill="#FFFFFF" d="M139.5,741H107V141h632v28.5h40V121c0-11.046-8.954-20-20-20H87c-11.046,0-20,8.954-20,20v640
		c0,11.046,8.954,20,20,20h52.5V741z"/>
</g>
</svg>
