<?xml version="1.0" encoding="utf-8"?>
<!-- Generator: Adobe Illustrator 16.0.0, SVG Export Plug-In . SVG Version: 6.00 Build 0)  -->
<!DOCTYPE svg PUBLIC "-//W3C//DTD SVG 1.1//EN" "http://www.w3.org/Graphics/SVG/1.1/DTD/svg11.dtd">
<svg version="1.1" xmlns="http://www.w3.org/2000/svg" xmlns:xlink="http://www.w3.org/1999/xlink" x="0px" y="0px" width="1000px"
	 height="1000px" viewBox="0 0 1000 1000" enable-background="new 0 0 1000 1000" xml:space="preserve">
<g id="Layer_2_1_">
</g>
<g id="Layer_1">
	<g id="Layer_2">
	</g>
	
		<rect x="164" y="180" fill="none" stroke="#FFFFFF" stroke-width="40" stroke-linecap="round" stroke-linejoin="round" stroke-miterlimit="10" width="672" height="640"/>
	<rect x="215.262" y="296.381" fill="#FFFFFF" width="99.909" height="64"/>
	<rect x="332.654" y="296.381" fill="#FFFFFF" width="99.909" height="64"/>
	<rect x="450.046" y="296.381" fill="#FFFFFF" width="99.909" height="64"/>
	<rect x="567.438" y="296.381" fill="#FFFFFF" width="99.908" height="64"/>
	<rect x="684.83" y="296.381" fill="#FFFFFF" width="99.908" height="64"/>
	<rect x="215.262" y="382.19" fill="#FFFFFF" width="99.909" height="64.001"/>
	<rect x="215.262" y="467.999" fill="#FFFFFF" width="99.909" height="64.001"/>
	<rect x="215.262" y="553.809" fill="#FFFFFF" width="99.909" height="64"/>
	<rect x="215.262" y="639.617" fill="#FFFFFF" width="99.909" height="64.002"/>
	
		<rect x="332.654" y="382.19" fill="none" stroke="#FFFFFF" stroke-width="5" stroke-miterlimit="10" width="99.909" height="64.001"/>
	
		<rect x="332.654" y="467.999" fill="none" stroke="#FFFFFF" stroke-width="5" stroke-miterlimit="10" width="99.909" height="64.001"/>
	<rect x="332.654" y="553.809" fill="none" stroke="#FFFFFF" stroke-width="5" stroke-miterlimit="10" width="99.909" height="64"/>
	
		<rect x="332.654" y="639.617" fill="none" stroke="#FFFFFF" stroke-width="5" stroke-miterlimit="10" width="99.909" height="64.002"/>
	
		<rect x="450.045" y="382.19" fill="none" stroke="#FFFFFF" stroke-width="5" stroke-miterlimit="10" width="99.91" height="64.001"/>
	
		<rect x="450.045" y="467.999" fill="none" stroke="#FFFFFF" stroke-width="5" stroke-miterlimit="10" width="99.91" height="64.001"/>
	<rect x="450.045" y="553.809" fill="none" stroke="#FFFFFF" stroke-width="5" stroke-miterlimit="10" width="99.91" height="64"/>
	
		<rect x="450.045" y="639.617" fill="none" stroke="#FFFFFF" stroke-width="5" stroke-miterlimit="10" width="99.91" height="64.002"/>
	
		<rect x="567.438" y="382.19" fill="none" stroke="#FFFFFF" stroke-width="5" stroke-miterlimit="10" width="99.91" height="64.001"/>
	
		<rect x="567.438" y="467.999" fill="none" stroke="#FFFFFF" stroke-width="5" stroke-miterlimit="10" width="99.91" height="64.001"/>
	<rect x="567.438" y="553.809" fill="none" stroke="#FFFFFF" stroke-width="5" stroke-miterlimit="10" width="99.91" height="64"/>
	
		<rect x="567.438" y="639.617" fill="none" stroke="#FFFFFF" stroke-width="5" stroke-miterlimit="10" width="99.91" height="64.002"/>
	
		<rect x="684.829" y="382.19" fill="none" stroke="#FFFFFF" stroke-width="5" stroke-miterlimit="10" width="99.91" height="64.001"/>
	
		<rect x="684.829" y="467.999" fill="none" stroke="#FFFFFF" stroke-width="5" stroke-miterlimit="10" width="99.91" height="64.001"/>
	<rect x="684.829" y="553.809" fill="none" stroke="#FFFFFF" stroke-width="5" stroke-miterlimit="10" width="99.91" height="64"/>
	
		<rect x="684.829" y="639.617" fill="none" stroke="#FFFFFF" stroke-width="5" stroke-miterlimit="10" width="99.91" height="64.002"/>
	
		<rect x="323.912" y="100.279" fill="none" stroke="#FFFFFF" stroke-width="40" stroke-linecap="round" stroke-linejoin="round" stroke-miterlimit="10" width="31.133" height="138.014"/>
	
		<rect x="484.433" y="100.279" fill="none" stroke="#FFFFFF" stroke-width="40" stroke-linecap="round" stroke-linejoin="round" stroke-miterlimit="10" width="31.133" height="138.014"/>
	
		<rect x="644.955" y="100.279" fill="none" stroke="#FFFFFF" stroke-width="40" stroke-linecap="round" stroke-linejoin="round" stroke-miterlimit="10" width="31.133" height="138.014"/>
</g>
</svg>
