<?xml version="1.0" encoding="utf-8"?>
<!-- Generator: Adobe Illustrator 16.0.0, SVG Export Plug-In . SVG Version: 6.00 Build 0)  -->
<!DOCTYPE svg PUBLIC "-//W3C//DTD SVG 1.1//EN" "http://www.w3.org/Graphics/SVG/1.1/DTD/svg11.dtd">
<svg version="1.1" id="Layer_1" xmlns="http://www.w3.org/2000/svg" xmlns:xlink="http://www.w3.org/1999/xlink" x="0px" y="0px"
	 width="1000px" height="1000px" viewBox="0 0 1000 1000" enable-background="new 0 0 1000 1000" xml:space="preserve">
<g id="Layer_2">
</g>
<circle fill="none" stroke="#FFFFFF" stroke-width="40" stroke-miterlimit="10" cx="500" cy="340.481" r="116.336"/>
<path fill="none" stroke="#FFFFFF" stroke-width="40" stroke-linecap="round" stroke-miterlimit="10" d="M295.13,735.855
	c0-124.862,91.728-226.084,204.87-226.084c113.146,0,204.869,101.222,204.869,226.084"/>
<g>
	<path fill="#FFFFFF" d="M95,437.496l13-98H67v-29.5h45.5l9.5-72.5H79v-29.5h47.5l13-95.5h29l-12.5,95.5h52l13-95.5h29.5l-12.5,95.5
		h41v29.5h-45.5l-9,72.5h43v29.5H220l-13,98h-30l13-98h-52l-13,98H95z M194.5,309.996l9.5-72.5h-52l-9.5,72.5H194.5z"/>
</g>
</svg>
