<?xml version="1.0" encoding="utf-8"?>
<!-- Generator: Adobe Illustrator 16.0.0, SVG Export Plug-In . SVG Version: 6.00 Build 0)  -->
<!DOCTYPE svg PUBLIC "-//W3C//DTD SVG 1.1//EN" "http://www.w3.org/Graphics/SVG/1.1/DTD/svg11.dtd">
<svg version="1.1" id="Layer_1" xmlns="http://www.w3.org/2000/svg" xmlns:xlink="http://www.w3.org/1999/xlink" x="0px" y="0px"
	 width="1000px" height="1000px" viewBox="0 0 1000 1000" enable-background="new 0 0 1000 1000" xml:space="preserve">
<g>
	<path fill="#FFFFFF" d="M760,524.5V810H140V190h620v86.5h40V170c0-11.046-8.954-20-20-20H120c-11.046,0-20,8.954-20,20v660
		c0,11.046,8.954,20,20,20h660c11.046,0,20-8.954,20-20V524.5H760z"/>
	<g>
		<path fill="none" stroke="#FFFFFF" stroke-miterlimit="10" d="M760,524.5V810H140V190h620v86.5h40V170c0-11.046-8.954-20-20-20
			H120c-11.046,0-20,8.954-20,20v660c0,11.046,8.954,20,20,20h660c11.046,0,20-8.954,20-20V524.5h-37.13"/>
		<g>
			<polygon fill="#FFFFFF" points="763.454,522.506 760,524.5 763.454,526.494 			"/>
		</g>
	</g>
</g>
<g id="Layer_2_1_">
</g>
<g>
	<g>
		
			<line fill="none" stroke="#FFFFFF" stroke-width="40" stroke-linecap="round" stroke-linejoin="round" x1="456.5" y1="488.5" x2="840.899" y2="395.5"/>
		<g>
			<polygon fill="#FFFFFF" points="836.971,478.534 952.5,368.5 799.449,323.445 			"/>
		</g>
	</g>
</g>
</svg>
