<?xml version="1.0" encoding="utf-8"?>
<!-- Generator: Adobe Illustrator 16.0.0, SVG Export Plug-In . SVG Version: 6.00 Build 0)  -->
<!DOCTYPE svg PUBLIC "-//W3C//DTD SVG 1.1//EN" "http://www.w3.org/Graphics/SVG/1.1/DTD/svg11.dtd">
<svg version="1.1" id="Layer_1" xmlns="http://www.w3.org/2000/svg" xmlns:xlink="http://www.w3.org/1999/xlink" x="0px" y="0px"
	 width="192.613px" height="120.786px" viewBox="0 0 192.613 120.786" enable-background="new 0 0 192.613 120.786"
	 xml:space="preserve">
<path fill="#FFFFFF" d="M110.875,57.118c-1.567-1.109-4.034-1.666-7.405-1.666c-2.92,0-5.176,0.452-6.765,1.354
	c-1.898,1.041-3.168,2.855-3.811,5.446c-0.023,0.045-0.035,0.275-0.035,0.69c0,3.978,0.215,6.995,0.641,9.054
	c0.735,3.443,2.208,5.998,4.415,7.664c0.688,0.531,2.563,0.797,5.625,0.797c0.356,0,1.247-0.226,2.672-0.676
	c1.423-0.451,2.278-0.779,2.562-0.988c0.854-0.603,1.815-2.15,2.885-4.646c0.973-2.336,1.507-4.117,1.603-5.341
	c0.141-1.851,0.214-3.423,0.214-4.718c0-1.641-0.144-2.924-0.429-3.849C112.666,58.898,111.942,57.858,110.875,57.118
	 M108.454,68.06c-0.145,1.132-0.404,2.562-0.783,4.294c-0.547,2.379-1.021,3.648-1.424,3.811c-0.522,0.207-1.391,0.312-2.601,0.312
	c-2.064,0-3.287-0.197-3.666-0.591c-1.448-1.5-2.173-3.715-2.173-6.647c0-2.909,0.084-5.241,0.25-6.997
	c0.047-0.484,0.468-1.107,1.263-1.87c0.796-0.762,1.42-1.142,1.87-1.142c0.545,0,1.565,0.068,3.062,0.208
	c1.637,0.161,2.588,0.312,2.849,0.45c1.067,0.484,1.603,2.089,1.603,4.813C108.703,65.717,108.619,66.836,108.454,68.06"/>
<path fill="#FFFFFF" d="M132.128,57.773c-1.068-0.876-1.895-1.385-2.475-1.523c-0.582-0.139-3.104-0.208-7.564-0.208
	c-1.613,0-3.157,0.034-4.629,0.104c0,1.155,0.048,2.927,0.143,5.315c0.096,2.391,0.143,4.197,0.143,5.42
	c0,3.902-0.13,8.463-0.392,13.681l5.375-0.589c-0.235-5.816-0.354-9.928-0.354-12.328c0-3.141,0.118-5.979,0.354-8.521l4.167-0.139
	l1.246,0.52c1.258,3.647,1.887,6.015,1.887,7.1c0,0.093-0.013,0.173-0.034,0.242c-1.615,1.086-3.204,1.985-4.771,2.702
	c-0.761,0.322-1.331,0.555-1.71,0.691l0.818,2.598c1.731-0.254,4.711-1.373,8.937-3.36l1.495-3.046c0-0.623-0.345-2.077-1.031-4.364
	C133.041,59.921,132.507,58.49,132.128,57.773"/>
<path fill="#FFFFFF" d="M152.029,67.851l-8.579,0.313c-0.119-1.34-0.179-3.084-0.179-5.23c0-2.332,0.048-4.594,0.143-6.788
	l-5.375,0.173c-0.024,0.347-0.036,0.717-0.036,1.109c0,0.625,0.036,1.458,0.106,2.497c0.117,1.295,0.18,2.115,0.18,2.463
	c0.188,8.022,0.283,14.046,0.283,18.067l4.344-0.347l0.319-8.237l8.829-1.113l0.071,8.973l0.641,0.936l3.417-1.283
	c0.024-0.944,0.215-4.236,0.57-9.868l1.069-14.305l-5.021,0.693L152.029,67.851z"/>
<path fill="#FFFFFF" d="M163.457,62.32l0.89,18.138l3.809-0.312c0-3.146,0.154-7.19,0.464-12.138
	c0.261-4.047,0.522-8.104,0.783-12.174l-6.158,0.556C163.362,59.072,163.433,61.047,163.457,62.32"/>
<path fill="#FFFFFF" d="M191.972,73.642c-0.236-1.507-0.438-2.644-0.604-3.408c-0.713-3.569-1.994-8.487-3.846-14.747l-8.544,0.521
	c-1.805,3.329-3.264,7.305-4.379,11.93c-0.642,2.613-1.412,6.786-2.314,12.52l4.06-0.451l1.637-7.028l2.636,0.657l6.552-0.797
	l0.497,7.127l4.948,0.492L191.972,73.642z M186.455,69.756l-7.797,0.693c0.142-0.947,0.261-1.664,0.354-2.148
	c0.095-0.807,0.167-1.406,0.214-1.801c0.355-1.938,0.998-4.26,1.923-6.959l2.813-0.244c0.354,0.555,0.878,2.062,1.564,4.521
	c0.688,2.458,1.032,4.022,1.032,4.69C186.562,69.34,186.525,69.756,186.455,69.756"/>
<path fill="#FFFFFF" d="M155.109,13.359c3.272-1.212,6.57-2.354,9.867-3.498c0.756-0.262,1.468-0.489,1.512-1.598
	c-0.524-0.267-1.124-0.532-1.683-0.863c-0.938-0.557-1.852-0.537-2.854-0.137c-4.259,1.704-8.618,3.193-12.786,5.083
	c-8.896,4.032-17.29,8.993-25.585,14.069c-5.604,3.429-10.931,7.324-16.209,11.233c-7.85,5.808-15.502,11.867-23.314,17.721
	c-6.974,5.227-14.054,10.317-21.072,15.487c-0.197,0.146-0.402,0.244-0.61,0.326c-1.144,0.684-2.269,0.664-3.832,0.498
	c-1.606-0.174-3.178-0.317-4.674-0.829c-0.431-0.052-0.852-0.138-1.148-0.317c-0.36-0.115-0.573-0.363-0.646-0.865
	c-0.28-1.92-0.329-3.826-0.061-5.754c0.175-1.261,0.771-2.174,1.864-2.847c2.355-1.45,4.66-2.983,7.043-4.386
	c1.139-0.67,2.406-1.133,3.621-1.674c0.348-0.154,0.74-0.218,1.078-0.388c0.726-0.362,0.966-1.22,0.671-2.24
	c-0.226-0.777-0.81-0.837-1.48-0.708c-0.891,0.172-1.795,0.303-2.669,0.538c-6.029,1.619-11.065,4.892-15.539,9.066
	c-0.566,0.529-1.135,1.26-1.286,1.979c-0.454,2.158-0.733,4.353-1.014,6.541c-0.171,1.332,0.268,2.498,1.306,3.424
	c2.127,1.896,4.219,3.835,6.394,5.681c0.46,0.394,1.198,0.589,1.831,0.647c1.382,0.131,2.778,0.115,4.169,0.16
	c5.018,0.166,3.966,0.555,8.753-2.246c0.164-0.096,0.32-0.205,0.48-0.311c4.684-3.057,9.031-6.541,13.241-10.18
	c6.62-5.723,13.129-11.57,19.736-17.305c10.871-9.435,22.57-17.795,34.674-25.635C141.305,19.874,147.886,16.034,155.109,13.359"/>
<path fill="#FFFFFF" d="M55.976,46.629c1.766-0.975,3.652-1.403,5.671-1.188c2.045,0.217,4.088,0.455,6.129,0.709
	c0.587,0.074,1.091,0.305,1.323,0.929c0.609,1.63,1.234,3.255,1.875,4.874c0.42,1.063,0.203,1.87-0.771,2.563
	c-2.099,1.488-4.165,3.019-6.214,4.573c-2.1,1.593-4.298,2.984-6.922,3.603c-0.139,0.031-0.265,0.116-0.402,0.146
	c-0.562,0.133-0.896,0.522-0.72,1.021c0.138,0.383,0.534,0.74,0.906,0.965c0.247,0.146,0.654,0.055,0.99,0.045
	c1.582-0.056,3.163-0.158,4.746-0.164c0.803-0.004,1.498-0.195,2.158-0.625c3.555-2.312,7.133-4.594,10.667-6.936
	c1.107-0.735,2.112-1.621,3.155-2.449c0.694-0.549,0.95-1.233,0.758-2.125c-0.426-1.973-0.683-3.986-1.206-5.933
	c-0.708-2.628-1.585-5.213-2.424-7.807c-0.312-0.964-0.931-1.565-2.069-1.648c-2.726-0.197-5.443-0.476-7.37-0.65
	c-2.914-0.061-5.025-0.075-7.134-0.165c-0.956-0.042-1.756,0.194-2.565,0.691c-6.438,3.955-12.37,8.57-18.315,13.181
	c-2.486,1.93-4.5,4.183-6.226,6.762c-4.573,6.836-9.219,13.627-13.804,20.459c-0.893,1.328-1.725,2.713-2.432,4.144
	C12.813,87.603,9.9,93.627,6.977,99.647c-0.107,0.225-0.21,0.457-0.305,0.689c-0.062,0.326-0.075,0.65-0.029,0.971
	c0.125,0.309,0.282,0.59,0.458,0.852c0.309,0.146,0.622,0.273,0.948,0.355c0.078-0.006,0.157,0,0.238-0.01
	c0.684-0.299,1.305-0.727,1.9-1.213c0.208-0.234,0.414-0.473,0.614-0.713c3.427-6.742,6.732-13.562,11.025-19.832
	c3.817-5.576,7.827-11.031,11.855-16.468c1.742-2.353,3.704-4.552,5.637-6.763c1.759-2.01,3.808-3.736,6.139-5.074
	C48.931,50.451,52.468,48.565,55.976,46.629"/>
<path fill="#FFFFFF" d="M187.474,9.309c-0.758-1.105-1.319-1.275-3.014-0.92c-0.503,0.105-1.009,0.2-1.516,0.298
	c-7.224,1.401-14.272,3.135-20.766,5.853c-5.52,2.311-11.021,4.645-16.457,7.046c-5.069,2.239-9.757,4.812-13.853,7.781
	c-2.365,1.714-4.466,3.582-6.586,5.424c-1.247,1.084-1.128,2.2-0.185,3.333c1.44-0.268,2.439-0.735,3.229-1.429
	c0.438-0.384,0.884-0.768,1.378-1.124c7.905-5.704,16.665-10.798,26.434-15.107c7.764-3.425,16.229-5.836,24.916-7.861
	c1.735-0.404,3.508-0.784,5.146-1.34C187.779,10.729,188.034,10.127,187.474,9.309"/>
<path fill="#FFFFFF" d="M19.566,105.627c-0.173,0.082-0.347,0.182-0.517,0.287c-0.813,1.269-1.629,2.535-2.47,3.771
	c-2.451,3.604-5.567,5.904-8.959,7.572c-2.365,1.162-4.688,1.244-6.938,0.322c-0.123,0.012-0.245,0.016-0.367,0.021
	c-0.104,0.067-0.208,0.137-0.316,0.196c0.007,0.043,0.013,0.086,0.021,0.125c0.099,0.229,0.208,0.449,0.316,0.672
	c1.144,0.854,2.342,1.637,3.649,2.002c0.271,0.076,0.547,0.129,0.819,0.189c1.513-0.302,3.015-0.65,4.48-1.146
	c0.374-0.127,0.744-0.245,1.119-0.35c0.217-0.143,0.444-0.271,0.685-0.396c0.051-0.025,0.108-0.042,0.166-0.051
	c1.249-0.908,2.464-1.862,3.658-2.846c0.861-1.006,1.721-2.014,2.588-3.009c1.561-1.788,2.711-3.896,3.605-6.204
	C20.958,106.006,20.537,105.167,19.566,105.627"/>
<path fill="#FFFFFF" d="M5.09,112.913c0.93-0.158,1.86-0.313,2.781-0.504c1.221-0.596,2.438-1.197,3.621-1.884
	c1.649-0.961,3.113-2.271,4.329-3.912c2.431-3.272,3.904-7.094,4.748-11.269c0.094-0.465,0.115-0.926,0.079-1.381
	c-0.096-0.305-0.25-0.582-0.414-0.857c-0.09-0.077-0.187-0.145-0.284-0.21c-0.817-0.083-1.056,0.196-1.333,1.229
	c-1.169,4.332-3.004,8.219-5.771,11.463c-2.554,2.994-5.629,4.768-9.244,5.231c-0.076,0.011-0.135,0.024-0.203,0.037
	c-0.143,0.149-0.259,0.324-0.339,0.526c0.146,0.349,0.331,0.675,0.567,0.955C4.103,112.57,4.59,112.76,5.09,112.913"/>
<path fill="#FFFFFF" d="M119.954,23.751c5.139-2.029,9.993-4.574,14.514-7.718c4.135-2.874,7.743-6.292,10.778-10.262
	c0.873-1.141,1.498-2.473,2.154-3.757c0.315-0.618,0.444-1.329-0.31-2.014c-0.438,0.414-0.863,0.811-1.284,1.213
	c-4.224,4.047-8.408,8.164-13.436,11.261c-4.344,2.675-8.847,5.105-13.312,7.588c-0.743,0.413-1.17,0.937-1.372,1.687
	c-0.197,0.74-0.311,1.524,0.298,2.125C118.638,24.515,119.325,24,119.954,23.751"/>
<path fill="#FFFFFF" d="M46.756,97.483c-0.923,0-1.819-0.214-2.683-0.643c0.05-0.405,0.094-0.868,0.134-1.385l0.297-0.133
	c0.766,0.545,1.492,0.817,2.176,0.817c0.537,0,0.979-0.119,1.328-0.358c0.406-0.275,0.604-0.68,0.596-1.205
	c-0.009-0.607-0.394-1.1-1.147-1.476c-0.695-0.339-1.396-0.677-2.102-1.015c-0.755-0.518-1.143-1.242-1.164-2.176
	c-0.008-0.994,0.384-1.744,1.18-2.25c0.645-0.418,1.431-0.625,2.354-0.625c0.656,0,1.426,0.141,2.311,0.43l0.089,0.136
	c-0.05,0.418-0.089,0.835-0.119,1.252l-0.254,0.133c-0.784-0.426-1.471-0.642-2.058-0.642c-0.486,0-0.889,0.105-1.207,0.314
	c-0.387,0.238-0.576,0.586-0.566,1.043c0.01,0.535,0.402,0.988,1.177,1.354c0.716,0.349,1.438,0.692,2.163,1.03
	c0.774,0.516,1.172,1.226,1.192,2.131c0.009,1.093-0.378,1.933-1.162,2.52C48.624,97.234,47.78,97.483,46.756,97.483"/>
<path fill="#FFFFFF" d="M56.891,91.267l-0.268,0.135c-0.418-0.258-0.834-0.389-1.252-0.389c-0.695,0-1.256,0.299-1.684,0.896
	c-0.388,0.525-0.583,1.162-0.583,1.906c0,0.657,0.159,1.203,0.479,1.641c0.337,0.486,0.809,0.729,1.416,0.729
	c0.536,0,1.202-0.343,1.997-1.028c-0.061,0.774-0.1,1.322-0.119,1.641c-0.508,0.447-1.223,0.67-2.146,0.67
	c-1.063,0-1.897-0.373-2.504-1.117c-0.546-0.678-0.818-1.51-0.818-2.504c0-1.094,0.317-2.026,0.951-2.803
	c0.719-0.864,1.666-1.297,2.85-1.297c0.635,0,1.228,0.109,1.772,0.328C56.94,90.534,56.911,90.931,56.891,91.267"/>
<path fill="#FFFFFF" d="M64.208,97.184l-0.164,0.225c-0.277-0.041-0.532-0.121-0.759-0.244c-0.011-0.01-0.225-0.15-0.643-0.426
	c-0.825,0.496-1.644,0.744-2.458,0.744c-1.373,0-2.067-0.761-2.088-2.279c0.021-1.144,0.005-2.865-0.044-5.172l0.134-0.134
	c0.456-0.03,0.988-0.08,1.594-0.149l0.15,0.149c0.008,0.354-0.015,0.834-0.075,1.431c-0.06,0.655-0.089,1.113-0.089,1.371
	c-0.02,0.885-0.031,1.52-0.031,1.906c0.012,0.457,0.104,0.836,0.285,1.133c0.178,0.299,0.437,0.447,0.774,0.447
	c0.468,0,1.008-0.253,1.625-0.76c0.009-0.18,0.03-0.592,0.059-1.237c0.021-0.526,0.031-0.942,0.031-1.252
	c0-0.903-0.021-1.872-0.06-2.905l0.134-0.134c0.119-0.011,0.676-0.062,1.669-0.149C64.134,92.943,64.119,95.422,64.208,97.184"/>
<path fill="#FFFFFF" d="M68.859,97.483c-1.033,0-1.836-0.312-2.408-0.938c-0.57-0.627-0.876-1.496-0.916-2.609
	c-0.04-1.271,0.238-2.275,0.835-3.01c0.634-0.776,1.549-1.162,2.741-1.162c1.014,0,1.805,0.322,2.369,0.969
	c0.538,0.615,0.82,1.467,0.852,2.549c0.04,1.28-0.224,2.289-0.791,3.025C70.934,97.09,70.042,97.483,68.859,97.483 M68.992,90.924
	c-1.232,0-1.813,1.039-1.743,3.115c0.019,0.666,0.159,1.203,0.418,1.608c0.287,0.457,0.688,0.688,1.206,0.688
	c1.232,0,1.818-0.951,1.759-2.848C70.572,91.78,70.025,90.924,68.992,90.924"/>
<path fill="#FFFFFF" d="M75.297,91.625c-0.02,1.986-0.004,3.707,0.045,5.156l0.016,0.463c-0.428,0.02-1.009,0.049-1.744,0.088
	c0.06-2.385,0.091-4.23,0.091-5.543c0-1.838-0.045-3.508-0.136-5.008c0.537-0.109,1.139-0.244,1.806-0.402
	C75.342,87.075,75.317,88.825,75.297,91.625"/>
<path fill="#FFFFFF" d="M82.734,94.167c0,1.734,0.005,2.721,0.017,2.959l-0.09,0.283c-0.3-0.02-0.559-0.09-0.774-0.207
	c-0.22-0.117-0.432-0.242-0.641-0.375c-0.646,0.428-1.252,0.643-1.819,0.643c-0.874,0-1.579-0.328-2.116-0.983
	c-0.506-0.616-0.773-1.405-0.806-2.37c-0.05-1.381,0.333-2.453,1.146-3.22c0.746-0.716,1.739-1.071,2.981-1.071
	c0.705,0,1.207,0.078,1.505,0.238c0.396,0.209,0.605,0.605,0.626,1.193c0.009,0.07,0.003,0.488-0.015,1.254
	C82.739,93.347,82.734,93.898,82.734,94.167 M80.618,91.075c-0.785-0.05-1.392,0.19-1.818,0.725
	c-0.427,0.529-0.626,1.277-0.595,2.242c0.019,0.625,0.157,1.127,0.416,1.506c0.259,0.375,0.625,0.564,1.103,0.564
	c0.456,0,0.899-0.193,1.327-0.582c0.03-2.225,0.045-3.566,0.045-4.023c0-0.078-0.045-0.17-0.134-0.274
	C80.871,91.125,80.757,91.075,80.618,91.075"/>
<path fill="#FFFFFF" d="M97.876,92.148c-0.269,1.083-0.641,2.737-1.116,4.963l-0.163,0.164c-0.716,0.021-1.417,0.05-2.103,0.089
	l-0.165-0.179c-0.129-0.925-0.304-2.003-0.521-3.233c-0.357-1.889-0.552-2.916-0.582-3.086c-0.248,0.895-0.616,2.32-1.103,4.278
	c-0.119,0.417-0.287,1.067-0.506,1.95l-0.149,0.181c-0.378,0.011-1.025,0.04-1.938,0.089l-0.163-0.193
	c-0.229-1.172-0.566-2.926-1.014-5.262c-0.198-0.992-0.344-1.703-0.433-2.131c-0.169-0.804-0.348-1.551-0.536-2.234l0.194-0.149
	c0.576-0.021,1.127-0.05,1.654-0.09l0.134,0.194c0.108,0.765,0.287,1.906,0.536,3.428l0.716,3.949
	c0.407-1.49,0.982-3.721,1.729-6.692l0.134-0.164c0.279-0.011,0.814-0.035,1.609-0.071l0.164,0.161
	c0.041,0.627,0.482,2.894,1.327,6.798l0.969-4.248c0.15-0.656,0.352-1.664,0.611-3.025l0.134-0.18
	c0.467-0.01,1.059-0.039,1.771-0.09C98.652,88.814,98.255,90.409,97.876,92.148"/>
<path fill="#FFFFFF" d="M105.464,94.167c0,1.734,0.005,2.721,0.015,2.959l-0.089,0.283c-0.299-0.02-0.558-0.09-0.773-0.207
	c-0.221-0.117-0.435-0.242-0.644-0.375c-0.646,0.428-1.252,0.643-1.817,0.643c-0.876,0-1.579-0.328-2.114-0.983
	c-0.508-0.616-0.777-1.405-0.808-2.37c-0.05-1.381,0.333-2.453,1.147-3.22c0.746-0.716,1.739-1.071,2.98-1.071
	c0.705,0,1.206,0.078,1.507,0.238c0.396,0.209,0.604,0.605,0.626,1.193c0.008,0.07,0.003,0.488-0.017,1.254
	C105.469,93.347,105.464,93.898,105.464,94.167 M103.348,91.075c-0.786-0.05-1.392,0.19-1.819,0.725
	c-0.427,0.529-0.626,1.277-0.595,2.242c0.02,0.625,0.159,1.127,0.418,1.506c0.257,0.375,0.624,0.564,1.102,0.564
	c0.457,0,0.899-0.193,1.327-0.582c0.028-2.225,0.044-3.566,0.044-4.023c0-0.078-0.044-0.17-0.135-0.274
	C103.6,91.125,103.485,91.075,103.348,91.075"/>
<path fill="#FFFFFF" d="M109.1,91.625c-0.021,1.986-0.006,3.707,0.044,5.156l0.017,0.463c-0.428,0.02-1.01,0.049-1.743,0.088
	c0.06-2.385,0.089-4.23,0.089-5.543c0-1.838-0.045-3.508-0.134-5.008c0.536-0.109,1.138-0.244,1.804-0.402
	C109.144,87.075,109.119,88.825,109.1,91.625"/>
<path fill="#FFFFFF" d="M116.7,93.711c0,1.213,0.034,2.326,0.104,3.338l-0.164,0.195c-0.269-0.011-0.521-0.066-0.76-0.172
	c-0.236-0.104-0.473-0.207-0.7-0.307c-0.686,0.428-1.321,0.641-1.908,0.641c-0.914,0-1.645-0.337-2.188-1.011
	c-0.527-0.634-0.801-1.442-0.821-2.425c-0.039-1.408,0.368-2.488,1.223-3.244c0.774-0.684,1.809-1.023,3.101-1.023
	c0.169,0,0.349,0.004,0.538,0.014c0.019-0.982-0.006-1.953-0.075-2.905c0.477-0.101,1.083-0.243,1.817-0.433
	C116.745,88.834,116.69,91.279,116.7,93.711 M114.584,90.924c-0.844,0-1.497,0.257-1.959,0.768c-0.463,0.514-0.68,1.251-0.648,2.215
	c0.01,0.625,0.153,1.133,0.433,1.52c0.287,0.418,0.68,0.627,1.178,0.627c0.507,0,0.982-0.199,1.432-0.596
	c0.039-1.383,0.061-2.888,0.061-4.517C114.868,90.93,114.703,90.924,114.584,90.924"/>
<path fill="#FFFFFF" d="M121.561,97.483c-1.033,0-1.837-0.312-2.409-0.938c-0.569-0.627-0.876-1.496-0.916-2.609
	c-0.039-1.271,0.239-2.275,0.835-3.01c0.636-0.776,1.55-1.162,2.741-1.162c1.016,0,1.806,0.322,2.37,0.969
	c0.538,0.615,0.819,1.467,0.853,2.549c0.038,1.28-0.226,2.289-0.792,3.025C123.636,97.09,122.742,97.483,121.561,97.483
	 M121.693,90.924c-1.231,0-1.812,1.039-1.743,3.115c0.02,0.666,0.159,1.203,0.419,1.608c0.286,0.457,0.688,0.688,1.206,0.688
	c1.232,0,1.817-0.951,1.759-2.848C123.273,91.78,122.727,90.924,121.693,90.924"/>
<path fill="#FFFFFF" d="M130.546,90.879c-0.497,0.09-0.767,0.141-0.804,0.149c-0.278,0.06-0.527,0.173-0.746,0.343
	c-0.418,0.31-0.701,0.82-0.851,1.535c-0.089,0.467-0.134,1.129-0.134,1.982c0,0.734,0.015,1.525,0.045,2.369
	c-0.397,0.011-0.979,0.039-1.745,0.09c0.08-2.674,0.115-4.541,0.104-5.604c-0.011-0.168-0.042-0.716-0.104-1.642
	c0.35-0.087,0.937-0.228,1.76-0.416l-0.029,1.088c0.316-0.417,0.681-0.759,1.089-1.028c0.458-0.297,0.889-0.447,1.297-0.447
	c0.078,0,0.232,0.025,0.461,0.074C130.809,89.693,130.694,90.196,130.546,90.879"/>
<path fill="#FFFFFF" d="M135.554,86.35c0,0.089-0.01,0.285-0.029,0.595h-0.254c-0.229-0.01-0.469,0.054-0.724,0.188
	c-0.253,0.133-0.439,0.311-0.56,0.529c-0.179,0.317-0.259,1.057-0.236,2.221l1.698-0.061c-0.021,0.26-0.046,0.637-0.074,1.133
	l-0.136,0.147c-0.309,0-0.804,0.013-1.488,0.03c-0.021,1.689-0.021,3.154,0,4.396c0,0.328,0.022,0.891,0.073,1.686
	c-0.218,0-0.835,0.045-1.849,0.135c0.09-1.65,0.139-3.701,0.149-6.156c-0.278,0.021-0.532,0.031-0.761,0.031l-0.163-0.164
	c0.021-0.26,0.038-0.562,0.06-0.909l0.207-0.194h0.642c0.069-1.818,0.486-3.025,1.252-3.621c0.526-0.407,1.039-0.61,1.535-0.61
	c0.188,0,0.442,0.015,0.762,0.045C135.599,86.006,135.563,86.202,135.554,86.35"/>
<path fill="#FFFFFF" d="M141.843,93.952c-0.466,0-0.856-0.17-1.168-0.509c-0.313-0.336-0.476-0.729-0.485-1.176
	c0-0.447,0.161-0.83,0.485-1.147c0.321-0.318,0.711-0.479,1.168-0.479c0.468,0,0.857,0.169,1.17,0.5
	c0.313,0.333,0.476,0.723,0.485,1.171c0.009,0.456-0.147,0.845-0.472,1.161C142.705,93.792,142.311,93.952,141.843,93.952"/>
<path fill="#FFFFFF" d="M154.899,91.715c-0.407,0.703-0.975,1.191-1.698,1.461c-0.548,0.209-1.292,0.316-2.235,0.326l-0.433-1.221
	c0.725-0.021,1.246-0.074,1.564-0.164c0.575-0.148,0.988-0.453,1.237-0.91c0.178-0.326,0.262-0.689,0.252-1.088
	c-0.021-1.134-0.655-1.699-1.907-1.699c-0.309,0-0.69,0.025-1.146,0.076c-0.101,3.348-0.109,6.219-0.03,8.612l-0.134,0.164
	c-0.547,0.011-1.129,0.04-1.743,0.09c0.06-1.372,0.094-3.01,0.104-4.919c0.021-2.275,0.005-3.988-0.044-5.141
	c0.366-0.012,0.938-0.035,1.713-0.075c0.665-0.04,1.184-0.06,1.552-0.06c0.954,0,1.719,0.203,2.295,0.61
	c0.705,0.486,1.067,1.246,1.089,2.279C155.342,90.657,155.197,91.208,154.899,91.715"/>
<path fill="#FFFFFF" d="M162.082,94.167c0,1.734,0.005,2.721,0.017,2.959l-0.089,0.283c-0.3-0.02-0.559-0.09-0.774-0.207
	c-0.222-0.117-0.434-0.242-0.643-0.375c-0.646,0.428-1.252,0.643-1.819,0.643c-0.874,0-1.578-0.328-2.115-0.983
	c-0.507-0.616-0.774-1.405-0.806-2.37c-0.05-1.381,0.333-2.453,1.147-3.22c0.745-0.716,1.737-1.071,2.979-1.071
	c0.706,0,1.208,0.078,1.506,0.238c0.396,0.209,0.605,0.605,0.628,1.193c0.009,0.07,0.004,0.488-0.016,1.254
	C162.087,93.347,162.082,93.898,162.082,94.167 M159.966,91.075c-0.784-0.05-1.391,0.19-1.817,0.725
	c-0.427,0.529-0.626,1.277-0.595,2.242c0.019,0.625,0.158,1.127,0.416,1.506c0.259,0.375,0.626,0.564,1.103,0.564
	c0.457,0,0.898-0.193,1.326-0.582c0.03-2.225,0.045-3.566,0.045-4.023c0-0.078-0.045-0.17-0.134-0.274
	C160.22,91.125,160.105,91.075,159.966,91.075"/>
<path fill="#FFFFFF" d="M169.922,93.711c0,1.213,0.035,2.326,0.104,3.338l-0.164,0.195c-0.268-0.011-0.521-0.066-0.76-0.172
	c-0.235-0.104-0.473-0.207-0.7-0.307c-0.686,0.428-1.32,0.641-1.907,0.641c-0.914,0-1.646-0.337-2.189-1.011
	c-0.527-0.634-0.801-1.442-0.821-2.425c-0.039-1.408,0.368-2.488,1.224-3.244c0.773-0.684,1.808-1.023,3.1-1.023
	c0.169,0,0.35,0.004,0.538,0.014c0.019-0.982-0.006-1.953-0.075-2.905c0.478-0.101,1.083-0.243,1.817-0.433
	C169.967,88.834,169.912,91.279,169.922,93.711 M167.806,90.924c-0.844,0-1.497,0.257-1.959,0.768
	c-0.463,0.514-0.679,1.251-0.647,2.215c0.01,0.625,0.152,1.133,0.432,1.52c0.288,0.418,0.68,0.627,1.178,0.627
	c0.507,0,0.983-0.199,1.432-0.596c0.039-1.383,0.061-2.888,0.061-4.517C168.09,90.93,167.925,90.924,167.806,90.924"/>
<path fill="#FFFFFF" d="M174.782,97.483c-1.033,0-1.838-0.312-2.409-0.938c-0.57-0.627-0.876-1.496-0.916-2.609
	c-0.039-1.271,0.238-2.275,0.836-3.01c0.634-0.776,1.548-1.162,2.74-1.162c1.015,0,1.805,0.322,2.369,0.969
	c0.538,0.615,0.819,1.467,0.853,2.549c0.039,1.28-0.226,2.289-0.792,3.025C176.857,97.09,175.964,97.483,174.782,97.483
	 M174.915,90.924c-1.232,0-1.813,1.039-1.743,3.115c0.019,0.666,0.159,1.203,0.418,1.608c0.287,0.457,0.688,0.688,1.206,0.688
	c1.232,0,1.817-0.951,1.759-2.848C176.495,91.78,175.948,90.924,174.915,90.924"/>
<path fill="#FFFFFF" d="M182.739,97.094l-0.133,0.135c-0.18,0.012-0.791,0.07-1.835,0.18l-0.132-0.164
	c-0.775-3.018-1.462-5.455-2.059-7.318c0.625-0.049,1.201-0.108,1.729-0.178l0.178,0.119c0.13,0.565,0.588,2.375,1.371,5.426
	c0.368-1.152,0.886-2.922,1.552-5.307l0.148-0.119c0.417,0.01,0.938,0,1.564-0.029C184.31,92.127,183.515,94.545,182.739,97.094"/>
<path fill="#FFFFFF" d="M191.458,94.167c0,1.734,0.005,2.721,0.015,2.959l-0.088,0.283c-0.299-0.02-0.558-0.09-0.775-0.207
	c-0.22-0.117-0.433-0.242-0.642-0.375c-0.646,0.428-1.252,0.643-1.818,0.643c-0.875,0-1.579-0.328-2.115-0.983
	c-0.507-0.616-0.775-1.405-0.806-2.37c-0.05-1.381,0.333-2.453,1.147-3.22c0.745-0.716,1.738-1.071,2.979-1.071
	c0.706,0,1.207,0.078,1.507,0.238c0.396,0.209,0.604,0.605,0.625,1.193c0.01,0.07,0.005,0.488-0.016,1.254
	C191.463,93.347,191.458,93.898,191.458,94.167 M189.342,91.075c-0.785-0.05-1.391,0.19-1.818,0.725
	c-0.428,0.529-0.627,1.277-0.595,2.242c0.018,0.625,0.159,1.127,0.417,1.506c0.258,0.375,0.624,0.564,1.103,0.564
	c0.456,0,0.898-0.193,1.327-0.582c0.028-2.225,0.043-3.566,0.043-4.023c0-0.078-0.043-0.17-0.134-0.274
	C189.595,91.125,189.48,91.075,189.342,91.075"/>
</svg>
