<?xml version="1.0" encoding="utf-8"?>
<!-- Generator: Adobe Illustrator 16.0.0, SVG Export Plug-In . SVG Version: 6.00 Build 0)  -->
<!DOCTYPE svg PUBLIC "-//W3C//DTD SVG 1.1//EN" "http://www.w3.org/Graphics/SVG/1.1/DTD/svg11.dtd">
<svg version="1.1" id="Layer_1" xmlns="http://www.w3.org/2000/svg" xmlns:xlink="http://www.w3.org/1999/xlink" x="0px" y="0px"
	 width="1000px" height="1000px" viewBox="0 0 1000 1000" enable-background="new 0 0 1000 1000" xml:space="preserve">
<path d="M499.414,466.797l265.625-265.625c18.359-18.359,48.047-18.359,66.211,0l44.141,44.141
	c18.359,18.359,18.359,48.047,0,66.211L687.305,500l188.281,188.281c18.359,18.359,18.359,48.047,0,66.211l-44.141,44.336
	c-18.359,18.359-48.047,18.359-66.211,0L499.609,533.203C481.055,514.844,481.055,485.156,499.414,466.797z M124.414,533.203
	l265.625,265.625c18.359,18.359,48.047,18.359,66.211,0l44.141-44.141c18.359-18.359,18.359-48.047,0-66.211L312.305,500
	l188.281-188.281c18.359-18.359,18.359-48.047,0-66.211l-44.141-44.336c-18.359-18.359-48.047-18.359-66.211,0L124.609,466.797
	C106.055,485.156,106.055,514.844,124.414,533.203L124.414,533.203z"/>
</svg>
