<?xml version="1.0" encoding="utf-8"?>
<!-- Generator: Adobe Illustrator 16.0.0, SVG Export Plug-In . SVG Version: 6.00 Build 0)  -->
<!DOCTYPE svg PUBLIC "-//W3C//DTD SVG 1.1//EN" "http://www.w3.org/Graphics/SVG/1.1/DTD/svg11.dtd">
<svg version="1.1" id="Layer_1" xmlns="http://www.w3.org/2000/svg" xmlns:xlink="http://www.w3.org/1999/xlink" x="0px" y="0px"
	 width="1000px" height="1000px" viewBox="0 0 1000 1000" enable-background="new 0 0 1000 1000" xml:space="preserve">
<path d="M500.586,533.203L234.961,798.828c-18.359,18.359-48.047,18.359-66.211,0l-44.141-44.141
	c-18.359-18.359-18.359-48.047,0-66.211l188.281-188.281L124.609,311.914c-18.359-18.359-18.359-48.047,0-66.211l43.945-44.531
	c18.359-18.359,48.047-18.359,66.211,0l265.625,265.625C518.945,485.156,518.945,514.844,500.586,533.203z M875.586,466.797
	L609.961,201.172c-18.359-18.359-48.047-18.359-66.211,0l-44.141,44.141c-18.359,18.359-18.359,48.047,0,66.211l188.281,188.281
	L499.609,688.086c-18.359,18.359-18.359,48.047,0,66.211l44.141,44.141c18.359,18.359,48.047,18.359,66.211,0l265.625-265.625
	C893.945,514.844,893.945,485.156,875.586,466.797L875.586,466.797z"/>
</svg>
