<?xml version="1.0" encoding="utf-8"?>
<!-- Generator: Adobe Illustrator 26.0.3, SVG Export Plug-In . SVG Version: 6.00 Build 0)  -->
<svg version="1.1" id="Layer_1" xmlns="http://www.w3.org/2000/svg" xmlns:xlink="http://www.w3.org/1999/xlink" x="0px" y="0px"
	 viewBox="0 0 1837.5 1200" style="enable-background:new 0 0 1837.5 1200;" xml:space="preserve">
<style type="text/css">
	.st0{fill:#FFFFFF;}
	.st1{fill:#289BCE;}
	.st2{fill:none;stroke:#FFFFFF;stroke-width:65;stroke-linecap:round;stroke-miterlimit:10;}
</style>
<circle class="st0" cx="568.2" cy="600" r="541.1"/>
<circle class="st0" cx="887.6" cy="600" r="541.1"/>
<circle class="st0" cx="1198.8" cy="600" r="541.1"/>
<circle class="st1" cx="568.2" cy="600" r="494.2"/>
<path class="st2" d="M475.5,893.4c0,0,289.4-289.4,359.2-359.2C965,404,776.6,215.6,646.3,345.9c0,0-295.2,295.2-359.2,359.2
	c-83,83,42.7,208.6,125.7,125.7c63.9-63.9,242.9-242.9,285.5-285.5c58.1-58.1-7.2-123.4-65.3-65.3
	c-42.6,42.6-204.5,204.5-204.5,204.5"/>
<g>
	<path class="st1" d="M1156.5,432.8c-1-24.7-11.9-48.6-30.8-67.5s-42.9-29.8-67.5-30.8c-4.8-0.2-9.6,0-14.4,0.6
		c9.6,17.1,18.2,34.8,25.9,53.1c18.7,44.3,31.4,90.4,37.8,137.8l14.7-14.7C1145.7,487.6,1157.6,460.5,1156.5,432.8z"/>
	<path class="st1" d="M878.6,105.8c-24.3,0-48.1,1.8-71.5,5.1c54,26.4,103,61.4,145.9,104.3c19.4,19.4,37.2,40.1,53.3,61.9
		c20.5-6.6,39.2-8.1,54.5-7.5c41,1.7,80.4,19.4,110.8,49.8c30.5,30.5,48.2,69.8,49.8,110.8c1.3,32.3-6.9,80.5-53.3,127l-55.8,55.8
		c-1.6,68.8-15.9,135.7-42.6,198.8c-27.4,64.8-66.6,123-116.6,173c-42.9,42.9-91.9,77.9-145.9,104.3c23.3,3.4,47.2,5.1,71.5,5.1
		c272.9,0,494.2-221.3,494.2-494.2S1151.6,105.8,878.6,105.8z"/>
</g>
<g>
	<path class="st1" d="M1472.9,432.8c-1-24.7-11.9-48.6-30.8-67.5s-42.9-29.8-67.5-30.8c-4.8-0.2-9.6,0-14.4,0.6
		c9.6,17.1,18.2,34.8,25.9,53.1c18.7,44.3,31.4,90.4,37.8,137.8l14.7-14.7C1462.1,487.6,1474,460.5,1472.9,432.8z"/>
	<path class="st1" d="M1195,105.8c-24.3,0-48.1,1.8-71.5,5.1c54,26.4,103,61.4,145.9,104.3c19.4,19.4,37.2,40.1,53.3,61.9
		c20.5-6.6,39.2-8.1,54.5-7.5c41,1.7,80.4,19.4,110.8,49.8c30.5,30.5,48.2,69.8,49.8,110.8c1.3,32.3-6.9,80.5-53.3,127l-55.8,55.8
		c-1.6,68.8-15.9,135.7-42.6,198.8c-27.4,64.8-66.6,123-116.6,173c-42.9,42.9-91.9,77.9-145.9,104.3c23.3,3.4,47.2,5.1,71.5,5.1
		c272.9,0,494.2-221.3,494.2-494.2S1468,105.8,1195,105.8z"/>
</g>
<path class="st0" d="M1170.5,319.4c-30.5-30.5-69.8-48.2-110.8-49.8c-15-0.6-33.5,0.8-53.6,7.2c13.8,18.6,26.3,38,37.5,58.2
	c4.4-0.5,8.9-0.7,13.4-0.5c24.7,1,48.6,11.9,67.5,30.8c18.9,18.9,29.8,42.9,30.8,67.5c1.1,27.7-10.8,54.8-34.3,78.4l-13.8,13.8
	c3.4,24.7,5.1,49.7,5.1,75c0,4-0.1,8-0.1,11.9l54.7-54.7C1246.2,478,1228.8,377.6,1170.5,319.4z"/>
<path class="st0" d="M1488,319.4c-30.5-30.5-69.8-48.2-110.8-49.8c-15-0.6-33.5,0.8-53.6,7.2c13.8,18.6,26.3,38,37.5,58.2
	c4.4-0.5,8.9-0.7,13.4-0.5c24.7,1,48.6,11.9,67.5,30.8c18.9,18.9,29.8,42.9,30.8,67.5c1.1,27.7-10.8,54.8-34.3,78.4l-13.8,13.8
	c3.4,24.7,5.1,49.7,5.1,75c0,4-0.1,8-0.1,11.9l54.7-54.7C1563.7,478,1546.2,377.6,1488,319.4z"/>
</svg>
