<?xml version="1.0" encoding="utf-8"?>
<!-- Generator: Adobe Illustrator 26.0.3, SVG Export Plug-In . SVG Version: 6.00 Build 0)  -->
<svg version="1.1" id="Layer_1" xmlns="http://www.w3.org/2000/svg" xmlns:xlink="http://www.w3.org/1999/xlink" x="0px" y="0px"
	 viewBox="0 0 1200 1200" style="enable-background:new 0 0 1200 1200;" xml:space="preserve">
<style type="text/css">
	.st0{fill:#FFFFFF;}
	.st1{fill:#289BCE;}
	.st2{fill:none;stroke:#FFFFFF;stroke-width:65;stroke-linecap:round;stroke-miterlimit:10;}
</style>
<path class="st0" d="M600,1172.5c-77.3,0-152.2-15.1-222.9-45c-68.2-28.8-129.4-70.1-182-122.7c-52.6-52.6-93.8-113.8-122.7-182
	c-29.9-70.6-45-145.6-45-222.9c0-77.3,15.1-152.2,45-222.9c28.8-68.2,70.1-129.4,122.7-182c52.6-52.6,113.8-93.8,182-122.7
	c70.6-29.9,145.6-45,222.9-45c77.3,0,152.2,15.1,222.9,45c68.2,28.8,129.4,70.1,182,122.7c52.6,52.6,93.8,113.8,122.7,182
	c29.9,70.6,45,145.6,45,222.9c0,77.3-15.1,152.2-45,222.9c-28.8,68.2-70.1,129.4-122.7,182c-52.6,52.6-113.8,93.8-182,122.7
	C752.2,1157.4,677.3,1172.5,600,1172.5z"/>
<circle class="st1" cx="600" cy="600" r="526.5"/>
<path class="st2" d="M501.2,912.6c0,0,308.3-308.3,382.7-382.7c138.8-138.8-61.9-339.5-200.7-200.7c0,0-314.5,314.5-382.7,382.7
	c-88.4,88.4,45.5,222.3,133.9,133.9c68.1-68.1,258.8-258.8,304.1-304.1c61.9-61.9-7.6-131.4-69.5-69.5
	C623.6,517.6,451.2,690,451.2,690"/>
</svg>
