<?xml version="1.0" encoding="utf-8"?>
<!-- Generator: Adobe Illustrator 24.1.0, SVG Export Plug-In . SVG Version: 6.00 Build 0)  -->
<svg version="1.1" id="Layer_1" xmlns="http://www.w3.org/2000/svg" xmlns:xlink="http://www.w3.org/1999/xlink" x="0px" y="0px"
	 viewBox="0 0 829.7 813.3" style="enable-background:new 0 0 829.7 813.3;" xml:space="preserve">
<style type="text/css">
	.st0{fill:#FFFFFF;}
</style>
<path class="st0" d="M637.7,520.1v152.8l-19.4-19.4c-15.6-15.6-40.9-15.6-56.6,0c-15.6,15.6-15.6,40.9,0,56.6l87.7,87.7
	c7.5,7.5,17.7,11.7,28.3,11.7c10.6,0,20.8-4.2,28.3-11.7l87.7-87.7c7.8-7.8,11.7-18,11.7-28.3c0-10.2-3.9-20.5-11.7-28.3
	c-15.6-15.6-40.9-15.6-56.6,0l-19.4,19.4V520.1c0-22.1-17.9-40-40-40S637.7,498,637.7,520.1z"/>
<path class="st0" d="M576,107.2C576,48.9,455.6,4.9,296,4.9c-159.7,0-280.1,44-280.1,102.4v107.9c0,14,6.9,27.2,19.7,39.1
	c-11,0.7-19.7,8-19.7,16.8v107.9c0,14,6.9,27.2,19.7,39.1c-11,0.7-19.7,8-19.7,16.8v107.9c0,58.4,120.4,102.4,280.1,102.4
	c159.7,0,280.1-44,280.1-102.4V434.9c0-8.8-8.7-16.1-19.7-16.8c12.7-11.9,19.7-25.1,19.7-39.1V271.1c0-8.8-8.7-16.1-19.7-16.8
	c12.7-11.9,19.7-25.1,19.7-39.1V107.2z M532.9,542.7c0,32.4-101.3,68.6-237,68.6c-135.6,0-237-36.2-237-68.6V491
	c48.8,28.3,134.8,46.3,237,46.3s188.2-18,237-46.3V542.7z M59,435c48.8,28.3,134.8,46.3,237,46.3s188.2-18,237-46.3
	c-0.3,32.3-101.6,68.4-237,68.4C160.6,503.5,59.4,467.4,59,435z M532.9,378.9c0,32.4-101.3,68.6-237,68.6S59,411.3,59,378.9v-51.8
	c48.8,28.3,134.8,46.3,237,46.3s188.2-18,237-46.3V378.9z M59,271.2c48.8,28.3,134.8,46.3,237,46.3s188.2-18,237-46.3
	c-0.4,32.3-101.6,68.4-237,68.4S59.4,303.6,59,271.2z M532.9,215.1c0,32.4-101.3,68.6-237,68.6c-135.6,0-237-36.2-237-68.6v-51.8
	c48.8,28.3,134.8,46.3,237,46.3s188.2-18,237-46.3V215.1z M296,175.8c-135.6,0-237-36.2-237-68.6c0-32.4,101.3-68.6,237-68.6
	s237,36.2,237,68.6S431.6,175.8,296,175.8z"/>
</svg>
