<?xml version="1.0" encoding="utf-8"?>
<!-- Generator: Adobe Illustrator 26.0.3, SVG Export Plug-In . SVG Version: 6.00 Build 0)  -->
<svg version="1.1" id="Layer_1" xmlns="http://www.w3.org/2000/svg" xmlns:xlink="http://www.w3.org/1999/xlink" x="0px" y="0px"
	 viewBox="0 0 1000 1000" style="enable-background:new 0 0 1000 1000;" xml:space="preserve">
<g id="Layer_2_1_">
</g>
<path d="M805.7,497.9c-15.1,0-27.4-12.3-27.4-27.4c0-37.7-5.2-72-15.4-101.9c-8-23.3-19-43.9-32.8-61.4
	c-21.9-27.7-43.5-38.1-43.7-38.2c-13.8-6.1-20.1-22.3-13.9-36.2c6.1-13.8,22.3-20.1,36.2-13.9c3.4,1.5,34.1,15.9,64.5,54.4
	c17.6,22.4,31.6,48.5,41.6,77.6c12.2,35.6,18.4,75.9,18.4,119.6C833.1,485.7,820.8,497.9,805.7,497.9z"/>
<path d="M418.3,726.7c10.2,36.5,43.8,63.3,83.5,63.3s73.3-26.8,83.5-63.3H418.3z"/>
<g>
	<path d="M506.4,327l24.6,5.1c15.4,3.2,37.2,10.6,53.5,28.1c18,19.2,27.1,48.5,27.1,86.9c0,33.5,2,62,6.2,87.1
		c4,24.3,10,44.9,18.1,62.9c7.1,15.8,15.4,28.1,23.6,37.9h-153h-0.3h-153c8.2-9.8,16.4-22.2,23.6-37.9c8.2-18.1,14.1-38.7,18.1-62.9
		c4.2-25.2,6.2-53.7,6.2-87.1c0-38.4,9.1-67.6,27.1-86.9c16.3-17.5,38.1-24.9,53.5-28.1L506.4,327 M506.4,213.3
		c-20.3,0-36.7,16.5-36.7,36.7v23.2c-56.1,11.6-128.5,53-128.5,173.7c0,150-45.2,156.9-67.4,179.1c-15.9,15.9-23,68.9,44.4,68.9
		c65.6,0,181.9,0,188,0c0.2,0,0.3,0,0.3,0c6.1,0,122.5,0,188,0c67.4,0,60.3-53,44.4-68.9c-22.2-22.2-67.4-29.1-67.4-179.1
		c0-120.8-72.4-162.2-128.5-173.7v-23.2C543.2,229.8,526.7,213.3,506.4,213.3L506.4,213.3z"/>
</g>
<path d="M207.2,497.9c15.1,0,27.4-12.3,27.4-27.4c0-37.7,5.2-72,15.4-101.9c8-23.3,19-43.9,32.8-61.4c21.9-27.7,43.5-38.1,43.7-38.2
	c13.8-6.1,20.1-22.3,13.9-36.2c-6.1-13.8-22.3-20.1-36.2-13.9c-3.4,1.5-34.1,15.9-64.5,54.4c-17.6,22.4-31.6,48.5-41.6,77.6
	c-12.2,35.6-18.4,75.9-18.4,119.6C179.8,485.7,192.1,497.9,207.2,497.9z"/>
</svg>
