<?xml version="1.0" encoding="utf-8"?>
<!-- Generator: Adobe Illustrator 16.0.0, SVG Export Plug-In . SVG Version: 6.00 Build 0)  -->
<!DOCTYPE svg PUBLIC "-//W3C//DTD SVG 1.1//EN" "http://www.w3.org/Graphics/SVG/1.1/DTD/svg11.dtd">
<svg version="1.1" id="Layer_1" xmlns="http://www.w3.org/2000/svg" xmlns:xlink="http://www.w3.org/1999/xlink" x="0px" y="0px"
	 width="1000px" height="1000px" viewBox="0 0 1000 1000" enable-background="new 0 0 1000 1000" xml:space="preserve">
<path d="M914.062,312.5H85.938c-12.943,0-23.438-10.494-23.438-23.438V218.75c0-51.777,41.973-93.75,93.75-93.75H250V23.438
	C250,10.494,260.494,0,273.438,0h78.125C364.506,0,375,10.494,375,23.438V125h250V23.438C625,10.494,635.494,0,648.438,0h78.125
	C739.506,0,750,10.494,750,23.438V125h93.75c51.777,0,93.75,41.973,93.75,93.75v70.312C937.5,302.006,927.006,312.5,914.062,312.5z"
	/>
<path d="M914.062,375H85.938C72.994,375,62.5,385.494,62.5,398.438V906.25c0,51.777,41.973,93.75,93.75,93.75h687.5
	c51.777,0,93.75-41.973,93.75-93.75V398.438C937.5,385.494,927.006,375,914.062,375z M550.85,938.052h-101.4v-101.4h101.4V938.052z
	 M646.017,624.854c-10.221,19.291-28.236,39.486-55.077,61.745c-29.028,24.072-37.422,36.442-39.842,41.673
	c-2.441,5.277-6.537,19.041-6.537,51.955v20h-92.715v-20c0-40.649,4.897-70.26,14.97-90.521
	c9.893-19.903,27.046-40.056,52.441-61.605c27.565-23.389,35.812-34.625,38.274-39.241c4.059-7.614,6.033-15.46,6.033-23.982
	c0-17.521-5.484-31.415-16.766-42.478c-11.394-11.165-26.311-16.595-45.601-16.595c-37.828,0-57.779,20.255-64.69,65.675
	l-2.585,16.991h-97.411l1.895-21.736c3.837-44.032,20.846-79.678,50.555-105.946c29.503-26.085,67.063-39.312,111.638-39.312
	c46.878,0,85.644,12.978,115.222,38.571c30.424,26.332,45.85,60.291,45.85,100.935C661.67,583.75,656.403,605.239,646.017,624.854z"
	/>
</svg>
