<?xml version="1.0" encoding="utf-8"?>
<!-- Generator: Adobe Illustrator 16.0.0, SVG Export Plug-In . SVG Version: 6.00 Build 0)  -->
<!DOCTYPE svg PUBLIC "-//W3C//DTD SVG 1.1//EN" "http://www.w3.org/Graphics/SVG/1.1/DTD/svg11.dtd">
<svg version="1.1" id="Layer_1" xmlns="http://www.w3.org/2000/svg" xmlns:xlink="http://www.w3.org/1999/xlink" x="0px" y="0px"
	 width="1200px" height="1200px" viewBox="0 0 1200 1200" enable-background="new 0 0 1200 1200" xml:space="preserve">
<circle fill="#FFFFFF" cx="600" cy="600" r="572.5"/>
<path fill="#33CC33" d="M600,115.625c-267.578,0-484.375,216.797-484.375,484.375S332.422,1084.375,600,1084.375
	S1084.375,867.578,1084.375,600S867.578,115.625,600,115.625z M881.25,654.688c0,12.891-10.547,23.438-23.438,23.438H678.125
	v179.688c0,12.891-10.547,23.438-23.438,23.438H545.312c-12.891,0-23.438-10.547-23.438-23.438V678.125H342.188
	c-12.891,0-23.438-10.547-23.438-23.438V545.312c0-12.891,10.547-23.438,23.438-23.438h179.688V342.188
	c0-12.891,10.547-23.438,23.438-23.438h109.375c12.891,0,23.438,10.547,23.438,23.438v179.688h179.688
	c12.891,0,23.438,10.547,23.438,23.438V654.688z"/>
</svg>
