<?xml version="1.0" encoding="utf-8"?>
<!-- Generator: Adobe Illustrator 25.2.3, SVG Export Plug-In . SVG Version: 6.00 Build 0)  -->
<svg version="1.1" id="Layer_1" xmlns="http://www.w3.org/2000/svg" xmlns:xlink="http://www.w3.org/1999/xlink" x="0px" y="0px"
	 viewBox="0 0 1200 1200" style="enable-background:new 0 0 1200 1200;" xml:space="preserve">
<style type="text/css">
	.st0{fill:#FFFFFF;}
	.st1{fill:#289BCE;}
</style>
<circle class="st0" cx="600" cy="600" r="572.5"/>
<path class="st1" d="M600,115.6c-267.6,0-484.4,216.8-484.4,484.4s216.8,484.4,484.4,484.4s484.4-216.8,484.4-484.4
	S867.6,115.6,600,115.6z M881.2,654.7c0,12.9-10.5,23.4-23.4,23.4H678.1v179.7c0,12.9-10.5,23.4-23.4,23.4H545.3
	c-12.9,0-23.4-10.5-23.4-23.4V678.1H342.2c-12.9,0-23.4-10.5-23.4-23.4V545.3c0-12.9,10.5-23.4,23.4-23.4h179.7V342.2
	c0-12.9,10.5-23.4,23.4-23.4h109.4c12.9,0,23.4,10.5,23.4,23.4v179.7h179.7c12.9,0,23.4,10.5,23.4,23.4L881.2,654.7L881.2,654.7z"/>
</svg>
