<?xml version="1.0" encoding="utf-8"?>
<!-- Generator: Adobe Illustrator 16.0.0, SVG Export Plug-In . SVG Version: 6.00 Build 0)  -->
<!DOCTYPE svg PUBLIC "-//W3C//DTD SVG 1.1//EN" "http://www.w3.org/Graphics/SVG/1.1/DTD/svg11.dtd">
<svg version="1.1" id="Layer_1" xmlns="http://www.w3.org/2000/svg" xmlns:xlink="http://www.w3.org/1999/xlink" x="0px" y="0px"
	 width="512px" height="512px" viewBox="0 0 512 512" enable-background="new 0 0 512 512" xml:space="preserve">
<path fill="#F7B545" d="M467.242,120.676c-6.664-1.949-13.805,0.723-17.551,6.562L358.949,268.84L269.633,75.648
	c-2.555-5.531-8.094-9.07-14.184-9.07s-11.625,3.539-14.184,9.07L151.949,268.84L61.207,127.238
	c-3.746-5.84-10.891-8.512-17.551-6.562s-11.234,8.055-11.234,14.996v309.906c0,8.629,6.996,15.625,15.629,15.625h414.797
	c8.633,0,15.629-6.996,15.629-15.625V135.672C478.477,128.734,473.902,122.625,467.242,120.676z"/>
<path fill="#FECB5B" d="M255.449,66.578c-6.094,0-11.625,3.539-14.184,9.07L151.949,268.84L61.207,127.238
	c-3.746-5.84-10.891-8.512-17.551-6.562s-11.234,8.055-11.234,14.996v309.906c0,8.629,6.996,15.625,15.629,15.625H256V66.598
	C255.816,66.59,255.633,66.578,255.449,66.578z"/>
<path fill="#F9CB7A" d="M32.422,375.352v70.227c0,8.629,6.996,15.629,15.629,15.629h414.797c8.633,0,15.629-7,15.629-15.629v-70.227
	H32.422z"/>
<path fill="#FBE0AF" d="M32.422,375.352v70.227c0,8.629,6.996,15.629,15.629,15.629H256v-85.855H32.422z"/>
<path fill="#F7B545" d="M467.492,53.926c-24.543,0-44.512,19.965-44.512,44.508s19.969,44.508,44.512,44.508S512,122.977,512,98.434
	S492.035,53.926,467.492,53.926z"/>
<path fill="#F7B545" d="M255.449,1c-24.543,0-44.508,19.965-44.508,44.508s19.965,44.512,44.508,44.512s44.508-19.969,44.508-44.512
	S279.992,1,255.449,1z"/>
<g>
	<path fill="#FECB5B" d="M255.449,1c-24.543,0-44.508,19.965-44.508,44.508s19.965,44.512,44.508,44.512
		c0.184,0,0.367-0.012,0.551-0.016V1.016C255.816,1.012,255.633,1,255.449,1z"/>
	<path fill="#FECB5B" d="M44.508,53.926C19.965,53.926,0,73.891,0,98.434s19.965,44.508,44.508,44.508S89.02,122.977,89.02,98.434
		C89.016,73.891,69.051,53.926,44.508,53.926z"/>
</g>
</svg>
