<?xml version="1.0" encoding="utf-8"?>
<!-- Generator: Adobe Illustrator 16.0.0, SVG Export Plug-In . SVG Version: 6.00 Build 0)  -->
<!DOCTYPE svg PUBLIC "-//W3C//DTD SVG 1.1//EN" "http://www.w3.org/Graphics/SVG/1.1/DTD/svg11.dtd">
<svg version="1.1" id="Layer_1" xmlns="http://www.w3.org/2000/svg" xmlns:xlink="http://www.w3.org/1999/xlink" x="0px" y="0px"
	 width="554px" height="541.5px" viewBox="-15.5 -29.5 554 541.5" enable-background="new -15.5 -29.5 554 541.5"
	 xml:space="preserve">
<g>
	<path fill="#4F4F4F" d="M472.742,120.676c-6.664-1.949-13.806,0.723-17.551,6.562L364.449,268.84L275.133,75.648
		c-2.555-5.531-8.094-9.07-14.184-9.07c-6.09,0-11.625,3.539-14.184,9.07L157.449,268.84L66.707,127.238
		c-3.746-5.84-10.891-8.512-17.551-6.562c-6.66,1.95-11.234,8.055-11.234,14.996v309.906c0,8.629,6.996,15.625,15.629,15.625
		h414.797c8.634,0,15.63-6.996,15.63-15.625V135.672C483.978,128.734,479.402,122.625,472.742,120.676z"/>
	<path fill="#AFAFAF" d="M260.949,66.578c-6.094,0-11.625,3.539-14.184,9.07L157.449,268.84L66.707,127.238
		c-3.746-5.84-10.891-8.512-17.551-6.562c-6.66,1.95-11.234,8.055-11.234,14.996v309.906c0,8.629,6.996,15.625,15.629,15.625H261.5
		V66.598C261.316,66.59,261.133,66.578,260.949,66.578z"/>
	<path fill="#7F7F7F" d="M37.922,375.353v70.227c0,8.629,6.996,15.629,15.629,15.629h414.797c8.634,0,15.63-7,15.63-15.629v-70.227
		H37.922z"/>
	<path fill="#E2E2E2" d="M37.922,375.353v70.227c0,8.629,6.996,15.629,15.629,15.629H261.5v-85.855H37.922L37.922,375.353z"/>
	<path fill="#4F4F4F" d="M472.992,53.926c-24.543,0-44.513,19.965-44.513,44.508s19.97,44.508,44.513,44.508
		S517.5,122.977,517.5,98.434S497.535,53.926,472.992,53.926z"/>
	<path fill="#4F4F4F" d="M260.949,1c-24.543,0-44.508,19.965-44.508,44.508s19.965,44.512,44.508,44.512
		s44.508-19.969,44.508-44.512S285.492,1,260.949,1z"/>
	<g>
		<path fill="#AFAFAF" d="M260.949,1c-24.543,0-44.508,19.965-44.508,44.508s19.965,44.512,44.508,44.512
			c0.184,0,0.367-0.012,0.551-0.016V1.016C261.316,1.012,261.133,1,260.949,1z"/>
		<path fill="#AFAFAF" d="M50.008,53.926C25.465,53.926,5.5,73.891,5.5,98.434s19.965,44.508,44.508,44.508
			S94.52,122.977,94.52,98.434C94.516,73.891,74.551,53.926,50.008,53.926z"/>
	</g>
</g>
<path fill="#FFFFFF" d="M517.5,98.434c0-24.543-19.965-44.508-44.508-44.508s-44.513,19.965-44.513,44.508
	c0,15.906,8.394,29.881,20.978,37.752L364.449,268.84L279.828,85.805c15.128-7.117,25.629-22.501,25.629-40.297
	C305.457,20.965,285.492,1,260.949,1s-44.508,19.965-44.508,44.508c0,17.796,10.501,33.18,25.628,40.297l-84.62,183.035
	L72.753,136.673c13.022-7.774,21.767-22.001,21.767-38.239c-0.004-24.543-19.969-44.508-44.512-44.508S5.5,73.891,5.5,98.434
	c0,20.354,13.736,37.546,32.422,42.827v234.092v70.226v0.001c0,8.629,6.996,15.629,15.629,15.629H261.5h206.848
	c8.634,0,15.63-7,15.63-15.629v-0.001v-70.226V141.567C503.225,136.664,517.5,119.187,517.5,98.434z"/>
</svg>
