<?xml version="1.0" encoding="utf-8"?>
<!-- Generator: Adobe Illustrator 26.0.3, SVG Export Plug-In . SVG Version: 6.00 Build 0)  -->
<svg version="1.1" id="Layer_1" xmlns="http://www.w3.org/2000/svg" xmlns:xlink="http://www.w3.org/1999/xlink" x="0px" y="0px"
	 viewBox="0 0 1000 1000" style="enable-background:new 0 0 1000 1000;" xml:space="preserve">
<style type="text/css">
	.st0{fill:#008000;}
</style>
<path d="M703.2,758c96-67.3,158.8-178.7,158.8-304.9c0-205.5-166.6-372-372-372s-372,166.6-372,372c0,126.1,62.8,237.6,158.8,304.9
	c-29.2,17.1-75.9,46.8-84.8,67.1c-13.1,30.1-20.6,93.8,24.4,93.8s273.7,0,273.7,0s228.7,0,273.7,0s37.5-63.7,24.4-93.8
	C779.2,804.8,732.4,775.1,703.2,758z M490,720.2c-147.5,0-267-119.6-267-267.1S342.5,186,490,186s267.1,119.6,267.1,267.1
	S637.5,720.2,490,720.2z"/>
<path class="st0" d="M490,250.7c-111.8,0-202.4,90.6-202.4,202.4S378.2,655.5,490,655.5s202.4-90.6,202.4-202.4
	S601.8,250.7,490,250.7z M490,345.1c-59.5,0-108,48.4-108,108c0,13.8-11.2,25-25,25s-25-11.2-25-25c0-87.1,70.9-158,158-158
	c13.8,0,25,11.2,25,25S503.8,345.1,490,345.1z"/>
</svg>
