<?xml version="1.0" encoding="utf-8"?>
<!-- Generator: Adobe Illustrator 26.0.3, SVG Export Plug-In . SVG Version: 6.00 Build 0)  -->
<svg version="1.1" id="Layer_1" xmlns="http://www.w3.org/2000/svg" xmlns:xlink="http://www.w3.org/1999/xlink" x="0px" y="0px"
	 viewBox="0 0 1200 1200" style="enable-background:new 0 0 1200 1200;" xml:space="preserve">
<style type="text/css">
	.st0{display:none;}
	.st1{display:inline;}
	.st2{fill:none;stroke:#7F7F7F;stroke-width:120;stroke-linejoin:round;stroke-miterlimit:10;}
	.st3{fill:none;stroke:#7F7F7F;stroke-width:120;stroke-miterlimit:10;}
	.st4{fill:none;stroke:#7F7F7F;stroke-width:60;stroke-linejoin:round;stroke-miterlimit:10;}
</style>
<g id="Layer_1_00000079456004200663790380000008733623115356178362_" class="st0">
	<path class="st1" d="M693.8,475v62.5c0,12.9-10.5,23.4-23.4,23.4H561v109.4c0,12.9-10.5,23.4-23.4,23.4H475
		c-12.9,0-23.4-10.5-23.4-23.4V560.9H342.2c-12.9,0-23.4-10.5-23.4-23.4V475c0-12.9,10.5-23.4,23.4-23.4h109.4V342.1
		c0-12.9,10.5-23.4,23.4-23.4h62.5c12.9,0,23.4,10.5,23.4,23.4v109.4h109.4C683.2,451.5,693.8,462.1,693.8,475z M1086.4,1031
		l-55.3,55.3c-18.4,18.4-48,18.4-66.2,0l-195-194.7c-8.8-8.8-13.7-20.7-13.7-33.2v-31.8c-68.9,53.9-155.7,85.9-250,85.9
		C281.9,912.5,100,730.6,100,506.2S281.9,100,506.3,100s406.2,181.8,406.2,406.2c0,94.3-32,181.1-85.9,250h31.8
		c12.5,0,24.4,4.9,33.2,13.7l194.7,194.7C1104.5,983,1104.5,1012.6,1086.4,1031z M771.9,506.2c0-146.9-118.8-265.6-265.6-265.6
		S240.6,359.3,240.6,506.2s118.8,265.6,265.6,265.6S771.9,653.1,771.9,506.2z"/>
</g>
<g id="Layer_2_00000106116676172593218940000013258647013159732382_">
	<path class="st2" d="M1054,955.3H146c-46.9,0-84.8-38-84.8-84.8V180.1c0-46.9,38-84.8,84.8-84.8h908c46.9,0,84.8,38,84.8,84.8
		v690.4C1138.9,917.3,1100.9,955.3,1054,955.3z"/>
	<rect x="448.1" y="1006.2" class="st3" width="303.9" height="39.2"/>
	<line class="st3" x1="97" y1="1140.1" x2="1103" y2="1140.1"/>
</g>
<line class="st2" x1="639.7" y1="120" x2="347.7" y2="938.4"/>
<line class="st4" x1="838.3" y1="120" x2="546.3" y2="938.4"/>
</svg>
