<?xml version="1.0" encoding="utf-8"?>
<!-- Generator: Adobe Illustrator 26.0.3, SVG Export Plug-In . SVG Version: 6.00 Build 0)  -->
<svg version="1.1" xmlns="http://www.w3.org/2000/svg" xmlns:xlink="http://www.w3.org/1999/xlink" x="0px" y="0px"
	 viewBox="0 0 1200 1200" style="enable-background:new 0 0 1200 1200;" xml:space="preserve">
<style type="text/css">
	.st0{display:none;}
	.st1{display:inline;}
	.st2{fill:none;stroke:#000000;stroke-width:120;stroke-linejoin:round;stroke-miterlimit:10;}
	.st3{fill:none;stroke:#000000;stroke-width:120;stroke-miterlimit:10;}
	.st4{fill:#E52320;}
</style>
<g id="Layer_1" class="st0">
	<path class="st1" d="M693.8,475v62.5c0,12.9-10.5,23.4-23.4,23.4H561v109.4c0,12.9-10.5,23.4-23.4,23.4H475
		c-12.9,0-23.4-10.5-23.4-23.4V560.9H342.2c-12.9,0-23.4-10.5-23.4-23.4V475c0-12.9,10.5-23.4,23.4-23.4h109.4V342.1
		c0-12.9,10.5-23.4,23.4-23.4h62.5c12.9,0,23.4,10.5,23.4,23.4v109.4h109.4C683.2,451.5,693.8,462.1,693.8,475z M1086.4,1031
		l-55.3,55.3c-18.4,18.4-48,18.4-66.2,0L769.9,891.6c-8.8-8.8-13.7-20.7-13.7-33.2v-31.8c-68.9,53.9-155.7,85.9-250,85.9
		C281.9,912.5,100,730.6,100,506.2S281.9,100,506.3,100s406.2,181.8,406.2,406.2c0,94.3-32,181.1-85.9,250h31.8
		c12.5,0,24.4,4.9,33.2,13.7l194.7,194.7C1104.5,983,1104.5,1012.6,1086.4,1031z M771.9,506.2c0-146.9-118.8-265.6-265.6-265.6
		S240.6,359.3,240.6,506.2s118.8,265.6,265.6,265.6S771.9,653.1,771.9,506.2z"/>
</g>
<g id="Layer_2">
	<path class="st2" d="M1054,955.3H146c-46.9,0-84.8-38-84.8-84.8V180.1c0-46.9,38-84.8,84.8-84.8H1054c46.9,0,84.8,38,84.8,84.8
		v690.4C1138.9,917.3,1100.9,955.3,1054,955.3z"/>
	<path d="M494.8,617.2c-114.3,0-207.3-93-207.3-207.3c0-114.3,93-207.3,207.3-207.3S702,295.7,702,410
		C702,524.2,609,617.2,494.8,617.2z M494.8,280.6c-71.3,0-129.4,58-129.4,129.4s58,129.4,129.4,129.4s129.4-58,129.4-129.4
		S566.1,280.6,494.8,280.6z"/>
	<path d="M722.6,847.8l-2.8-5.5C674.3,750.7,588,693.8,494.7,693.8c-93.3,0-179.5,56.9-225.1,148.5l-2.8,5.5h-84.6l5.6-13.8
		c16.5-40.7,39.5-77.5,68.5-109.5c63.5-70,148.1-108.6,238.4-108.6c90.3,0,175,38.6,238.4,108.6c29,32,52,68.8,68.5,109.5l5.6,13.8
		H722.6z"/>
	<rect x="448.1" y="1006.2" class="st3" width="303.9" height="39.2"/>
	<line class="st3" x1="97" y1="1140.1" x2="1103" y2="1140.1"/>
	<path d="M494.7,779.4L494.7,779.4c-7.8,0-15.1-3.9-19.4-10.3l-42.6-63.1c-4.9-7.2-5.4-16.5-1.3-24.2c4.1-7.7,12-12.5,20.7-12.5
		h85.3c8.7,0,16.7,4.8,20.7,12.5c4.1,7.7,3.6,17-1.3,24.2l-42.7,63.1C509.8,775.5,502.5,779.4,494.7,779.4z"/>
	<path d="M533.8,847.8l-17.1-76.8c-2.3-10.3-11.4-17.6-21.9-17.6h0c-10.5,0-19.6,7.3-21.9,17.6l-17.2,76.8H533.8z"/>
	<circle class="st4" cx="895.7" cy="291.2" r="88.4"/>
</g>
</svg>
