<?xml version="1.0" encoding="utf-8"?>
<!-- Generator: Adobe Illustrator 26.0.3, SVG Export Plug-In . SVG Version: 6.00 Build 0)  -->
<svg version="1.1" id="Layer_1" xmlns="http://www.w3.org/2000/svg" xmlns:xlink="http://www.w3.org/1999/xlink" x="0px" y="0px"
	 viewBox="0 0 1000 1000" style="enable-background:new 0 0 1000 1000;" xml:space="preserve">
<style type="text/css">
	.st0{fill:#878787;}
</style>
<path class="st0" d="M936,986.5c-9.6,0-19.2-3.7-26.5-11L52,118c-14.6-14.6-14.6-38.4,0-53c14.6-14.6,38.4-14.6,53,0l857.5,857.5
	c14.6,14.6,14.6,38.4,0,53C955.1,982.8,945.5,986.5,936,986.5z"/>
<g>
	<path class="st0" d="M258.2,320.4C304.3,240.1,390.8,186,490,186c147.5,0,267.1,119.6,267.1,267.1c0,99.2-54.1,185.7-134.3,231.8
		l174.4,174.4c-1.6-12.7-5.1-25-9.1-34.2c-8.9-20.4-55.6-50.1-84.8-67.1c96-67.3,158.8-178.7,158.8-304.9c0-205.5-166.6-372-372-372
		c-128.1,0-241,64.7-307.9,163.2L258.2,320.4z"/>
	<path class="st0" d="M546,714.3c-18.1,3.9-36.8,5.9-56,5.9C342.5,720.2,223,600.6,223,453.1c0-19.2,2-37.9,5.9-56l-83.7-83.7
		c-17.5,43.1-27.1,90.3-27.1,139.7c0,126.1,62.8,237.6,158.8,304.9c-29.2,17.1-75.9,46.8-84.8,67.1c-13.1,30.1-20.6,93.8,24.4,93.8
		c45,0,273.7,0,273.7,0s195.8,0,260.7,0L546,714.3z"/>
</g>
<g>
	<path class="st0" d="M340.4,402.5c21.1-62.4,80.2-107.4,149.7-107.4c13.8,0,25,11.2,25,25s-11.2,25-25,25
		c-56.7,0-103.3,43.9-107.6,99.4L574.8,637c69.5-32.1,117.7-102.3,117.7-183.9c0-111.8-90.6-202.4-202.4-202.4
		c-81.5,0-151.8,48.2-183.9,117.7L340.4,402.5z"/>
	<path class="st0" d="M287.6,455.9c1.5,109.6,90,198.2,199.6,199.6L287.6,455.9z"/>
</g>
</svg>
