<?xml version="1.0" encoding="utf-8"?>
<!-- Generator: Adobe Illustrator 25.4.1, SVG Export Plug-In . SVG Version: 6.00 Build 0)  -->
<svg version="1.1" id="Layer_1" xmlns="http://www.w3.org/2000/svg" xmlns:xlink="http://www.w3.org/1999/xlink" x="0px" y="0px"
	 viewBox="0 0 1471.9 1000" style="enable-background:new 0 0 1471.9 1000;" xml:space="preserve">
<g id="Layer_2_1_">
</g>
<path d="M298,313.7c-19.4,0-35.2-15.8-35.2-35.2v-136c0-19.4,15.8-35.2,35.2-35.2h398c19.4,0,35.2,15.8,35.2,35.2v136
	c0,19.4-15.8,35.2-35.2,35.2H298z M660.8,243.3v-65.5H333.2v65.5L660.8,243.3L660.8,243.3z"/>
<g>
	<path d="M298,893.5c-20.4,0-37-16.6-37-37v-390c0-20.4,16.6-37,37-37h398c20.4,0,37,16.6,37,37v390c0,20.4-16.6,37-37,37H298z
		 M659,819.5v-316H335v316H659z"/>
	<path d="M382,652.1c-14.7,0-26.7-14.9-26.7-33.1s12-33.1,26.7-33.1h228c14.7,0,26.7,14.9,26.7,33.1s-12,33.1-26.7,33.1H382z"/>
	<path d="M382,757.1c-14.7,0-26.7-14.9-26.7-33.1s12-33.1,26.7-33.1h228c14.7,0,26.7,14.9,26.7,33.1s-12,33.1-26.7,33.1H382z"/>
</g>
<path d="M832.8,585.9h-64.7v66.2h64.7c14.7,0,26.7-14.9,26.7-33.1S847.6,585.9,832.8,585.9z"/>
<path d="M918.8,429.5H768.1v74h113.7v316H768.1v74h150.7c20.4,0,37-16.6,37-37v-390C955.8,446.1,939.2,429.5,918.8,429.5z"/>
<path d="M832.8,690.9h-64.7v66.2h64.7c14.7,0,26.7-14.9,26.7-33.1S847.6,690.9,832.8,690.9z"/>
<path d="M1055.6,585.9h-64.7v66.2h64.7c14.7,0,26.7-14.9,26.7-33.1S1070.4,585.9,1055.6,585.9z"/>
<path d="M1141.6,429.5H990.9v74h113.7v316H990.9v74h150.7c20.4,0,37-16.6,37-37v-390C1178.6,446.1,1162,429.5,1141.6,429.5z"/>
<path d="M1055.6,690.9h-64.7v66.2h64.7c14.7,0,26.7-14.9,26.7-33.1S1070.4,690.9,1055.6,690.9z"/>
<path d="M1278.5,585.9h-64.7v66.2h64.7c14.7,0,26.7-14.9,26.7-33.1S1293.2,585.9,1278.5,585.9z"/>
<path d="M1364.5,429.5h-150.7v74h113.7v316h-113.7v74h150.7c20.4,0,37-16.6,37-37v-390C1401.5,446.1,1384.9,429.5,1364.5,429.5z"/>
<path d="M1278.5,690.9h-64.7v66.2h64.7c14.7,0,26.7-14.9,26.7-33.1S1293.2,690.9,1278.5,690.9z"/>
<path d="M660.8,595.6V429.5H298c-20.4,0-37,16.6-37,37v80.8H139.2V319.7h721.5v73.9h74V282.7c0-20.4-16.6-37-37-37H102.2
	c-20.4,0-37,16.6-37,37v301.5c0,20.4,16.6,37,37,37H298c20.4,0,37-16.6,37-37v-80.8h324v80.8C659,588.2,659.6,592,660.8,595.6z"/>
</svg>
