<?xml version="1.0" encoding="utf-8"?>
<!-- Generator: Adobe Illustrator 25.4.1, SVG Export Plug-In . SVG Version: 6.00 Build 0)  -->
<svg version="1.1" id="Layer_1" xmlns="http://www.w3.org/2000/svg" xmlns:xlink="http://www.w3.org/1999/xlink" x="0px" y="0px"
	 viewBox="0 0 1000 1000" style="enable-background:new 0 0 1000 1000;" xml:space="preserve">
<g id="Layer_2_1_">
</g>
<path d="M298,313.7c-19.4,0-35.2-15.8-35.2-35.2v-136c0-19.4,15.8-35.2,35.2-35.2h398c19.4,0,35.2,15.8,35.2,35.2v136
	c0,19.4-15.8,35.2-35.2,35.2H298z M660.8,243.3v-65.5H333.2v65.5L660.8,243.3L660.8,243.3z"/>
<path d="M298,305.2c-14.7,0-26.7-12-26.7-26.7v-136c0-14.7,12-26.7,26.7-26.7h398c14.7,0,26.7,12,26.7,26.7v136
	c0,14.7-12,26.7-26.7,26.7H298z M669.3,251.8v-82.5H324.7v82.5H669.3z"/>
<path d="M696,296.7H298c-10.1,0-18.2-8.2-18.2-18.2v-136c0-10.1,8.2-18.2,18.2-18.2h398c10.1,0,18.2,8.2,18.2,18.2v136
	C714.2,288.6,706.1,296.7,696,296.7z M316.2,260.3h361.5v-99.5H316.2V260.3z"/>
<path d="M298,893.5c-20.4,0-37-16.6-37-37v-390c0-20.4,16.6-37,37-37h398c20.4,0,37,16.6,37,37v390c0,20.4-16.6,37-37,37H298z
	 M659,819.5v-316H335v316H659z"/>
<path d="M298,885c-15.7,0-28.5-12.8-28.5-28.5v-390c0-15.7,12.8-28.5,28.5-28.5h398c15.7,0,28.5,12.8,28.5,28.5v390
	c0,15.7-12.8,28.5-28.5,28.5H298z M667.5,828V495h-341v333H667.5z"/>
<path d="M696,876.5H298c-11,0-20-9-20-20v-390c0-11,9-20,20-20h398c11,0,20,9,20,20v390C716,867.5,707,876.5,696,876.5z M318,836.5
	h358v-350H318L318,836.5L318,836.5z"/>
<path d="M696,621.3c-20.4,0-37-16.6-37-37v-80.8H335v80.8c0,20.4-16.6,37-37,37H102.2c-20.4,0-37-16.6-37-37V282.7
	c0-20.4,16.6-37,37-37h795.5c20.4,0,37,16.6,37,37v301.5c0,20.4-16.6,37-37,37L696,621.3L696,621.3z M860.8,547.3V319.7H139.2v227.5
	H261v-80.8c0-20.4,16.6-37,37-37h398c20.4,0,37,16.6,37,37v80.8H860.8z"/>
<path d="M897.8,254.2H102.2c-15.7,0-28.5,12.8-28.5,28.5v301.5c0,15.7,12.8,28.5,28.5,28.5H298c15.7,0,28.5-12.8,28.5-28.5V495h341
	v89.3c0,15.7,12.8,28.5,28.5,28.5h201.8c15.7,0,28.5-12.8,28.5-28.5V282.7C926.3,267,913.5,254.2,897.8,254.2z M269.5,466.5v89.3
	H130.7V311.2h738.5v244.5H724.5v-89.3c0-15.7-12.8-28.5-28.5-28.5H298C282.3,438,269.5,450.8,269.5,466.5z"/>
</svg>
