<?xml version="1.0" encoding="utf-8"?>
<!-- Generator: Adobe Illustrator 16.0.0, SVG Export Plug-In . SVG Version: 6.00 Build 0)  -->
<!DOCTYPE svg PUBLIC "-//W3C//DTD SVG 1.1//EN" "http://www.w3.org/Graphics/SVG/1.1/DTD/svg11.dtd">
<svg version="1.1" id="Layer_1" xmlns="http://www.w3.org/2000/svg" xmlns:xlink="http://www.w3.org/1999/xlink" x="0px" y="0px"
	 width="1000px" height="1000px" viewBox="0 0 1000 1000" enable-background="new 0 0 1000 1000" xml:space="preserve">
<g id="Layer_2_1_">
</g>
<g>
	<path d="M298.001,313.74c-19.432,0-35.24-15.809-35.24-35.24v-136c0-19.431,15.809-35.24,35.24-35.24h398
		c19.432,0,35.24,15.809,35.24,35.24v136c0,19.431-15.809,35.24-35.24,35.24H298.001z M660.76,243.26V177.74H333.24v65.521H660.76z"
		/>
	<path d="M298.001,305.236c-14.743,0-26.736-11.994-26.736-26.736v-136c0-14.742,11.994-26.736,26.736-26.736h398
		c14.742,0,26.736,11.994,26.736,26.736v136c0,14.742-11.994,26.736-26.736,26.736H298.001z M669.264,251.764v-82.528H324.736
		v82.528H669.264z"/>
	<path d="M696,296.732h-398c-10.069,0-18.232-8.163-18.232-18.232v-136c0-10.069,8.163-18.232,18.232-18.232h398
		c10.068,0,18.232,8.163,18.232,18.232v136C714.233,288.569,706.069,296.732,696,296.732z M316.232,260.268h361.536v-99.536H316.232
		V260.268z"/>
	<path d="M298.001,893.508c-20.406,0-37.008-16.602-37.008-37.008v-390c0-20.406,16.602-37.008,37.008-37.008h398
		c20.406,0,37.008,16.602,37.008,37.008v390c0,20.406-16.602,37.008-37.008,37.008H298.001z M658.992,819.492V503.508H335.009
		v315.984H658.992z"/>
	<path d="M298.001,885.004c-15.717,0-28.504-12.787-28.504-28.504v-390c0-15.717,12.787-28.504,28.504-28.504h398
		c15.717,0,28.504,12.787,28.504,28.504v390c0,15.717-12.787,28.504-28.504,28.504H298.001z M667.496,827.996V495.004H326.505
		v332.992H667.496z"/>
	<path d="M696,876.5h-398c-11.046,0-20-8.954-20-20v-390c0-11.046,8.954-20,20-20h398c11.047,0,20,8.954,20,20v390
		C716,867.546,707.047,876.5,696,876.5z M318.001,836.5h358v-350h-358V836.5z"/>
	<path d="M696,621.275c-20.406,0-37.008-16.602-37.008-37.008v-80.76H335.009v80.76c0,20.406-16.602,37.008-37.008,37.008H102.232
		c-20.406,0-37.008-16.602-37.008-37.008V282.732c0-20.406,16.602-37.008,37.008-37.008h795.536
		c20.406,0,37.008,16.602,37.008,37.008v301.536c0,20.406-16.602,37.008-37.008,37.008H696z M860.76,547.26V319.74H139.24v227.52
		h121.753V466.5c0-20.406,16.602-37.008,37.008-37.008h398c20.406,0,37.008,16.602,37.008,37.008v80.76H860.76z"/>
	<path d="M897.768,254.228H102.232c-15.717,0-28.504,12.787-28.504,28.504v301.536c0,15.717,12.787,28.504,28.504,28.504h195.769
		c15.717,0,28.504-12.787,28.504-28.504v-89.264h340.992v89.264c0,15.717,12.787,28.504,28.504,28.504h201.768
		c15.717,0,28.504-12.787,28.504-28.504V282.732C926.272,267.015,913.485,254.228,897.768,254.228z M269.497,466.5v89.264H130.736
		V311.236h738.528v244.528h-144.76V466.5c0-15.717-12.787-28.504-28.504-28.504h-398C282.283,437.996,269.497,450.783,269.497,466.5
		z"/>
	<path d="M382.001,652.11c-14.743,0-26.736-14.856-26.736-33.116s11.994-33.116,26.736-33.116h228
		c14.742,0,26.736,14.856,26.736,33.116S624.742,652.11,610,652.11H382.001z"/>
	<path d="M382.001,757.121c-14.743,0-26.736-14.856-26.736-33.116s11.994-33.116,26.736-33.116h228
		c14.742,0,26.736,14.856,26.736,33.116S624.742,757.121,610,757.121H382.001z"/>
</g>
</svg>
