<?xml version="1.0" encoding="utf-8"?>
<!-- Generator: Adobe Illustrator 16.0.0, SVG Export Plug-In . SVG Version: 6.00 Build 0)  -->
<!DOCTYPE svg PUBLIC "-//W3C//DTD SVG 1.1//EN" "http://www.w3.org/Graphics/SVG/1.1/DTD/svg11.dtd">
<svg version="1.1" id="Layer_1" xmlns="http://www.w3.org/2000/svg" xmlns:xlink="http://www.w3.org/1999/xlink" x="0px" y="0px"
	 width="1200px" height="1200px" viewBox="0 0 1200 1200" enable-background="new 0 0 1200 1200" xml:space="preserve">
<path fill="#003399" d="M1081.055,472.656c7.617-6.055,18.945-0.391,18.945,9.18V881.25c0,51.758-41.992,93.75-93.75,93.75h-812.5
	c-51.758,0-93.75-41.992-93.75-93.75V482.031c0-9.766,11.133-15.234,18.945-9.18c43.75,33.984,101.758,77.148,300.977,221.875
	c41.211,30.078,110.742,93.359,180.078,92.969c69.727,0.586,140.625-64.062,180.273-92.969
	C979.492,550,1037.305,506.641,1081.055,472.656z M600,725c45.312,0.781,110.547-57.031,143.359-80.859
	c259.18-188.086,278.906-204.492,338.672-251.367c11.328-8.789,17.969-22.461,17.969-36.914V318.75
	c0-51.758-41.992-93.75-93.75-93.75h-812.5c-51.758,0-93.75,41.992-93.75,93.75v37.109c0,14.453,6.641,27.93,17.969,36.914
	c59.766,46.68,79.492,63.281,338.672,251.367C489.453,667.969,554.688,725.781,600,725L600,725z"/>
</svg>
