<?xml version="1.0" encoding="utf-8"?>
<!-- Generator: Adobe Illustrator 26.0.2, SVG Export Plug-In . SVG Version: 6.00 Build 0)  -->
<svg version="1.1" id="Layer_1" xmlns="http://www.w3.org/2000/svg" xmlns:xlink="http://www.w3.org/1999/xlink" x="0px" y="0px"
	 viewBox="0 0 1200 1200" style="enable-background:new 0 0 1200 1200;" xml:space="preserve">
<style type="text/css">
	.st0{fill:#FFFFFF;}
</style>
<path class="st0" d="M1006.2,225H193.8c-51.8,0-93.8,42-93.8,93.8v562.5c0,51.8,42,93.8,93.8,93.8h812.5c51.8,0,93.8-42,93.8-93.8
	V318.8C1100,267,1058,225,1006.2,225z M1006.2,318.8v79.7c-43.8,35.7-113.6,91.1-262.9,208c-32.9,25.9-98,88-143.4,87.3
	c-45.3,0.7-110.5-61.4-143.4-87.3c-149.2-116.9-219.1-172.3-262.9-208v-79.7H1006.2z M193.8,881.2V518.7
	c44.8,35.6,108.2,85.7,205,161.4c42.7,33.6,117.4,107.8,201.3,107.3c83.4,0.5,157.2-72.7,201.3-107.3
	c96.7-75.7,160.2-125.8,205-161.4v362.5H193.8z"/>
</svg>
