<?xml version="1.0" encoding="utf-8"?>
<!-- Generator: Adobe Illustrator 16.0.0, SVG Export Plug-In . SVG Version: 6.00 Build 0)  -->
<!DOCTYPE svg PUBLIC "-//W3C//DTD SVG 1.1//EN" "http://www.w3.org/Graphics/SVG/1.1/DTD/svg11.dtd">
<svg version="1.1" id="Layer_1" xmlns="http://www.w3.org/2000/svg" xmlns:xlink="http://www.w3.org/1999/xlink" x="0px" y="0px"
	 width="1200px" height="1200px" viewBox="0 0 1200 1200" enable-background="new 0 0 1200 1200" xml:space="preserve">
<path d="M1006.25,225h-812.5c-51.777,0-93.75,41.973-93.75,93.75v562.5c0,51.777,41.973,93.75,93.75,93.75h812.5
	c51.777,0,93.75-41.973,93.75-93.75v-562.5C1100,266.973,1058.027,225,1006.25,225z M1006.25,318.75v79.697
	c-43.793,35.662-113.609,91.115-262.865,207.988c-32.893,25.873-98.049,88.031-143.385,87.307
	c-45.328,0.732-110.506-61.443-143.385-87.307C307.383,489.58,237.549,434.115,193.75,398.447V318.75H1006.25z M193.75,881.25
	V518.746c44.754,35.646,108.221,85.668,204.957,161.418C441.396,713.768,516.156,787.949,600,787.498
	c83.432,0.451,157.244-72.654,201.275-107.318c96.734-75.748,160.219-125.783,204.975-161.432V881.25H193.75z"/>
</svg>
