<?xml version="1.0" encoding="utf-8"?>
<!-- Generator: Adobe Illustrator 16.0.0, SVG Export Plug-In . SVG Version: 6.00 Build 0)  -->
<!DOCTYPE svg PUBLIC "-//W3C//DTD SVG 1.1//EN" "http://www.w3.org/Graphics/SVG/1.1/DTD/svg11.dtd">
<svg version="1.1" id="Layer_1" xmlns="http://www.w3.org/2000/svg" xmlns:xlink="http://www.w3.org/1999/xlink" x="0px" y="0px"
	 width="1000px" height="1000px" viewBox="0 0 1000 1000" enable-background="new 0 0 1000 1000" xml:space="preserve">
<path fill="#FFFFFF" d="M972.541,535.041c36.611-36.611,36.611-95.971,0-132.582l-312.5-312.5
	c-36.611-36.611-95.969-36.613-132.584,0l-500,500c-36.611,36.611-36.611,95.971,0,132.582l187.5,187.5
	c17.583,17.581,41.429,27.459,66.293,27.459h695.312c12.943,0,23.438-10.494,23.438-23.438v-78.125
	c0-12.943-10.494-23.438-23.438-23.438H695.084L972.541,535.041L972.541,535.041z M381.473,412.723l268.307,268.307L518.307,812.5
	H294.195l-156.25-156.25L381.473,412.723L381.473,412.723z"/>
</svg>
