<?xml version="1.0" encoding="utf-8"?>
<!-- Generator: Adobe Illustrator 16.0.0, SVG Export Plug-In . SVG Version: 6.00 Build 0)  -->
<!DOCTYPE svg PUBLIC "-//W3C//DTD SVG 1.1//EN" "http://www.w3.org/Graphics/SVG/1.1/DTD/svg11.dtd">
<svg version="1.1" id="Capa_1" xmlns="http://www.w3.org/2000/svg" xmlns:xlink="http://www.w3.org/1999/xlink" x="0px" y="0px"
	 width="1000px" height="1000px" viewBox="0 0 1000 1000" enable-background="new 0 0 1000 1000" xml:space="preserve">
<g>
	<g>
		<path fill="#606060" d="M332.531,788.818c20.801-23.895,33.441-55.07,33.441-89.164c0-74.986-61.004-135.99-135.99-135.99
			c-28.225,0-54.465,8.648-76.219,23.426c-3.188-19.627-4.811-39.559-4.811-59.643c0-96.189,36.801-187.242,103.621-256.393
			c49.625-51.355,111.855-86.58,179.889-102.672l-45.199,54.43l45.182,37.52l115.949-139.629l-154.764-86.66l-28.691,51.242
			l48.656,27.246c-76.811,19.205-147.018,59.523-203.252,117.715C132.885,310.404,90.227,415.951,90.227,527.449
			c0,39.453,5.375,78.428,15.957,116.043c-7.805,17.133-12.189,36.141-12.189,56.164c0,34.162,12.689,65.396,33.564,89.309
			C53.889,816.34,1.254,887.354,1.254,970.438v29.363h457.955v-29.363C459.213,887.207,406.402,816.09,332.531,788.818z
			 M229.984,622.393c42.604,0,77.262,34.66,77.262,77.262s-34.66,77.262-77.264,77.262c-42.602,0-77.26-34.66-77.26-77.262
			S187.383,622.393,229.984,622.393z M63.207,941.07c13.436-60.254,67.326-105.424,131.568-105.424h70.92
			c64.242,0,118.133,45.172,131.568,105.424H63.207z"/>
	</g>
</g>
<g>
	<g>
		<path fill="#606060" d="M998.744,406.77c0-83.225-52.812-154.346-126.68-181.617c20.801-23.893,33.441-55.07,33.441-89.164
			C905.506,61.004,844.502,0,769.516,0s-135.99,61.004-135.99,135.988c0,34.162,12.689,65.396,33.566,89.309
			c-73.67,27.375-126.303,98.389-126.303,181.475v29.363H876.08c7.229,29.086,10.891,59.051,10.891,89.357
			c0,88.682-31.916,174.396-89.871,241.359c-41.58,48.043-94.543,84.264-153.34,105.611l38.707-60.562l-49.482-31.627
			l-97.742,152.93L699.557,1000l22.119-54.404l-50.717-20.617c65.291-25.043,124.068-65.992,170.549-119.695
			c67.189-77.633,104.193-176.998,104.193-279.793c0-30.195-3.146-60.111-9.361-89.357h62.406V406.77H998.744z M769.516,58.729
			c42.604,0,77.262,34.66,77.262,77.26c0,42.604-34.66,77.262-77.262,77.262s-77.262-34.66-77.262-77.262
			S726.912,58.729,769.516,58.729z M602.74,377.406c13.436-60.256,67.326-105.426,131.568-105.426h70.92
			c64.242,0,118.133,45.172,131.568,105.426H602.74z"/>
	</g>
</g>
</svg>
