<?xml version="1.0" encoding="utf-8"?>
<!-- Generator: Adobe Illustrator 16.0.0, SVG Export Plug-In . SVG Version: 6.00 Build 0)  -->
<!DOCTYPE svg PUBLIC "-//W3C//DTD SVG 1.1//EN" "http://www.w3.org/Graphics/SVG/1.1/DTD/svg11.dtd">
<svg version="1.1" id="Layer_1" xmlns="http://www.w3.org/2000/svg" xmlns:xlink="http://www.w3.org/1999/xlink" x="0px" y="0px"
	 width="1000px" height="1000px" viewBox="0 0 1000 1000" enable-background="new 0 0 1000 1000" xml:space="preserve">
<path fill="#686868" d="M602.763,444.297c-7.289,0-13.306-4.021-16.095-10.754c-2.79-6.734-1.378-13.832,3.776-18.987l55.008-55.008
	l-7.543-7.063c-37.489-35.104-86.467-54.436-137.911-54.436h-0.181c-3.823,0.004-7.705,0.122-11.598,0.354
	c-18.29-25.365-42.724-45.712-70.684-59.095c26.547-8.412,54.183-12.662,82.464-12.662c70.683,0,137.743,26.886,188.828,75.707
	l7.067,6.754l47.72-47.72c4.263-4.262,8.944-5.157,12.12-5.157c8.662,0,17.621,6.537,17.621,17.477v153.169
	c0,9.606-7.815,17.422-17.423,17.422H602.763z"/>
<path fill="#686868" d="M500.001,773.357c-70.681,0-137.742-26.887-188.829-75.708l-7.068-6.754l-47.719,47.719
	c-4.263,4.263-8.944,5.158-12.121,5.158c-8.661,0-17.619-6.538-17.619-17.478v-153.17c0-9.606,7.815-17.422,17.421-17.422h153.17
	c7.29,0,13.307,4.021,16.096,10.754c2.79,6.734,1.378,13.832-3.776,18.986l-55.009,55.009l7.543,7.063
	c37.489,35.104,86.465,54.436,137.908,54.436h0.189c28.015-0.026,55.991-6.001,81.625-17.362
	c7.304,22.969,19.211,44.255,35.009,62.594c-2.364,1.124-4.714,2.2-7.042,3.223c-2.998,1.158-5.931,2.389-8.724,3.658
	C568.899,766.866,534.901,773.357,500.001,773.357z"/>
<path fill="none" stroke="#686868" stroke-width="30" stroke-miterlimit="10" d="M254.539,251.507
	c65.823,0,119.17-53.348,119.17-119.169c0-65.822-53.347-119.17-119.17-119.17c-65.822,0-119.169,53.348-119.169,119.17
	C135.37,198.16,188.716,251.507,254.539,251.507z"/>
<path fill="none" stroke="#686868" stroke-width="30" stroke-miterlimit="10" d="M337.958,281.3H322.41
	c-20.669,9.496-43.664,14.896-67.871,14.896c-24.206,0-47.109-5.399-67.87-14.896h-15.548c-69.081,0-125.128,56.047-125.128,125.128
	v38.73c0,24.672,20.017,44.688,44.688,44.688h327.715c24.673,0,44.688-20.016,44.688-44.688v-38.73
	C463.085,337.347,407.039,281.3,337.958,281.3z"/>
<path fill="none" stroke="#686868" stroke-width="30" stroke-miterlimit="10" d="M752.588,749.558
	c65.824,0,119.17-53.348,119.17-119.169s-53.346-119.17-119.17-119.17c-65.822,0-119.168,53.349-119.168,119.17
	S686.766,749.558,752.588,749.558z"/>
<path fill="none" stroke="#686868" stroke-width="30" stroke-miterlimit="10" d="M836.008,779.351h-15.549
	c-20.668,9.496-43.664,14.896-67.871,14.896c-24.205,0-47.109-5.399-67.869-14.896H669.17c-69.08,0-125.127,56.048-125.127,125.128
	v38.73c0,24.672,20.016,44.688,44.688,44.688h327.718c24.672,0,44.688-20.016,44.688-44.688v-38.73
	C961.135,835.396,905.088,779.351,836.008,779.351z"/>
</svg>
