<?xml version="1.0" encoding="utf-8"?>
<!-- Generator: Adobe Illustrator 16.0.0, SVG Export Plug-In . SVG Version: 6.00 Build 0)  -->
<!DOCTYPE svg PUBLIC "-//W3C//DTD SVG 1.1//EN" "http://www.w3.org/Graphics/SVG/1.1/DTD/svg11.dtd">
<svg version="1.1" id="Capa_1" xmlns="http://www.w3.org/2000/svg" xmlns:xlink="http://www.w3.org/1999/xlink" x="0px" y="0px"
	 width="1000px" height="1000px" viewBox="0 0 1000 1000" enable-background="new 0 0 1000 1000" xml:space="preserve">
<path fill="#919191" d="M343.563,486.532c65.823,0,119.17-53.348,119.17-119.169c0-65.822-53.347-119.17-119.17-119.17
	c-65.822,0-119.169,53.348-119.169,119.17C224.395,433.185,277.741,486.532,343.563,486.532z M426.982,516.325h-15.548
	c-20.669,9.496-43.664,14.896-67.871,14.896c-24.206,0-47.109-5.399-67.87-14.896h-15.548c-69.081,0-125.128,56.047-125.128,125.128
	v38.73c0,24.672,20.017,44.688,44.688,44.688h327.716c24.672,0,44.688-20.016,44.688-44.688v-38.73
	C552.11,572.372,496.063,516.325,426.982,516.325z"/>
<g>
	<path fill="#919191" d="M643.639,673.361c-12.889-12.887-12.889-33.785,0-46.674l123.049-123.049
		c12.889-12.888,33.785-12.888,46.675,0.002l0,0c12.888,12.887,12.888,33.785-0.001,46.672L690.313,673.361
		C677.425,686.25,656.527,686.25,643.639,673.361L643.639,673.361z"/>
	<path fill="#919191" d="M643.016,379.705c12.889-12.889,33.785-12.889,46.674,0l123.049,123.049
		c12.889,12.889,12.889,33.785-0.001,46.676l0,0c-12.888,12.887-33.784,12.887-46.673-0.002L643.016,426.378
		C630.127,413.491,630.127,392.593,643.016,379.705L643.016,379.705z"/>
</g>
</svg>
