<?xml version="1.0" encoding="utf-8"?>
<!-- Generator: Adobe Illustrator 25.4.1, SVG Export Plug-In . SVG Version: 6.00 Build 0)  -->
<svg version="1.1" id="Layer_1" xmlns="http://www.w3.org/2000/svg" xmlns:xlink="http://www.w3.org/1999/xlink" x="0px" y="0px"
	 viewBox="0 0 500 500" style="enable-background:new 0 0 500 500;" xml:space="preserve">
<style type="text/css">
	.st0{fill:#ED2024;}
</style>
<circle class="st0" cx="33.1" cy="200.2" r="4.1"/>
<circle class="st0" cx="44.5" cy="200.2" r="4.1"/>
<circle class="st0" cx="55.9" cy="200.2" r="4.1"/>
<circle class="st0" cx="67.3" cy="200.2" r="4.1"/>
<circle class="st0" cx="78.7" cy="200.2" r="4.1"/>
<circle class="st0" cx="90.1" cy="200.2" r="4.1"/>
<circle class="st0" cx="44.5" cy="210.6" r="4.1"/>
<circle class="st0" cx="55.9" cy="210.6" r="4.1"/>
<circle class="st0" cx="67.3" cy="210.6" r="4.1"/>
<circle class="st0" cx="78.7" cy="210.6" r="4.1"/>
<circle class="st0" cx="90.1" cy="210.6" r="4.1"/>
<circle class="st0" cx="101.5" cy="210.6" r="4.1"/>
<circle class="st0" cx="55.9" cy="221" r="4.1"/>
<circle class="st0" cx="67.3" cy="221" r="4.1"/>
<circle class="st0" cx="78.7" cy="221" r="4.1"/>
<circle class="st0" cx="90.1" cy="221" r="4.1"/>
<circle class="st0" cx="101.5" cy="221" r="4.1"/>
<circle class="st0" cx="112.9" cy="221" r="4.1"/>
<circle class="st0" cx="67.3" cy="231.5" r="4.1"/>
<circle class="st0" cx="78.7" cy="231.5" r="4.1"/>
<circle class="st0" cx="90.1" cy="231.5" r="4.1"/>
<circle class="st0" cx="101.5" cy="231.5" r="4.1"/>
<circle class="st0" cx="112.9" cy="231.5" r="4.1"/>
<circle class="st0" cx="124.3" cy="231.5" r="4.1"/>
<circle class="st0" cx="78.7" cy="241.9" r="4.1"/>
<circle class="st0" cx="90.1" cy="241.9" r="4.1"/>
<circle class="st0" cx="101.5" cy="241.9" r="4.1"/>
<circle class="st0" cx="112.9" cy="241.9" r="4.1"/>
<circle class="st0" cx="124.3" cy="241.9" r="4.1"/>
<circle class="st0" cx="135.7" cy="241.9" r="4.1"/>
<circle class="st0" cx="90.1" cy="252.3" r="4.1"/>
<circle class="st0" cx="101.5" cy="252.3" r="4.1"/>
<circle class="st0" cx="112.9" cy="252.3" r="4.1"/>
<circle class="st0" cx="124.3" cy="252.3" r="4.1"/>
<circle class="st0" cx="135.7" cy="252.3" r="4.1"/>
<circle class="st0" cx="147.1" cy="252.3" r="4.1"/>
<circle class="st0" cx="101.5" cy="262.8" r="4.1"/>
<circle class="st0" cx="112.9" cy="262.8" r="4.1"/>
<circle class="st0" cx="124.3" cy="262.8" r="4.1"/>
<circle class="st0" cx="135.7" cy="262.8" r="4.1"/>
<circle class="st0" cx="147.1" cy="262.8" r="4.1"/>
<circle class="st0" cx="158.5" cy="262.8" r="4.1"/>
<circle class="st0" cx="90.1" cy="273.2" r="4.1"/>
<circle class="st0" cx="101.5" cy="273.2" r="4.1"/>
<circle class="st0" cx="112.9" cy="273.2" r="4.1"/>
<circle class="st0" cx="124.3" cy="273.2" r="4.1"/>
<circle class="st0" cx="135.7" cy="273.2" r="4.1"/>
<circle class="st0" cx="147.1" cy="273.2" r="4.1"/>
<circle class="st0" cx="78.7" cy="283.6" r="4.1"/>
<circle class="st0" cx="90.1" cy="283.6" r="4.1"/>
<circle class="st0" cx="101.5" cy="283.6" r="4.1"/>
<circle class="st0" cx="112.9" cy="283.6" r="4.1"/>
<circle class="st0" cx="124.3" cy="283.6" r="4.1"/>
<circle class="st0" cx="135.7" cy="283.6" r="4.1"/>
<circle class="st0" cx="67.3" cy="294.1" r="4.1"/>
<circle class="st0" cx="78.7" cy="294.1" r="4.1"/>
<circle class="st0" cx="90.1" cy="294.1" r="4.1"/>
<circle class="st0" cx="101.5" cy="294.1" r="4.1"/>
<circle class="st0" cx="112.9" cy="294.1" r="4.1"/>
<circle class="st0" cx="124.3" cy="294.1" r="4.1"/>
<circle class="st0" cx="55.9" cy="304.5" r="4.1"/>
<circle class="st0" cx="67.3" cy="304.5" r="4.1"/>
<circle class="st0" cx="78.7" cy="304.5" r="4.1"/>
<circle class="st0" cx="90.1" cy="304.5" r="4.1"/>
<circle class="st0" cx="101.5" cy="304.5" r="4.1"/>
<circle class="st0" cx="112.9" cy="304.5" r="4.1"/>
<circle class="st0" cx="44.5" cy="315" r="4.1"/>
<circle class="st0" cx="55.9" cy="315" r="4.1"/>
<circle class="st0" cx="67.3" cy="315" r="4.1"/>
<circle class="st0" cx="78.7" cy="315" r="4.1"/>
<circle class="st0" cx="90.1" cy="315" r="4.1"/>
<circle class="st0" cx="101.5" cy="315" r="4.1"/>
<circle class="st0" cx="33.1" cy="325.4" r="4.1"/>
<circle class="st0" cx="44.5" cy="325.4" r="4.1"/>
<circle class="st0" cx="55.9" cy="325.4" r="4.1"/>
<circle class="st0" cx="67.3" cy="325.4" r="4.1"/>
<circle class="st0" cx="78.7" cy="325.4" r="4.1"/>
<circle class="st0" cx="90.1" cy="325.4" r="4.1"/>
<circle class="st0" cx="139.8" cy="200.2" r="4.1"/>
<circle class="st0" cx="151.2" cy="200.2" r="4.1"/>
<circle class="st0" cx="162.6" cy="200.2" r="4.1"/>
<circle class="st0" cx="174" cy="200.2" r="4.1"/>
<circle class="st0" cx="185.4" cy="200.2" r="4.1"/>
<circle class="st0" cx="196.8" cy="200.2" r="4.1"/>
<circle class="st0" cx="151.2" cy="210.6" r="4.1"/>
<circle class="st0" cx="162.6" cy="210.6" r="4.1"/>
<circle class="st0" cx="174" cy="210.6" r="4.1"/>
<circle class="st0" cx="185.4" cy="210.6" r="4.1"/>
<circle class="st0" cx="196.8" cy="210.6" r="4.1"/>
<circle class="st0" cx="208.2" cy="210.6" r="4.1"/>
<circle class="st0" cx="162.6" cy="221" r="4.1"/>
<circle class="st0" cx="174" cy="221" r="4.1"/>
<circle class="st0" cx="185.4" cy="221" r="4.1"/>
<circle class="st0" cx="196.8" cy="221" r="4.1"/>
<circle class="st0" cx="208.2" cy="221" r="4.1"/>
<circle class="st0" cx="219.6" cy="221" r="4.1"/>
<circle class="st0" cx="174" cy="231.5" r="4.1"/>
<circle class="st0" cx="185.4" cy="231.5" r="4.1"/>
<circle class="st0" cx="196.8" cy="231.5" r="4.1"/>
<circle class="st0" cx="208.2" cy="231.5" r="4.1"/>
<circle class="st0" cx="219.6" cy="231.5" r="4.1"/>
<circle class="st0" cx="231" cy="231.5" r="4.1"/>
<circle class="st0" cx="185.4" cy="241.9" r="4.1"/>
<circle class="st0" cx="196.8" cy="241.9" r="4.1"/>
<circle class="st0" cx="208.2" cy="241.9" r="4.1"/>
<circle class="st0" cx="219.6" cy="241.9" r="4.1"/>
<circle class="st0" cx="231" cy="241.9" r="4.1"/>
<circle class="st0" cx="242.4" cy="241.9" r="4.1"/>
<circle class="st0" cx="196.8" cy="252.3" r="4.1"/>
<circle class="st0" cx="208.2" cy="252.3" r="4.1"/>
<circle class="st0" cx="219.6" cy="252.3" r="4.1"/>
<circle class="st0" cx="231" cy="252.3" r="4.1"/>
<circle class="st0" cx="242.4" cy="252.3" r="4.1"/>
<circle class="st0" cx="253.8" cy="252.3" r="4.1"/>
<circle class="st0" cx="208.2" cy="262.8" r="4.1"/>
<circle class="st0" cx="219.6" cy="262.8" r="4.1"/>
<circle class="st0" cx="231" cy="262.8" r="4.1"/>
<circle class="st0" cx="242.4" cy="262.8" r="4.1"/>
<circle class="st0" cx="253.8" cy="262.8" r="4.1"/>
<circle class="st0" cx="265.2" cy="262.8" r="4.1"/>
<circle class="st0" cx="196.8" cy="273.2" r="4.1"/>
<circle class="st0" cx="208.2" cy="273.2" r="4.1"/>
<circle class="st0" cx="219.6" cy="273.2" r="4.1"/>
<circle class="st0" cx="231" cy="273.2" r="4.1"/>
<circle class="st0" cx="242.4" cy="273.2" r="4.1"/>
<circle class="st0" cx="253.8" cy="273.2" r="4.1"/>
<circle class="st0" cx="185.4" cy="283.6" r="4.1"/>
<circle class="st0" cx="196.8" cy="283.6" r="4.1"/>
<circle class="st0" cx="208.2" cy="283.6" r="4.1"/>
<circle class="st0" cx="219.6" cy="283.6" r="4.1"/>
<circle class="st0" cx="231" cy="283.6" r="4.1"/>
<circle class="st0" cx="242.4" cy="283.6" r="4.1"/>
<circle class="st0" cx="174" cy="294.1" r="4.1"/>
<circle class="st0" cx="185.4" cy="294.1" r="4.1"/>
<circle class="st0" cx="196.8" cy="294.1" r="4.1"/>
<circle class="st0" cx="208.2" cy="294.1" r="4.1"/>
<circle class="st0" cx="219.6" cy="294.1" r="4.1"/>
<circle class="st0" cx="231" cy="294.1" r="4.1"/>
<circle class="st0" cx="162.6" cy="304.5" r="4.1"/>
<circle class="st0" cx="174" cy="304.5" r="4.1"/>
<circle class="st0" cx="185.4" cy="304.5" r="4.1"/>
<circle class="st0" cx="196.8" cy="304.5" r="4.1"/>
<circle class="st0" cx="208.2" cy="304.5" r="4.1"/>
<circle class="st0" cx="219.6" cy="304.5" r="4.1"/>
<circle class="st0" cx="151.2" cy="315" r="4.1"/>
<circle class="st0" cx="162.6" cy="315" r="4.1"/>
<circle class="st0" cx="174" cy="315" r="4.1"/>
<circle class="st0" cx="185.4" cy="315" r="4.1"/>
<circle class="st0" cx="196.8" cy="315" r="4.1"/>
<circle class="st0" cx="208.2" cy="315" r="4.1"/>
<circle class="st0" cx="139.8" cy="325.4" r="4.1"/>
<circle class="st0" cx="151.2" cy="325.4" r="4.1"/>
<circle class="st0" cx="162.6" cy="325.4" r="4.1"/>
<circle class="st0" cx="174" cy="325.4" r="4.1"/>
<circle class="st0" cx="185.4" cy="325.4" r="4.1"/>
<circle class="st0" cx="196.8" cy="325.4" r="4.1"/>
<circle class="st0" cx="246.5" cy="200.2" r="4.1"/>
<circle class="st0" cx="257.9" cy="200.2" r="4.1"/>
<circle class="st0" cx="269.3" cy="200.2" r="4.1"/>
<circle class="st0" cx="280.7" cy="200.2" r="4.1"/>
<circle class="st0" cx="292.1" cy="200.2" r="4.1"/>
<circle class="st0" cx="303.5" cy="200.2" r="4.1"/>
<circle class="st0" cx="257.9" cy="210.6" r="4.1"/>
<circle class="st0" cx="269.3" cy="210.6" r="4.1"/>
<circle class="st0" cx="280.7" cy="210.6" r="4.1"/>
<circle class="st0" cx="292.1" cy="210.6" r="4.1"/>
<circle class="st0" cx="303.5" cy="210.6" r="4.1"/>
<circle class="st0" cx="314.8" cy="210.6" r="4.1"/>
<circle class="st0" cx="269.3" cy="221" r="4.1"/>
<circle class="st0" cx="280.7" cy="221" r="4.1"/>
<circle class="st0" cx="292.1" cy="221" r="4.1"/>
<circle class="st0" cx="303.5" cy="221" r="4.1"/>
<circle class="st0" cx="314.8" cy="221" r="4.1"/>
<circle class="st0" cx="326.2" cy="221" r="4.1"/>
<circle class="st0" cx="280.7" cy="231.5" r="4.1"/>
<circle class="st0" cx="292.1" cy="231.5" r="4.1"/>
<circle class="st0" cx="303.5" cy="231.5" r="4.1"/>
<circle class="st0" cx="314.8" cy="231.5" r="4.1"/>
<circle class="st0" cx="326.2" cy="231.5" r="4.1"/>
<circle class="st0" cx="337.6" cy="231.5" r="4.1"/>
<circle class="st0" cx="292.1" cy="241.9" r="4.1"/>
<circle class="st0" cx="303.5" cy="241.9" r="4.1"/>
<circle class="st0" cx="314.8" cy="241.9" r="4.1"/>
<circle class="st0" cx="326.2" cy="241.9" r="4.1"/>
<circle class="st0" cx="337.6" cy="241.9" r="4.1"/>
<circle class="st0" cx="349" cy="241.9" r="4.1"/>
<circle class="st0" cx="303.5" cy="252.3" r="4.1"/>
<circle class="st0" cx="314.8" cy="252.3" r="4.1"/>
<circle class="st0" cx="326.2" cy="252.3" r="4.1"/>
<circle class="st0" cx="337.6" cy="252.3" r="4.1"/>
<circle class="st0" cx="349" cy="252.3" r="4.1"/>
<circle class="st0" cx="360.4" cy="252.3" r="4.1"/>
<circle class="st0" cx="314.8" cy="262.8" r="4.1"/>
<circle class="st0" cx="326.2" cy="262.8" r="4.1"/>
<circle class="st0" cx="337.6" cy="262.8" r="4.1"/>
<circle class="st0" cx="349" cy="262.8" r="4.1"/>
<circle class="st0" cx="360.4" cy="262.8" r="4.1"/>
<circle class="st0" cx="371.8" cy="262.8" r="4.1"/>
<circle class="st0" cx="303.5" cy="273.2" r="4.1"/>
<circle class="st0" cx="314.8" cy="273.2" r="4.1"/>
<circle class="st0" cx="326.2" cy="273.2" r="4.1"/>
<circle class="st0" cx="337.6" cy="273.2" r="4.1"/>
<circle class="st0" cx="349" cy="273.2" r="4.1"/>
<circle class="st0" cx="360.4" cy="273.2" r="4.1"/>
<circle class="st0" cx="292.1" cy="283.6" r="4.1"/>
<circle class="st0" cx="303.5" cy="283.6" r="4.1"/>
<circle class="st0" cx="314.8" cy="283.6" r="4.1"/>
<circle class="st0" cx="326.2" cy="283.6" r="4.1"/>
<circle class="st0" cx="337.6" cy="283.6" r="4.1"/>
<circle class="st0" cx="349" cy="283.6" r="4.1"/>
<circle class="st0" cx="280.7" cy="294.1" r="4.1"/>
<circle class="st0" cx="292.1" cy="294.1" r="4.1"/>
<circle class="st0" cx="303.5" cy="294.1" r="4.1"/>
<circle class="st0" cx="314.8" cy="294.1" r="4.1"/>
<circle class="st0" cx="326.2" cy="294.1" r="4.1"/>
<circle class="st0" cx="337.6" cy="294.1" r="4.1"/>
<circle class="st0" cx="269.3" cy="304.5" r="4.1"/>
<circle class="st0" cx="280.7" cy="304.5" r="4.1"/>
<circle class="st0" cx="292.1" cy="304.5" r="4.1"/>
<circle class="st0" cx="303.5" cy="304.5" r="4.1"/>
<circle class="st0" cx="314.8" cy="304.5" r="4.1"/>
<circle class="st0" cx="326.2" cy="304.5" r="4.1"/>
<circle class="st0" cx="257.9" cy="315" r="4.1"/>
<circle class="st0" cx="269.3" cy="315" r="4.1"/>
<circle class="st0" cx="280.7" cy="315" r="4.1"/>
<circle class="st0" cx="292.1" cy="315" r="4.1"/>
<circle class="st0" cx="303.5" cy="315" r="4.1"/>
<circle class="st0" cx="314.8" cy="315" r="4.1"/>
<circle class="st0" cx="246.5" cy="325.4" r="4.1"/>
<circle class="st0" cx="257.9" cy="325.4" r="4.1"/>
<circle class="st0" cx="269.3" cy="325.4" r="4.1"/>
<circle class="st0" cx="280.7" cy="325.4" r="4.1"/>
<circle class="st0" cx="292.1" cy="325.4" r="4.1"/>
<circle class="st0" cx="303.5" cy="325.4" r="4.1"/>
<circle class="st0" cx="353.1" cy="200.2" r="4.1"/>
<circle class="st0" cx="364.5" cy="200.2" r="4.1"/>
<circle class="st0" cx="375.9" cy="200.2" r="4.1"/>
<circle class="st0" cx="387.3" cy="200.2" r="4.1"/>
<circle class="st0" cx="398.7" cy="200.2" r="4.1"/>
<circle class="st0" cx="410.1" cy="200.2" r="4.1"/>
<circle class="st0" cx="364.5" cy="210.6" r="4.1"/>
<circle class="st0" cx="375.9" cy="210.6" r="4.1"/>
<circle class="st0" cx="387.3" cy="210.6" r="4.1"/>
<circle class="st0" cx="398.7" cy="210.6" r="4.1"/>
<circle class="st0" cx="410.1" cy="210.6" r="4.1"/>
<circle class="st0" cx="421.5" cy="210.6" r="4.1"/>
<circle class="st0" cx="375.9" cy="221" r="4.1"/>
<circle class="st0" cx="387.3" cy="221" r="4.1"/>
<circle class="st0" cx="398.7" cy="221" r="4.1"/>
<circle class="st0" cx="410.1" cy="221" r="4.1"/>
<circle class="st0" cx="421.5" cy="221" r="4.1"/>
<circle class="st0" cx="432.9" cy="221" r="4.1"/>
<circle class="st0" cx="387.3" cy="231.5" r="4.1"/>
<circle class="st0" cx="398.7" cy="231.5" r="4.1"/>
<circle class="st0" cx="410.1" cy="231.5" r="4.1"/>
<circle class="st0" cx="421.5" cy="231.5" r="4.1"/>
<circle class="st0" cx="432.9" cy="231.5" r="4.1"/>
<circle class="st0" cx="444.3" cy="231.5" r="4.1"/>
<circle class="st0" cx="398.7" cy="241.9" r="4.1"/>
<circle class="st0" cx="410.1" cy="241.9" r="4.1"/>
<circle class="st0" cx="421.5" cy="241.9" r="4.1"/>
<circle class="st0" cx="432.9" cy="241.9" r="4.1"/>
<circle class="st0" cx="444.3" cy="241.9" r="4.1"/>
<circle class="st0" cx="455.7" cy="241.9" r="4.1"/>
<circle class="st0" cx="410.1" cy="252.3" r="4.1"/>
<circle class="st0" cx="421.5" cy="252.3" r="4.1"/>
<circle class="st0" cx="432.9" cy="252.3" r="4.1"/>
<circle class="st0" cx="444.3" cy="252.3" r="4.1"/>
<circle class="st0" cx="455.7" cy="252.3" r="4.1"/>
<circle class="st0" cx="467.1" cy="252.3" r="4.1"/>
<circle class="st0" cx="421.5" cy="262.8" r="4.1"/>
<circle class="st0" cx="432.9" cy="262.8" r="4.1"/>
<circle class="st0" cx="444.3" cy="262.8" r="4.1"/>
<circle class="st0" cx="455.7" cy="262.8" r="4.1"/>
<circle class="st0" cx="467.1" cy="262.8" r="4.1"/>
<circle class="st0" cx="478.5" cy="262.8" r="4.1"/>
<circle class="st0" cx="410.1" cy="273.2" r="4.1"/>
<circle class="st0" cx="421.5" cy="273.2" r="4.1"/>
<circle class="st0" cx="432.9" cy="273.2" r="4.1"/>
<circle class="st0" cx="444.3" cy="273.2" r="4.1"/>
<circle class="st0" cx="455.7" cy="273.2" r="4.1"/>
<circle class="st0" cx="467.1" cy="273.2" r="4.1"/>
<circle class="st0" cx="398.7" cy="283.6" r="4.1"/>
<circle class="st0" cx="410.1" cy="283.6" r="4.1"/>
<circle class="st0" cx="421.5" cy="283.6" r="4.1"/>
<circle class="st0" cx="432.9" cy="283.6" r="4.1"/>
<circle class="st0" cx="444.3" cy="283.6" r="4.1"/>
<circle class="st0" cx="455.7" cy="283.6" r="4.1"/>
<circle class="st0" cx="387.3" cy="294.1" r="4.1"/>
<circle class="st0" cx="398.7" cy="294.1" r="4.1"/>
<circle class="st0" cx="410.1" cy="294.1" r="4.1"/>
<circle class="st0" cx="421.5" cy="294.1" r="4.1"/>
<circle class="st0" cx="432.9" cy="294.1" r="4.1"/>
<circle class="st0" cx="444.3" cy="294.1" r="4.1"/>
<circle class="st0" cx="375.9" cy="304.5" r="4.1"/>
<circle class="st0" cx="387.3" cy="304.5" r="4.1"/>
<circle class="st0" cx="398.7" cy="304.5" r="4.1"/>
<circle class="st0" cx="410.1" cy="304.5" r="4.1"/>
<circle class="st0" cx="421.5" cy="304.5" r="4.1"/>
<circle class="st0" cx="432.9" cy="304.5" r="4.1"/>
<circle class="st0" cx="364.5" cy="315" r="4.1"/>
<circle class="st0" cx="375.9" cy="315" r="4.1"/>
<circle class="st0" cx="387.3" cy="315" r="4.1"/>
<circle class="st0" cx="398.7" cy="315" r="4.1"/>
<circle class="st0" cx="410.1" cy="315" r="4.1"/>
<circle class="st0" cx="421.5" cy="315" r="4.1"/>
<circle class="st0" cx="353.1" cy="325.4" r="4.1"/>
<circle class="st0" cx="364.5" cy="325.4" r="4.1"/>
<circle class="st0" cx="375.9" cy="325.4" r="4.1"/>
<circle class="st0" cx="387.3" cy="325.4" r="4.1"/>
<circle class="st0" cx="398.7" cy="325.4" r="4.1"/>
<circle class="st0" cx="410.1" cy="325.4" r="4.1"/>
</svg>
