<?xml version="1.0" encoding="utf-8"?>
<!-- Generator: Adobe Illustrator 16.0.0, SVG Export Plug-In . SVG Version: 6.00 Build 0)  -->
<!DOCTYPE svg PUBLIC "-//W3C//DTD SVG 1.1//EN" "http://www.w3.org/Graphics/SVG/1.1/DTD/svg11.dtd">
<svg version="1.1" id="Layer_1" xmlns="http://www.w3.org/2000/svg" xmlns:xlink="http://www.w3.org/1999/xlink" x="0px" y="0px"
	 width="1200px" height="1200px" viewBox="0 0 1200 1200" enable-background="new 0 0 1200 1200" xml:space="preserve">
<path fill="#FF0000" d="M960.901,350.014c-43.799-0.838-79.65,35.846-79.65,79.654V600h-15.625V255.84
	c0-43.809-35.852-80.492-79.65-79.654c-42.443,0.812-76.6,35.473-76.6,78.111V600h-15.625V179.668
	c0-43.809-35.852-80.492-79.65-79.654c-42.443,0.812-76.6,35.473-76.6,78.111V600h-15.625V257.793
	c0-43.809-35.852-80.492-79.65-79.654c-42.443,0.812-76.6,35.473-76.6,78.111v460.922l-61.812-84.998
	c-25.377-34.895-74.236-42.611-109.135-17.232c-34.893,25.379-42.607,74.238-17.23,109.135l245.314,337.314
	c17.642,24.257,45.824,38.609,75.818,38.609h385.918c43.504,0,81.293-29.93,91.258-72.277l51.773-220.039
	c6.623-28.149,9.969-56.971,9.969-85.889v-293.67C1037.501,385.486,1003.345,350.826,960.901,350.014z"/>
</svg>
