<?xml version="1.0" encoding="utf-8"?>
<!-- Generator: Adobe Illustrator 16.0.0, SVG Export Plug-In . SVG Version: 6.00 Build 0)  -->
<!DOCTYPE svg PUBLIC "-//W3C//DTD SVG 1.1//EN" "http://www.w3.org/Graphics/SVG/1.1/DTD/svg11.dtd">
<svg version="1.1" id="Layer_1" xmlns="http://www.w3.org/2000/svg" xmlns:xlink="http://www.w3.org/1999/xlink" x="0px" y="0px"
	 width="1000px" height="1000px" viewBox="0 0 1000 1000" enable-background="new 0 0 1000 1000" xml:space="preserve">
<path fill="#0066CC" d="M762.5,400H525v87.5c0,62.031-50.469,112.5-112.5,112.5S300,549.531,300,487.5v-190l-101.406,60.938
	C168.438,376.406,150,409.062,150,444.062v73.906L25,590.156c-23.906,13.75-32.188,44.375-18.281,68.281l125,216.562
	c13.75,23.906,44.375,32.031,68.281,18.281L361.562,800H575c55.156,0,100-44.844,100-100h25c27.656,0,50-22.344,50-50V550h12.5
	c20.781,0,37.5-16.719,37.5-37.5v-75C800,416.719,783.281,400,762.5,400z M993.281,341.562L868.281,125
	c-13.75-23.906-44.375-32.031-68.281-18.281L638.438,200H478.75c-18.75,0-37.031,5.312-52.969,15.156l-52.344,32.656
	C358.75,256.875,350,272.969,350,290.156V487.5c0,34.531,27.969,62.5,62.5,62.5s62.5-27.969,62.5-62.5V350h287.5
	c48.281,0,87.5,39.219,87.5,87.5v44.531l125-72.188C998.906,395.938,1007.031,365.469,993.281,341.562z"/>
</svg>
