<?xml version="1.0" encoding="utf-8"?>
<!-- Generator: Adobe Illustrator 25.4.1, SVG Export Plug-In . SVG Version: 6.00 Build 0)  -->
<svg version="1.1" id="Layer_1" xmlns="http://www.w3.org/2000/svg" xmlns:xlink="http://www.w3.org/1999/xlink" x="0px" y="0px"
	 viewBox="0 0 500 500" style="enable-background:new 0 0 500 500;" xml:space="preserve">
<style type="text/css">
	.st0{fill:#FFFFFF;}
	.st1{fill:#4473B9;}
</style>
<path class="st0" d="M251.8,424.6c-94.4,0-171.3-76.8-171.3-171.2c0-19.6,3.3-38.7,9.7-56.9L28,75.1l144.5,26.4
	c24.4-12.7,51.6-19.4,79.3-19.4c94.4,0,171.3,76.8,171.3,171.3S346.2,424.6,251.8,424.6z"/>
<path class="st1" d="M251.8,102.1c-27.7,0-53.6,7.4-75.9,20.4L64.3,102.1l47.8,93.2c-7.4,17.9-11.6,37.5-11.6,58.1
	c0,83.5,67.7,151.3,151.3,151.3s151.3-67.7,151.3-151.3S335.3,102.1,251.8,102.1z"/>
<rect x="222.2" y="241" class="st0" width="59.2" height="121.7"/>
<circle class="st0" cx="251.8" cy="181.8" r="36.5"/>
</svg>
