<?xml version="1.0" encoding="utf-8"?>
<!-- Generator: Adobe Illustrator 24.1.0, SVG Export Plug-In . SVG Version: 6.00 Build 0)  -->
<svg version="1.1" id="Capa_1" xmlns="http://www.w3.org/2000/svg" xmlns:xlink="http://www.w3.org/1999/xlink" x="0px" y="0px"
	 viewBox="0 0 426.7 426.7" style="enable-background:new 0 0 426.7 426.7;" xml:space="preserve">
<g>
	<g>
		<path d="M330.7,170.7H96c-17.6,0-32,14.3-32,31.9v192.2c0,17.6,14.3,31.9,32,31.9h234.7c17.6,0,32-14.3,32-31.9V202.6
			C362.7,185,348.4,170.7,330.7,170.7z M320,384H106.7V213.3H320V384z"/>
	</g>
</g>
<g>
	<g>
		<path d="M217.1,0h-7.5c-56.8,0-102.9,46.2-102.9,103v81.6h42.7V103c0-33.3,27-60.3,60.3-60.3h7.5c33.2,0,60.3,27,60.3,60.3v81.6
			H320V103C320,46.1,273.9,0,217.1,0z"/>
	</g>
</g>
</svg>
