<?xml version="1.0" encoding="utf-8"?>
<!-- Generator: Adobe Illustrator 24.1.0, SVG Export Plug-In . SVG Version: 6.00 Build 0)  -->
<svg version="1.1" id="Layer_1" xmlns="http://www.w3.org/2000/svg" xmlns:xlink="http://www.w3.org/1999/xlink" x="0px" y="0px"
	 viewBox="0 0 48 48" style="enable-background:new 0 0 48 48;" xml:space="preserve">
<style type="text/css">
	.st0{fill:#FF8971;}
	.st1{fill:#FF4C5A;}
	.st2{fill:#FF776A;}
	.st3{fill:#FFBA84;}
	.st4{fill:#FF6D66;}
	.st5{fill:#FFA07A;}
	.st6{fill:#FF8C72;}
	.st7{fill:#FF6B65;}
	.st8{fill:#FFFFFF;}
</style>
<path class="st0" d="M29,6H15.7c-1,0-1.7,0.8-1.7,1.7V15h15V6z"/>
<path class="st1" d="M14,33.1v7.2c0,1,0.8,1.7,1.7,1.7H29v-8.9H14z"/>
<path class="st2" d="M14,15h15v9H14V15z"/>
<path class="st1" d="M14,24h15v9.1H14V24z"/>
<g>
	<path class="st3" d="M42.3,6H29v9h15V7.7C44,6.8,43.2,6,42.3,6z"/>
	<path class="st4" d="M29,33.1V42h13.3c1,0,1.7-0.8,1.7-1.7v-7.2L29,33.1L29,33.1z"/>
	<path class="st5" d="M29,15h15v9H29V15z"/>
	<path class="st6" d="M29,24h15v9.1H29V24z"/>
</g>
<path class="st7" d="M22.3,34H5.7C4.8,34,4,33.2,4,32.3V15.7C4,14.8,4.8,14,5.7,14h16.6c0.9,0,1.7,0.8,1.7,1.7v16.6
	C24,33.2,23.2,34,22.3,34z"/>
<path class="st8" d="M9.8,19h2.4l1.9,3.8l2-3.8h2.2l-3.1,5l3.1,5h-2.4L14,25.1L11.9,29H9.5l3.2-5L9.8,19z"/>
</svg>
