<?xml version="1.0" encoding="utf-8"?>
<!-- Generator: Adobe Illustrator 16.0.0, SVG Export Plug-In . SVG Version: 6.00 Build 0)  -->
<!DOCTYPE svg PUBLIC "-//W3C//DTD SVG 1.1//EN" "http://www.w3.org/Graphics/SVG/1.1/DTD/svg11.dtd">
<svg version="1.1" id="Layer_1" xmlns="http://www.w3.org/2000/svg" xmlns:xlink="http://www.w3.org/1999/xlink" x="0px" y="0px"
	 width="48px" height="48px" viewBox="0 0 48 48" enable-background="new 0 0 48 48" xml:space="preserve">
<path fill="#A83DB3" d="M29,6H15.744C14.781,6,14,6.781,14,7.744v7.259h15V6z"/>
<path fill="#8C009C" d="M14,33.054v7.202C14,41.219,14.781,42,15.743,42H29v-8.946H14z"/>
<path fill="#A02BAC" d="M14,15.003h15v9.002H14V15.003z"/>
<path fill="#8C009C" d="M14,24.005h15v9.05H14V24.005z"/>
<g>
	<path fill="#BD6EC6" d="M42.256,6H29v9.003h15V7.744C44,6.781,43.219,6,42.256,6z"/>
	<path fill="#9B21A8" d="M29,33.054V42h13.257C43.219,42,44,41.219,44,40.257v-7.202L29,33.054L29,33.054z"/>
	<path fill="#B254BC" d="M29,15.003h15v9.002H29V15.003z"/>
	<path fill="#A940B4" d="M29,24.005h15v9.05H29V24.005z"/>
</g>
<path fill="#9A1FA7" d="M22.319,34H5.681C4.753,34,4,33.247,4,32.318V15.681C4,14.753,4.753,14,5.681,14h16.638
	C23.247,14,24,14.753,24,15.681v16.637C24,33.247,23.247,34,22.319,34z"/>
<path fill="#FFFFFF" d="M9.807,19h2.386l1.936,3.754L16.175,19h2.229l-3.071,5l3.141,5h-2.351l-2.11-3.93L11.912,29H9.526
	l3.193-5.018L9.807,19z"/>
</svg>
