<?xml version="1.0" encoding="utf-8"?>
<!-- Generator: Adobe Illustrator 16.0.0, SVG Export Plug-In . SVG Version: 6.00 Build 0)  -->
<!DOCTYPE svg PUBLIC "-//W3C//DTD SVG 1.1//EN" "http://www.w3.org/Graphics/SVG/1.1/DTD/svg11.dtd">
<svg version="1.1" id="Layer_1" xmlns="http://www.w3.org/2000/svg" xmlns:xlink="http://www.w3.org/1999/xlink" x="0px" y="0px"
	 width="1000px" height="1000px" viewBox="0 0 1000 1000" enable-background="new 0 0 1000 1000" xml:space="preserve">
<path fill="#0066CC" d="M437.5,187.5l31.25-62.5l62.5-31.25l-62.5-31.25L437.5,0l-31.25,62.5l-62.5,31.25l62.5,31.25L437.5,187.5z
	 M156.25,312.5l52.07-104.16l104.18-52.09l-104.18-52.09L156.25,0l-52.07,104.16L0,156.25l104.18,52.09L156.25,312.5z M843.75,562.5
	l-52.07,104.16L687.5,718.75l104.18,52.09L843.75,875l52.07-104.16L1000,718.75l-104.18-52.09L843.75,562.5z M981.68,184.043
	L815.957,18.32C803.77,6.094,787.773,0,771.777,0s-31.992,6.094-44.199,18.32L18.32,727.578c-24.414,24.414-24.414,63.984,0,88.379
	L184.043,981.68c12.207,12.207,28.203,18.301,44.18,18.301c15.996,0,31.992-6.094,44.199-18.301L981.68,272.402
	C1006.094,248.027,1006.094,208.438,981.68,184.043z M702.051,397.383l-99.434-99.434l169.141-169.141l99.434,99.434
	L702.051,397.383z"/>
</svg>
