<?xml version="1.0" encoding="utf-8"?>
<!-- Generator: Adobe Illustrator 24.1.0, SVG Export Plug-In . SVG Version: 6.00 Build 0)  -->
<svg version="1.1" id="Layer_1" xmlns="http://www.w3.org/2000/svg" xmlns:xlink="http://www.w3.org/1999/xlink" x="0px" y="0px"
	 viewBox="0 0 1000 1000" style="enable-background:new 0 0 1000 1000;" xml:space="preserve">
<style type="text/css">
	.st0{fill:#666666;}
</style>
<path class="st0" d="M437.5,187.5l31.2-62.5l62.5-31.2l-62.5-31.2L437.5,0l-31.2,62.5l-62.5,31.2l62.5,31.2L437.5,187.5z
	 M156.2,312.5l52.1-104.2l104.2-52.1l-104.2-52.1L156.2,0l-52.1,104.2L0,156.2l104.2,52.1L156.2,312.5z M843.8,562.5l-52.1,104.2
	l-104.2,52.1l104.2,52.1L843.8,875l52.1-104.2l104.2-52.1l-104.2-52.1L843.8,562.5z M981.7,184L816,18.3C803.8,6.1,787.8,0,771.8,0
	s-32,6.1-44.2,18.3L18.3,727.6c-24.4,24.4-24.4,64,0,88.4L184,981.7c12.2,12.2,28.2,18.3,44.2,18.3c16,0,32-6.1,44.2-18.3
	l709.3-709.3C1006.1,248,1006.1,208.4,981.7,184z M702.1,397.4l-99.4-99.4l169.1-169.1l99.4,99.4L702.1,397.4z"/>
</svg>
