<?xml version="1.0" encoding="utf-8"?>
<!-- Generator: Adobe Illustrator 16.0.0, SVG Export Plug-In . SVG Version: 6.00 Build 0)  -->
<!DOCTYPE svg PUBLIC "-//W3C//DTD SVG 1.1//EN" "http://www.w3.org/Graphics/SVG/1.1/DTD/svg11.dtd">
<svg version="1.1" id="Layer_1" xmlns="http://www.w3.org/2000/svg" xmlns:xlink="http://www.w3.org/1999/xlink" x="0px" y="0px"
	 width="1000px" height="1000px" viewBox="0 0 1000 1000" enable-background="new 0 0 1000 1000" xml:space="preserve">
<g>
	<g>
		<g>
			<path fill="#010101" d="M288.168,450.609c2.001,5.312,7.593,8.221,12.978,7.003c0.501-0.113,1.001-0.262,1.497-0.448
				c31.668-11.924,61.973-26.88,90.069-44.454c5.261-3.289,6.858-10.222,3.567-15.482c-3.289-5.26-10.219-6.857-15.482-3.566
				c-26.837,16.785-55.795,31.074-86.074,42.475C288.916,438.323,285.982,444.803,288.168,450.609z"/>
			<path fill="#010101" d="M423.13,390.792c1.516-0.342,2.986-1.007,4.305-2.007c7.526-5.706,14.918-11.682,21.973-17.766
				c4.699-4.052,5.225-11.146,1.172-15.846c-4.052-4.699-11.144-5.222-15.845-1.171c-6.699,5.776-13.722,11.455-20.875,16.877
				c-4.944,3.748-5.914,10.795-2.166,15.74C414.444,390.244,418.966,391.733,423.13,390.792z"/>
			<path fill="#010101" d="M483.266,222.422c-20.568,4.648-33.662,24.839-29.729,45.398
				c-44.178,59.505-99.185,93.745-137.949,112.076c-43.202,20.428-76.244,26.152-76.559,26.206
				c-0.109,0.018-0.214,0.049-0.322,0.071c-0.104,0.019-0.207,0.03-0.31,0.053L82.133,441.544
				c-6.051,1.368-9.849,7.383-8.481,13.435l7.117,31.484l-0.021,0.004c-39.866,9.01-64.97,48.775-55.959,88.641
				c9.011,39.869,48.776,64.971,88.643,55.962l0.02-0.005l7.116,31.483c1.368,6.052,7.383,9.849,13.435,8.48l18.948-4.281
				l55.394,128.351c13.319,30.863,46.783,47.886,79.571,40.475l52.688-11.908c3.259-0.735,6.021-2.886,7.536-5.863
				c1.515-2.979,1.625-6.479,0.301-9.547l-73.019-169.188l14.844-3.354c0.109-0.025,0.212-0.062,0.319-0.091
				c0.097-0.023,0.196-0.037,0.292-0.066c0.323-0.091,32.611-9.133,80.399-9.269c42.879-0.124,107.265,7.132,172.739,41.852
				c5.291,20.254,25.796,32.851,46.365,28.203c20.996-4.747,34.217-25.69,29.471-46.686l-89.899-397.762
				C525.206,230.897,504.263,217.676,483.266,222.422z M108.498,609.148l-0.021,0.003c-27.782,6.279-55.492-11.215-61.771-38.995
				c-6.28-27.782,11.214-55.493,38.996-61.772l0.02-0.005L108.498,609.148z M302.518,758.557l-27.534,6.224
				c-6.051,1.368-9.849,7.382-8.481,13.435c1.368,6.053,7.384,9.851,13.435,8.482l31.639-7.15l10.87,25.186l-39.484,8.925
				c-22.247,5.028-44.952-6.521-53.988-27.462l-53.727-124.487l77.875-17.602l10.445,24.197l-28.511,6.444
				c-6.052,1.367-9.85,7.383-8.482,13.435c1.368,6.054,7.384,9.85,13.436,8.481l32.617-7.372l10.417,24.138l-28.57,6.459
				c-6.052,1.367-9.851,7.381-8.483,13.434c1.369,6.054,7.384,9.85,13.436,8.481l32.674-7.386L302.518,758.557z M274.353,616.272
				l-134.348,30.364l-41.96-185.654l134.347-30.365L274.353,616.272L274.353,616.272z M537.584,639.828
				c-63.896-29.8-125.235-36.214-167.207-36.008c-33.808,0.164-60.011,4.438-74.134,7.387l-41.911-185.431
				c14.019-3.411,39.513-10.822,70.105-25.211c37.98-17.864,90.598-50.035,135.468-104.417L537.584,639.828z M597.934,654.608
				c2.015,8.912-3.596,17.8-12.508,19.813c-8.911,2.015-17.8-3.596-19.814-12.509l-89.9-397.76
				c-2.015-8.912,3.598-17.801,12.508-19.814c8.913-2.015,17.799,3.597,19.814,12.508L597.934,654.608z"/>
		</g>
	</g>
</g>
<path d="M554.338,359.793l6.822,30.183c22.882,4.347,42.188,21.815,47.643,45.944c5.453,24.128-4.466,48.204-23.253,61.968
	l6.821,30.184c34.533-18.572,54.016-58.533,44.961-98.599C628.276,389.406,593.501,361.709,554.338,359.793z"/>
<line fill="none" stroke="#000000" stroke-width="25" stroke-linecap="round" stroke-miterlimit="10" x1="676.264" y1="412.464" x2="915.033" y2="358.499"/>
<line fill="none" stroke="#000000" stroke-width="25" stroke-linecap="round" stroke-miterlimit="10" x1="642.894" y1="338.296" x2="795.889" y2="231.42"/>
<line fill="none" stroke="#000000" stroke-width="25" stroke-linecap="round" stroke-miterlimit="10" x1="572.221" y1="246.051" x2="650.729" y2="136.728"/>
<line fill="none" stroke="#000000" stroke-width="25" stroke-linecap="round" stroke-miterlimit="10" x1="678.034" y1="493.775" x2="862.121" y2="524.466"/>
<line fill="none" stroke="#000000" stroke-width="25" stroke-linecap="round" stroke-miterlimit="10" x1="653.903" y1="607.448" x2="771.794" y2="672.382"/>
</svg>
