<?xml version="1.0" encoding="utf-8"?>
<!-- Generator: Adobe Illustrator 25.4.1, SVG Export Plug-In . SVG Version: 6.00 Build 0)  -->
<svg version="1.1" id="Layer_1" xmlns="http://www.w3.org/2000/svg" xmlns:xlink="http://www.w3.org/1999/xlink" x="0px" y="0px"
	 viewBox="0 0 3089.7 1043.4" style="enable-background:new 0 0 3089.7 1043.4;" xml:space="preserve">
<path d="M922.1,68.4H109.6c-51.8,0-93.8,42-93.8,93.8v562.5c0,51.8,42,93.8,93.8,93.8h812.5c51.8,0,93.8-42,93.8-93.8V162.1
	C1015.9,110.4,973.9,68.4,922.1,68.4z M922.1,162.1v79.7c-43.8,35.7-113.6,91.1-262.9,208c-32.9,25.9-98,88-143.4,87.3
	c-45.3,0.7-110.5-61.4-143.4-87.3C223.3,333,153.4,277.5,109.6,241.8v-79.7H922.1z M109.6,724.6V362.1
	c44.8,35.6,108.2,85.7,205,161.4c42.7,33.6,117.4,107.8,201.3,107.3c83.4,0.5,157.2-72.7,201.3-107.3
	c96.7-75.7,160.2-125.8,205-161.4v362.5H109.6z"/>
<path d="M1401.1,68.4h-325.6c26.4,22.7,43.1,56.3,43.1,93.8h282.5v79.7c-43.8,35.7-113.6,91.1-262.9,208c-5.7,4.5-12.3,10-19.6,16.1
	v118.8c30.8-21.3,57.3-45.3,77.5-61.2c96.7-75.7,160.2-125.8,205-161.4v362.5h-282.5c0,37.4-16.7,71-43.1,93.8h325.6
	c51.8,0,93.8-42,93.8-93.8V162.1C1494.9,110.4,1452.9,68.4,1401.1,68.4z"/>
<path d="M1897.6,68.4h-325.6c26.4,22.7,43.1,56.3,43.1,93.8h282.5v79.7c-43.8,35.7-113.6,91.1-262.9,208c-5.7,4.5-12.3,10-19.6,16.1
	v118.8c30.8-21.3,57.3-45.3,77.5-61.2c96.7-75.7,160.2-125.8,205-161.4v362.5h-282.5c0,37.4-16.7,71-43.1,93.8h325.6
	c51.8,0,93.8-42,93.8-93.8V162.1C1991.4,110.4,1949.4,68.4,1897.6,68.4z"/>
<path d="M2394.1,68.4h-325.6c26.4,22.7,43.1,56.3,43.1,93.8h282.5v79.7c-43.8,35.7-113.6,91.1-262.9,208c-5.7,4.5-12.3,10-19.6,16.1
	v118.8c30.8-21.3,57.3-45.3,77.5-61.2c96.7-75.7,160.2-125.8,205-161.4v362.5h-282.5c0,37.4-16.7,71-43.1,93.8h325.6
	c51.8,0,93.8-42,93.8-93.8V162.1C2487.9,110.4,2445.9,68.4,2394.1,68.4z"/>
<circle cx="2635.1" cy="757.2" r="61.2"/>
<circle cx="2822" cy="757.2" r="61.2"/>
<circle cx="3009" cy="757.2" r="61.2"/>
</svg>
