<?xml version="1.0" encoding="utf-8"?>
<!-- Generator: Adobe Illustrator 16.0.0, SVG Export Plug-In . SVG Version: 6.00 Build 0)  -->
<!DOCTYPE svg PUBLIC "-//W3C//DTD SVG 1.1//EN" "http://www.w3.org/Graphics/SVG/1.1/DTD/svg11.dtd">
<svg version="1.1" id="Capa_1" xmlns="http://www.w3.org/2000/svg" xmlns:xlink="http://www.w3.org/1999/xlink" x="0px" y="0px"
	 width="872px" height="1074.18px" viewBox="-61.525 -196.82 872 1074.18" enable-background="new -61.525 -196.82 872 1074.18"
	 xml:space="preserve">
<rect x="-33.525" y="74.18" opacity="0.6" fill="#F4F4F4" width="796" height="788"/>
<g>
	<polygon fill="#7F7F7F" points="531.043,189.345 634.533,292.835 372.569,554.797 269.136,451.309 	"/>
	<path fill="#7F7F7F" d="M713.062,164.386l-46.152-46.154c-17.838-17.836-46.799-17.836-64.695,0l-44.211,44.211l103.49,103.491
		l51.567-51.569C726.896,200.53,726.896,178.219,713.062,164.386z"/>
	<path fill="#7F7F7F" d="M214.978,596.771c-1.883,8.478,5.77,16.072,14.246,14.011l115.324-27.961L241.115,479.333L214.978,596.771z
		"/>
	<polygon fill="#7F7F7F" points="661.494,306.743 661.465,306.713 597.434,370.743 597.434,723.032 103.084,723.032 103.084,228.68 
		450.91,228.68 531.039,148.533 531.07,148.565 537.527,142.109 16.512,142.109 16.512,809.602 684.006,809.602 684.006,284.232 	
		"/>
</g>
</svg>
