<?xml version="1.0" encoding="utf-8"?>
<!-- Generator: Adobe Illustrator 16.0.0, SVG Export Plug-In . SVG Version: 6.00 Build 0)  -->
<!DOCTYPE svg PUBLIC "-//W3C//DTD SVG 1.1//EN" "http://www.w3.org/Graphics/SVG/1.1/DTD/svg11.dtd">
<svg version="1.1" id="Layer_1" xmlns="http://www.w3.org/2000/svg" xmlns:xlink="http://www.w3.org/1999/xlink" x="0px" y="0px"
	 width="1779.178px" height="666.154px" viewBox="0 0 1779.178 666.154" enable-background="new 0 0 1779.178 666.154"
	 xml:space="preserve">
<path fill="#010101" d="M-333.238,412.69v2.908c-10.049,20.074-98.475,52.692-241.163,52.692s-231.113-32.618-241.162-52.692v-90.33
	c13.268,7.363,29.046,13.455,46.088,18.504c76.207,23.203,177.844,24.153,195.074,24.153c17.631,0,123.643-0.993,200.35-25.81
	c0.192-18.417,7.44-35.705,20.484-48.75l60.523-60.523V117.007c0-1.047-0.047-2.064-0.125-3.061
	c-5.251-94.834-253.396-97.304-281.232-97.304s-275.981,2.473-281.232,97.304c-0.075,0.997-0.125,2.014-0.125,3.061v150.55v150.55
	v150.549c0,97.857,253.221,100.366,281.357,100.366s281.357-2.509,281.357-100.366V452.884L-333.238,412.69z M-574.401,66.823
	c138.669,0,225.085,30.11,239.153,50.184c-1.28,1.826-3.177,3.737-5.638,5.702c-24.927,18.939-102.997,42.66-219.929,44.38
	c-0.134,0.003-0.26,0.006-0.396,0.009c-4.343,0.062-8.739,0.094-13.188,0.094s-8.846-0.032-13.189-0.094
	c-0.134-0.003-0.263-0.006-0.398-0.009c-116.93-1.723-195-25.444-219.926-44.38c-2.464-1.961-4.359-3.873-5.638-5.702
	C-799.484,96.933-713.07,66.823-574.401,66.823z M-815.563,174.719c13.266,7.36,29.036,13.452,46.072,18.498
	c76.208,23.209,177.857,24.159,195.09,24.159c21.083,0,168.56-1.412,241.163-43.295v90.968
	c-10.049,20.074-98.475,52.692-241.163,52.692s-231.113-32.618-241.162-52.692V174.719z M-333.238,566.148
	c-10.047,20.071-98.475,52.692-241.163,52.692s-231.113-32.618-241.162-52.692v-90.33c13.268,7.363,29.043,13.456,46.084,18.501
	c76.207,23.206,177.846,24.153,195.078,24.153c21.083,0,168.56-1.412,241.163-43.295V566.148z"/>
<path d="M1080.407,206.515H927.599l19.432-19.432c15.621-15.621,15.621-40.948,0-56.568c-15.621-15.621-40.948-15.621-56.569,0
	l-87.747,87.748c-7.501,7.501-11.716,17.675-11.716,28.284s4.214,20.783,11.716,28.284l87.685,87.684
	c7.811,7.811,18.047,11.716,28.284,11.716c10.236,0,20.475-3.905,28.284-11.716c15.621-15.621,15.621-40.948,0-56.568
	l-19.432-19.432h152.872c22.092,0,40-17.909,40-40S1102.499,206.515,1080.407,206.515z"/>
<path d="M939.394,449.068h-152.81l19.432-19.432c15.621-15.621,15.621-40.948,0-56.568c-15.621-15.621-40.947-15.621-56.568,0
	l-87.748,87.748c-7.501,7.502-11.716,17.676-11.716,28.284s4.214,20.782,11.716,28.284l87.685,87.684
	c7.811,7.811,18.047,11.717,28.284,11.717s20.474-3.906,28.284-11.717c15.621-15.621,15.621-40.947,0-56.568l-19.432-19.432h152.873
	c22.092,0,40-17.908,40-40C979.394,466.977,961.485,449.068,939.394,449.068z"/>
<line fill="none" stroke="#000000" stroke-width="70" stroke-linecap="round" stroke-miterlimit="10" x1="689.768" y1="-166.014" x2="925.346" y2="-166.014"/>
<polyline fill="none" stroke="#000000" stroke-width="70" stroke-linecap="round" stroke-linejoin="round" stroke-miterlimit="10" points="
	763.684,-253.73 675.936,-165.982 763.621,-78.298 "/>
<path fill="#010101" d="M1476.602-653.104H991.496c-37.486,0-66.15,28.665-66.15,66.151v485.105c0,37.486,28.664,66.15,66.15,66.15
	h485.105c37.486,0,66.15-28.664,66.15-66.15v-485.105C1542.752-624.439,1514.088-653.104,1476.602-653.104z M1498.653-101.847
	c0,13.229-8.819,22.049-22.05,22.049H991.496c-13.23,0-22.049-8.819-22.049-22.049v-485.105c0-13.23,8.818-22.049,22.049-22.049
	h485.105c13.229,0,22.049,8.819,22.049,22.049v485.105H1498.653z"/>
<path fill="#010101" d="M1593.784,202.416h-242.552c-13.229,0-22.049,8.819-22.049,22.049c0,13.23,8.819,22.05,22.049,22.05h242.555
	c13.229,0,22.049-8.819,22.049-22.05C1615.836,211.235,1607.014,202.416,1593.784,202.416z"/>
<path fill="#010101" d="M1505.584,290.616h-220.502c-13.23,0-22.049,8.819-22.049,22.049c0,13.23,8.818,22.05,22.049,22.05h220.502
	c13.23,0,22.049-8.819,22.049-22.05C1527.633,299.436,1518.814,290.616,1505.584,290.616z"/>
<path fill="#010101" d="M1395.332,400.869c0-13.23-8.819-22.05-22.05-22.05h-88.2c-13.23,0-22.049,8.819-22.049,22.05
	c0,13.23,8.818,22.049,22.049,22.049h88.2C1386.513,422.918,1395.332,414.099,1395.332,400.869z"/>
<path fill="#010101" d="M1505.584,467.019h-176.402c-13.23,0-22.05,8.819-22.05,22.05c0,13.229,8.819,22.049,22.05,22.049h176.402
	c13.23,0,22.049-8.819,22.049-22.049C1527.633,475.838,1518.814,467.019,1505.584,467.019z"/>
<path fill="none" stroke="#010101" stroke-width="60" stroke-miterlimit="10" d="M1704.63,580.066c0,22.092-16.003,40-35.745,40
	h-432.56c-19.742,0-35.745-17.908-35.745-40V84.008c0-22.091,16.003-40,35.745-40h432.56c19.742,0,35.745,17.909,35.745,40V580.066z
	"/>
<path fill="#010101" d="M576.012,107.248c0-58.367-120.397-102.381-280.053-102.381c-159.657,0-280.054,44.014-280.054,102.381
	v107.868c0,14.005,6.948,27.177,19.687,39.119c-11.03,0.739-19.687,7.982-19.687,16.824v107.868c0,14.005,6.948,27.179,19.69,39.121
	c-11.03,0.739-19.69,7.982-19.69,16.824v107.865c0,58.369,120.397,102.385,280.054,102.385
	c159.656,0,280.053-44.016,280.053-102.385V434.872c0-8.842-8.664-16.085-19.69-16.824c12.745-11.942,19.69-25.116,19.69-39.121
	V271.059c0-8.842-8.66-16.085-19.69-16.823c12.742-11.943,19.69-25.115,19.69-39.12V107.248z M532.927,542.737
	c0,32.379-101.345,68.593-236.968,68.593c-135.626,0-236.969-36.214-236.969-68.593v-51.762
	c48.762,28.264,134.828,46.279,236.969,46.279s188.207-18.016,236.968-46.279V542.737z M59.008,435.039
	c48.764,28.259,134.822,46.27,236.951,46.27c102.129,0,188.187-18.011,236.951-46.27c-0.347,32.335-101.561,68.424-236.951,68.424
	C160.567,503.463,59.355,467.373,59.008,435.039z M532.927,378.927c0,32.379-101.342,68.59-236.968,68.59
	S58.99,411.306,58.99,378.927v-51.762c48.762,28.263,134.828,46.278,236.969,46.278s188.207-18.015,236.968-46.278V378.927z
	 M59.008,271.23c48.764,28.257,134.822,46.268,236.951,46.268c102.129,0,188.187-18.011,236.951-46.268
	c-0.353,32.337-101.562,68.422-236.951,68.422S59.361,303.564,59.008,271.23z M532.927,215.118
	c0,32.377-101.345,68.589-236.968,68.589c-135.626,0-236.969-36.211-236.969-68.59v-51.762
	c48.762,28.263,134.828,46.279,236.969,46.279s188.207-18.016,236.968-46.279V215.118z M295.959,175.838
	c-135.626,0-236.969-36.213-236.969-68.59c0-32.376,101.342-68.59,236.969-68.59s236.968,36.213,236.968,68.59
	C532.927,139.625,431.585,175.838,295.959,175.838z"/>
</svg>
