<?xml version="1.0" encoding="utf-8"?>
<!-- Generator: Adobe Illustrator 16.0.0, SVG Export Plug-In . SVG Version: 6.00 Build 0)  -->
<!DOCTYPE svg PUBLIC "-//W3C//DTD SVG 1.1//EN" "http://www.w3.org/Graphics/SVG/1.1/DTD/svg11.dtd">
<svg version="1.1" id="Layer_1" xmlns="http://www.w3.org/2000/svg" xmlns:xlink="http://www.w3.org/1999/xlink" x="0px" y="0px"
	 width="1000px" height="1000px" viewBox="0 0 1000 1000" enable-background="new 0 0 1000 1000" xml:space="preserve">
<path fill="#FF0000" d="M910.041,253.791L746.209,89.959C728.628,72.377,704.782,62.5,679.918,62.5H156.25
	c-51.777,0-93.75,41.973-93.75,93.75v687.5c0,51.777,41.973,93.75,93.75,93.75h687.5c51.777,0,93.75-41.973,93.75-93.75V320.082
	C937.5,295.218,927.623,271.373,910.041,253.791z M593.75,156.25V312.5h-250V156.25H593.75z M832.031,843.75H167.969
	c-6.472,0-11.719-5.247-11.719-11.719V167.969c0-6.472,5.247-11.719,11.719-11.719H250v203.125
	c0,25.889,20.986,46.875,46.875,46.875h343.75c25.889,0,46.875-20.986,46.875-46.875V163.832L840.318,316.65
	c2.196,2.198,3.432,5.179,3.432,8.287v507.094C843.75,838.503,838.503,843.75,832.031,843.75z M500,453.125
	c-94.771,0-171.875,77.104-171.875,171.875S405.229,796.875,500,796.875S671.875,719.771,671.875,625S594.771,453.125,500,453.125z
	 M500,703.125c-43.078,0-78.125-35.047-78.125-78.125s35.047-78.125,78.125-78.125s78.125,35.047,78.125,78.125
	S543.078,703.125,500,703.125z"/>
</svg>
