<?xml version="1.0" encoding="utf-8"?>
<!-- Generator: Adobe Illustrator 25.4.1, SVG Export Plug-In . SVG Version: 6.00 Build 0)  -->
<svg version="1.1" id="Layer_1" xmlns="http://www.w3.org/2000/svg" xmlns:xlink="http://www.w3.org/1999/xlink" x="0px" y="0px"
	 viewBox="0 0 500 500" style="enable-background:new 0 0 500 500;" xml:space="preserve">
<style type="text/css">
	.st0{fill:#C32126;}
</style>
<path class="st0" d="M218.8,220c14.7,3.1,28.5,6,41.7,8.9l-31.8-58.4c16.6-1.4,32.5-9.6,43.1-24.1c19.5-26.5,13.8-63.9-12.7-83.4
	c-26.5-19.5-63.9-13.8-83.4,12.7c-19.5,26.5-13.8,63.9,12.7,83.4c0,0,0.1,0.1,0.1,0.1l-0.2,0c0,0,29,31.7,29.6,60.6L218.8,220z
	 M193.3,88.7c12.4-16.8,36.1-20.4,52.9-8.1s20.4,36.1,8.1,52.9c-12.4,16.8-36.1,20.4-52.9,8.1C184.6,129.2,181,105.5,193.3,88.7z"/>
<path class="st0" d="M142.8,322c10.6-14.4,13.7-32.1,10.1-48.3l328.4,65c0,0-7.9-43.7-43.5-52.4S333.6,260.8,215.5,236
	c-23.2,31.6-85.4,2.5-85.4,2.5l0,0.2c0,0-0.1-0.1-0.1-0.1c-26.5-19.5-63.9-13.8-83.4,12.7c-19.5,26.5-13.8,63.9,12.7,83.4
	C85.9,354.2,123.3,348.5,142.8,322z M244.1,260.8c4.2-5.6,12.1-6.9,17.7-2.7c5.6,4.2,6.9,12.1,2.7,17.7c-4.2,5.6-12.1,6.9-17.7,2.7
	C241.2,274.4,240,266.4,244.1,260.8z M64.3,264.3c12.4-16.8,36.1-20.4,52.9-8.1s20.4,36.1,8.1,52.9c-12.4,16.8-36.1,20.4-52.9,8.1
	S51.9,281.1,64.3,264.3z"/>
<path class="st0" d="M334.4,364.6l-23.4-43L250,309.6c11.8,20.7,22.4,39,31.8,55H334.4z"/>
</svg>
