<?xml version="1.0" encoding="utf-8"?>
<!-- Generator: Adobe Illustrator 16.0.0, SVG Export Plug-In . SVG Version: 6.00 Build 0)  -->
<!DOCTYPE svg PUBLIC "-//W3C//DTD SVG 1.1//EN" "http://www.w3.org/Graphics/SVG/1.1/DTD/svg11.dtd">
<svg version="1.1" id="Layer_1" xmlns="http://www.w3.org/2000/svg" xmlns:xlink="http://www.w3.org/1999/xlink" x="0px" y="0px"
	 width="1200px" height="1200px" viewBox="0 0 1200 1200" enable-background="new 0 0 1200 1200" xml:space="preserve">
<path d="M693.774,474.951v62.5c0,12.891-10.547,23.438-23.438,23.438H560.962v109.375c0,12.891-10.547,23.438-23.438,23.438h-62.5
	c-12.891,0-23.438-10.547-23.438-23.438V560.889H342.212c-12.891,0-23.438-10.547-23.438-23.438v-62.5
	c0-12.891,10.547-23.438,23.438-23.438h109.375V342.139c0-12.891,10.547-23.438,23.438-23.438h62.5
	c12.891,0,23.438,10.547,23.438,23.438v109.375h109.375C683.228,451.514,693.774,462.061,693.774,474.951z M1086.353,1031.006
	l-55.273,55.273c-18.359,18.359-48.047,18.359-66.211,0L769.946,891.553c-8.789-8.789-13.672-20.703-13.672-33.203v-31.836
	c-68.945,53.906-155.664,85.938-250,85.938c-224.414,0-406.25-181.836-406.25-406.25s181.836-406.25,406.25-406.25
	s406.25,181.836,406.25,406.25c0,94.336-32.031,181.055-85.938,250h31.836c12.5,0,24.414,4.883,33.203,13.672L1086.353,964.6
	C1104.517,982.959,1104.517,1012.646,1086.353,1031.006z M771.899,506.201c0-146.875-118.75-265.625-265.625-265.625
	s-265.625,118.75-265.625,265.625s118.75,265.625,265.625,265.625S771.899,653.076,771.899,506.201z"/>
</svg>
