<?xml version="1.0" encoding="utf-8"?>
<!-- Generator: Adobe Illustrator 24.1.0, SVG Export Plug-In . SVG Version: 6.00 Build 0)  -->
<svg version="1.1" id="Layer_1" xmlns="http://www.w3.org/2000/svg" xmlns:xlink="http://www.w3.org/1999/xlink" x="0px" y="0px"
	 viewBox="0 0 1505.2 1478.3" style="enable-background:new 0 0 1505.2 1478.3;" xml:space="preserve">
<style type="text/css">
	.st0{fill:#FF0000;}
</style>
<path class="st0" d="M804.9,0C418.1,0,104.6,313.5,104.6,700.3s313.5,700.3,700.3,700.3s700.3-313.5,700.3-700.3S1191.6,0,804.9,0z
	 M878.5,99.6c141.6,0,256.2,114.9,256.2,256.4S1020,612.2,878.5,612.2c-5.7,0-11.4-0.2-17-0.6c10.2-27.4,15.5-56.8,15.5-86.9
	c0-66.8-26-129.6-73.2-176.8c-45.3-45.3-104.8-71-168.4-73.1C669.3,173,765.3,99.6,878.5,99.6z M627,324.6c110.5,0,200,89.5,200,200
	s-89.5,200-200,200s-200-89.5-200-200S516.5,324.6,627,324.6z M977,1049.6c0,41.4-33.6,75-75,75H352c-41.4,0-75-33.6-75-75v-65
	c0-115.9,94.1-210,210-210h26.1c34.8,15.9,73.3,25,113.9,25s79.2-9.1,113.9-25H767c115.9,0,210,94.1,210,210V1049.6z M1230.9,1124.6
	h-229c15.8-20.9,25.1-46.9,25.1-75v-65c0-140.1-111.3-254.6-250.2-259.8c9.4-7.1,18.5-14.9,27-23.4c0.4-0.4,0.7-0.7,1.1-1.1
	c23.8,5.1,48.4,7.9,73.7,7.9c52,0,101.5-11.6,145.9-32h33.4c148.5,0,269.1,120.5,269.1,269v83.3
	C1327,1081.6,1284,1124.6,1230.9,1124.6z"/>
</svg>
