<?xml version="1.0" encoding="utf-8"?>
<!-- Generator: Adobe Illustrator 16.0.0, SVG Export Plug-In . SVG Version: 6.00 Build 0)  -->
<!DOCTYPE svg PUBLIC "-//W3C//DTD SVG 1.1//EN" "http://www.w3.org/Graphics/SVG/1.1/DTD/svg11.dtd">
<svg version="1.1" id="Layer_1" xmlns="http://www.w3.org/2000/svg" xmlns:xlink="http://www.w3.org/1999/xlink" x="0px" y="0px"
	 width="1200px" height="1200px" viewBox="0 0 1200 1200" enable-background="new 0 0 1200 1200" xml:space="preserve">
<path fill="#FF0000" d="M1078.54,633.183L750.415,961.308c-29.297,29.297-80.078,8.789-80.078-33.203v-187.5H404.712
	c-25.977,0-46.875-20.898-46.875-46.875v-187.5c0-25.977,20.898-46.875,46.875-46.875h265.625v-187.5
	c0-41.797,50.586-62.5,80.078-33.203l328.125,328.125C1096.704,585.136,1096.704,614.823,1078.54,633.183z M482.837,951.542v-78.125
	c0-12.891-10.547-23.438-23.438-23.438H295.337c-34.57,0-62.5-27.93-62.5-62.5v-375c0-34.57,27.93-62.5,62.5-62.5h164.062
	c12.891,0,23.438-10.547,23.438-23.438v-78.125c0-12.891-10.547-23.438-23.438-23.438H295.337c-103.516,0-187.5,83.984-187.5,187.5
	v375c0,103.516,83.984,187.5,187.5,187.5h164.062C472.29,974.979,482.837,964.433,482.837,951.542z"/>
</svg>
