<?xml version="1.0" encoding="utf-8"?>
<!-- Generator: Adobe Illustrator 16.0.0, SVG Export Plug-In . SVG Version: 6.00 Build 0)  -->
<!DOCTYPE svg PUBLIC "-//W3C//DTD SVG 1.1//EN" "http://www.w3.org/Graphics/SVG/1.1/DTD/svg11.dtd">
<svg version="1.1" id="Layer_1" xmlns="http://www.w3.org/2000/svg" xmlns:xlink="http://www.w3.org/1999/xlink" x="0px" y="0px"
	 width="1000px" height="1000px" viewBox="0 0 1000 1000" enable-background="new 0 0 1000 1000" xml:space="preserve">
<path fill="#0066CC" d="M724.062,260.312c-61.059-57.172-140.297-88.512-224.359-88.438
	c-151.285,0.133-281.891,103.863-317.951,247.754c-2.625,10.475-11.957,17.871-22.756,17.871H47.076
	c-14.645,0-25.77-13.295-23.061-27.688C66.275,185.398,263.307,15.625,500,15.625c129.781,0,247.639,51.047,334.6,134.15
	l69.756-69.756c29.529-29.529,80.02-8.615,80.02,33.146V375c0,25.889-20.986,46.875-46.875,46.875H675.666
	c-41.762,0-62.676-50.49-33.146-80.021L724.062,260.312z M62.5,578.125h261.834c41.762,0,62.676,50.49,33.146,80.021l-81.543,81.543
	c61.059,57.174,140.303,88.514,224.367,88.438C651.512,827.99,782.17,724.33,818.248,580.375
	c2.625-10.475,11.957-17.871,22.756-17.871h111.922c14.645,0,25.77,13.295,23.061,27.688
	C933.725,814.602,736.693,984.375,500,984.375c-129.781,0-247.639-51.047-334.6-134.15L95.645,919.98
	c-29.529,29.529-80.02,8.615-80.02-33.146V625C15.625,599.111,36.611,578.125,62.5,578.125z"/>
</svg>
