<?xml version="1.0" encoding="utf-8"?>
<!-- Generator: Adobe Illustrator 16.0.0, SVG Export Plug-In . SVG Version: 6.00 Build 0)  -->
<!DOCTYPE svg PUBLIC "-//W3C//DTD SVG 1.1//EN" "http://www.w3.org/Graphics/SVG/1.1/DTD/svg11.dtd">
<svg version="1.1" id="Layer_1" xmlns="http://www.w3.org/2000/svg" xmlns:xlink="http://www.w3.org/1999/xlink" x="0px" y="0px"
	 width="1200px" height="1200px" viewBox="0 0 1200 1200" enable-background="new 0 0 1200 1200" xml:space="preserve">
<circle fill="#FFFFFF" cx="600" cy="600" r="572.5"/>
<path fill="#CC0000" d="M600,115.625c-267.578,0-484.375,216.797-484.375,484.375S332.422,1084.375,600,1084.375
	S1084.375,867.578,1084.375,600S867.578,115.625,600,115.625z M837.5,727.148c9.18,9.18,9.18,24.023,0,33.203L760.156,837.5
	c-9.18,9.18-24.023,9.18-33.203,0L600,709.375L472.852,837.5c-9.18,9.18-24.023,9.18-33.203,0L362.5,760.156
	c-9.18-9.18-9.18-24.023,0-33.203L490.625,600L362.5,472.852c-9.18-9.18-9.18-24.023,0-33.203l77.344-77.344
	c9.18-9.18,24.023-9.18,33.203,0L600,490.625L727.148,362.5c9.18-9.18,24.023-9.18,33.203,0l77.344,77.344
	c9.18,9.18,9.18,24.023,0,33.203L709.375,600L837.5,727.148z"/>
</svg>
