<?xml version="1.0" encoding="utf-8"?>
<!-- Generator: Adobe Illustrator 16.0.0, SVG Export Plug-In . SVG Version: 6.00 Build 0)  -->
<!DOCTYPE svg PUBLIC "-//W3C//DTD SVG 1.1//EN" "http://www.w3.org/Graphics/SVG/1.1/DTD/svg11.dtd">
<svg version="1.1" id="Layer_1" xmlns="http://www.w3.org/2000/svg" xmlns:xlink="http://www.w3.org/1999/xlink" x="0px" y="0px"
	 width="1200px" height="1200px" viewBox="0 0 1200 1200" enable-background="new 0 0 1200 1200" xml:space="preserve">
<path fill="#0066CC" d="M943.75,600.001H459.375V398.634c0-77.344,61.914-141.602,139.258-142.383
	c78.125-0.781,141.992,62.695,141.992,140.625v31.25c0,25.977,20.898,46.875,46.875,46.875H850
	c25.977,0,46.875-20.898,46.875-46.875v-31.25c0-164.062-133.789-297.461-297.852-296.875S303.125,235.743,303.125,399.806v200.195
	H256.25c-51.758,0-93.75,41.992-93.75,93.75v312.5c0,51.758,41.992,93.75,93.75,93.75h687.5c51.758,0,93.75-41.992,93.75-93.75
	v-312.5C1037.5,641.993,995.508,600.001,943.75,600.001z"/>
<path fill="#FFFFFF" d="M666.667,897.763c0,36.819-29.848,66.667-66.667,66.667l0,0c-36.819,0-66.667-29.848-66.667-66.667V769.693
	c0-36.819,29.848-66.667,66.667-66.667l0,0c36.819,0,66.667,29.848,66.667,66.667V897.763z"/>
</svg>
