<?xml version="1.0" encoding="utf-8"?>
<!-- Generator: Adobe Illustrator 16.0.0, SVG Export Plug-In . SVG Version: 6.00 Build 0)  -->
<!DOCTYPE svg PUBLIC "-//W3C//DTD SVG 1.1//EN" "http://www.w3.org/Graphics/SVG/1.1/DTD/svg11.dtd">
<svg version="1.1" id="Layer_1" xmlns="http://www.w3.org/2000/svg" xmlns:xlink="http://www.w3.org/1999/xlink" x="0px" y="0px"
	 width="1200px" height="1200px" viewBox="0 0 1200 1200" enable-background="new 0 0 1200 1200" xml:space="preserve">
<path fill="#FF0000" d="M450,600c110.469,0,200-89.531,200-200s-89.531-200-200-200s-200,89.531-200,200S339.531,600,450,600z
	 M590,650h-26.094c-34.688,15.938-73.282,25-113.907,25s-79.062-9.062-113.906-25H310c-115.938,0-210,94.062-210,210v65
	c0,41.406,33.594,75,75,75h550c41.406,0,75-33.594,75-75v-65C800,744.062,705.938,650,590,650z M1094.688,449.375l-43.438-43.906
	c-7.188-7.344-18.906-7.344-26.25-0.156l-163.75,162.5l-71.094-71.562c-7.188-7.344-18.906-7.344-26.25-0.156L720,539.688
	c-7.344,7.188-7.344,18.906-0.156,26.25L847.5,694.531c7.188,7.344,18.906,7.344,26.25,0.156l220.781-219.062
	C1101.719,468.281,1101.875,456.562,1094.688,449.375z"/>
</svg>
