<?xml version="1.0" encoding="utf-8"?>
<!-- Generator: Adobe Illustrator 24.1.0, SVG Export Plug-In . SVG Version: 6.00 Build 0)  -->
<svg version="1.1" id="Layer_1" xmlns="http://www.w3.org/2000/svg" xmlns:xlink="http://www.w3.org/1999/xlink" x="0px" y="0px"
	 viewBox="0 0 1200 1200" style="enable-background:new 0 0 1200 1200;" xml:space="preserve">
<style type="text/css">
	.st0{fill:#FF9100;}
</style>
<path class="st0" d="M450,600c110.5,0,200-89.5,200-200s-89.5-200-200-200s-200,89.5-200,200S339.5,600,450,600z M590,650h-26.1
	c-34.7,15.9-73.3,25-113.9,25s-79.1-9.1-113.9-25H310c-115.9,0-210,94.1-210,210v65c0,41.4,33.6,75,75,75h550c41.4,0,75-33.6,75-75
	v-65C800,744.1,705.9,650,590,650z M1094.7,449.4l-43.4-43.9c-7.2-7.3-18.9-7.3-26.2-0.2L861.2,567.8l-71.1-71.6
	c-7.2-7.3-18.9-7.3-26.2-0.2L720,539.7c-7.3,7.2-7.3,18.9-0.2,26.2l127.7,128.6c7.2,7.3,18.9,7.3,26.2,0.2l220.8-219.1
	C1101.7,468.3,1101.9,456.6,1094.7,449.4z"/>
</svg>
