<?xml version="1.0" encoding="utf-8"?>
<!-- Generator: Adobe Illustrator 26.0.3, SVG Export Plug-In . SVG Version: 6.00 Build 0)  -->
<svg version="1.1" id="Layer_1" xmlns="http://www.w3.org/2000/svg" xmlns:xlink="http://www.w3.org/1999/xlink" x="0px" y="0px"
	 viewBox="0 0 640 640" style="enable-background:new 0 0 640 640;" xml:space="preserve">
<style type="text/css">
	.st0{fill:#FF0000;}
</style>
<path class="st0" d="M95.1,541.3c0,19.1,15.5,34.7,34.7,34.7h378.7c5.6,0,10.7-1.6,15.4-4l-259-203.6
	C171.3,370.7,95.1,447.1,95.1,541.3z M630.8,533.1L353.7,315.2c54.7-14.6,95.2-63.9,95.2-123.2c-1.8-70.7-58.2-128-129.8-128
	c-68.9,0-125.4,55.9-126.8,125.4L38.9,69.1C34.4,65.7,29.2,64,24,64c-7.1,0-14.2,3.2-18.9,9.2c-8.2,10.4-6.4,25.5,4.1,33.7l592,464
	c10.5,8.2,25.6,6.3,33.7-4.1C643.1,556.4,641.2,541.3,630.8,533.1z"/>
</svg>
