<?xml version="1.0" encoding="utf-8"?>
<!-- Generator: Adobe Illustrator 26.0.3, SVG Export Plug-In . SVG Version: 6.00 Build 0)  -->
<svg version="1.1" id="Layer_1" xmlns="http://www.w3.org/2000/svg" xmlns:xlink="http://www.w3.org/1999/xlink" x="0px" y="0px"
	 viewBox="0 0 192.6 120.8" style="enable-background:new 0 0 192.6 120.8;" xml:space="preserve">
<style type="text/css">
	.st0{fill:#FFFFFF;}
	.st1{font-family:'NovalisJY-Light';}
	.st2{font-size:49.4079px;}
</style>
<g>
	<g>
		<path class="st0" d="M129.7,59.3c-2,0.6-11.9-2.7-13.1-3c-0.4-0.1-4.5-1-5.6-1.5c-1.5-0.7-2.9-1.5-4.4-2.1
			c-0.9-0.4-7.7-3.2-8.8-3.7c-1.1-0.5-2.3-1-3.4-1.5c-0.3-0.1-0.5-0.3-0.7-0.5c-0.8-0.6-1.6-1.2-2.4-1.8c-0.3-0.2-0.7-0.3-1-0.5
			c-0.7-0.4-1.4-0.8-2-1.2c-1.1-0.7-2.3-1.4-3.4-2c-0.8-0.4-1.5-0.8-2-1.5c-0.2-0.3-2-1.1-2.6-1.4c-0.5-0.3-1-0.8-1.5-1.2
			c-0.6-0.5-3.4-2.2-3.9-2.9c-0.4-0.6-0.8-1-1.4-1.4c-0.8-0.6-1.5-1.3-2.3-1.9c-1.1-0.9-5.4-4.5-5.8-4.8c-0.6-0.4-1.8-2.2-2.1-2.5
			c-0.6-0.6-1.2-1.2-1.8-1.8c-0.3-0.3-0.6-0.5-0.9-0.8c-0.5-0.5-1-1-1.4-1.5c-0.2-0.3-0.4-0.6-0.7-0.8c-0.8-0.5-2.9-3-3-3.2
			c-1.5-1.9-5.6-7.7-6.3-8.7c-0.3-0.4-0.7-0.8-1.1-1c-1.4-0.6-2.9-1.1-4.5-1c-1,0.1-1.9,0-2.9-0.1c-0.4,0-0.7-0.2-1.1-0.3
			c-0.6-0.2-1.2-0.4-1.8-0.5c-1-0.1-1.7-0.8-2.5-1.3C35.1,3,35,2.8,34.9,2.7c-0.4-0.5-0.3-1,0-1.4s0.7-0.3,1.1-0.2
			c1.4,0.3,2.8,0.7,4.3,0.3c0.4-0.1,0.8-0.1,1.3-0.1c1.7,0.1,3.5,0.2,5.2,0.5c1,0.1,1.7,0.9,2.3,1.8c0.5,0.8,1.1,1.5,1.7,2.2
			c0.8,1,1.5,2.1,2.3,3c0.9,1.1,2,2,2.8,3.1c1,1.3,3.9,4.2,4.2,4.5c0.1,0.1,2.6,2.8,3.8,3.9c1.2,1.2,2.4,2.3,3.7,3.4
			c1.1,1,2.2,1.9,3.3,2.9c0.4,0.3,0.7,0.5,1.1,0.8c1.1,0.9,2.2,1.9,3.3,2.8c0.4,0.3,0.8,0.4,1.2,0.7c0.6,0.4,1.3,0.9,1.9,1.3
			c0.8,0.5,1.5,1,2.3,1.5c0.6,0.4,6.3,4.2,6.3,4.2c0.9,0.6,1.8,1.1,2.6,1.7c1.7,1.1,3.4,2.3,5.2,3.2c0.8,0.5,18.1,8.4,19.4,9
			c1.3,0.6,9.9,3,11.5,3.2c0.8,0.1,1.6,0.3,2.4,0.4c0.9,0.1,2.7,0.4,3.7,0.5c1.4,0,0.6,1.3-0.3,2.4S129.8,59.3,129.7,59.3z"/>
	</g>
	<g>
		<path class="st0" d="M49,19.3c0.7,1.1,1,1.3,1.3,1.9c0.1,0.2,1.8,3.3,2.3,3.7c0.4,0.4,1.6,2.5,2,2.9c0.4,0.4,1.2,1.4,1.2,1.4
			c0.1,0.1,4,3.8,4.3,4.1c0.1,0.1,0.6,0.6,0.7,0.8c0.2,0.2,2.5,2.4,2.5,2.4c0.5,0.6,1.1,1.3,1.9,1.7c0.1,0.1,1.2,0.6,1.5,1
			c0.8,1,1.3,1.9,2.7,2.6c0.6,0.3,8.5,5.9,9,6.3c0.4,0.3,2.2,1,2.6,1.2c0.8,0.5,5.7,3.2,6.2,3.4c0.4,0.1,0.9,0.3,1.3,0.4
			c0.3,0.1,0.9,0.5,0.9,0.5c0.5,0.3,3.4,2.3,4.5,2.8c1,0.5,2.7,0.8,3,1.1c1.1,0.8,2.5,1.2,3.7,1.6c0,0,2.7,0.9,3.7,1.4
			c0.1,0.1,1.7,0.9,2.3,1.1c1.6,0.5,3.3,1,4.9,1.5c0.6,0.2,1.3,0.4,1.9,0.6c0,0,5.3,1.4,6.2,1.7c0.9,0.3,2.6,0.3,3.1-0.1
			c0.6-0.4,2.9-1.7,2.4-2.2c-0.5-0.6-1.7-0.3-3-0.8c-0.6-0.2-4.9-1.4-5.5-1.5c-0.8-0.1-11.6-4.6-12.2-4.9c-0.5-0.2-5.6-2.3-6.3-2.5
			c-0.3-0.1-2.6-1.3-3.3-1.5c-1.2-0.5-2.4-1.1-3.5-1.7c-0.6-0.3-3.3-1.8-4.1-2.1c-2-0.8-3.7-1.7-5.3-2.7c-0.6-0.4-1.3-0.8-2-1.1
			c0,0-0.1,0-0.1-0.1c-0.5-0.3-2-1.1-2.2-1.2c-0.8-0.4-7.6-5.8-9.2-7.2c-2.2-1.8-11.1-10.9-11.5-11.3c-1.3-1.5-2.1-2.5-3-3.5
			c0,0-3.3-4.4-3.3-4.5c-0.3-0.5-2.2-3.6-2.6-2.2C47.8,15.4,48.4,18.3,49,19.3z"/>
	</g>
	<g>
		<path class="st0" d="M52.1,36.2c0.1,0.3,3.1,4.4,4.1,5.5c1,1.1,6.9,6.1,7.4,6.4c0.4,0.2,0.7,0.5,1.1,0.8c0.4,0.3,0.8,0.6,1.2,1
			c0.8,0.6,3.2,2.3,3.6,2.6c0.8,0.5,1.6,1,2.3,1.7c0.3,0.3,1.8,1.2,2.4,1.5c0.6,0.3,1.3,1.1,1.9,1.4c0.6,0.3,1.5,0.9,2.1,1.3
			c1.2,0.7,7,3.1,8.5,4c0.8,0.5,4.5,2.1,4.8,2.3c0.7,0.3,7,3,7.7,3.3c0.4,0.2,2.2,0.6,4,1.3c1.8,0.7,8.2,2.3,9.8,2.3
			c1.6,0,3-1,3.5-1.2c0.4-0.2,0.1-0.8-0.2-1c-0.3-0.2-1-0.4-1.2-0.4c-4.7-1.1-9.9-3-11.3-3.5c-1.5-0.5-5.6-2-6.4-2.4
			c-0.8-0.4-1.7-0.7-2.5-1.1c-0.4-0.1-3.7-1.6-4.8-2c-0.2-0.1-3.4-1.5-4-1.8c-0.8-0.5-10.2-5.4-12-7c-0.8-0.7-8.9-6.9-12.1-9.2
			c-2.3-1.6-2.4-2-3.9-3.8c-0.1-0.2-1.5-1.3-1.7-1.5c-0.4-0.4-1.7-2.2-2-2.6c-0.4-0.4-0.8-0.9-1.2-1.3c-0.2-0.2-1.8-2.6-2.2-1.6
			C50.8,31.8,51,34,52.1,36.2z"/>
	</g>
	<g>
		<path class="st0" d="M65.6,60.5c0.8,0.6,5.9,4.3,6.8,4.9c0.9,0.6,1.8,1.3,2.8,1.8c2.5,1.3,5.1,2.5,7.7,3.6c1,0.4,4,1.8,4.5,2
			c0,0,6,2.3,6.3,2.3c0.4,0.1,0.7,0.3,1.1,0.4c1.2,0.5,4,0.6,5.7,0.8c1.7,0.1,5.1-0.6,5.6-1.3c0.1-0.2,0.1-0.9-0.2-1.1
			s-1.5-0.4-2-0.6c-1.5-0.5-5-1.4-5.6-1.7c0,0-3.5-0.6-4.3-0.9c-2.1-0.8-4-1.6-6-2.4c-1-0.4-2.1-0.8-3.1-1.2c-0.8-0.4-5-2.4-6.3-2.9
			c-1.1-0.4-2.7-1.8-2.7-1.8c-0.3-0.3-6.7-4.3-8.7-5.7c-0.1-0.1-3.4-2.7-3.5-2.7c-0.4-0.3-2.1-1.9-2.5-2.1c-0.7-0.5-5.9-6.5-5.4-3.6
			c0.4,2.4,2.8,5.6,3.4,6.1c0.7,0.7,1.6,2,3,3C62.5,57.8,64.8,59.9,65.6,60.5z M65.6,60.7L65.6,60.7L65.6,60.7z"/>
	</g>
	<g>
		<path class="st0" d="M108.2,43.3c-0.9,0-2-0.4-2.3-0.7c-0.2-0.2-0.3-0.4-0.2-0.6c0-0.2,0.2-0.4,0.4-0.5c0.7-0.4,1.4-0.7,2-0.9
			l2.7-1c3.2-1.2,7.3-2.8,9.8-3.7c0.4-0.1,0.7-0.3,1.1-0.5c2.4-1.2,8.4-4.3,9.4-5l0.1-0.1c1.4-1.1,2.8-2.3,4.1-3.4
			c1.6-1.4,3-2.9,4.3-4.2c0.5-0.5,1-1.1,1.4-1.6c0.4-0.4,0.7-0.8,1-1.2c0.4-0.4,0.8-0.7,1.1-1.1l0.2-0.1c0.2-0.2,0.5-0.3,0.7-0.2
			c0.2,0.1,0.4,0.2,0.5,0.6c0.1,0.4,0.1,0.9,0.2,1.3l0,0.3c0,0.2,0,0.4-0.1,0.6l-0.1,0.3c-0.3,0.4-0.6,1-0.9,1.3l0,0
			c-0.4,0.4-1.5,1.8-2.6,3c-1.1,1.3-1.7,2-1.8,2.1c-0.8,0.8-1.6,1.6-2.4,2.5c-1,1-5.7,4.3-6.8,5c-2.7,1.8-5.5,3.1-7.7,4.1
			c-0.2,0.1-0.4,0.2-0.6,0.3c-0.6,0.3-1.1,0.6-1.8,0.7c-0.1,0-1.1,0.4-2.2,0.7c-1.9,0.6-4.3,1.4-4.7,1.5c-0.3,0.1-1.6,0.4-2.2,0.4
			c-0.6,0.1-1.1,0.1-1.8,0.2l-0.4,0.1C108.5,43.3,108.3,43.3,108.2,43.3z"/>
	</g>
	<g>
		<path class="st0" d="M117.8,47.8c-0.6,0-1,0-1.1,0c-0.3-0.1-0.6-0.1-0.7-0.4c-0.1-0.2,0-0.6,0.1-0.8c0.3-0.3,0.6-0.7,1.1-0.9
			c1.1-0.6,3.4-1.5,5.5-2.3c1.5-0.6,3-1.1,3.9-1.5c2.2-1,8.3-4.7,9-5.3c0.6-0.4,2-1.7,3-2.6c0.4-0.4,0.8-0.9,1.3-1.5
			c0.8-1,1.8-2.2,2.8-3.1c0.1,0,0.1-0.1,0.1-0.1c0.1-0.1,0.2-0.1,0.3-0.2c0.1,0,0.1,0,0.2-0.1c0.3-0.1,0.6-0.2,0.8,0
			c0.1,0.1,0.2,0.2,0.3,0.4l0,0c0.2,0.4,0.2,0.8,0,1.2c-0.4,0.9-3.4,4.6-3.8,5c-0.3,0.3-0.6,0.7-0.9,1c-0.2,0.2-0.4,0.4-0.6,0.7
			c-0.7,0.8-2,1.8-2.7,2.4c-1.5,1.1-6.2,3.8-7.3,4.3c-0.8,0.4-1.7,0.8-2.5,1.1c-0.6,0.3-1.3,0.6-1.9,0.9c-0.2,0.1-1,0.4-2.3,0.7
			c-0.8,0.2-1.7,0.5-1.8,0.6C119.9,47.8,118.7,47.8,117.8,47.8z"/>
	</g>
	<g>
		<path class="st0" d="M127.2,52.4c-0.7,0-1.3-0.1-1.5-0.3c-0.2-0.1-0.3-0.3-0.3-0.5c0-0.3,0.4-0.5,0.7-0.7c0.1,0,0.1-0.1,0.1-0.1
			c2.2-1.2,6.5-3.5,8.1-4.4l0.4-0.2c1-0.5,3.2-2.4,4.8-3.9c0.2-0.2,0.8-0.4,1-0.2c0.2,0.2,0.4,0.6,0.4,1c0,1-1.1,2.1-2,3
			c-0.4,0.3-0.7,0.6-0.8,0.9c-0.4,0.5-1.2,1-1.8,1.5c-0.3,0.2-0.5,0.4-0.7,0.5c-0.5,0.4-1.6,0.8-2.4,1.1l-0.1,0.1
			c-0.1,0-0.3,0.1-0.6,0.3c-1,0.5-2.8,1.3-3.4,1.5C128.5,52.4,127.8,52.4,127.2,52.4z"/>
	</g>
	<g>
		<path class="st0" d="M101.5,37.7c-1.1,0-2.2-0.2-2.8-0.6c-0.3-0.2-0.4-0.4-0.4-0.7c0-0.6,0.7-1.1,1.4-1.3l0.4-0.1
			c0.8-0.3,2.6-0.8,3.2-1c1.3-0.4,2.5-1,3.7-1.5c1.1-0.5,2.3-1.1,3.5-1.5c0.1-0.1,0.3-0.1,0.4-0.2c0.1,0,0.2-0.1,0.2-0.1
			c0.5-0.2,1.5-0.6,2.5-1.1c1.4-0.6,3.1-1.3,3.7-1.6c1.4-0.7,2.6-1.3,3.7-1.9c1.7-0.9,3.5-1.9,5.3-3c1.5-0.9,3-1.9,4.5-2.9
			c0.6-0.4,1.2-0.9,1.8-1.4c0.3-0.3,0.6-0.5,0.9-0.8c0.5-0.4,1-0.9,1.5-1.5c0.5-0.5,1-1.1,1.4-1.5c1-0.8,2.5-3.5,3.4-5.3
			c0.2-0.4,0.4-0.8,0.6-1.1c0.4-0.7,0.8-1.5,1.2-2.4c0.7-1.5,1.5-3.1,2.4-4c2.2-2.1,5.6-1.7,7.5-1.5l0.3,0c0.1,0,0.2,0,0.3,0
			c0.4,0,0.8,0.1,1.3,0.2c1.2,0.4,2.2,0.3,3.4,0.2c0.2,0,0.4-0.1,0.6-0.1h0.1c0.4-0.1,0.8-0.1,1.1,0.4l0,0c0.3,0.6-0.1,1.5-0.5,1.8
			c-0.4,0.2-1.6,0.9-2.7,0.9c-0.3,0-1,0.1-1.7,0.2c-0.6,0.1-1.1,0.2-1.2,0.2h-0.1c-0.9,0-1.9-0.1-2.8-0.2c-1.5-0.2-3.3-0.5-4.4,0.5
			c-0.5,0.4-0.8,1.5-1.2,2.6c-0.3,0.8-0.5,1.6-0.9,2.3c-0.1,0.3-0.3,0.6-0.4,0.9c-0.8,1.6-1.9,3.9-2.8,4.9c-0.4,0.4-0.8,0.9-1.3,1.5
			c-0.6,0.8-1.3,1.6-1.9,2.1c-0.4,0.3-0.8,0.7-1.2,1.1c-0.5,0.4-0.9,0.9-1.4,1.3c0,0-0.1,0.1-0.1,0.1c-2.5,2.4-4.6,4-5.9,4.7
			c-0.4,0.2-0.8,0.5-1.2,0.7c-0.4,0.3-0.8,0.6-1.3,0.8c-0.8,0.4-1.6,0.8-2.4,1.1c-0.6,0.3-1.1,0.5-1.7,0.8c-0.2,0.1-0.6,0.3-1.2,0.6
			c-0.9,0.5-2.1,1.1-2.6,1.3c-0.8,0.4-1.7,0.8-2.7,1.4c-0.4,0.2-2.4,1-4.2,1.7c-1.1,0.4-2,0.8-2.3,0.9c-1.4,0.6-3.8,1.2-4.9,1.5
			c-0.2,0.1-0.4,0.1-0.4,0.1C102.8,37.7,102.1,37.7,101.5,37.7z"/>
	</g>
	<text transform="matrix(1 0 0 1 29.6317 119.3232)" class="st0 st1 st2">ARCA</text>
</g>
</svg>
