<?xml version="1.0" encoding="utf-8"?>
<!-- Generator: Adobe Illustrator 26.0.2, SVG Export Plug-In . SVG Version: 6.00 Build 0)  -->
<svg version="1.1" id="Layer_1" xmlns="http://www.w3.org/2000/svg" xmlns:xlink="http://www.w3.org/1999/xlink" x="0px" y="0px"
	 viewBox="0 0 168.1 143.2" style="enable-background:new 0 0 168.1 143.2;" xml:space="preserve">
<style type="text/css">
	.st0{display:none;}
	.st1{enable-background:new    ;}
	.st2{fill:#FFFFFF;}
</style>
<g id="Layer_2_00000166642889345347710640000000196639076764465319_" class="st0">
	
		<image style="display:inline;overflow:visible;opacity:0.5;enable-background:new    ;" width="238" height="225" xlink:href="../../../../../../../NCrease/SWAPP Scuola Trento/logo.png"  transform="matrix(1 0 0 1 -19.1483 0)">
	</image>
</g>
<g id="Layer_2_00000093885458205134030790000002357987941580268177_" class="st0">
	
		<image style="display:inline;overflow:visible;enable-background:new    ;" width="238" height="225" xlink:href="../../../../../../../NCrease/SWAPP Scuola Trento/logo.png"  transform="matrix(1 0 0 1 -19.4362 0.3929)">
	</image>
</g>
<g class="st1">
	<path class="st2" d="M68.4,95.5h4.5c0.1,0,0.2,0.1,0.2,0.1c0,0.1,0,0.1,0,0.2L73,96.4c0,0,0,0.1-0.1,0.2c0,0.1-0.2,0.1-0.3,0.1
		c-0.1,0-0.3,0-0.5,0c-0.2,0-0.4,0-0.8,0.1c-0.4,0-0.7,0.1-1,0.1c-0.3,0-0.5,0-0.7,0.1c-0.1,0-0.2,0-0.3,0c-0.1,0-0.2,0.1-0.2,0.1
		c0,0-0.1,0.1-0.1,0.2c0,0-0.1,0.1-0.1,0.1c0,0.1,0,0.1,0,0.2c0,0.1,0,0.1,0.1,0.2c0,0,0.2,0.1,0.5,0.4c0.4,0.2,0.7,0.5,1.1,0.7
		c0.4,0.3,0.7,0.5,1.1,0.7c0.3,0.2,0.6,0.4,0.9,0.6c0.1,0.1,0.2,0.2,0.4,0.4c0.1,0.2,0.2,0.4,0.2,0.7v2.3c0,0.1,0,0.1-0.1,0.2
		c-0.1,0.1-0.2,0.1-0.3,0.1l-5.1,0c-0.1,0-0.2-0.1-0.2-0.2l0.1-0.7c0.1-0.2,0.1-0.3,0.2-0.3l3.8-0.3c0.2,0,0.3-0.1,0.3-0.3
		c0-0.1,0-0.3-0.1-0.5c-0.1-0.2-0.1-0.3-0.2-0.4c-0.2-0.1-0.4-0.3-0.7-0.4c-0.3-0.1-0.8-0.5-1.7-1c-0.9-0.5-1.4-0.8-1.4-0.9
		c-0.1-0.1-0.2-0.2-0.3-0.3c0-0.1-0.1-0.2-0.1-0.3l0-2.1c0-0.1,0-0.2,0.1-0.3c0-0.1,0.1-0.2,0.3-0.3C67.9,95.6,68.1,95.5,68.4,95.5z
		"/>
	<path class="st2" d="M78.8,103.9h-3.4c-0.3,0-0.5-0.1-0.6-0.3c-0.1-0.2-0.2-0.4-0.2-0.5c0-0.1-0.1-0.4-0.1-0.7
		c0-0.3-0.1-0.7-0.1-1.3c0-0.6,0-1.1,0-1.6c0-0.1,0-0.2,0-0.2c0-0.1,0-0.1,0-0.2c0-0.2,0.1-0.5,0.2-0.7c0-0.1,0.1-0.2,0.3-0.3
		C75,98,75.1,98,75.3,98c0.1,0,0.3,0,0.6,0c0.4,0,0.7-0.1,1-0.1c0.3,0,0.6,0,0.9,0c0.2,0,0.3,0,0.4,0c0,0,0.1,0,0.1,0
		c0.1,0,0.1,0,0.2,0c0.1,0,0.2,0,0.3,0c0,0,0,0,0,0c0,0,0,0,0.1,0c0,0,0,0,0,0.1c0,0,0,0.1,0,0.1c-0.1,0.4-0.2,0.6-0.2,0.7
		c0,0,0,0-0.1,0.1c0,0-0.1,0-0.1,0c-0.1,0-0.1,0-0.1,0c-0.3,0-0.5,0-0.8,0c-0.4,0-0.7,0-1,0.1C76.4,99,76.2,99,76.1,99
		c-0.1,0.1-0.2,0.2-0.3,0.4c-0.1,0.2-0.2,0.4-0.2,0.5c0,0.1,0,0.2,0,0.2l0.3,2.4c0.1,0,0.4,0.1,0.8,0.2c0.4,0.1,1,0.1,1.8,0.1h0.3
		c0.1,0,0.2,0,0.2,0.1c0,0,0,0,0,0.1c0,0.2-0.1,0.5-0.2,0.7c0,0,0,0,0,0.1C78.9,103.9,78.9,103.9,78.8,103.9z"/>
	<path class="st2" d="M80.7,103.9c-0.2,0-0.3-0.1-0.3-0.2c0-0.2-0.1-0.3-0.1-0.4l-0.3-3.1L80,97.9c0-0.1,0-0.1,0-0.1
		c0,0,0.1,0,0.1,0h0.7c0.1,0,0.1,0,0.1,0c0,0,0,0.1,0,0.1l0.7,4.4c0,0.1,0,0.1,0,0.1c0,0,0,0,0,0l1.4,0.2c0.1,0,0.1,0,0.1-0.1
		l0.3-1.6l0.2-3c0,0,0-0.1,0.1-0.1c0,0,0.1-0.1,0.1-0.1c0.1,0,0.4,0,0.7,0c0,0,0,0,0.1,0c0,0,0,0,0,0c0,0,0,0,0,0.1l0,3.8l-0.1,1.9
		c0,0.1,0,0.2-0.1,0.2c-0.1,0-0.2,0.1-0.2,0.1H80.7z"/>
	<path class="st2" d="M86,98.3c0-0.1,0.1-0.2,0.2-0.3c0.2-0.1,0.3-0.1,0.4-0.1c0.3,0,0.7-0.1,1.2-0.1c0.5,0,0.9,0,1.4,0
		c0.5,0,0.8,0,1,0.1c0.1,0,0.1,0.1,0.2,0.2c0.1,0.1,0.1,0.3,0.1,0.5v3.4l-0.1,1.8c0,0.1-0.1,0.2-0.3,0.2c0,0-0.2,0-0.4,0
		c-0.3,0-0.7,0-1.3,0c-0.6,0-1,0-1.2,0c-0.2,0-0.4,0-0.5,0c-0.2,0-0.3-0.1-0.3-0.2s-0.1-0.3-0.1-0.4l-0.3-3.1L86,98.3z M87.9,102.5
		l1,0.2c0.1,0,0.1,0,0.2-0.1c0.1,0,0.1-0.1,0.1-0.1l0.3-1.6l0-1.9c-0.2-0.2-0.5-0.3-0.8-0.3c-0.2,0-0.4,0-0.6,0.1
		c-0.2,0-0.4,0.1-0.5,0.2c-0.1,0.1-0.2,0.2-0.3,0.3c-0.1,0.2-0.2,0.3-0.2,0.5c0,0.1,0,0.1,0,0.2l0.3,2.1
		C87.4,102.3,87.6,102.5,87.9,102.5z"/>
	<path class="st2" d="M93.1,103.9H92c-0.1,0-0.2-0.1-0.2-0.4l0-7.6c0-0.1,0.1-0.2,0.3-0.3c0.2-0.1,0.4-0.2,0.5-0.2
		c0.2,0,0.3,0.1,0.3,0.3c0,0.1,0,0.5,0.1,1.1c0,0.7,0.1,1.2,0.1,1.6c0,0.5,0,0.9,0,1.3c0,0.4,0,0.7-0.1,1.2c0,0.4,0,0.8,0,1
		c0,0.3,0,0.5,0,0.8c0,0.3,0,0.5,0.1,0.6c0,0.1,0.1,0.2,0.1,0.2c0,0,0,0,0.1,0.1c0,0,0,0.1,0,0.1C93.2,103.8,93.2,103.9,93.1,103.9z
		"/>
	<path class="st2" d="M97.8,97.8L97.8,97.8c0.1,0,0.2,0,0.3,0c0.1,0,0.2,0.1,0.3,0.2c0.1,0.1,0.2,0.2,0.2,0.3c0.1,0.3,0.2,0.6,0.3,1
		c0.1,0.4,0.1,0.8,0.1,1.2c0,0.4,0,0.8,0,1.2c0,0.3,0,0.6,0,0.9c0,0.3,0,0.4,0,0.5c0,0.3-0.1,0.4-0.2,0.5c-0.1,0.1-0.3,0.1-0.4,0.2
		h-3.8c-0.2,0-0.3,0-0.4-0.1c-0.1-0.1-0.2-0.2-0.2-0.4c0-0.9,0.1-1.6,0.1-2.1c0-0.5,0.1-0.9,0.2-1.1c0.1-0.1,0.1-0.2,0.2-0.2
		c0,0,0.1-0.1,0.2-0.1l0.1,0c0.2,0,0.7-0.1,1.4-0.2c0.7-0.1,1.1-0.1,1.2-0.1c0.1,0,0.2,0,0.2-0.1c0-0.1-0.1-0.2-0.2-0.4
		c0,0-0.2-0.1-0.4-0.1c-0.3,0-0.6-0.1-1-0.1c-0.4,0-0.7-0.1-1-0.1c-0.2,0-0.4,0-0.4-0.1c0-0.1,0-0.2,0.1-0.3
		c0.1-0.2,0.1-0.3,0.2-0.4c0,0,0,0,0.1-0.1c0,0,0.1-0.1,0.1-0.1c0.1,0,0.2,0,0.4,0s0.4,0,0.8,0C96.9,97.7,97.4,97.8,97.8,97.8z
		 M95.5,101c0,0-0.1,0.1-0.1,0.3c-0.1,0.2-0.1,0.6-0.1,1.3c0,0.1,0.1,0.2,0.2,0.2c1,0,1.7,0,2.1,0c0.3,0,0.4-0.2,0.4-0.5
		c0-0.4-0.1-0.7-0.1-1c0-0.3,0-0.5,0-0.7c-0.6,0-1.1,0-1.3,0.1c-0.3,0-0.4,0.1-0.6,0.1c-0.1,0-0.2,0.1-0.3,0.1
		C95.6,100.9,95.5,101,95.5,101z"/>
</g>
<g class="st1">
	<path class="st2" d="M52.1,117.1c-0.1,0-0.2,0-0.2,0c0,0-0.1,0-0.1,0c-0.1-0.2-0.3-0.5-0.6-1.1c-0.3-0.6-0.5-1.1-0.7-1.5
		c-0.2-0.4-0.4-0.7-0.5-1c0-0.1-0.1-0.2-0.1-0.2c0,0,0,0,0,0c0,0,0,0,0,0l-0.8,0.1c-0.1,0-0.2-0.1-0.2-0.3l0-0.5
		c0-0.1,0.1-0.2,0.3-0.2c0.1,0,0.3,0,0.6-0.1c0.3,0,0.6-0.1,0.8-0.1c0.3-0.1,0.5-0.1,0.6-0.1c0.1,0,0.2-0.1,0.3-0.2
		c0-0.1,0.1-0.2,0.1-0.3c0-0.3-0.1-0.6-0.3-1.1c-0.1-0.4-0.3-0.8-0.4-1c0-0.1-0.1-0.2-0.2-0.2c-0.1,0-0.1,0-0.2,0
		c-0.2,0-0.4,0-0.7,0.1c-0.3,0-0.6,0.1-1.1,0.2c-0.1,0-0.2,0.1-0.3,0.1c-0.1,0.1-0.1,0.1-0.1,0.2c0,0.2,0,0.5-0.1,1c0,0.4,0,1,0,1.8
		c0,0.7,0,1.3,0,1.7c0,0.4,0,0.7,0,0.9l0,1.3c0,0,0,0.1,0,0.1c0,0-0.1,0.1-0.1,0.1h-0.8c-0.1,0-0.1,0-0.1,0c0,0,0-0.1,0-0.1l0.1-8.1
		l-0.1-0.2h4.5c0.1,0,0.1,0,0.2,0.1c0.1,0,0.2,0.1,0.2,0.2c0.2,0.6,0.4,1.3,0.7,2c0.2,0.7,0.3,1.3,0.3,1.7c0,0.1,0,0.2-0.1,0.3
		c-0.1,0.2-0.2,0.4-0.3,0.5c-0.1,0.1-0.1,0.2-0.2,0.2c0,0-0.1,0-0.2,0l-0.7,0.1l1.4,3.3c0,0,0,0,0,0c0,0,0,0,0,0.1
		c0,0.1,0,0.1-0.1,0.2L52.1,117.1z"/>
	<path class="st2" d="M54.9,116.6c-0.2,0-0.3-0.1-0.3-0.2c0-0.2-0.1-0.3-0.1-0.4l-0.3-3.1l-0.1-2.3c0-0.1,0-0.1,0-0.1
		c0,0,0.1,0,0.1,0h0.7c0.1,0,0.1,0,0.1,0c0,0,0,0.1,0,0.1l0.7,4.4c0,0.1,0,0.1,0,0.1c0,0,0,0,0,0l1.4,0.2c0.1,0,0.1,0,0.1-0.1
		l0.3-1.6l0.2-3c0,0,0-0.1,0.1-0.1c0,0,0.1-0.1,0.1-0.1c0.1,0,0.4,0,0.7,0c0,0,0,0,0.1,0c0,0,0,0,0,0c0,0,0,0,0,0.1l0,3.8l-0.1,1.9
		c0,0.1,0,0.2-0.1,0.2c-0.1,0-0.2,0.1-0.2,0.1H54.9z"/>
	<path class="st2" d="M64.8,108.5c0,0.6,0,1.2,0,2c0,0.8,0,1.6-0.1,2.4c0,0.8-0.1,1.5-0.1,2.1c0,0.6-0.1,0.9-0.1,1
		c0,0.1,0,0.2-0.1,0.4s-0.2,0.2-0.3,0.2c-0.2,0-0.4,0-0.6,0c-0.2,0-0.6,0-1.4,0s-1.2,0-1.4,0c-0.1,0-0.3-0.1-0.3-0.2
		c-0.1-0.1-0.1-0.2-0.1-0.3c0-0.5-0.1-0.9-0.1-1.3c0-0.4-0.1-0.8-0.1-1.1c0-0.3,0-0.6,0-0.9c0-0.4,0-0.8,0-1.1c0-0.3,0-0.4,0.1-0.5
		c0-0.2,0-0.4,0.1-0.5c0.1-0.1,0.2-0.2,0.2-0.2c0,0,0.1-0.1,0.3-0.1c0.2,0,0.4-0.1,0.8-0.1c0.6,0,1.2,0.1,2,0.2
		c0.1-1,0.1-1.8,0.1-2.3c0-0.1,0-0.1,0-0.1c0,0,0.1,0,0.1,0c0,0,0,0,0.1,0c0.3,0,0.6,0.1,0.8,0.1c0,0,0.1,0,0.1,0
		c0,0,0.1,0.1,0.1,0.2C64.9,108.4,64.8,108.5,64.8,108.5z M63.3,115c0.1-1.2,0.2-2.1,0.2-2.6c0-0.1,0-0.2,0-0.2l0-0.1
		c0,0,0-0.1-0.1-0.2c-0.1-0.1-0.1-0.1-0.2-0.2c-0.4-0.2-0.8-0.2-1.2-0.2c-0.4,0-0.7,0.1-0.8,0.3c0,0.1,0,0.2-0.1,0.4
		c0,0.2-0.1,0.5-0.1,0.8c0,0.2,0,0.4,0,0.7c0,0.3,0.1,0.5,0.1,0.8c0.1,0.3,0.1,0.5,0.2,0.8c0,0,0,0.1,0.1,0.1c0.1,0,0.1,0.1,0.2,0.1
		l1.4-0.2c0.1,0,0.1-0.1,0.1-0.1C63.3,115.1,63.3,115,63.3,115z"/>
	<path class="st2" d="M66.1,111c0-0.1,0.1-0.2,0.2-0.3c0.2-0.1,0.3-0.1,0.4-0.1c0.3,0,0.7-0.1,1.2-0.1c0.5,0,0.9,0,1.4,0
		c0.5,0,0.8,0,1,0.1c0.1,0,0.1,0.1,0.2,0.2c0.1,0.1,0.1,0.3,0.1,0.5v3.4l-0.1,1.8c0,0.1-0.1,0.2-0.3,0.2c0,0-0.2,0-0.4,0
		c-0.3,0-0.7,0-1.3,0s-1,0-1.2,0c-0.2,0-0.4,0-0.5,0c-0.2,0-0.3-0.1-0.3-0.2c-0.1-0.1-0.1-0.3-0.1-0.4l-0.3-3.1L66.1,111z
		 M68.1,115.2l1,0.2c0.1,0,0.1,0,0.2-0.1c0.1,0,0.1-0.1,0.1-0.1l0.3-1.6l0-1.9c-0.2-0.2-0.5-0.3-0.8-0.3c-0.2,0-0.4,0-0.6,0.1
		c-0.2,0-0.4,0.1-0.5,0.2c-0.1,0.1-0.2,0.2-0.3,0.3c-0.1,0.2-0.2,0.3-0.2,0.5c0,0.1,0,0.1,0,0.2l0.3,2.1
		C67.6,115.1,67.8,115.2,68.1,115.2z"/>
	<path class="st2" d="M73.3,116.6h-1.1c-0.1,0-0.2-0.1-0.2-0.4l0-7.6c0-0.1,0.1-0.2,0.3-0.3c0.2-0.1,0.4-0.2,0.5-0.2
		c0.2,0,0.3,0.1,0.3,0.3c0,0.1,0,0.5,0.1,1.1c0,0.7,0.1,1.2,0.1,1.6c0,0.5,0,0.9,0,1.3c0,0.4,0,0.7-0.1,1.2c0,0.4,0,0.8,0,1
		c0,0.3,0,0.5,0,0.8c0,0.3,0,0.5,0.1,0.6c0.1,0.1,0.1,0.2,0.1,0.2c0,0,0,0,0.1,0.1c0,0,0,0.1,0,0.1
		C73.4,116.5,73.3,116.6,73.3,116.6z"/>
	<path class="st2" d="M76.1,118.1l-0.8,0.4c0,0,0,0-0.1,0c0,0-0.1,0-0.1-0.1c0,0,0-0.1,0-0.1l-0.1-6.1c0-0.4,0-0.6-0.1-0.8
		c-0.1-0.1-0.2-0.2-0.2-0.2c-0.1,0-0.1,0-0.2-0.1c0-0.1-0.1-0.1-0.1-0.1c0-0.3,0-0.5,0-0.6c0-0.1,0-0.2,0.1-0.2c0,0,0.1,0,0.1,0
		c0.1,0,0.2,0,0.4,0c0-1,0-1.5,0-1.7c0-0.1,0-0.2,0.1-0.2c0.1,0,0.1-0.1,0.1-0.1c0.8-0.1,1.5-0.1,1.9-0.1c0.2,0,0.3,0,0.4,0
		c0.1,0,0.3,0,0.5,0c0,0,0.1,0,0.1,0c0.1,0,0.1,0.1,0.1,0.1c0,0,0,0.1,0,0.1c0,0.1,0,0.2-0.1,0.3c0,0.1-0.1,0.2-0.1,0.2
		c0,0.1,0,0.1-0.1,0.2c0,0,0,0.1-0.1,0.1c0,0-0.1,0-0.2,0c-0.1,0-0.3,0-0.6,0c-0.3,0-0.5,0-0.7,0.1c0,0-0.1,0-0.2,0.1
		c-0.1,0.1-0.1,0.1-0.1,0.2v0.6c0.1,0,0.4,0,0.8,0.1c0.1,0,0.2,0,0.2,0.1c0,0,0,0.1-0.1,0.2c0,0.1,0,0.1-0.1,0.3
		c0,0.1-0.1,0.2-0.1,0.3c0,0,0,0.1,0,0.1c0,0,0,0.1,0,0.1s0,0,0,0l-0.1,0c-0.2,0-0.4,0.1-0.4,0.3c-0.1,0.2-0.1,0.4-0.1,0.7v5.6
		C76.3,118,76.2,118.1,76.1,118.1z"/>
	<path class="st2" d="M82.9,108.2h4.5c0.1,0,0.2,0.1,0.2,0.1c0,0.1,0,0.1,0,0.2l-0.1,0.6c0,0,0,0.1-0.1,0.2c0,0.1-0.2,0.1-0.3,0.1
		c-0.1,0-0.3,0-0.5,0c-0.2,0-0.4,0-0.8,0.1c-0.4,0-0.7,0.1-1,0.1c-0.3,0-0.5,0-0.7,0.1c-0.1,0-0.2,0-0.3,0c-0.1,0-0.2,0.1-0.2,0.1
		c0,0-0.1,0.1-0.1,0.2c0,0-0.1,0.1-0.1,0.1c0,0.1,0,0.1,0,0.2c0,0.1,0,0.1,0.1,0.2c0,0,0.2,0.1,0.5,0.4c0.4,0.2,0.7,0.5,1.1,0.7
		c0.4,0.3,0.7,0.5,1.1,0.7c0.3,0.2,0.6,0.4,0.9,0.6c0.1,0.1,0.2,0.2,0.4,0.4c0.1,0.2,0.2,0.4,0.2,0.7v2.3c0,0.1,0,0.1-0.1,0.2
		c-0.1,0.1-0.2,0.1-0.3,0.1l-5.1,0c-0.1,0-0.2-0.1-0.2-0.2l0.1-0.7c0.1-0.2,0.1-0.3,0.2-0.3l3.8-0.3c0.2,0,0.3-0.1,0.3-0.3
		c0-0.1,0-0.3-0.1-0.5c-0.1-0.2-0.1-0.3-0.2-0.4c-0.2-0.1-0.4-0.3-0.7-0.4c-0.3-0.1-0.8-0.5-1.7-1c-0.9-0.5-1.4-0.8-1.4-0.9
		c-0.1-0.1-0.2-0.2-0.3-0.3c0-0.1-0.1-0.2-0.1-0.3l0-2.1c0-0.1,0-0.2,0.1-0.3c0-0.1,0.1-0.2,0.3-0.3
		C82.4,108.3,82.6,108.2,82.9,108.2z"/>
	<path class="st2" d="M90.2,108.3c0,0,0,0.2,0,0.3c0,0.2,0,0.4,0,0.6c0,0.2,0,0.4,0,0.5c0,0.1,0,0.2,0,0.3c0,0,0.1,0,0.1,0.1
		s0.1,0,0.1,0.1c0.3,0,0.5,0,0.6,0.1c0,0,0.1,0,0.1,0c0,0,0.1,0.1,0.1,0.1c0,0,0,0.1,0,0.1c0,0.1,0,0.2-0.1,0.3
		c0,0.1-0.1,0.2-0.1,0.3c0,0.1,0,0.1-0.1,0.2c-0.1,0-0.1,0-0.2,0c-0.4,0-0.5,0.3-0.5,1v4.1c0,0.1,0,0.1,0,0.1c0,0-0.1,0-0.1,0h-0.8
		c0,0-0.1,0-0.1,0c0,0,0-0.1-0.1-0.1l-0.1-4.2c0-0.4,0-0.6-0.1-0.8c-0.1-0.1-0.2-0.2-0.3-0.2c-0.1,0-0.1,0-0.2-0.1
		c0-0.1-0.1-0.1-0.1-0.1c0-0.3,0-0.5,0-0.6c0-0.1,0-0.2,0.1-0.2s0.1-0.1,0.1-0.1c0.1,0,0.2,0,0.3,0c0,0,0.1,0,0.1,0c0,0,0-0.1,0-0.1
		c0-0.2,0-0.4,0-0.6c0-0.2,0-0.4,0.1-0.6c0-0.2,0-0.3,0-0.4c0-0.1,0-0.2,0.1-0.2c0,0,0.1-0.1,0.1-0.1l0.7-0.1
		C90.2,108.2,90.2,108.2,90.2,108.3z"/>
	<path class="st2" d="M97.1,115.8c-0.1,0.5-0.2,0.8-0.4,0.8H93c0,0,0,0,0,0s0,0-0.1,0c-0.1,0-0.3-0.1-0.4-0.2
		c-0.1-0.1-0.3-0.4-0.4-0.8c-0.1-0.4-0.1-1-0.1-1.7v-0.4c0-0.2,0-0.4,0-0.6c0-0.3,0-0.5,0-0.8s0-0.5,0-0.6c0-0.1,0-0.2,0-0.3
		c0-0.2,0-0.3,0.1-0.3c0.1-0.1,0.1-0.1,0.2-0.1c0.2-0.1,0.5-0.2,0.9-0.2c0.3,0,0.5-0.1,0.8-0.1c0.3,0,0.6,0,0.9,0
		c0.5,0,0.9,0,1.2,0.1c0.3,0,0.5,0.1,0.6,0.2c0.1,0.1,0.2,0.3,0.3,0.6s0.2,0.6,0.2,1c0,0.4,0.1,0.7,0.1,1c0,0.4,0,0.6-0.1,0.7
		c-0.1,0.1-0.3,0.2-0.8,0.3c-0.4,0.1-0.9,0.1-1.4,0.2c-0.5,0-0.9,0.1-1.4,0.1c-0.2,0-0.3,0-0.3,0.1c0,0,0,0.1,0.1,0.1
		c0,0.2,0.2,0.4,0.5,0.6c0.3,0.2,0.7,0.3,1.3,0.3l1.9,0.1c0.1,0,0.1,0,0.1,0C97.1,115.7,97.1,115.7,97.1,115.8z M93.4,113.5
		c0.1,0,0.2,0,0.3,0c0.5,0,0.9,0,1.4-0.1c0.5-0.1,0.7-0.2,0.8-0.3c0.1-0.2,0.2-0.4,0.2-0.6c0-0.3-0.1-0.5-0.3-0.8
		c0-0.1-0.1-0.1-0.2-0.1c-0.1,0-0.2-0.1-0.2-0.1c-0.9,0-1.5,0.1-1.9,0.4c-0.3,0.3-0.5,0.6-0.5,1c0,0.1,0,0.2,0,0.3
		c0,0.1,0,0.1,0.1,0.2C93.2,113.5,93.3,113.5,93.4,113.5z"/>
	<path class="st2" d="M98.7,110.6l0.9-0.4c0.1,0,0.1,0,0.1,0c0,0,0,0.1,0,0.2c0,0.4,0,0.7,0,1.2c0,0.4,0,1-0.1,1.8
		c0,0.8,0,1.3-0.1,1.7c0,0.3,0,0.7,0,1.2c0,0.1,0,0.2-0.1,0.2c0,0-0.1,0.1-0.1,0.1c-0.1,0-0.3,0-0.4,0c-0.1,0-0.3,0-0.4,0
		c-0.1,0-0.1-0.1-0.1-0.1c0-0.1,0-0.2,0-0.3l0.1-5.2c0-0.1,0-0.2,0.1-0.3C98.6,110.6,98.6,110.6,98.7,110.6z M99.6,108.2l0.1,1.2
		c0,0.1,0,0.1,0,0.2c0,0,0,0.1-0.1,0.1l-0.9,0.3c-0.1,0-0.1,0-0.1,0c0,0,0,0,0,0l0.2-1.6c0-0.1,0-0.1,0.1-0.1c0,0,0.1,0,0.1,0
		l0.6-0.1C99.5,108.1,99.6,108.2,99.6,108.2C99.6,108.2,99.6,108.2,99.6,108.2z"/>
	<path class="st2" d="M101.6,110.5h1l2.2,0.2c0.1,0,0.1,0.1,0.1,0.1c0,0.1,0.1,0.2,0.1,0.2l0.3,3.2l0.1,2.3c0,0.1,0,0.1,0,0.1
		c0,0-0.1,0-0.1,0h-0.7c0,0-0.1,0-0.1,0c0,0,0-0.1,0-0.1l-0.7-4.4c0-0.1,0-0.1,0-0.1c0,0,0,0,0,0l-1.4-0.2c-0.1,0-0.2,0-0.2,0.1
		l-0.3,1.6l-0.2,3c0,0,0,0.1-0.1,0.1c0,0-0.1,0.1-0.1,0.1c-0.1,0-0.4,0-0.7,0c0,0,0,0-0.1,0c0,0,0,0,0,0c0,0,0,0,0-0.1l0-3.8
		l0.1-1.9c0,0,0-0.1,0.1-0.1c0-0.1,0.1-0.1,0.1-0.1c0,0,0.1,0,0.2,0C101.4,110.5,101.5,110.5,101.6,110.5z"/>
	<path class="st2" d="M111.8,115.8c-0.1,0.5-0.2,0.8-0.4,0.8h-3.8c0,0,0,0,0,0c0,0,0,0-0.1,0c-0.1,0-0.3-0.1-0.4-0.2
		c-0.1-0.1-0.3-0.4-0.4-0.8c-0.1-0.4-0.1-1-0.1-1.7v-0.4c0-0.2,0-0.4,0-0.6c0-0.3,0-0.5,0-0.8s0-0.5,0-0.6c0-0.1,0-0.2,0-0.3
		c0-0.2,0-0.3,0.1-0.3c0.1-0.1,0.1-0.1,0.2-0.1c0.2-0.1,0.5-0.2,0.9-0.2c0.3,0,0.5-0.1,0.8-0.1s0.6,0,0.9,0c0.5,0,0.9,0,1.2,0.1
		c0.3,0,0.5,0.1,0.6,0.2c0.1,0.1,0.2,0.3,0.3,0.6c0.1,0.3,0.2,0.6,0.2,1c0,0.4,0.1,0.7,0.1,1c0,0.4,0,0.6-0.1,0.7
		c-0.1,0.1-0.3,0.2-0.8,0.3c-0.4,0.1-0.9,0.1-1.4,0.2c-0.5,0-0.9,0.1-1.4,0.1c-0.2,0-0.3,0-0.3,0.1c0,0,0,0.1,0.1,0.1
		c0,0.2,0.2,0.4,0.5,0.6c0.3,0.2,0.7,0.3,1.3,0.3l1.9,0.1c0.1,0,0.1,0,0.2,0C111.8,115.7,111.8,115.7,111.8,115.8z M108.1,113.5
		c0.1,0,0.2,0,0.3,0c0.5,0,0.9,0,1.4-0.1c0.5-0.1,0.7-0.2,0.8-0.3c0.1-0.2,0.2-0.4,0.2-0.6c0-0.3-0.1-0.5-0.3-0.8
		c0-0.1-0.1-0.1-0.2-0.1c-0.1,0-0.2-0.1-0.2-0.1c-0.9,0-1.5,0.1-1.9,0.4c-0.3,0.3-0.5,0.6-0.5,1c0,0.1,0,0.2,0,0.3
		c0,0.1,0,0.1,0.1,0.2C107.8,113.5,107.9,113.5,108.1,113.5z"/>
	<path class="st2" d="M115.8,111.2c-0.3,0.1-0.6,0.2-1,0.3c-0.3,0.1-0.5,0.3-0.5,0.4c0,0.1,0,0.5-0.1,1.2c-0.1,0.7-0.1,1.5-0.1,2.2
		c-0.1,0.7-0.1,1.1-0.1,1.2c0,0.1,0,0.1-0.1,0.1c0,0-0.1,0-0.1,0h-0.7c-0.1,0-0.2-0.1-0.2-0.2l0-4.5l-0.1-1.3c0-0.1,0-0.2,0.1-0.2
		c0,0,0.1,0,0.1,0l1.2-0.1v0.2c0.2,0,0.4-0.1,0.7-0.1c0.3-0.1,0.6-0.1,0.8-0.1c0,0,0.1,0,0.1,0c0,0,0.1,0.1,0.1,0.2l0,0.6
		C116,111.2,115.9,111.2,115.8,111.2z"/>
</g>
<g class="st1">
	<path class="st2" d="M72.1,121v0.8c0,0.1,0,0.1-0.1,0.2c0,0-0.1,0-0.1,0l-1.5,0.4c0,0-0.1,0-0.1,0.1c-0.1,0.1-0.1,0.2-0.1,0.4
		l-0.2,6.2c0,0,0,0.1,0,0.2c0,0.1-0.1,0.1-0.1,0.1h-0.9c-0.1,0-0.1,0-0.1-0.1c0,0-0.1-0.1-0.1-0.1l-0.1-6.3c0-0.1,0-0.2-0.1-0.3
		c-0.1-0.1-0.2-0.1-0.2-0.1l-1.2-0.3c-0.1,0-0.1,0-0.2-0.1c0-0.1,0-0.1,0-0.2L67,121c0,0,0-0.1,0.1-0.1c0,0,0.1-0.1,0.2-0.1h4.7
		c0,0,0.1,0,0.1,0C72.1,120.9,72.1,121,72.1,121z"/>
	<path class="st2" d="M75.9,123.9c-0.3,0.1-0.6,0.2-1,0.3c-0.3,0.1-0.5,0.3-0.5,0.4c0,0.1,0,0.5-0.1,1.2c-0.1,0.7-0.1,1.5-0.1,2.2
		c-0.1,0.7-0.1,1.1-0.1,1.2c0,0.1,0,0.1-0.1,0.1c0,0-0.1,0-0.1,0h-0.7c-0.1,0-0.2-0.1-0.2-0.2l0-4.5l-0.1-1.3c0-0.1,0-0.2,0.1-0.2
		c0,0,0.1,0,0.1,0l1.2-0.1v0.2c0.2,0,0.4-0.1,0.7-0.1c0.3-0.1,0.6-0.1,0.8-0.1c0,0,0.1,0,0.1,0c0,0,0.1,0.1,0.1,0.2l0,0.6
		C76,123.9,76,123.9,75.9,123.9z"/>
	<path class="st2" d="M82,128.5c-0.1,0.5-0.2,0.8-0.4,0.8h-3.8c0,0,0,0,0,0c0,0,0,0-0.1,0c-0.1,0-0.3-0.1-0.4-0.2
		c-0.1-0.1-0.3-0.4-0.4-0.8c-0.1-0.4-0.1-1-0.1-1.7v-0.4c0-0.2,0-0.4,0-0.6c0-0.3,0-0.5,0-0.8s0-0.5,0-0.6c0-0.1,0-0.2,0-0.3
		c0-0.2,0-0.3,0.1-0.3c0.1-0.1,0.1-0.1,0.2-0.1c0.2-0.1,0.5-0.2,0.9-0.2c0.3,0,0.5-0.1,0.8-0.1c0.3,0,0.6,0,0.9,0
		c0.5,0,0.9,0,1.2,0.1c0.3,0,0.5,0.1,0.6,0.2c0.1,0.1,0.2,0.3,0.3,0.6c0.1,0.3,0.2,0.6,0.2,1c0,0.4,0.1,0.7,0.1,1
		c0,0.4,0,0.6-0.1,0.7c-0.1,0.1-0.3,0.2-0.8,0.3c-0.4,0.1-0.9,0.1-1.4,0.2c-0.5,0-0.9,0.1-1.4,0.1c-0.2,0-0.3,0-0.3,0.1
		c0,0,0,0.1,0.1,0.1c0,0.2,0.2,0.4,0.5,0.6c0.3,0.2,0.7,0.3,1.3,0.3l1.9,0.1c0.1,0,0.1,0,0.1,0C81.9,128.4,82,128.5,82,128.5z
		 M78.3,126.2c0.1,0,0.2,0,0.3,0c0.5,0,0.9,0,1.4-0.1c0.5-0.1,0.7-0.2,0.8-0.3c0.1-0.2,0.2-0.4,0.2-0.6c0-0.3-0.1-0.5-0.3-0.8
		c0-0.1-0.1-0.1-0.2-0.1c-0.1,0-0.2-0.1-0.2-0.1c-0.9,0-1.5,0.1-1.9,0.4c-0.3,0.3-0.5,0.6-0.5,1c0,0.1,0,0.2,0,0.3
		c0,0.1,0,0.1,0.1,0.2C78,126.2,78.1,126.2,78.3,126.2z"/>
	<path class="st2" d="M84.1,123.2h1l2.2,0.2c0.1,0,0.1,0.1,0.1,0.1c0,0.1,0.1,0.2,0.1,0.2l0.3,3.2l0.1,2.3c0,0.1,0,0.1,0,0.1
		c0,0-0.1,0-0.1,0h-0.7c0,0-0.1,0-0.1,0c0,0,0-0.1,0-0.1l-0.7-4.4c0-0.1,0-0.1,0-0.1c0,0,0,0,0,0l-1.4-0.2c-0.1,0-0.2,0-0.2,0.1
		l-0.3,1.6l-0.2,3c0,0,0,0.1-0.1,0.1c0,0-0.1,0.1-0.1,0.1c-0.1,0-0.4,0-0.7,0c0,0,0,0-0.1,0c0,0,0,0,0,0c0,0,0,0,0-0.1l0-3.8
		l0.1-1.9c0,0,0-0.1,0.1-0.1c0-0.1,0.1-0.1,0.1-0.1c0,0,0.1,0,0.2,0C83.8,123.2,83.9,123.2,84.1,123.2z"/>
	<path class="st2" d="M90.5,121c0,0,0,0.2,0,0.3c0,0.2,0,0.4,0,0.6c0,0.2,0,0.4,0,0.5c0,0.1,0,0.2,0,0.3c0,0,0.1,0,0.1,0.1
		s0.1,0,0.1,0.1c0.3,0,0.5,0,0.6,0.1c0,0,0.1,0,0.1,0c0,0,0.1,0.1,0.1,0.1c0,0,0,0.1,0,0.1c0,0.1,0,0.2-0.1,0.3
		c0,0.1-0.1,0.2-0.1,0.3c0,0.1,0,0.1-0.1,0.2c-0.1,0-0.1,0-0.2,0c-0.4,0-0.5,0.3-0.5,1v4.1c0,0.1,0,0.1,0,0.1c0,0-0.1,0-0.1,0h-0.8
		c0,0-0.1,0-0.1,0c0,0,0-0.1-0.1-0.1l-0.1-4.2c0-0.4,0-0.6-0.1-0.8c-0.1-0.1-0.2-0.2-0.3-0.2c-0.1,0-0.1,0-0.2-0.1
		c0-0.1-0.1-0.1-0.1-0.1c0-0.3,0-0.5,0-0.6c0-0.1,0-0.2,0.1-0.2s0.1-0.1,0.1-0.1c0.1,0,0.2,0,0.3,0c0,0,0.1,0,0.1,0c0,0,0-0.1,0-0.1
		c0-0.2,0-0.4,0-0.6c0-0.2,0-0.4,0.1-0.6c0-0.2,0-0.3,0-0.4c0-0.1,0-0.2,0.1-0.2c0,0,0.1-0.1,0.1-0.1l0.7-0.1
		C90.4,120.9,90.5,120.9,90.5,121z"/>
	<path class="st2" d="M92.2,123.7c0-0.1,0.1-0.2,0.2-0.3c0.2-0.1,0.3-0.1,0.4-0.1c0.3,0,0.7-0.1,1.2-0.1c0.5,0,0.9,0,1.4,0
		c0.5,0,0.8,0,1,0.1c0.1,0,0.1,0.1,0.2,0.2c0.1,0.1,0.1,0.3,0.1,0.5v3.4l-0.2,1.8c0,0.1-0.1,0.2-0.3,0.2c0,0-0.2,0-0.4,0
		c-0.3,0-0.7,0-1.3,0c-0.6,0-1,0-1.2,0c-0.2,0-0.4,0-0.5,0c-0.2,0-0.3-0.1-0.3-0.2c-0.1-0.1-0.1-0.3-0.1-0.4l-0.3-3.1L92.2,123.7z
		 M94.2,128l1,0.2c0.1,0,0.1,0,0.2-0.1c0.1,0,0.1-0.1,0.1-0.1l0.3-1.6l0-1.9c-0.2-0.2-0.5-0.3-0.8-0.3c-0.2,0-0.4,0-0.6,0.1
		c-0.2,0-0.4,0.1-0.5,0.2c-0.1,0.1-0.2,0.2-0.3,0.3s-0.2,0.3-0.2,0.5c0,0.1,0,0.1,0,0.2l0.3,2.1C93.7,127.8,93.9,127.9,94.2,128z"/>
</g>
<g id="Layer_2_00000042008519442740430980000017611752157442718907_">
	<g id="layer101">
		<path class="st2" d="M68.6,88c-0.5-0.1-1.2-0.4-1.6-0.6c-0.6-0.3-0.8-0.5-1.8-1.4c-0.2-0.2-0.5-0.6-0.8-1s-0.5-0.8-0.6-0.8
			s-0.1-0.1-0.1-0.2s-0.2-0.4-0.4-0.7c-0.5-0.8-2.7-5.3-3.2-6.3c-0.2-0.4-0.4-1-0.6-1.3c-0.5-1.1-1.3-2.9-1.3-3s-0.1-0.3-0.2-0.5
			c-0.1-0.2-0.3-0.7-0.4-0.9c-0.1-0.3-0.2-0.6-0.3-0.6c-0.1-0.1-0.1-0.2-0.1-0.4s-0.1-0.3-0.1-0.4c-0.1-0.1-0.6-1.4-1-2.5
			c-0.2-0.4-0.3-0.9-0.4-1c-0.2-0.4-0.8-2.2-1-2.8c-0.1-0.3-0.2-0.7-0.3-0.9c-0.2-0.5-1.6-4.4-2.1-6.1c-0.3-1.1-1.5-4.5-1.6-4.7
			c-0.2-0.4-1.8-5.8-2.3-7.7c-0.1-0.5-0.3-1.2-0.5-1.6c-0.1-0.5-0.4-1.4-0.6-2.2c-0.2-0.8-0.4-1.9-0.6-2.4c-1-4.4-1.4-8.4-0.8-10.1
			c0.3-0.9,2.3-5.2,2.5-5.2c0.1,0,0.2,0.8,0.3,1.7c0.1,0.9,0.2,2,0.3,2.3c0.1,0.4,0.2,1.4,0.4,2.2c0.8,5.2,2.5,11.4,4,14.6
			c0.1,0.2,0.2,0.4,0.2,0.5s0.2,0.5,0.4,1s0.6,1.2,0.8,1.7c0.4,0.9,2,3.7,2.1,3.8c0.1,0,0.2,0.3,0.4,0.6c0.4,0.6,0.9,1.4,1.1,1.6
			c0.1,0.1,0.3,0.3,0.4,0.6c0.4,0.5,0.6,0.8,1.8,2.2c1.9,2.1,4.3,4,6.9,5.4c1.5,0.8,4.5,1.8,6.3,2.1c0.3,0.1,1.1,0.2,1.8,0.4
			c0.7,0.2,1.7,0.4,2.3,0.5c0.6,0.1,1.4,0.2,1.7,0.3c0.6,0.1,2.4,0.3,5,0.5c1.7,0.1,6.6,0.1,8.2,0c3.8-0.3,6.1-0.7,8.7-1.3
			c0.6-0.1,1.5-0.3,1.9-0.4c0.4-0.1,0.8-0.2,0.9-0.3s0.2-0.1,0.3-0.1c0.3,0,3.7-1.1,5.1-1.6c0.5-0.2,1.1-0.4,1.4-0.5
			c0.6-0.2,3.2-1.2,3.8-1.5c0.2-0.1,0.7-0.3,1.1-0.5s0.9-0.4,1.1-0.5s0.8-0.3,1.3-0.5s1.5-0.7,2.3-1c0.8-0.4,1.5-0.7,1.6-0.7
			c0.1-0.1,0.3-0.1,0.4-0.2c0.2-0.1,0.9-0.4,1.6-0.7s1.3-0.6,1.3-0.6s0.7-0.3,1.4-0.6c0.7-0.3,1.4-0.6,1.4-0.6s1.2-0.6,2.6-1.3
			c1.4-0.7,2.6-1.3,2.6-1.3c0.1,0,2.7-1.4,2.8-1.6c0.1-0.1,0.2-0.2,0.3-0.2s0.3-0.1,0.5-0.2c0.8-0.4,3.2-0.6,3.9-0.3
			c0.5,0.2,0.8,0.6,0.8,1.1s-0.6,2-0.8,2c-0.1,0-0.1,0.1-0.1,0.2s-0.1,0.2-0.1,0.2c-0.1,0-0.2,0.2-0.3,0.3c-0.2,0.4-2.4,2.4-4.3,3.9
			c-0.6,0.4-1.1,0.8-1.1,0.9c-0.1,0.1-0.5,0.4-0.9,0.7s-0.9,0.7-1,0.7c-0.1,0.1-0.4,0.3-0.8,0.6c-0.4,0.2-0.9,0.6-1.1,0.8
			s-1,0.8-1.7,1.2c-0.7,0.5-1.7,1.2-2.3,1.6c-4.1,2.9-13.3,8.8-16.9,10.8c-0.1,0.1-0.7,0.4-1.3,0.8s-1.3,0.8-1.6,0.9
			c-0.3,0.2-0.6,0.3-0.6,0.4c0,0-0.2,0.1-0.3,0.2c-2.1,1.1-2.6,1.4-2.9,1.6c-0.2,0.1-0.9,0.5-1.4,0.8c-0.6,0.3-1.5,0.8-2.1,1.1
			c-3.4,1.9-9.4,4.7-12.3,5.8c-0.6,0.2-1.1,0.4-1.3,0.5c-1,0.5-3.6,1.2-5.7,1.6c-0.6,0.1-1.3,0.3-1.6,0.4c-0.3,0.1-1.3,0.3-2.3,0.4
			c-1,0.2-2.2,0.3-2.6,0.4C73.1,88.3,69.7,88.2,68.6,88z"/>
		<path class="st2" d="M75.2,56.1c-1-0.2-3.1-0.8-3.9-1.2s-2.1-1.1-2.3-1.3c-0.1-0.1-0.5-0.4-0.9-0.7c-0.7-0.5-1.3-1.2-2.4-2.5
			c-0.4-0.5-1.3-2.1-1.8-3.4c-0.1-0.3-0.4-1.1-0.5-1.9c-0.8-4,0-8.1,2.3-11.2c2.2-3,5.6-5.1,9.3-5.7c1-0.2,3.3-0.2,4.4,0
			c2.9,0.5,5.6,1.8,7.7,3.9c1.8,1.8,2.9,3.6,3.6,6c0.4,1.3,0.4,1.4,0.4,3.8c0,2.3,0,2.5-0.3,3.7c-0.9,3.6-3.2,6.7-6.4,8.6
			c-1.4,0.8-1.9,1.1-3.6,1.5c-1.3,0.4-1.7,0.4-3.3,0.4C76.4,56.1,75.4,56.1,75.2,56.1z"/>
		<path class="st2" d="M125.3,48.8c-0.5-0.2-1-0.5-1.4-1c-0.5-0.7-0.7-1-0.7-2c-0.1-1,0-1.1,0.4-1.8c0.3-0.6,0.6-0.9,1.1-1.2
			c0.7-0.4,0.8-0.4,1.9-0.4c1.2,0,1.2,0,1.9,0.5c0.4,0.3,0.8,0.7,1.1,1.1c0.4,0.6,0.4,0.7,0.4,1.8c0,0.9-0.1,1.2-0.2,1.5
			c-0.4,0.7-1.4,1.6-1.9,1.7C127,49,125.8,49,125.3,48.8z"/>
		<path class="st2" d="M117.8,38.5c-1.8-0.7-2.6-2.9-1.8-4.6c0.6-1.2,1.7-1.9,3-1.9c1,0,1.6,0.2,2.3,0.8c0.8,0.7,1.2,1.4,1.2,2.6
			c0,1.1-0.2,1.5-0.9,2.3C120.8,38.6,119,39,117.8,38.5z"/>
		<path class="st2" d="M108.7,29.1c-0.7-0.2-1.3-0.8-1.8-1.5c-0.3-0.5-0.4-0.7-0.4-1.6s0.1-1.2,0.3-1.6c0.4-0.7,0.8-1.1,1.5-1.5
			c0.8-0.4,2.4-0.4,3.2,0c0.6,0.3,1.2,1,1.4,1.4c0,0.2,0.1,0.3,0.2,0.3s0.1,0.6,0.1,1.4s-0.1,1.4-0.1,1.4c-0.1,0-0.2,0.1-0.2,0.3
			c-0.1,0.2-0.3,0.5-0.6,0.8C111.5,29.2,110,29.5,108.7,29.1z"/>
		<path class="st2" d="M52,26.2c-0.8-0.4-1.3-1-1.7-1.7c-0.4-0.8-0.3-2.3,0.2-3c0.4-0.7,1.3-1.3,1.9-1.5c1.1-0.3,2.5-0.1,3.1,0.5
			c0.2,0.1,0.3,0.3,0.4,0.3s0.3,0.3,0.5,0.6c0.5,0.7,0.6,1.5,0.5,2.6c-0.1,0.9-0.9,1.9-1.8,2.4C54.1,26.7,52.9,26.7,52,26.2z"/>
		<path class="st2" d="M97.6,22.6c-0.7-0.4-1.5-1.3-1.7-1.9c-0.2-0.7-0.2-1.7,0-2.3c0.2-0.6,1.1-1.6,1.7-1.9s2.3-0.3,2.9-0.1
			c0.6,0.3,1.3,0.8,1.5,1.3c0.1,0.2,0.3,0.4,0.3,0.5c0.1,0.1,0.1,0.6,0.1,1.3c0,1.1,0,1.3-0.3,1.7c-0.3,0.5-0.8,1-1.5,1.4
			C100.1,23,98.4,23,97.6,22.6z"/>
		<path class="st2" d="M62.1,21.2c-0.6-0.3-0.9-0.6-1.4-1.3c-0.4-0.5-0.4-0.6-0.4-1.8c0-1,0.1-1.3,0.3-1.7c0.3-0.6,0.9-1.1,1.6-1.4
			c0.9-0.4,2.7-0.3,3.4,0.3c1,0.8,1.4,1.6,1.4,2.7c0.1,1.4-0.5,2.3-1.9,3.1C64.4,21.5,62.8,21.5,62.1,21.2z"/>
		<path class="st2" d="M85.5,18.5c-0.2-0.1-0.4-0.3-0.5-0.3c-0.2,0-1.1-1-1.1-1.2c0-0.1-0.1-0.2-0.2-0.3c-0.1-0.1-0.2-0.4-0.2-1.3
			c0-0.7,0.1-1.2,0.1-1.2c0.1-0.1,0.2-0.3,0.3-0.5c0.2-0.5,1.1-1.2,1.6-1.4s2.2-0.2,2.7,0c0.6,0.2,1.4,1,1.7,1.7
			c0.4,0.9,0.5,2,0,2.8c-0.4,0.8-0.7,1.2-1.5,1.6c-0.5,0.3-0.7,0.3-1.7,0.3C86.1,18.8,85.8,18.7,85.5,18.5z"/>
		<path class="st2" d="M73.3,18.4c-0.7-0.3-1.1-0.8-1.5-1.5c-0.4-0.8-0.5-2.3,0-3.1c0.4-0.7,1-1.3,1.6-1.6c0.5-0.2,2.1-0.2,2.7,0
			c0.7,0.2,1.7,1.3,1.9,1.9c0.2,0.8,0.2,2.2-0.1,2.7c-0.3,0.6-1,1.3-1.6,1.6C75.6,18.8,74,18.8,73.3,18.4z"/>
	</g>
</g>
</svg>
