<?xml version="1.0" encoding="utf-8"?>
<!-- Generator: Adobe Illustrator 25.4.1, SVG Export Plug-In . SVG Version: 6.00 Build 0)  -->
<svg version="1.1" id="Layer_1" xmlns="http://www.w3.org/2000/svg" xmlns:xlink="http://www.w3.org/1999/xlink" x="0px" y="0px"
	 viewBox="0 0 500 500" style="enable-background:new 0 0 500 500;" xml:space="preserve">
<style type="text/css">
	.st0{fill:none;stroke:#000000;stroke-width:14;stroke-miterlimit:10;}
</style>
<g>
	<path class="st0" d="M385.5,377.7c1.1,5.4-2.4,8.9-7.8,7.8l-156.2-32c-5.4-1.1-5.9-4.2-1-6.8l47.1-26c4.8-2.7,5-7.3,0.3-10.2
		L83.2,192.3c-4.6-3-4-5.9,1.5-6.6l80.3-9.6c5.5-0.7,10.5-5.7,11.1-11.1l9.6-80.3c0.7-5.5,3.6-6.1,6.6-1.5L310.5,268
		c3,4.6,7.6,4.5,10.2-0.3l26-47.1c2.7-4.8,5.7-4.3,6.8,1L385.5,377.7z"/>
</g>
</svg>
