<?xml version="1.0" encoding="utf-8"?>
<!-- Generator: Adobe Illustrator 16.0.0, SVG Export Plug-In . SVG Version: 6.00 Build 0)  -->
<!DOCTYPE svg PUBLIC "-//W3C//DTD SVG 1.1//EN" "http://www.w3.org/Graphics/SVG/1.1/DTD/svg11.dtd">
<svg version="1.1" id="Capa_1" xmlns="http://www.w3.org/2000/svg" xmlns:xlink="http://www.w3.org/1999/xlink" x="0px" y="0px"
	 width="1000px" height="1000px" viewBox="0 0 1000 1000" enable-background="new 0 0 1000 1000" xml:space="preserve">
<g>
	<g>
		<path d="M482.422,455.078c-99.08,0-179.688,80.607-179.688,179.688c0,53.41,23.434,101.443,60.547,134.385v191.752
			c0,13.107,6.572,25.342,17.504,32.574c10.936,7.238,24.762,8.504,36.824,3.381l62.852-26.684l62.854,26.713
			c4.906,2.084,10.102,3.113,15.275,3.113c7.557,0,15.068-2.191,21.557-6.482c10.934-7.234,17.51-19.471,17.51-32.58V772.521
			c39.371-32.988,64.453-82.494,64.453-137.756C662.109,535.686,581.502,455.078,482.422,455.078z M519.531,901.893l-23.783-10.107
			c-9.758-4.146-20.781-4.15-30.547-0.006l-23.795,10.104v-92.158c13.18,3.09,26.908,4.729,41.016,4.729
			c12.719,0,25.131-1.338,37.109-3.863V901.893z M482.422,736.328c-56.002,0-101.562-45.561-101.562-101.562
			s45.561-101.562,101.562-101.562s101.562,45.561,101.562,101.562S538.424,736.328,482.422,736.328z"/>
		<path d="M960.938,593.967H824.219V125.514C824.219,56.305,767.914,0,698.705,0H156.25C70.094,0,0,70.094,0,156.25v79.861
			c0,21.574,17.488,39.062,39.062,39.062h97.656v445.529c0,63.375,37.816,120.033,96.344,144.342
			c4.9,2.035,9.973,2.998,14.969,2.998c15.314,0,29.848-9.064,36.09-24.088c8.275-19.922-1.166-42.783-21.09-51.059
			c-29.271-12.158-48.188-40.496-48.188-72.193V275.174h394.531c21.574,0,39.062-17.488,39.062-39.062V125.514
			c0-26.131,21.258-47.389,47.389-47.389h2.881c26.129,0,47.387,21.258,47.387,47.389v625.928c0,16.764,3.328,32.756,9.318,47.389
			h-40.568c-21.574,0-39.062,17.488-39.062,39.062s17.488,39.062,39.062,39.062H875c0.176,0,0.344-0.023,0.52-0.025
			c68.732-0.562,124.48-56.627,124.48-125.49v-118.41C1000,611.455,982.512,593.967,960.938,593.967z M570.312,125.514v71.535
			H78.125V156.25c0-43.078,35.047-78.125,78.125-78.125H579.6C573.613,92.752,570.312,108.756,570.312,125.514z M921.875,751.439
			c0,26.131-21.258,47.389-47.389,47.389h-2.881c-26.129,0-47.387-21.258-47.387-47.389v-79.348h97.656V751.439z"/>
	</g>
</g>
</svg>
