<?xml version="1.0" encoding="utf-8"?>
<!-- Generator: Adobe Illustrator 16.0.0, SVG Export Plug-In . SVG Version: 6.00 Build 0)  -->
<!DOCTYPE svg PUBLIC "-//W3C//DTD SVG 1.1//EN" "http://www.w3.org/Graphics/SVG/1.1/DTD/svg11.dtd">
<svg version="1.1" xmlns="http://www.w3.org/2000/svg" xmlns:xlink="http://www.w3.org/1999/xlink" x="0px" y="0px" width="1000px"
	 height="648px" viewBox="0 0 1000 648" enable-background="new 0 0 1000 648" xml:space="preserve">
<g id="Layer_2">
	<g>
		<path fill="#7F6F2C" d="M142.776,343.02c0-0.654,0.067-1.3,0.183-1.936l-88.91,4.385c-2.204,0.108-3.866,1.456-3.711,3.01
			c0.147,1.487,1.904,2.624,3.986,2.624c0.094,0,0.188-0.002,0.283-0.007l88.823-4.381
			C143.006,345.527,142.776,344.29,142.776,343.02z"/>
		<path fill="#7F6F2C" d="M695.719,227.942l-19.465,9.476c2.359,1.137,4.665,2.299,6.931,3.48l16.015-7.796
			C697.617,231.562,696.418,229.818,695.719,227.942z"/>
		<path fill="#7F6F2C" d="M912.845,125.674c-1.255-1.281-3.746-1.603-5.564-0.719l-177.674,86.491c2.221,1.111,4.149,2.5,5.67,4.094
			l176.549-85.943C913.644,128.713,914.1,126.956,912.845,125.674z"/>
		<path fill="#7F6F2C" d="M406.791,124.695l-35.243-73.048c-0.711-1.475-2.983-2.265-5.075-1.762
			c-2.092,0.502-3.21,2.104-2.499,3.578l35.392,73.356C401.61,125.81,404.118,125.077,406.791,124.695z"/>
		<path fill="#7F6F2C" d="M146.561,250.967l-56.783-11.686c-2.121-0.438-4.342,0.422-4.96,1.917s0.599,3.061,2.719,3.498
			l56.827,11.695C144.614,254.468,145.379,252.636,146.561,250.967z"/>
		<path fill="#7F6F2C" d="M188.121,259.521c-0.316,1.917-1.144,3.735-2.383,5.386l75.56,15.55c1.335-1.687,2.746-3.355,4.229-5.006
			L188.121,259.521z"/>
		<path fill="#7F6F2C" d="M649.844,209.919l21.041-16.993c-2.256-1.03-4.24-2.339-5.844-3.857l-20.932,16.905
			C646.338,207.035,648.282,208.376,649.844,209.919z"/>
		<path fill="#7F6F2C" d="M749.496,125.152c-1.666-1.025-4.193-0.904-5.644,0.27l-50.645,40.9c2.353,0.922,4.449,2.141,6.188,3.579
			l50.481-40.769C751.331,127.958,751.16,126.177,749.496,125.152z"/>
		<path fill="#7F6F2C" d="M571.765,67.191l10.825-41.488c0.4-1.532-1.037-3.002-3.21-3.284c-2.168-0.283-4.258,0.732-4.657,2.264
			l-10.662,40.861C566.801,65.749,569.401,66.324,571.765,67.191z"/>
		<path fill="#7F6F2C" d="M536.418,174.521c2.45,0,4.814,0.424,7.03,1.191l20.697-79.323c-0.774,0.061-1.56,0.094-2.354,0.094
			c-1.952,0-3.85-0.19-5.662-0.54l-20.508,78.598C535.886,174.532,536.15,174.521,536.418,174.521z"/>
		<path fill="#7F6F2C" d="M268.924,153.401l-71.417-52.286c-1.532-1.122-4.065-1.156-5.656-0.075
			c-1.591,1.08-1.639,2.866-0.106,3.988l71.48,52.333C264.775,155.815,266.708,154.469,268.924,153.401z"/>
		<path fill="#7F6F2C" d="M316.271,188.064l-17.382-12.726c-1.594,1.522-3.569,2.836-5.818,3.872l18.152,13.29
			C312.504,190.826,314.207,189.316,316.271,188.064z"/>
		<path fill="#7F6F2C" d="M775.407,412.702c-0.485,1.159-1.172,2.299-2.083,3.396c-0.475,0.572-1.006,1.112-1.576,1.627
			l20.955,6.784c0.675-1.854,1.835-3.582,3.375-5.114L775.407,412.702z"/>
		<path fill="#7F6F2C" d="M890.325,449.907l-54.997-17.806c-0.688,1.852-1.865,3.575-3.416,5.101l55.075,17.831
			c0.541,0.175,1.108,0.258,1.666,0.258c1.516,0,2.965-0.61,3.638-1.645C893.213,452.23,892.333,450.557,890.325,449.907z"/>
		<path fill="#7F6F2C" d="M761.82,518.122l-65.717-49.092c-1.787,1.417-3.93,2.606-6.322,3.495l66.68,49.812
			C757.873,520.717,759.697,519.288,761.82,518.122z"/>
		<path fill="#7F6F2C" d="M833.356,571.561l-41.598-31.074c-1.769,1.428-3.893,2.632-6.271,3.535l42.05,31.412
			c0.787,0.587,1.848,0.884,2.91,0.884c0.984,0,1.972-0.255,2.745-0.769C834.8,574.479,834.872,572.694,833.356,571.561z"/>
		<path fill="#7F6F2C" d="M242.663,438.396l45.344-19.112c-1.636-1.38-3.073-2.99-4.258-4.777l-43.535,18.35
			C241.273,434.567,242.102,436.43,242.663,438.396z"/>
		<path fill="#7F6F2C" d="M200.194,449.725l-15.564,6.56c1.71,1.445,3.056,3.108,3.941,4.911l13.963-5.885
			C201.511,453.578,200.713,451.703,200.194,449.725z"/>
		<path fill="#7F6F2C" d="M147.415,471.971l-50.362,21.227c-1.896,0.8-2.515,2.531-1.381,3.869c0.75,0.883,2.076,1.373,3.438,1.373
			c0.698,0,1.406-0.129,2.048-0.399l50.607-21.331C149.935,475.334,148.45,473.729,147.415,471.971z"/>
		<path fill="#7F6F2C" d="M810.378,255.546l-82.153,18.037c1.532,1.63,2.985,3.281,4.372,4.948l80.822-17.744
			C811.977,259.204,810.926,257.435,810.378,255.546z"/>
		<path fill="#7F6F2C" d="M913.372,235.889c-0.658-1.487-2.894-2.317-5.009-1.855l-56.262,12.353
			c1.065,1.707,1.704,3.566,1.816,5.509l56.824-12.476C912.852,238.957,914.028,237.375,913.372,235.889z"/>
		<path fill="#7F6F2C" d="M372.644,496.553l-54.714,75.663c-1.003,1.388-0.222,3.086,1.747,3.794
			c0.582,0.209,1.202,0.309,1.813,0.309c1.456,0,2.86-0.562,3.567-1.54l53.354-73.781
			C376.255,499.839,374.307,498.33,372.644,496.553z"/>
		<path fill="#7F6F2C" d="M408.468,459.431l13.134-18.162c-2.7-0.412-5.377-0.849-8.038-1.304l-12.098,16.729
			C404.034,457.303,406.403,458.237,408.468,459.431z"/>
		<path fill="#7F6F2C" d="M500.597,501.66c-1.573,0-3.11-0.125-4.597-0.355v65.878c0,1.558,1.791,2.82,4,2.82s4-1.263,4-2.82
			v-65.716C502.889,501.593,501.753,501.66,500.597,501.66z"/>
		<path fill="#7F6F2C" d="M597.981,488.024c-2.301,0.935-4.85,1.589-7.551,1.882l21.765,37.502c2.303-0.934,4.854-1.583,7.556-1.874
			L597.981,488.024z"/>
		<path fill="#7F6F2C" d="M661.016,596.635l-25.114-43.274c-2.149,1.116-4.587,1.966-7.208,2.476l24.918,42.935
			c0.634,1.092,2.128,1.753,3.703,1.753c0.505,0,1.019-0.067,1.514-0.211C660.873,599.723,661.853,598.075,661.016,596.635z"/>
	</g>
</g>
<g id="Layer_1">
	<g>
		<path fill="#BE1E2D" d="M392.663,170.018c0-1.901,0.055-3.747,0.168-5.538c0.109-1.788,0.277-3.524,0.502-5.202l-4.866-0.671
			l-3.357-2.517c-1.342-0.223-2.601-0.42-3.774-0.587c-1.175-0.168-2.35-0.307-3.524-0.419c-1.175-0.11-2.462-0.252-3.859-0.419
			c-1.401-0.168-2.995-0.419-4.784-0.755c-6.602-1.117-12.36-1.901-17.283-2.35c-4.922-0.445-9.284-0.671-13.09-0.671
			c-1.006,0-1.984,0-2.936,0c-0.949,0-1.872,0.058-2.769,0.167l-4.195-1.342c-0.558,0.335-1.007,0.448-1.342,0.335
			c-0.336-0.11-0.727-0.223-1.175-0.335c-0.671-0.223-1.091-0.446-1.259-0.671c-0.167-0.223-0.251-0.446-0.251-0.671
			c0.225-1.565,1.707-2.685,4.447-3.356c2.742-0.671,6.46-1.007,11.159-1.007c3.917,0,8.364,0.252,13.34,0.755
			c4.979,0.503,10.321,1.204,16.026,2.098l19.969,3.021l-1.511,0.335l5.873,1.175c1.008-1.565,2.292-2.685,3.86-3.355
			c1.565-0.672,3.244-1.007,5.034-1.007c1.789,0,3.635,0.28,5.538,0.839c1.901,0.561,3.691,1.287,5.37,2.181
			c1.678,0.897,3.16,1.904,4.447,3.021c1.285,1.119,2.266,2.238,2.937,3.355l23.157,4.363c0.782,0.226,1.453,0.365,2.015,0.419
			c0.558,0.058,1.229,0.197,2.013,0.419c5.034,0.897,9.843,1.511,14.431,1.846c4.586,0.336,8.727,0.504,12.417,0.504
			c3.915,0,7.159-0.223,9.733-0.671c2.572-0.446,4.082-1.117,4.531-2.014c0.67,0,1.229,0.113,1.678,0.335
			c0.781,0,1.62,0.168,2.517,0.504c0.894,0.335,1.285,0.952,1.175,1.846c-0.562,1.678-2.407,3.246-5.538,4.698
			c-3.133,1.456-8.28,2.181-15.438,2.181c-3.02,0-6.376-0.167-10.068-0.503c-3.692-0.336-7.887-0.895-12.586-1.678
			c-0.335,0-1.232-0.139-2.685-0.42c-1.456-0.277-3.217-0.613-5.286-1.007c-2.072-0.391-4.309-0.839-6.712-1.342
			c-2.407-0.504-4.672-0.978-6.797-1.427c-2.125-0.446-3.972-0.81-5.538-1.09c-1.567-0.278-2.574-0.475-3.02-0.588
			c-0.226,1.678-0.503,4.056-0.839,7.132c-0.336,3.079-0.672,6.209-1.007,9.397c-0.336,3.188-0.645,6.182-0.923,8.978
			c-0.28,2.797-0.532,4.698-0.755,5.705c-0.562,3.469-1.233,7.299-2.014,11.495c-0.784,4.195-1.791,8.642-3.021,13.34l-3.524,13.089
			l-4.027,13.256c-0.897,2.685-1.958,5.369-3.188,8.055c-1.232,2.685-2.575,5.231-4.027,7.636c-1.456,2.406-2.937,4.643-4.447,6.712
			c-1.51,2.071-2.937,3.776-4.279,5.118l-2.014,4.531l-2.35,3.692c-0.112,0.671-0.616,1.232-1.51,1.678
			c-2.91,1.678-5.343,1.788-7.299,0.335c-1.958-1.453-3.608-4.027-4.95-7.719l-0.167-0.839c-0.113-1.006,0.083-2.068,0.587-3.188
			c0.503-1.117,1.033-2.292,1.594-3.524c0.559-1.229,1.091-2.459,1.595-3.692c0.503-1.229,0.697-2.404,0.587-3.523
			c-0.335-3.467-0.084-7.745,0.755-12.837c0.839-5.089,1.93-10.488,3.273-16.193c1.564-6.487,3.355-13.283,5.37-20.389
			c2.014-7.103,3.578-13.844,4.699-20.22c0.335-1.565,0.697-3.076,1.09-4.531c0.391-1.453,0.697-2.908,0.923-4.363
			c0.223-2.236,0.446-4.334,0.671-6.293C392.383,173.684,392.55,171.809,392.663,170.018z"/>
		<path fill="#BE1E2D" d="M445.771,272.38c0.168-0.781,0.307-1.452,0.42-2.013l-2.014,2.013c-1.007,1.007-2.21,2.181-3.608,3.524
			c-1.4,1.342-2.826,2.63-4.278,3.859c-1.456,1.232-2.882,2.265-4.279,3.104c-1.4,0.839-2.601,1.314-3.608,1.426
			c-1.455,0-3.077-0.335-4.866-1.006c-1.791-0.671-3.469-1.678-5.034-3.021c-1.567-1.343-2.907-2.963-4.027-4.867
			c-1.117-1.901-1.788-4.138-2.014-6.712v-2.349c0-1.565,0.084-3.131,0.252-4.698c0.167-1.566,0.532-3.13,1.091-4.699
			c0.561-1.678,1.342-3.608,2.349-5.79s2.181-4.447,3.524-6.796s2.824-4.725,4.447-7.132c1.62-2.405,3.327-4.669,5.118-6.796
			l2.181-2.685c0.672-0.895,1.427-1.621,2.266-2.182c0.839-0.559,1.705-1.117,2.602-1.678l4.195-2.517
			c2.237-1.229,4.669-2.208,7.299-2.937c2.628-0.726,4.615-1.146,5.957-1.259c1.007,0,2.125,0.281,3.356,0.839
			c1.23,0.561,2.433,1.316,3.608,2.265c1.174,0.953,2.181,2.014,3.02,3.188c0.839,1.175,1.369,2.434,1.595,3.776
			c0,1.006-0.142,1.987-0.419,2.937c-0.281,0.952-0.532,1.426-0.755,1.426c-0.226,0-0.448-0.109-0.672-0.335
			c-0.561-0.336-1.51-0.504-2.852-0.504c-1.007,0-2.043,0.114-3.105,0.336c-1.064,0.225-1.82,0.502-2.265,0.839
			c-2.685,2.126-5.202,4.195-7.552,6.208c-2.349,2.014-4.363,4.253-6.041,6.712c-3.133,4.589-5.79,9.288-7.971,14.097
			c-2.182,4.811-3.104,9.006-2.769,12.585c0.109,1.12,0.475,2.013,1.091,2.686c0.613,0.671,1.369,1.006,2.265,1.006
			c0.782,0,2.015-0.839,3.692-2.518c1.678-1.678,3.44-3.718,5.286-6.125c1.846-2.404,3.579-4.922,5.203-7.551
			c1.62-2.628,2.768-4.893,3.439-6.797l1.51-3.859l1.679-6.88c-0.226-1.342,0.503-2.124,2.181-2.35l1.342-0.335
			c1.008-0.223,2.124,0,3.356,0.672c1.23,0.671,2.375,1.539,3.439,2.601c1.062,1.065,1.985,2.21,2.77,3.44
			c0.781,1.232,1.229,2.294,1.343,3.188c0.109,0.784-0.226,2.462-1.007,5.034c-0.784,2.575-1.51,4.924-2.182,7.048l-1.006,3.523
			l-0.84,3.692l-0.671,3.524l-0.671,3.692l-0.336,0.839c-0.335,1.232-0.729,2.601-1.174,4.112c-0.449,1.51-0.616,2.768-0.503,3.775
			c0,0.782,0.336,1.175,1.007,1.175c1.453,0,3.356-0.729,5.705-2.182c2.35-1.453,4.783-3.747,7.3-6.88
			c2.517-3.13,5.06-7.132,7.635-11.999c2.572-4.866,4.866-10.71,6.879-17.535c0.337-1.118,0.811-2.014,1.427-2.685
			c0.614-0.672,1.649-1.007,3.104-1.007c0.336,0,0.698,0.113,1.091,0.335c0.391,0.226,0.587,0.616,0.587,1.175
			c0,0.448-0.167,1.175-0.503,2.182c-0.336,1.006-0.785,2.013-1.343,3.021l-2.181,4.362c-1.568,3.021-3.524,6.825-5.873,11.412
			c-2.35,4.588-5.008,8.977-7.971,13.172c-2.965,4.195-6.098,7.803-9.397,10.824c-3.301,3.02-6.628,4.53-9.985,4.53
			c-2.126,0-3.943-0.504-5.454-1.51c-1.51-1.007-2.797-2.239-3.859-3.692c-1.065-1.455-1.875-2.995-2.434-4.615
			c-0.562-1.621-0.896-2.992-1.007-4.112c-0.112-0.671-0.167-1.342-0.167-2.013c0-0.671,0-1.285,0-1.846v-1.174
			C445.575,274.003,445.604,273.164,445.771,272.38z"/>
		<path fill="#BE1E2D" d="M525.563,279.092c-2.685-0.894-4.896-2.908-6.629-6.041c-1.735-3.13-2.769-6.88-3.104-11.243
			c-0.225-2.572,0.279-6.125,1.512-10.656c1.229-4.531,2.907-9.313,5.034-14.347c0.223-0.223,0.529-0.755,0.921-1.594
			s0.867-1.649,1.428-2.433c0.671-1.229,1.285-2.376,1.846-3.44c0.559-1.062,0.781-2.041,0.671-2.937l0.671-1.175
			c0.338-0.559,0.53-0.895,0.588-1.007c0.055-0.11,0.083-0.223,0.083-0.336c-0.671,0.448-1.454,1.12-2.349,2.014
			c-0.447,0-1.119,0.251-2.013,0.755c-0.897,0.503-1.82,1.174-2.77,2.014c-0.952,0.839-1.846,1.79-2.685,2.852
			c-0.839,1.065-1.371,2.155-1.595,3.273c-2.238,2.91-4.141,6.041-5.704,9.396c-1.569,3.356-3.021,6.603-4.363,9.733
			c-0.335,0.897-0.672,1.736-1.008,2.518c-0.335,0.783-0.671,1.51-1.007,2.181c0.111,0.562,0.084,1.148-0.083,1.762
			c-0.168,0.616-0.365,1.259-0.588,1.93c-0.227,0.562-0.419,1.12-0.587,1.678c-0.168,0.562-0.253,1.065-0.253,1.511
			c0.223,0.561,0.168,1.006-0.167,1.342v-0.167c-1.232,2.126-2.042,4.085-2.433,5.873c-0.394,1.791-0.701,3.301-0.923,4.531
			c-0.226,1.12-0.42,2.013-0.588,2.685c-0.167,0.671-0.587,1.006-1.258,1.006h-0.336l-2.517-0.839
			c-0.336,1.455-1.008,2.182-2.014,2.182c-1.232,0-2.769-1.033-4.615-3.105c-1.846-2.068-3.104-4.388-3.776-6.963l-0.671-0.503
			c0-0.559,0.029-1.062,0.084-1.511c0.059-0.445,0.139-0.948,0.253-1.51c0.109-0.671,0.223-1.397,0.334-2.181
			c0.111-0.781,0.111-1.62,0-2.517c0-0.781-0.167-1.621-0.503-2.517h0.169c-0.223-0.223-0.337-0.446-0.337-0.671
			c0.223-1.566,0.504-3.215,0.839-4.951c0.337-1.733,0.783-3.44,1.343-5.119c0-0.222-0.029-0.361-0.084-0.418
			c-0.057-0.056-0.083-0.194-0.083-0.42c0-0.109-0.03-0.223-0.084-0.335c-0.058-0.11-0.084-0.277-0.084-0.503v-2.349l3.355-9.901
			l-0.167-0.335c-0.113-0.223-0.167-0.559-0.167-1.007l3.523-10.236c1.007-2.459,1.847-4.783,2.518-6.964s0.894-4.112,0.671-5.79
			c0-1.452,0.559-2.181,1.678-2.181c0.781,0,1.762,0.225,2.937,0.671c1.175,0.448,2.32,1.006,3.439,1.678
			c1.118,0.671,2.182,1.4,3.189,2.182c1.007,0.783,1.846,1.568,2.517,2.349l0.168,0.839c0.223,1.12,0.336,1.791,0.336,2.014
			c0.109,0.561,0.277,1.174,0.503,1.845c0.223,0.671,0.445,1.343,0.671,2.014c0.337,0.784,0.672,1.678,1.007,2.686
			c0.335,1.006,0.503,2.182,0.503,3.523l-0.67,2.35l1.51-1.678c1.343-1.453,2.963-3.13,4.865-5.034
			c1.901-1.901,3.861-3.717,5.874-5.454c2.014-1.733,3.97-3.215,5.873-4.447c1.901-1.229,3.524-1.846,4.867-1.846
			c1.117,0,2.237,0.394,3.356,1.175c1.116,0.785,2.099,1.762,2.936,2.937c0.841,1.174,1.51,2.491,2.015,3.943
			c0.504,1.456,0.81,2.853,0.923,4.195c0.223,1.232,0.167,2.518-0.168,3.859c0.446,0.448,0.839,0.953,1.174,1.51
			c0.336,0.561,0.782,1.288,1.343,2.182c-0.225,1.119-0.504,2.125-0.839,3.02c-0.336,0.897-0.671,1.791-1.007,2.686l-2.181,6.376
			l-0.672,2.685v0.167l-5.202,13.928c0,0.225,0.026,0.394,0.084,0.503c0.055,0.113,0.083,0.225,0.083,0.335
			c-1.006,2.239-1.818,4.279-2.432,6.125c-0.616,1.847-0.981,3.272-1.091,4.279c0.109,0.225,0.167,0.394,0.167,0.504
			c0,0.112,0.056,0.225,0.168,0.334c1.343-0.223,2.937-0.894,4.782-2.013c1.847-1.117,3.693-2.573,5.538-4.363
			c1.846-1.788,3.692-3.802,5.538-6.041c1.845-2.237,3.439-4.586,4.782-7.049c0.558-0.893,1.117-1.929,1.678-3.104
			c0.558-1.174,1.117-2.375,1.679-3.608c0.78-1.565,1.619-3.188,2.518-4.867c0.893-1.678,1.761-3.244,2.6-4.699
			c0.84-1.452,1.679-2.627,2.518-3.523c0.839-0.895,1.536-1.343,2.099-1.343c0.558,0,0.977,0.197,1.257,0.587
			c0.277,0.394,0.421,0.813,0.421,1.259c0.223,0.784,0.055,1.51-0.504,2.181l-1.847,3.86l-1.343,3.02
			c-0.56,1.007-1.064,2.072-1.51,3.188c-0.448,1.12-1.12,2.35-2.013,3.692l-6.21,9.733l0.168-0.167
			c-0.448,1.006-1.09,2.126-1.929,3.356c-0.839,1.232-1.764,2.433-2.77,3.607c-1.007,1.174-2.072,2.266-3.188,3.272
			c-1.12,1.007-2.183,1.735-3.189,2.181h0.168c-0.336,0.335-0.952,0.839-1.846,1.511c-0.897,0.671-1.819,1.372-2.769,2.097
			c-0.952,0.729-1.875,1.343-2.769,1.846c-0.897,0.504-1.512,0.755-1.847,0.755c-0.336,0-0.839-0.109-1.51-0.335l-0.839-0.168
			c-0.562,0.113-1.121,0.196-1.679,0.252c-0.562,0.058-1.12,0.083-1.678,0.083C528.304,279.764,526.794,279.541,525.563,279.092z
			 M512.14,232.274c-0.113,0.226-0.168,0.251-0.168,0.083c0-0.167,0-0.139,0,0.084L512.14,232.274z"/>
		<path fill="#BE1E2D" d="M598.558,181.094c-0.671,3.021-1.455,6.153-2.349,9.396c-0.897,3.247-1.904,6.771-3.021,10.572
			l13.928,0.672c0.445,0.112,0.978,0.083,1.595-0.084c0.612-0.168,1.201-0.195,1.761-0.084c4.81,0.448,8.865,1.174,12.166,2.182
			c3.3,1.006,5.983,2.181,8.056,3.523c2.068,1.342,3.607,2.743,4.614,4.195c1.007,1.455,1.619,2.797,1.846,4.027
			c0.109,0.897-0.112,1.4-0.672,1.51c-0.561,0.113-1.064,0.113-1.51,0c-0.225,0.113-0.419,0.142-0.587,0.084
			c-0.168-0.055-0.364-0.084-0.587-0.084c-0.227-1.006-1.064-1.985-2.519-2.937c-1.455-0.949-3.301-1.846-5.537-2.685
			c-2.238-0.839-4.84-1.566-7.802-2.182c-2.966-0.614-6.016-1.091-9.146-1.427c-0.562,0.113-1.008,0.113-1.342,0
			c-0.336-0.11-0.73-0.167-1.176-0.167l-14.598-0.671c-0.897,3.692-1.54,7.467-1.93,11.327c-0.395,3.86-1.205,7.581-2.435,11.16
			l0.336,3.859c-1.343,4.253-2.715,8.364-4.111,12.334c-1.4,3.972-2.658,7.693-3.776,11.159c-1.119,3.469-2.013,6.657-2.684,9.565
			c-0.672,2.911-0.897,5.428-0.672,7.551c0,1.12,0.392,2.182,1.174,3.188c0.783-0.224,1.763-0.811,2.938-1.762
			c1.174-0.949,2.459-2.098,3.858-3.44c1.398-1.342,2.854-2.853,4.364-4.531c1.509-1.679,2.937-3.356,4.279-5.034
			c1.678-2.124,3.578-4.418,5.704-6.879c2.125-2.46,3.635-4.868,4.531-7.216c0.109-0.11,0.587-1.007,1.425-2.685
			c0.84-1.678,1.817-3.524,2.938-5.538c1.118-2.014,2.208-3.83,3.272-5.454c1.062-1.62,1.817-2.433,2.266-2.433
			c0.558,0,0.948,0.394,1.175,1.174c0,0.336-0.167,0.839-0.504,1.511c0.223,0.225,0.337,0.616,0.337,1.174
			c-0.337,2.349-1.96,6.07-4.868,11.159c-2.91,5.092-6.879,10.824-11.914,17.2l-6.039,7.551c-2.911,3.246-5.819,6.099-8.729,8.559
			c-2.909,2.462-5.427,3.691-7.55,3.691c-2.35,0-4.17-0.533-5.454-1.594c-1.287-1.062-2.324-2.434-3.104-4.111
			c-0.897-0.781-1.846-1.649-2.853-2.601c-1.006-0.95-1.958-1.93-2.854-2.937s-1.651-1.985-2.264-2.936
			c-0.617-0.95-0.982-1.873-1.092-2.769c-0.225-2.908,0.223-6.964,1.342-12.166c1.118-5.203,2.796-10.766,5.035-16.697l-0.168-1.678
			c0.445-1.565,0.811-3.076,1.092-4.531c0.277-1.452,0.695-2.908,1.258-4.363c1.007-3.356,1.763-6.822,2.265-10.404
			c0.504-3.579,1.146-7.215,1.93-10.908l-9.733-1.174c-3.69-0.336-7.186-0.839-10.487-1.51c-3.299-0.672-6.15-1.454-8.558-2.35
			c-2.403-0.894-4.362-1.956-5.872-3.188c-1.512-1.229-2.321-2.517-2.435-3.859c0-0.559,0.281-0.839,0.84-0.839
			c0.226-0.11,0.448-0.167,0.671-0.167c0.226,0,0.562,0.225,1.007,0.671l2.349-0.504c2.575,1.12,5.595,2.098,9.061,2.937
			c3.47,0.839,7.834,1.484,13.09,1.929c2.35,0.226,4.504,0.336,6.46,0.336c1.957,0,3.776,0.112,5.455,0.335l-0.168,1.007
			l4.53-12.083c0.336-1.229,0.756-2.404,1.259-3.523c0.504-1.117,0.864-2.292,1.091-3.524c0.446-2.795,0.81-5.648,1.091-8.559
			c0.277-2.908,0.53-5.479,0.756-7.719c0.223-2.237,0.558-4.083,1.007-5.538c0.445-1.453,1.174-2.182,2.182-2.182
			c0.781,0,1.817,0.28,3.103,0.839c1.285,0.561,2.543,1.371,3.775,2.433c1.231,1.064,2.352,2.433,3.355,4.111
			c1.009,1.678,1.622,3.582,1.848,5.705c0,0.449,0,0.896,0,1.343c0,0.448-0.059,0.951-0.168,1.51
			c0.223,0.449,0.444,1.065,0.672,1.846c0.223,0.784,0.445,1.594,0.67,2.433c0.224,0.839,0.447,1.624,0.672,2.35
			C597.941,180.228,598.223,180.758,598.558,181.094z"/>
		<path fill="#BE1E2D" d="M650.241,237.309c1.006-1.007,2.039-1.369,3.104-1.091c1.062,0.281,1.258,1.316,0.586,3.105
			c0.223,0.334,0.168,0.67-0.167,1.007v0.167c-0.672,0.897-1.231,1.791-1.678,2.685l-1.343,2.35
			c-1.119,1.903-2.295,3.943-3.523,6.125c-1.232,2.181-2.63,4.447-4.196,6.795v-0.167l-0.503,1.343v0.168l-1.007,1.846
			c-1.008,1.567-2.072,3.104-3.188,4.615c-1.12,1.51-2.35,2.995-3.693,4.447l-1.51,1.678c-0.784,0.896-1.538,1.763-2.265,2.602
			c-0.729,0.839-1.484,1.594-2.266,2.265l-0.838,0.503h0.167c-1.232,0.785-2.349,1.51-3.357,2.181
			c-1.006,0.672-2.013,1.232-3.02,1.679v-0.167c-1.231,0.671-2.462,1.09-3.692,1.258c-1.232,0.167-2.35,0.197-3.356,0.083
			c-2.909-0.558-5.368-1.845-7.383-3.859c-2.013-2.014-3.468-4.25-4.363-6.712c-0.448-1.23-0.754-2.517-0.922-3.86
			c-0.168-1.342-0.366-2.627-0.588-3.859c-0.112-0.559-0.196-1.146-0.253-1.762c-0.056-0.614-0.083-1.201-0.083-1.762
			c0-0.559,0.027-1.062,0.083-1.511c0.057-0.445,0.085-0.948,0.085-1.51v-3.021c0.223-1.678,0.504-3.411,0.839-5.202
			c0.336-1.788,0.728-3.691,1.175-5.705l1.007-3.02l1.679-5.538c1.007-2.459,1.985-4.893,2.936-7.3
			c0.95-2.404,1.763-4.725,2.434-6.964v-1.007c0.559-2.685,1.621-4.363,3.189-5.034c0.558-0.446,1.201-0.698,1.929-0.756
			c0.727-0.055,1.649,0.029,2.769,0.252c1.678,0.335,3.496,1.652,5.454,3.943c1.957,2.295,3.215,5.286,3.775,8.978
			c0.223,1.791-0.057,3.859-0.838,6.208l-0.336,1.343c0,0.226,0.055,0.336,0.168,0.336l0.168,0.503
			c0.109,0.226,0.168,0.533,0.168,0.923c0,0.393,0,0.701,0,0.923c0.109,0.226,0.168,0.561,0.168,1.006c0,0.449,0,0.784,0,1.007
			c0,0.896,0.055,1.568,0.167,2.014c-0.448,1.342-0.897,2.63-1.343,3.86c-0.447,1.232-0.896,2.349-1.342,3.355
			c-0.113,0.335-0.253,0.755-0.42,1.259c-0.168,0.504-0.364,0.923-0.588,1.259v1.006c-1.678,4.588-2.966,9.062-3.859,13.425
			l0.168,0.168c0.111,0.225,0.14,0.419,0.084,0.587c-0.058,0.167-0.252,0.419-0.587,0.755l-0.672,0.671
			c-0.561,1.12-1.036,2.127-1.427,3.021c-0.392,0.896-0.587,1.736-0.587,2.517c0,1.343,0.726,2.182,2.182,2.517
			c0.559-0.223,1.369-0.726,2.434-1.51c1.062-0.782,2.265-1.788,3.608-3.021c1.006-0.558,1.955-1.314,2.852-2.266
			c0.895-0.948,1.787-1.872,2.686-2.768l1.174-1.342c2.573-3.131,4.978-6.461,7.217-9.984c2.235-3.524,4.473-7.187,6.712-10.992
			c0.894-1.342,1.647-2.543,2.265-3.608C649.093,239.687,649.68,238.541,650.241,237.309z M632.621,195.189
			c-2.239-0.223-4.477-1.006-6.712-2.349c-1.232-1.007-2.294-2.459-3.189-4.363c-0.896-1.901-1.342-3.969-1.342-6.209
			c-0.113-1.788,0.085-3.271,0.588-4.447c0.504-1.174,1.2-2.152,2.099-2.936c2.57-2.35,5.143-3.524,7.718-3.524
			c1.23-0.111,2.878,0.226,4.95,1.006c2.069,0.784,3.831,1.791,5.286,3.021c1.117,0.897,1.847,1.904,2.181,3.021
			c0.111,0.897,0.027,1.708-0.251,2.433c-0.281,0.73-0.701,1.426-1.259,2.098h0.168c-0.225,0.449-0.478,0.952-0.755,1.511
			c-0.28,0.561-0.645,1.12-1.091,1.678l-2.015,3.356c-0.783,1.232-1.427,2.21-1.93,2.937c-0.503,0.729-0.98,1.316-1.427,1.762
			c-0.446,0.448-0.896,0.729-1.342,0.839C633.852,195.134,633.292,195.189,632.621,195.189z"/>
	</g>
	<g>
		<path fill="#BE1E2D" d="M427.562,456.564c0.559-1.231,1.23-1.847,2.013-1.847c1.117,0,1.847,0.95,2.182,2.854
			c0.336,1.679,0.391,3.83,0.168,6.46c-0.226,2.627-0.896,5.342-2.014,8.14c-1.119,2.794-2.769,5.369-4.95,7.718
			c-2.182,2.351-5.008,4.083-8.474,5.203c0,0.558-0.561,0.838-1.678,0.838c-0.448,0-0.868-0.028-1.258-0.083
			c-0.393-0.058-0.813-0.085-1.258-0.085c-1.233,0-1.958,0.279-2.181,0.84l-0.84,1.174c-1.232,0.223-2.349,0.362-3.355,0.421
			c-1.007,0.055-2.126,0.083-3.356,0.083c-7.832,0-14.657-2.098-20.473-6.293c-5.818-4.194-10.572-9.648-14.264-16.36
			c-0.449-0.672-0.98-1.595-1.594-2.77c-0.616-1.174-1.203-2.35-1.763-3.523c-0.56-1.174-1.148-2.239-1.761-3.188
			c-0.616-0.952-1.148-1.54-1.594-1.763l-0.503-1.007c-0.897-3.581-1.623-7.132-2.182-10.656c-0.561-3.524-0.951-6.851-1.174-9.983
			l-1.342-2.854c0-1.116-0.029-2.236-0.084-3.356c-0.058-1.116-0.084-2.181-0.084-3.188c-0.113-4.364-0.029-8.501,0.252-12.417
			c0.278-3.916,0.643-7.411,1.091-10.488c0.446-3.076,0.839-5.622,1.174-7.636c0.336-2.014,0.504-3.355,0.504-4.028
			c0-0.445-0.562-0.669-1.678-0.669c-0.671,0-1.064,0.111-1.175,0.335c-2.798,0.671-5.567,1.315-8.307,1.929
			c-2.743,0.617-5.398,1.317-7.971,2.098l-15.103,0.672l-12.418,16.277c-4.253,2.798-7.551,5.537-9.9,8.222
			c-2.349,2.686-4.588,5.932-6.712,9.734c-2.462,3.691-5.118,7.44-7.97,11.241c-2.853,3.803-5.734,7.272-8.643,10.405
			c-6.041,2.349-11.691,4.053-16.948,5.118c-5.261,1.062-10.237,1.593-14.935,1.593c-6.713,0-12.727-0.98-18.04-2.937
			c-5.314-1.958-9.929-4.644-13.844-8.054c-3.917-3.414-7.186-7.384-9.816-11.915c-2.627-4.531-4.502-9.368-5.622-14.516
			c-1.007-4.137-1.51-8.501-1.51-13.089c0-7.157,1.258-14.233,3.776-21.227c2.517-6.989,6.35-13.257,11.494-18.794
			c5.145-5.538,11.579-10.04,19.298-13.509c7.719-3.466,16.781-5.203,27.185-5.203c5.815,0,11.998,0.616,18.542,1.846
			c6.544,1.233,13.619,3.189,21.228,5.874h1.845c3.131,0,5.816,0.671,8.055,2.014c2.236,1.342,4.054,2.911,5.454,4.699
			c1.397,1.791,2.488,3.607,3.271,5.453c0.783,1.847,1.286,3.272,1.511,4.279c0.111,0.784,0.027,1.4-0.251,1.846
			c-0.281,0.449-0.671,0.812-1.174,1.092c-0.504,0.279-1.036,0.448-1.595,0.503c-0.561,0.057-1.007,0.083-1.342,0.083
			c-0.896,0-1.791-0.109-2.685-0.335c-0.897-0.223-1.678-0.445-2.35-0.671c-0.784-0.11-2.239-1.343-4.363-3.692
			c-2.126-2.35-4.866-4.866-8.223-7.552c-3.355-2.684-7.272-5.144-11.746-7.384c-4.476-2.235-9.455-3.355-14.935-3.355
			c-1.232,0-3.049-0.055-5.453-0.167c-2.407-0.111-4.505-0.168-6.292-0.168c-2.686,0-5.008,0.112-6.964,0.335
			c-1.958,0.227-3.805,0.532-5.537,0.924c-1.736,0.392-3.524,0.782-5.371,1.175c-1.845,0.393-3.943,0.754-6.292,1.09
			c-6.602,2.685-12.027,6.016-16.277,9.985c-4.253,3.972-7.609,8.25-10.068,12.836c-2.459,4.59-4.166,9.259-5.118,14.013
			c-0.949,4.755-1.426,9.202-1.426,13.34c0,1.007,0.029,1.987,0.084,2.937c0.058,0.952,0.142,1.875,0.252,2.77
			c-0.559,0-0.559,1.287,0,3.859c0.335,1.455,0.868,3.217,1.594,5.285c0.729,2.072,1.568,4.225,2.518,6.461
			c0.951,2.239,2.042,4.446,3.272,6.628c1.23,2.183,2.517,4.169,3.859,5.959c1.453,2.57,3.691,4.697,6.712,6.375
			s6.487,2.992,10.404,3.944c3.915,0.948,8.11,1.619,12.586,2.014c4.474,0.39,8.836,0.587,13.089,0.587
			c3.579,0,7.187-1.174,10.823-3.524c3.634-2.349,7.158-5.343,10.572-8.978c3.411-3.634,6.712-7.689,9.901-12.166
			c3.188-4.474,6.096-8.81,8.726-13.006c2.628-4.193,5.005-7.996,7.132-11.41c2.124-3.41,3.915-5.957,5.37-7.635
			c-10.739,0-19.523-1.595-26.345-4.782c-6.826-3.188-10.853-7.577-12.082-13.174c-0.562-2.349-0.701-3.998-0.42-4.949
			c0.278-0.949,0.727-1.594,1.342-1.929c0.614-0.337,1.23-0.505,1.846-0.505c0.614,0,1.033-0.224,1.258-0.67v0.501
			c0.223,1.009,0.95,2.267,2.182,3.776c1.229,1.512,2.769,2.995,4.615,4.447c1.846,1.457,3.97,2.684,6.377,3.692
			c2.404,1.007,4.892,1.51,7.467,1.51c3.356,0,6.432,0.28,9.229,0.839c2.795,0.562,5.37,0.839,7.719,0.839
			c2.685,0,4.922-0.671,6.713-2.013c0.336-1.007,1.146-3.021,2.433-6.042c1.285-3.02,2.937-6.431,4.95-10.236
			c2.014-3.801,4.306-7.635,6.879-11.494c2.573-3.859,5.202-7.242,7.888-10.152c3.243-3.356,6.544-6.99,9.9-10.907
			c3.356-3.916,6.46-7.746,9.313-11.495c2.853-3.747,5.202-7.216,7.047-10.403c1.847-3.189,2.879-5.732,3.104-7.636
			c0.336-0.781,1.229-1.174,2.685-1.174c1.23,0,2.74,0.478,4.531,1.426c1.789,0.952,3.524,2.211,5.203,3.775
			c1.678,1.569,3.215,3.415,4.614,5.539c1.398,2.126,2.375,4.42,2.937,6.88c0.335,1.455,0.446,2.91,0.335,4.362
			c-0.113,1.455-0.335,3.301-0.671,5.538l-3.021,13.257c0.446,2.349,0.923,4.673,1.426,6.964c0.503,2.293,1.033,4.614,1.595,6.963
			l-3.189,9.231c1.007,0,1.678,0.028,2.015,0.084c0.334,0.057,0.613,0.111,0.839,0.167c0.223,0.058,0.529,0.085,0.922,0.085
			c0.391,0,1.146-0.111,2.265-0.336l5.035-2.183c2.794-0.336,4.809-0.503,6.041-0.503c1.452,0,2.572,0.28,3.356,0.839
			c0.782,0.561,1.23,1.119,1.342,1.678c0.11,0.448,0.056,1.064-0.167,1.847c-0.226,0.782-0.729,1.594-1.51,2.433
			c-0.784,0.839-1.93,1.679-3.44,2.518c-1.51,0.839-3.439,1.483-5.789,1.929c-0.225,0-0.42,0-0.587,0s-0.477,0.028-0.922,0.085
			c-0.449,0.057-1.175,0.225-2.182,0.503c-1.007,0.279-2.518,0.755-4.531,1.426c-0.784,0.784-1.51,1.149-2.182,1.091
			c-0.671-0.055-1.399,0.251-2.181,0.924c-0.784,0.335-1.455,1.399-2.014,3.188c-0.561,1.79-1.035,4.084-1.426,6.878
			c-0.393,2.799-0.7,5.904-0.923,9.314c-0.226,3.414-0.393,6.854-0.503,10.319c0,0.227,0.055,0.673,0.168,1.344
			c0.109,0.672-0.113,1.175-0.671,1.511c-0.897,2.349-1.4,4.643-1.51,6.88c-0.113,2.238-0.336,4.53-0.672,6.879
			c-0.448,2.798-0.729,5.399-0.839,7.803c-0.113,2.407-0.113,4.783,0,7.133l-0.167,1.678c0,6.486,0.558,11.802,1.679,15.941
			c1.006,4.473,2.375,8.193,4.11,11.159c1.733,2.964,3.663,5.342,5.79,7.132c2.124,1.789,4.279,3.076,6.46,3.858
			c2.182,0.783,4.222,1.231,6.125,1.344c1.565,0,3.495-0.058,5.789-0.167c2.292-0.113,4.558-0.449,6.796-1.007
			c2.236-0.562,4.166-1.401,5.789-2.517c1.621-1.122,2.544-2.744,2.769-4.867c0.446-1.679,0.979-3.219,1.594-4.614
			c0.614-1.401,1.146-2.828,1.594-4.28l1.846-6.544C427.562,457.234,427.671,456.899,427.562,456.564z M343.993,380.549
			c3.131,0,6.068-0.476,8.81-1.427c2.74-0.949,5.454-1.817,8.139-2.602c0.11-4.027,0.697-8.668,1.762-13.928
			c1.062-5.257,2.124-10.487,3.188-15.689c1.062-5.201,1.93-10.04,2.602-14.516c0.671-4.474,0.726-7.942,0.167-10.404
			c0-0.223-0.058-0.391-0.167-0.504c-0.113-0.11-0.169-0.277-0.169-0.503l-11.411,14.767L349.7,348.16
			c-1.008,2.239-2.294,4.812-3.86,7.72c-1.568,2.911-3.188,5.901-4.867,8.979c-1.678,3.079-3.301,6.124-4.866,9.146
			c-1.568,3.02-2.853,5.763-3.86,8.223c0.223,0.226,0.671,0.335,1.342,0.335c1.23,0,2.711-0.39,4.447-1.174
			c1.733-0.782,3.215-1.176,4.447-1.176C343.042,380.212,343.545,380.326,343.993,380.549z"/>
		<path fill="#BE1E2D" d="M440.145,434.749c-1.232-0.894-2.323-1.984-3.272-3.271c-0.952-1.284-1.707-2.686-2.265-4.195
			c-0.562-1.51-0.897-2.992-1.007-4.447c0-0.78,0-1.536,0-2.265c0-0.727,0.11-1.428,0.335-2.097
			c-0.335-0.224-0.419-0.866-0.25-1.931c0.167-1.063,0.361-2.266,0.587-3.608c0.11-0.78,0.223-1.564,0.336-2.35
			c0.11-0.782,0.223-1.452,0.335-2.015c0.111-0.669,0.223-1.342,0.336-2.013c-0.225-0.445-0.701-0.083-1.426,1.092
			c-0.729,1.174-1.427,2.321-2.098,3.439l-1.343,2.35c-0.561,0.561-0.981,1.202-1.258,1.93c-0.281,0.729-0.532,1.483-0.755,2.265
			c-0.336,0.896-0.729,1.82-1.175,2.77c-0.448,0.951-1.064,1.818-1.846,2.601c-2.35,3.133-4.979,6.042-7.887,8.726
			c-2.91,2.686-5.706,4.027-8.39,4.027c-2.015,0-4.111-0.781-6.292-2.35c-2.182-1.564-3.386-4.138-3.608-7.719
			c-0.226-1.342-0.058-3.021,0.504-5.033c-0.562-0.671-0.897-1.314-1.007-1.93c-0.113-0.613-0.281-1.26-0.504-1.931l-0.335-4.866
			c0.223-0.558,0.475-1.174,0.756-1.846c0.277-0.671,0.529-1.398,0.755-2.181l1.678-3.86l-0.503-4.195
			c0.558-2.237,1.007-4.558,1.342-6.963c0.336-2.406,0.614-4.727,0.84-6.966c0.11-0.78,0.193-1.593,0.251-2.434
			c0.056-0.837,0.194-1.647,0.42-2.432c0-0.558,0.084-1.201,0.252-1.93c0.167-0.727,0.361-1.482,0.587-2.267
			c0.558-1.452,0.839-2.571,0.839-3.355l-0.168-0.168c0-0.109-0.029-0.223-0.084-0.335c-0.057-0.11-0.084-0.277-0.084-0.504
			c-0.225-0.78,0.223-1.174,1.343-1.174c2.459,0,4.082,0.394,4.866,1.174c0.782,0.784,1.453,1.736,2.014,2.853
			c0.336,0.784,0.756,1.539,1.259,2.267c0.503,0.729,1.313,1.37,2.434,1.929c2.685,1.343,4.389,3.079,5.118,5.202
			c0.727,2.126,1.146,3.749,1.258,4.867l-0.671,2.349c-0.561,1.903-1.09,3.804-1.594,5.704c-0.503,1.904-0.868,3.974-1.091,6.21
			c-0.448,1.568-0.98,3.217-1.594,4.95c-0.616,1.736-1.203,3.386-1.762,4.95c-1.007,2.911-1.93,5.621-2.769,8.139
			s-1.148,4.224-0.923,5.117c0,0.784,0.168,1.232,0.503,1.343c1.007-0.669,2.376-2.014,4.111-4.026
			c1.733-2.014,3.579-4.417,5.538-7.216c1.956-2.795,3.97-5.845,6.042-9.145c2.068-3.3,3.943-6.516,5.622-9.649l0.839-1.344
			c1.007-1.678,2.04-3.606,3.104-5.788c1.062-2.183,1.536-3.944,1.427-5.287v-0.839c0-0.109-0.029-0.193-0.084-0.251
			c-0.057-0.056-0.084-0.194-0.084-0.42c0.559-1.229,1.091-2.626,1.594-4.195c0.504-1.563,1.034-3.021,1.594-4.362
			c0.559-1.788,1.091-3.273,1.595-4.447c0.503-1.174,1.032-1.762,1.594-1.762c0.781,0,1.678,0.227,2.684,0.672
			c1.008,0.446,1.957,1.119,2.853,2.014c0.895,0.896,1.704,1.986,2.434,3.271c0.726,1.287,1.146,2.713,1.258,4.279
			c0.223,1.007,0.223,2.239,0,3.691c1.453,1.342,2.433,2.379,2.937,3.105c0.503,0.729,0.811,1.706,0.922,2.937
			c-0.671,3.804-1.622,7.83-2.852,12.081l-0.503,2.014l0.336,3.021l-1.678,3.69c-0.561,1.345-1.149,2.715-1.762,4.113
			c-0.616,1.399-0.923,2.545-0.923,3.438c0.11,0.336,0.167,0.673,0.167,1.007c0.11,0.227,0.14,0.479,0.084,0.756
			c-0.057,0.281-0.084,0.533-0.084,0.756c0,0.111-0.057,0.225-0.167,0.336c-0.897,1.903-1.623,3.636-2.182,5.201
			c-0.561,1.567-0.839,2.798-0.839,3.692l0.672,1.007c0.671-0.109,1.594-0.672,2.769-1.678c1.174-1.009,2.488-2.321,3.944-3.944
			c1.452-1.62,2.937-3.411,4.447-5.37c1.51-1.955,2.936-3.886,4.279-5.789l1.51-2.853c1.23-1.901,2.35-3.692,3.356-5.37
			c1.007-1.678,2.068-3.467,3.188-5.369l0.503-1.342c0.336-0.896,0.727-2.016,1.175-3.357c0.445-1.343,0.949-2.602,1.51-3.775
			c0.559-1.176,1.201-2.182,1.93-3.021c0.727-0.838,1.537-1.259,2.434-1.259c1.007,0,1.621,0.617,1.846,1.848
			c0,0.225-0.029,0.504-0.084,0.839c-0.057,0.335-0.197,0.784-0.419,1.343c0,0.224-0.28,0.729-0.839,1.51
			c-0.562,0.896-1.175,2.043-1.846,3.439c-0.671,1.4-0.951,2.546-0.839,3.44c-0.448,1.118-1.091,2.378-1.93,3.776
			s-1.707,2.768-2.601,4.111c-0.448,1.901-1.232,3.747-2.349,5.537l-6.712,9.396v-0.168c-0.226,0.562-0.419,0.952-0.586,1.175
			c-0.169,0.226-0.365,0.448-0.588,0.671c-0.225,0.227-0.419,0.419-0.587,0.588c-0.167,0.168-0.309,0.364-0.419,0.587
			c-1.006,1.791-2.265,3.357-3.775,4.699s-3.049,2.49-4.615,3.44c-1.567,0.952-3.02,1.678-4.362,2.181
			c-1.343,0.504-2.35,0.756-3.021,0.756c-0.561,0-1.287-0.111-2.181-0.336h-0.336C442.717,436.205,441.374,435.646,440.145,434.749z
			"/>
		<path fill="#BE1E2D" d="M549.723,395.985c0.669-1.006,1.508-1.51,2.517-1.51c1.115,0,1.788,0.616,2.014,1.846
			c0.109,0.671-0.394,1.989-1.511,3.944c-1.119,1.958-2.574,4.224-4.363,6.795c-1.789,2.575-3.774,5.286-5.958,8.14
			c-2.181,2.853-4.362,5.565-6.545,8.139c-2.181,2.574-4.223,4.811-6.124,6.712c-1.905,1.904-3.414,3.134-4.531,3.691
			c-0.67,0.336-1.399,0.839-2.18,1.511c-0.785,0.671-1.624,1.287-2.518,1.845c-1.342,0.896-2.574,1.735-3.692,2.519
			c-1.119,0.781-1.792,1.452-2.015,2.014c-1.119,3.691-2.348,7.271-3.69,10.739c-1.344,3.467-3.079,6.934-5.203,10.404
			c0.11,1.564-0.279,3.159-1.174,4.782c-0.896,1.62-1.791,3.047-2.685,4.279c-0.227,0.559-0.729,1.313-1.511,2.265
			c-0.783,0.95-1.623,1.873-2.517,2.769V476.7c-0.335,0.445-0.784,0.95-1.343,1.51c-0.561,0.559-0.951,0.95-1.174,1.177
			c-0.225,0.559-0.616,1.258-1.175,2.097c-0.561,0.839-1.204,1.649-1.929,2.434c-0.729,0.78-1.484,1.481-2.266,2.098
			c-0.785,0.612-1.51,0.923-2.181,0.923l-0.336-0.168h-0.335c-0.897,0.335-1.82,0.614-2.77,0.838
			c-0.951,0.223-1.987,0.336-3.104,0.336c-0.671,0-1.232-0.059-1.678-0.168c-1.678,0.446-3.637,0.672-5.874,0.672
			c-0.897,0-2.071-0.028-3.524-0.083c-1.455-0.059-2.878-0.395-4.279-1.008c-1.397-0.615-2.685-1.539-3.859-2.769
			c-1.175-1.232-1.985-3.021-2.434-5.369c-0.223-1.904,0.336-3.889,1.678-5.958c1.343-2.07,3.133-4.14,5.371-6.208
			c2.236-2.072,4.753-4.142,7.551-6.209c2.794-2.072,5.537-4.057,8.222-5.958l2.013-1.51l7.887-4.867
			c1.452-0.896,2.434-1.706,2.937-2.433c0.503-0.729,1.091-1.707,1.762-2.937l0.504-1.007c0-0.448,0.025-1.006,0.083-1.678
			c0.055-0.671,0.084-1.232,0.084-1.68c0.558-1.451,1.146-3.074,1.762-4.865c0.614-1.787,1.23-3.55,1.846-5.286
			c0.614-1.732,1.146-3.327,1.594-4.782c0.445-1.453,0.782-2.517,1.008-3.188c-0.897,1.232-2.211,2.91-3.944,5.033
			c-1.736,2.126-3.385,4.085-4.95,5.874c-0.113,0.225-0.503,0.448-1.174,0.671l0.167,0.336c-2.575,3.246-4.644,4.865-6.208,4.865
			c-1.007,0-2.21-0.306-3.608-0.922c-1.401-0.614-2.827-1.427-4.28-2.434c-1.455-1.007-2.852-2.182-4.195-3.523
			c-1.342-1.342-2.407-2.796-3.188-4.363l-0.503-0.336c-0.897-0.445-1.568-0.949-2.014-1.51l-2.349-2.853
			c-0.446-0.561-0.839-1.313-1.174-2.267c-0.336-0.947-0.504-1.816-0.504-2.601c0-0.445,0-1.175,0-2.182
			c0-1.006,0.113-1.955,0.335-2.852c0.449-3.691,1.286-7.636,2.518-11.832c1.23-4.193,3.634-8.809,7.215-13.844l1.846-2.349
			l1.007-1.342l5.873-7.217h0.839c0.223,0,0.391-0.055,0.503-0.167c0.11,0,0.252,0.029,0.419,0.084
			c0.168,0.057,0.307,0.083,0.419,0.083h0.336c1.565-0.78,2.963-1.342,4.195-1.678c1.23-0.335,2.46-0.612,3.692-0.839
			c3.13-2.125,6.209-3.188,9.229-3.188c1.007,0,2.04,0.311,3.103,0.924c1.063,0.615,2.016,1.371,2.854,2.265
			c0.839,0.897,1.511,1.874,2.014,2.937c0.503,1.065,0.81,2.042,0.923,2.936c0,0.897-0.28,1.344-0.839,1.344
			c-1.903,0-3.607,0.364-5.118,1.091c-1.512,0.729-2.882,1.735-4.11,3.021c-1.233,1.288-2.408,2.743-3.525,4.363
			c-1.119,1.623-2.181,3.272-3.188,4.95l-2.684,4.362v-0.166c-0.113,0.333-0.197,0.586-0.252,0.753
			c-0.057,0.168-0.196,0.421-0.419,0.757l-1.679,3.02c-1.006,1.678-1.958,3.355-2.852,5.033c-0.897,1.678-1.456,3.301-1.679,4.868
			l-1.342,5.033c-0.112,0.226-0.141,0.394-0.083,0.503c0.055,0.113,0.083,0.28,0.083,0.503c0,0.338,0.11,0.953,0.336,1.848
			l0.335,2.014c-1.456,3.02-2.071,5.201-1.846,6.543c0.111,1.009,0.614,1.512,1.511,1.512c1.342,0,3.298-1.26,5.873-3.775
			c2.571-2.519,4.921-5.9,7.047-10.153l4.364-10.739v-2.35c0.223-1.116,0.502-2.04,0.838-2.769c0.336-0.727,0.672-1.481,1.008-2.267
			c0.446-0.78,0.81-1.536,1.091-2.264c0.277-0.728,0.476-1.369,0.587-1.931c-0.227-2.795,0.139-4.922,1.091-6.377
			c0.948-1.452,1.817-2.182,2.6-2.182c2.124,0,4.306,1.037,6.546,3.105c2.237,2.07,3.969,5.23,5.201,9.48
			c0.559,0.671,1.034,1.344,1.427,2.013c0.39,0.673,0.643,1.4,0.756,2.183c0.109,0.449,0.139,0.897,0.085,1.343
			c-0.06,0.448-0.145,0.952-0.254,1.51c-0.113,0.562-0.226,1.12-0.336,1.679c-0.112,0.561-0.112,1.119,0,1.679
			c0,0.334,0.056,0.614,0.169,0.837c0.109,1.793-0.03,3.667-0.42,5.623c-0.393,1.957-0.754,3.889-1.091,5.79l-0.839,4.194
			l-2.181,6.209l3.188-2.686c2.349-1.678,4.753-3.718,7.217-6.125c2.458-2.404,4.865-5.005,7.215-7.803
			c2.349-2.794,4.587-5.731,6.712-8.81C546.139,402.056,548.045,399.008,549.723,395.985z M466.825,480.729
			c1.006,0.445,1.9,0.781,2.684,1.007c0.782,0.223,1.678,0.336,2.686,0.336c1.229,0,2.656-0.336,4.279-1.007
			c1.62-0.671,2.991-1.735,4.111-3.188c0.894-1.345,1.901-2.995,3.021-4.952c1.117-1.958,2.181-3.972,3.188-6.04
			c1.007-2.072,1.955-4.085,2.853-6.041c0.895-1.96,1.565-3.553,2.013-4.783l-3.02,2.014c-2.35,1.566-5.177,3.412-8.475,5.538
			c-3.301,2.125-6.404,4.249-9.313,6.377l-0.504,0.671c-2.461,1.678-4.166,3.13-5.118,4.362c-0.949,1.231-1.369,2.35-1.259,3.355
			c0.226,0.672,0.616,1.202,1.175,1.595C465.708,480.363,466.266,480.615,466.825,480.729z"/>
		<path fill="#BE1E2D" d="M584.456,434.749c-1.232-0.894-2.323-1.984-3.272-3.271c-0.952-1.284-1.707-2.686-2.266-4.195
			c-0.562-1.51-0.897-2.992-1.007-4.447c0-0.78,0-1.536,0-2.265c0-0.727,0.109-1.428,0.336-2.097
			c-0.336-0.224-0.419-0.866-0.253-1.931c0.17-1.063,0.362-2.266,0.589-3.608c0.109-0.78,0.223-1.564,0.335-2.35
			c0.111-0.782,0.223-1.452,0.336-2.015c0.109-0.669,0.223-1.342,0.335-2.013c-0.226-0.445-0.699-0.083-1.425,1.092
			c-0.729,1.174-1.428,2.321-2.098,3.439l-1.344,2.35c-0.561,0.561-0.98,1.202-1.259,1.93c-0.28,0.729-0.531,1.483-0.755,2.265
			c-0.336,0.896-0.728,1.82-1.173,2.77c-0.451,0.951-1.065,1.818-1.848,2.601c-2.349,3.133-4.979,6.042-7.887,8.726
			c-2.909,2.686-5.705,4.027-8.389,4.027c-2.016,0-4.112-0.781-6.295-2.35c-2.182-1.564-3.384-4.138-3.608-7.719
			c-0.225-1.342-0.056-3.021,0.505-5.033c-0.561-0.671-0.896-1.314-1.006-1.93c-0.113-0.613-0.28-1.26-0.504-1.931l-0.337-4.866
			c0.224-0.558,0.475-1.174,0.757-1.846c0.276-0.671,0.529-1.398,0.753-2.181l1.68-3.86l-0.504-4.195
			c0.559-2.237,1.008-4.558,1.342-6.963c0.336-2.406,0.614-4.727,0.84-6.966c0.11-0.78,0.194-1.593,0.251-2.434
			c0.057-0.837,0.194-1.647,0.42-2.432c0-0.558,0.083-1.201,0.253-1.93c0.166-0.727,0.359-1.482,0.587-2.267
			c0.558-1.452,0.838-2.571,0.838-3.355l-0.167-0.168c0-0.109-0.029-0.223-0.084-0.335c-0.058-0.11-0.085-0.277-0.085-0.504
			c-0.224-0.78,0.223-1.174,1.343-1.174c2.46,0,4.083,0.394,4.867,1.174c0.781,0.784,1.451,1.736,2.014,2.853
			c0.336,0.784,0.756,1.539,1.259,2.267c0.503,0.729,1.312,1.37,2.433,1.929c2.686,1.343,4.39,3.079,5.118,5.202
			c0.727,2.126,1.146,3.749,1.259,4.867l-0.671,2.349c-0.562,1.903-1.091,3.804-1.595,5.704c-0.504,1.904-0.867,3.974-1.09,6.21
			c-0.449,1.568-0.982,3.217-1.595,4.95c-0.616,1.736-1.202,3.386-1.763,4.95c-1.007,2.911-1.931,5.621-2.77,8.139
			s-1.148,4.224-0.922,5.117c0,0.784,0.167,1.232,0.503,1.343c1.008-0.669,2.377-2.014,4.111-4.026
			c1.734-2.014,3.579-4.417,5.537-7.216c1.957-2.795,3.971-5.845,6.043-9.145c2.067-3.3,3.942-6.516,5.621-9.649l0.838-1.344
			c1.007-1.678,2.04-3.606,3.104-5.788c1.062-2.183,1.537-3.944,1.428-5.287v-0.839c0-0.109-0.03-0.193-0.084-0.251
			c-0.06-0.056-0.086-0.194-0.086-0.42c0.56-1.229,1.092-2.626,1.595-4.195c0.503-1.563,1.034-3.021,1.595-4.362
			c0.559-1.788,1.092-3.273,1.595-4.447s1.032-1.762,1.594-1.762c0.779,0,1.678,0.227,2.685,0.672
			c1.006,0.446,1.957,1.119,2.854,2.014c0.893,0.896,1.704,1.986,2.434,3.271c0.727,1.287,1.145,2.713,1.258,4.279
			c0.223,1.007,0.223,2.239,0,3.691c1.453,1.342,2.433,2.379,2.937,3.105c0.504,0.729,0.811,1.706,0.924,2.937
			c-0.674,3.804-1.625,7.83-2.854,12.081l-0.503,2.014l0.335,3.021l-1.678,3.69c-0.562,1.345-1.148,2.715-1.763,4.113
			c-0.617,1.399-0.923,2.545-0.923,3.438c0.109,0.336,0.169,0.673,0.169,1.007c0.109,0.227,0.137,0.479,0.083,0.756
			c-0.057,0.281-0.083,0.533-0.083,0.756c0,0.111-0.06,0.225-0.169,0.336c-0.896,1.903-1.622,3.636-2.183,5.201
			c-0.559,1.567-0.838,2.798-0.838,3.692l0.672,1.007c0.67-0.109,1.594-0.672,2.768-1.678c1.175-1.009,2.491-2.321,3.944-3.944
			c1.453-1.62,2.938-3.411,4.446-5.37c1.511-1.955,2.938-3.886,4.279-5.789l1.511-2.853c1.229-1.901,2.351-3.692,3.356-5.37
			c1.007-1.678,2.067-3.467,3.188-5.369l0.503-1.342c0.336-0.896,0.727-2.016,1.175-3.357c0.446-1.343,0.948-2.602,1.51-3.775
			c0.558-1.176,1.201-2.182,1.93-3.021c0.727-0.838,1.536-1.259,2.435-1.259c1.007,0,1.619,0.617,1.845,1.848
			c0,0.225-0.03,0.504-0.084,0.839c-0.057,0.335-0.196,0.784-0.419,1.343c0,0.224-0.28,0.729-0.839,1.51
			c-0.562,0.896-1.175,2.043-1.848,3.439c-0.669,1.4-0.949,2.546-0.839,3.44c-0.446,1.118-1.089,2.378-1.929,3.776
			c-0.838,1.398-1.707,2.768-2.601,4.111c-0.449,1.901-1.232,3.747-2.35,5.537l-6.713,9.396v-0.168
			c-0.226,0.562-0.42,0.952-0.586,1.175c-0.17,0.226-0.365,0.448-0.588,0.671c-0.226,0.227-0.421,0.419-0.588,0.588
			c-0.169,0.168-0.31,0.364-0.419,0.587c-1.009,1.791-2.266,3.357-3.775,4.699c-1.511,1.342-3.051,2.49-4.615,3.44
			c-1.568,0.952-3.02,1.678-4.364,2.181c-1.342,0.504-2.348,0.756-3.02,0.756c-0.56,0-1.287-0.111-2.182-0.336h-0.336
			C587.027,436.205,585.686,435.646,584.456,434.749z"/>
		<path fill="#BE1E2D" d="M482.428,464.115l6.544-2.852c3.021-1.008,5.538-1.791,7.551-2.352c2.014-0.559,3.692-1.004,5.034-1.341
			s2.379-0.588,3.104-0.756c0.729-0.167,1.258-0.251,1.595-0.251c0.447,0.11,1.231,0.11,2.349,0c1.12-0.111,2.685-0.395,4.699-0.84
			c4.698-0.561,9.873-1.007,15.521-1.342c5.651-0.336,11.495-0.504,17.535-0.504c1.903,0,3.777,0,5.621,0
			c1.848,0,3.724,0.056,5.624,0.168c9.845-1.342,18.347-2.013,25.505-2.013c4.811,0,9.229,0.251,13.256,0.754
			c4.029,0.505,7.806,1.175,11.328,2.015c3.522,0.839,6.88,1.846,10.068,3.021c3.189,1.174,6.403,2.375,9.649,3.607
			c4.137,0.336,7.69,1.091,10.654,2.265c2.964,1.176,5.51,2.518,7.638,4.027c2.123,1.511,3.83,3.076,5.116,4.699
			c1.285,1.62,2.375,3.159,3.272,4.614l-2.35,2.685c-3.581,4.139-6.322,7.134-8.223,8.979c-1.903,1.846-3.355,2.77-4.362,2.77
			c-0.896,0-1.735-0.646-2.517-1.931c-0.784-1.287-1.792-3.05-3.021-5.286c-0.896-1.342-2.377-2.629-4.447-3.858
			c-2.071-1.233-4.53-2.407-7.382-3.525c-2.854-1.119-5.986-2.181-9.399-3.188c-3.409-1.007-6.851-2.014-10.318-3.021
			c-2.459-0.671-4.837-1.316-7.132-1.93c-2.293-0.617-4.557-1.315-6.798-2.099c-3.912-1.118-7.718-2.013-11.409-2.685
			c-3.693-0.671-7.438-1.232-11.244-1.678c-3.802-0.448-7.688-0.812-11.661-1.091c-3.971-0.281-8.139-0.532-12.502-0.755h-1.847
			h-0.335c-0.223,0-0.42-0.084-0.588-0.252c-0.167-0.167-0.362-0.141-0.586,0.084c-2.797,0.446-6.097,0.781-9.901,1.008
			c-2.572,0.223-5.035,0.419-7.384,0.586c-2.349,0.168-4.418,0.475-6.209,0.924c-1.342,0.335-3.215,0.558-5.622,0.671
			c-2.404,0.109-4.78,0.168-7.132,0.168c-1.9,0.109-3.662,0.168-5.285,0.168c-1.62,0-2.878,0.109-3.775,0.335
			c-0.671,0.336-1.23,0.391-1.678,0.168L482.428,464.115z M655.268,454.047c-6.937-0.562-12.334-3.355-16.192-8.39
			c-3.859-5.034-6.125-11.299-6.796-18.795c-0.113-1.007-0.059-2.153,0.167-3.44c0.223-1.284,0.504-2.711,0.84-4.279
			c0.335-1.343,0.643-2.739,0.923-4.194c0.277-1.452,0.476-2.854,0.588-4.194c0-2.796,0.529-5.565,1.593-8.308
			c1.062-2.74,2.153-5.229,3.272-7.467c0.895-1.788,1.705-3.495,2.435-5.118c0.725-1.62,0.977-3.215,0.754-4.783
			c0,0.113-0.056,0.113-0.168,0l0.168-1.342c0.11-0.223,0.167-0.559,0.167-1.007v-0.168c-0.223,0-0.393,0.059-0.502,0.168
			c-0.336,0.226-0.672,0.419-1.007,0.588c-0.336,0.166-0.616,0.251-0.839,0.251c-0.227,0-0.394-0.055-0.504-0.168
			c-0.448,0.227-0.729,0.336-0.84,0.336c-0.896,0-2.014-0.277-3.356-0.839c-0.671-0.223-1.455-0.559-2.349-1.007
			c-0.896-0.445-1.511-0.393-1.846,0.168c-0.448,0.562-0.897,1.232-1.343,2.014c-0.447,0.783-0.896,1.735-1.342,2.852
			c-0.227,0.898-0.336,1.456-0.336,1.678c0,0.226-0.28,0.671-0.839,1.345v-0.168l-1.006,2.181l-1.512,3.021
			c-0.225,0.671-0.784,1.707-1.678,3.104c-0.896,1.401-1.846,2.854-2.853,4.363c-1.007,1.511-1.959,2.827-2.852,3.944
			c-0.898,1.119-1.455,1.679-1.678,1.679c-0.449,0-0.786-0.308-1.009-0.924c-0.225-0.614-0.447-1.704-0.671-3.272
			c0-0.109,0.276-0.671,0.839-1.678c0.559-1.007,1.2-2.152,1.93-3.439c0.726-1.285,1.454-2.544,2.181-3.776
			c0.729-1.229,1.26-2.182,1.595-2.853c1.23-2.236,2.459-4.67,3.691-7.3c1.229-2.627,1.789-4.556,1.68-5.788
			c0-0.338-0.394-1.034-1.176-2.099c-0.784-1.062-1.623-2.208-2.517-3.44c-0.897-1.229-1.735-2.404-2.518-3.523
			c-0.783-1.118-1.174-1.956-1.174-2.519l-0.167-0.837c-0.45-0.673-0.674-1.344-0.674-2.015c-0.11-2.908,0.196-6.042,0.924-9.397
			s1.846-6.487,3.357-9.397c1.51-2.907,3.383-5.312,5.621-7.215c2.236-1.901,4.754-2.854,7.551-2.854
			c2.351,0,4.418,0.701,6.21,2.098c1.788,1.401,2.794,3.386,3.02,5.957c0.11,2.014-0.113,4.254-0.672,6.714
			c-0.56,2.461-1.26,4.923-2.098,7.384c-0.84,2.461-1.789,4.865-2.852,7.214c-1.065,2.349-2.043,4.421-2.936,6.21
			c-0.562,1.232-0.982,2.098-1.26,2.601c-0.281,0.504-0.531,1.035-0.755,1.594l0.336-0.168c0.224,0,0.502,0.252,0.838,0.756
			c0.335,0.503,0.841,0.645,1.512,0.419l0.671,1.342v-0.166c0.109,0.111,0.167,0.224,0.167,0.335c0.559,0,1.285-0.169,2.182-0.503
			h-0.168l6.713-4.028c2.572-1.564,4.697-2.711,6.376-3.439c1.678-0.728,2.795-1.147,3.355-1.259c0.56,0,1.512,0.393,2.854,1.175
			s2.74,1.819,4.195,3.104c1.451,1.287,2.74,2.686,3.858,4.195s1.734,2.996,1.848,4.447c0.109,1.007-0.197,2.294-0.925,3.859
			c-0.728,1.567-1.705,3.469-2.937,5.706c-1.232,2.126-2.49,4.56-3.775,7.299c-1.287,2.743-2.545,5.902-3.776,9.482l-3.522,8.053
			c-1.007,3.693-1.511,7.329-1.511,10.907v2.519l0.336,3.355c0,0.227,0.026,0.394,0.083,0.503c0.057,0.113-0.027,0.281-0.25,0.504
			l0.167,1.51c0.223,1.568,0.475,3.16,0.756,4.783c0.277,1.621,0.642,3.047,1.09,4.279c0.446,1.229,1.033,2.067,1.762,2.517
			c0.727,0.446,1.705,0.224,2.938-0.672c0.223,0.223,0.612,0.336,1.175,0.336c1.564,0,3.522-1.006,5.874-3.02
			c2.349-2.014,4.752-4.615,7.215-7.804c2.46-3.188,4.809-6.712,7.048-10.571c2.235-3.859,4.082-7.691,5.537-11.495
			c1.117-2.685,2.015-5.145,2.684-7.383c0.56-1.788,1.062-3.383,1.512-4.783c0.445-1.396,1.115-2.712,2.014-3.944
			c0.558-0.671,0.865-0.922,0.924-0.754c0.054,0.168,0.083,0.587,0.083,1.258c0,0.45,0.056,0.841,0.167,1.174l0.336,0.337h-0.167
			c0.223,0.226,0.419,0.504,0.585,0.84c0.17,0.336,0.17,0.98,0,1.929c-0.166,0.952-0.501,2.211-1.004,3.776
			c-0.504,1.567-1.26,3.636-2.268,6.209l-1.005,2.853l-1.343,2.684c-0.896,1.904-1.958,4.028-3.189,6.378
			c-1.232,2.349-2.126,3.916-2.684,4.699l-1.678,2.517c-1.12,1.678-2.099,3.384-2.938,5.118c-0.839,1.733-1.707,3.495-2.6,5.286
			c-1.904,2.571-3.777,4.641-5.624,6.207c-1.845,1.566-3.605,2.796-5.284,3.693c-1.678,0.894-3.33,1.481-4.949,1.761
			C658.428,453.905,656.835,454.047,655.268,454.047z M628.924,364.438c0.223,1.232,0.529,2.434,0.922,3.607
			c0.392,1.175,0.756,2.155,1.091,2.937l0.168,0.672c0.894-2.014,1.763-4.054,2.601-6.125c0.84-2.069,1.594-4.027,2.265-5.873
			c0.673-1.846,1.177-3.523,1.512-5.034c0.336-1.51,0.445-2.769,0.336-3.775c0-0.78-0.281-1.285-0.841-1.511
			c-0.784,0.336-1.623,1.091-2.516,2.267c-0.896,1.173-1.762,2.517-2.601,4.026s-1.54,3.049-2.098,4.614
			C629.2,361.811,628.924,363.209,628.924,364.438z"/>
		<path fill="#BE1E2D" d="M731.281,398.504c1.01-1.008,2.07-1.369,3.19-1.091c1.116,0.28,1.284,1.315,0.501,3.104
			c0.225,0.446,0.225,0.783,0,1.006c-0.111,0-0.166,0.059-0.166,0.168c-0.671,0.897-1.232,1.791-1.678,2.685l-1.342,2.35
			c-1.008,1.903-2.156,3.943-3.442,6.126c-1.285,2.181-2.713,4.445-4.278,6.796v-0.17c-0.225,0.451-0.335,0.897-0.335,1.345v0.167
			l-1.174,1.846c-1.007,1.568-2.071,3.105-3.189,4.615c-1.119,1.511-2.35,2.994-3.691,4.446l-1.509,1.679
			c-1.344,1.678-2.799,3.3-4.365,4.867l-0.839,0.501c-1.232,0.782-2.348,1.512-3.355,2.184c-1.007,0.671-2.014,1.229-3.021,1.678
			v-0.168c-1.232,0.671-2.434,1.09-3.608,1.258c-1.173,0.169-2.321,0.194-3.44,0.084c-2.91-0.562-5.343-1.846-7.299-3.858
			c-1.958-2.015-3.381-4.251-4.278-6.714c-0.446-1.229-0.756-2.516-0.925-3.858c-0.167-1.344-0.36-2.627-0.586-3.86
			c-0.11-0.559-0.193-1.145-0.252-1.761c-0.055-0.614-0.083-1.201-0.083-1.763c0-0.558,0.028-1.062,0.083-1.51
			c0.059-0.447,0.085-0.949,0.085-1.512v-3.021c0.224-1.787,0.503-3.522,0.839-5.2c0.335-1.678,0.728-3.467,1.174-5.371l0.504-2.014
			c0.335-1.116,0.671-2.236,1.007-3.355c0.335-1.118,0.726-2.292,1.175-3.524c1.006-2.459,1.954-4.893,2.852-7.3
			c0.894-2.404,1.68-4.725,2.349-6.963c0.111-0.223,0.17-0.559,0.17-1.007c0.558-2.795,1.619-4.474,3.187-5.035h-0.167
			c0.671-0.445,1.343-0.696,2.015-0.755c0.67-0.054,1.563,0.029,2.684,0.252c1.788,0.335,3.663,1.65,5.621,3.942
			c1.957,2.295,3.216,5.286,3.776,8.978c0.111,0.897,0.055,1.876-0.167,2.938c-0.228,1.064-0.504,2.155-0.84,3.272l-0.336,1.342
			c0,0.113,0.056,0.226,0.169,0.336l0.167,0.505c0.223,0.669,0.336,1.286,0.336,1.846v2.013c0,0.335,0.026,0.671,0.084,1.007
			c0.056,0.336,0.083,0.671,0.083,1.007c-0.336,1.342-0.728,2.63-1.175,3.858c-0.447,1.232-0.896,2.352-1.342,3.357l-1.175,2.517
			c0,0.227,0.026,0.394,0.086,0.504c0.054,0.112,0.083,0.28,0.083,0.503c-0.897,2.239-1.679,4.506-2.352,6.797
			c-0.669,2.294-1.174,4.504-1.508,6.627v0.17c0.109,0.224,0.166,0.419,0.166,0.586c0,0.168-0.166,0.419-0.502,0.754l-0.84,0.674
			c-1.231,2.237-1.847,4.084-1.847,5.536c0,1.343,0.672,2.181,2.014,2.517c0.673-0.223,1.537-0.726,2.602-1.51
			c1.062-0.781,2.267-1.788,3.608-3.021c1.006-0.558,1.957-1.313,2.853-2.265c0.893-0.95,1.789-1.872,2.686-2.77l1.174-1.343
			c2.573-3.13,4.978-6.46,7.215-9.983s4.475-7.188,6.713-10.992c0.895-1.342,1.62-2.543,2.181-3.607
			C730.162,400.881,730.722,399.735,731.281,398.504z M712.992,351.015c-2.128-0.224-4.364-1.062-6.713-2.517
			c-1.232-0.896-2.293-2.293-3.189-4.196c-0.896-1.9-1.342-4.027-1.342-6.376c-0.113-1.789,0.085-3.244,0.587-4.363
			c0.505-1.118,1.201-2.123,2.097-3.022c2.461-2.235,5.036-3.355,7.722-3.355c1.229-0.11,2.88,0.226,4.951,1.006
			c2.067,0.784,3.885,1.736,5.453,2.854c0.558,0.56,1.006,1.064,1.342,1.51c0.336,0.448,0.559,0.952,0.671,1.51
			c0.223,1.007,0.194,1.846-0.084,2.517c-0.281,0.671-0.699,1.4-1.258,2.183v-0.168c-0.226,0.562-0.479,1.091-0.757,1.594
			c-0.279,0.503-0.644,1.092-1.09,1.763v-0.168c-0.226,0.562-0.532,1.148-0.922,1.762c-0.394,0.615-0.702,1.203-0.925,1.762
			c-1.565,2.462-2.713,4.027-3.439,4.699C715.367,350.679,714.335,351.015,712.992,351.015z"/>
	</g>
	<g>
		<path fill="#BE1E2D" d="M752.237,433.139c1.117,0,2.488,0.112,4.111,0.335c1.621,0.226,3.16,0.672,4.615,1.343
			c1.452,0.671,2.711,1.595,3.775,2.769c1.062,1.175,1.704,2.659,1.93,4.447c0.223,2.236,0.084,4.082-0.42,5.538
			c-0.503,1.452-1.231,2.627-2.181,3.523c-0.952,0.895-2.043,1.536-3.272,1.93c-1.232,0.391-2.407,0.588-3.524,0.588
			c-1.678,0-3.329-0.142-4.95-0.42c-1.623-0.28-3.078-0.755-4.362-1.427c-1.288-0.671-2.379-1.623-3.272-2.853
			c-0.896-1.232-1.4-2.798-1.511-4.698l-0.167-2.014c-0.226-2.686,0.167-4.615,1.174-5.789c1.007-1.175,2.46-2.153,4.363-2.938
			h0.336c0.559-0.109,1.116-0.193,1.678-0.251C751.118,433.167,751.677,433.139,752.237,433.139z M773.549,318.695
			c0.559-0.782,1.453-1.175,2.686-1.175c1.788,0,3.83,0.729,6.124,2.182c2.292,1.455,4.054,3.356,5.286,5.705
			c1.007,0.226,1.872,0.755,2.602,1.594c0.726,0.839,1.146,1.93,1.258,3.272c0.11,1.232-0.028,2.575-0.419,4.027
			c-0.394,1.455-0.532,2.853-0.42,4.195c-0.448,4.253-1.342,8.894-2.685,13.928s-2.798,10.068-4.363,15.103l-5.537,13.257
			c0,0.561-0.168,1.119-0.504,1.678c-0.335,0.562-0.951,0.839-1.846,0.839c-2.239,2.798-4.337,5.789-6.293,8.978
			c-1.958,3.188-3.217,6.351-3.775,9.481c0.223,1.232,0.026,2.126-0.587,2.685c-0.616,0.562-0.923,0.952-0.923,1.175l0.335,0.336
			c0,0.112-0.058,0.226-0.168,0.335c-0.561,1.568-0.951,2.995-1.174,4.279c-0.226,1.287-0.784,1.93-1.679,1.93
			c-0.671,0-1.51-0.168-2.517-0.503c-1.007-0.336-1.987-0.839-2.937-1.511c-0.952-0.671-1.763-1.481-2.434-2.433
			c-0.671-0.949-1.064-2.04-1.175-3.272c-0.112-0.895-0.028-2.434,0.252-4.614c0.278-2.182,0.587-3.831,0.923-4.951
			c0-0.558-0.029-0.923-0.084-1.09c-0.058-0.168-0.252-0.53-0.587-1.091c0.559-3.692,1.536-7.746,2.937-12.166
			c1.397-4.418,2.879-8.92,4.446-13.509c-0.226-1.565-0.393-3.159-0.503-4.782c-0.113-1.62-0.058-3.215,0.168-4.782l4.53-12.418
			l4.195-14.432c1.229-2.908,2.32-5.454,3.272-7.635C772.904,321.128,773.437,319.591,773.549,318.695z"/>
	</g>
</g>
</svg>
