<?xml version="1.0" encoding="utf-8"?>
<!-- Generator: Adobe Illustrator 26.0.1, SVG Export Plug-In . SVG Version: 6.00 Build 0)  -->
<svg version="1.1" id="Layer_1" xmlns="http://www.w3.org/2000/svg" xmlns:xlink="http://www.w3.org/1999/xlink" x="0px" y="0px"
	 viewBox="0 0 1223.7 583.8" style="enable-background:new 0 0 1223.7 583.8;" xml:space="preserve">
<style type="text/css">
	.st0{font-family:'TitilliumWeb-Bold';}
	.st1{font-size:400px;}
	.st2{clip-path:url(#SVGID_00000065070499442073322430000005669424730779032739_);}
	.st3{fill:url(#SVGID_00000129921397302897935060000016361999636222005408_);}
	.st4{fill:#6BA6CE;}
	.st5{fill:#77A7C9;}
	.st6{fill:#7FB1D5;}
	.st7{fill:#3F88B7;}
	.st8{fill:#569ECA;}
	.st9{fill:#4397C6;}
	.st10{fill:#4898C7;}
	.st11{fill:#2D89B9;}
	.st12{fill:#1875A8;}
	.st13{fill:#136B9F;}
	.st14{fill:#2384B5;}
	.st15{fill:#4597C6;}
	.st16{fill:#1A75A8;}
	.st17{fill:#0F5F92;}
	.st18{fill:#1D689A;}
	.st19{fill:#4386B4;}
	.st20{fill:#497AA5;}
	.st21{fill:#629CC4;}
	.st22{fill:#67A3CD;}
	.st23{fill:#85B0D5;}
	.st24{fill:#B6C7E0;}
	.st25{fill:#BDCBE3;}
	.st26{fill:#AFC8E0;}
	.st27{fill:#BACCE2;}
	.st28{fill:#A8BFDE;}
	.st29{fill:#A9C2DD;}
	.st30{fill:#8EB5D8;}
	.st31{fill:#9CBCDB;}
	.st32{fill:#79ABD1;}
	.st33{fill:#509AC7;}
	.st34{fill:#4F9CC8;}
	.st35{fill:#6AA3CA;}
	.st36{fill:#6DA7CF;}
	.st37{fill:#75A9D0;}
	.st38{fill:#A3C1DD;}
	.st39{fill:#94BDDB;}
	.st40{fill:#8DB8D9;}
	.st41{fill:#9FBDDC;}
	.st42{fill:#91B5D7;}
	.st43{fill:#A4BFDD;}
	.st44{fill:#9BBADA;}
	.st45{fill:#92B5D7;}
	.st46{fill:#79AAD1;}
	.st47{fill:#63A2CC;}
	.st48{fill:#5EA0CB;}
	.st49{fill:#60A2CC;}
	.st50{fill:#328ABB;}
	.st51{fill:#3A93C3;}
	.st52{fill:#1B79AC;}
	.st53{fill:#2484B6;}
	.st54{fill:#136598;}
	.st55{fill:#287DAC;}
	.st56{fill:#468BB7;}
	.st57{fill:#4D95C2;}
	.st58{fill:#3B8AB9;}
	.st59{fill:#599FCA;}
	.st60{fill:#63A2CD;}
	.st61{fill:#1E7BAE;}
	.st62{fill:#3486B5;}
	.st63{fill:#76AAD0;}
	.st64{fill:#86B1D5;}
	.st65{fill:#347FAF;}
	.st66{fill:#2389BC;}
	.st67{fill:#4A8AB5;}
	.st68{fill:#1B70A2;}
	.st69{fill:#4C99C7;}
	.st70{fill:#1D7BAD;}
	.st71{fill:#2183B6;}
	.st72{fill:#5597C2;}
	.st73{fill:#68A4CD;}
	.st74{fill:#5092BD;}
	.st75{fill:#457FAA;}
	.st76{fill:#2A6E9F;}
	.st77{fill:#1773A5;}
	.st78{fill:#16699D;}
	.st79{fill:#297FB0;}
	.st80{fill:#15679B;}
	.st81{fill:#4396C5;}
	.st82{fill:#3090C1;}
	.st83{fill:#3792C2;}
	.st84{fill:#347CAA;}
	.st85{fill:#5896C0;}
	.st86{fill:#3083B3;}
	.st87{fill:#4E91BD;}
	.st88{fill:#7AABD1;}
	.st89{fill:#89B9D8;}
	.st90{fill:#5890B8;}
	.st91{fill:#4892BE;}
	.st92{fill:#398CBB;}
	.st93{fill:#065588;}
	.st94{fill:#2974A4;}
	.st95{fill:#5698C3;}
	.st96{fill:#6DA0C4;}
	.st97{fill:#76A6C4;}
	.st98{fill:#76ABD1;}
	.st99{fill:#5C95BC;}
	.st100{fill:#4B84B0;}
	.st101{fill:#639DC5;}
	.st102{fill:#2983B4;}
	.st103{fill:#6D9FC0;}
	.st104{fill:#80ABC8;}
	.st105{fill:#146094;}
	.st106{fill:#6CA7D0;}
	.st107{fill:#A0C2DE;}
	.st108{fill:#94C0DC;}
	.st109{fill:#A6C7E1;}
	.st110{fill:#B7CEE4;}
	.st111{fill:#BDD0E5;}
	.st112{fill:#D0D9EA;}
	.st113{fill:#3691C2;}
	.st114{fill:#4A9AC7;}
	.st115{fill:#669ABF;}
</style>
<g>
	<g>
		<defs>
			<text id="SVGID_1_" transform="matrix(1 0 0 1 42.9634 435.0113)" class="st0 st1">Oops !</text>
		</defs>
		<clipPath id="SVGID_00000058548145312915111610000012168885539501361847_">
			<use xlink:href="#SVGID_1_"  style="overflow:visible;"/>
		</clipPath>
		<g style="clip-path:url(#SVGID_00000058548145312915111610000012168885539501361847_);">
			
				<linearGradient id="SVGID_00000116221070294430114550000004510367171701600683_" gradientUnits="userSpaceOnUse" x1="195.5862" y1="1420.1219" x2="1757.4861" y2="-141.778" gradientTransform="matrix(-1 0 0 1 1882.1361 -189.572)">
				<stop  offset="0" style="stop-color:#DAE0EF"/>
				<stop  offset="0.1878" style="stop-color:#BDCBE3"/>
				<stop  offset="0.4933" style="stop-color:#85B0D5"/>
				<stop  offset="0.6969" style="stop-color:#1875A8"/>
				<stop  offset="1" style="stop-color:#174272"/>
			</linearGradient>
			
				<rect x="-94" y="-112.7" style="fill:url(#SVGID_00000116221070294430114550000004510367171701600683_);" width="1999.2" height="1124.6"/>
			<polygon class="st4" points="1462.4,421.9 1462.4,298.9 1310.6,286.6 			"/>
			<polygon class="st5" points="1618.4,273.3 1705.4,126.6 1749.5,319.9 			"/>
			<polygon class="st6" points="1749.5,319.9 1674.9,381.7 1561.8,438.7 1618.4,273.3 			"/>
			<polygon class="st7" points="1066.6,273.3 1017.4,126.6 1179,136.9 			"/>
			<polygon class="st8" points="1179,394.2 1168.1,318.4 1026.6,418.8 			"/>
			<polygon class="st9" points="1026.6,418.8 915.9,286.6 868,410.6 			"/>
			<polygon class="st10" points="877.6,524.1 801,410.6 868,410.6 			"/>
			<polygon class="st11" points="915.9,286.6 801,306.1 812,172.8 			"/>
			<polygon class="st12" points="650.6,111.2 547.8,148.2 638,256.8 			"/>
			<polygon class="st13" points="547.8,148.2 388.8,118.4 405.2,256.8 			"/>
			<polygon class="st14" points="534.4,306.1 479.1,383 626.7,394.2 			"/>
			<polygon class="st15" points="736.8,571.6 801,410.6 632.9,524.1 			"/>
			<polygon class="st16" points="345.8,394.2 275,438.3 217.6,298.9 			"/>
			<polygon class="st17" points="217.6,298.9 217.6,136.9 138.7,148.2 			"/>
			<polygon class="st18" points="99.7,410.6 91.5,287.6 1.9,438.3 			"/>
			<polygon class="st19" points="422.7,644.4 350.9,524.1 285.3,590.4 			"/>
			<polygon class="st20" points="130.5,716.9 91.5,584.3 -15.1,671.1 			"/>
			<polygon class="st21" points="496.5,723.4 552.2,771.6 653.4,656.7 			"/>
			<polygon class="st22" points="1041.6,552.8 877.6,524.1 924.1,644.4 			"/>
			<polygon class="st23" points="1190.6,524.1 1276.8,571.6 1152.4,699.8 1081.3,686.8 			"/>
			<polygon class="st24" points="1595.7,656.7 1437.8,693.6 1411.1,802.3 1580.3,849.5 			"/>
			<polygon class="st25" points="1749.5,693.6 1595.7,656.7 1580.3,849.5 			"/>
			<polygon class="st26" points="1797.6,571.6 1749.5,531.6 1595.7,656.7 1749.5,693.6 			"/>
			<polygon class="st27" points="1821.2,699.8 1797.6,571.6 1749.5,693.6 			"/>
			<polygon class="st28" points="1437.8,693.6 1331.1,644.4 1411.1,802.3 			"/>
			<polygon class="st29" points="1286,834.1 1331.1,644.4 1411.1,802.3 			"/>
			<polygon class="st30" points="1152.4,699.8 1331.1,644.4 1276.8,571.6 			"/>
			<polygon class="st31" points="1286,834.1 1152.4,699.8 1331.1,644.4 			"/>
			<polygon class="st32" points="905.6,807.1 924.1,644.4 812,716.9 			"/>
			<polygon class="st33" points="653.4,656.7 736.8,571.6 632.9,524.1 			"/>
			<polygon class="st34" points="877.6,524.1 868,410.6 1026.6,418.8 			"/>
			<polygon class="st35" points="650.6,834.1 653.4,656.7 552.2,771.6 			"/>
			<polygon class="st36" points="770.9,813.9 812,716.9 653.4,656.7 650.6,834.1 			"/>
			<polygon class="st37" points="1081.3,686.8 924.1,644.4 1041.6,552.8 			"/>
			<polygon class="st38" points="1749.5,531.6 1573.8,531.6 1595.7,656.7 			"/>
			<polygon class="st39" points="1674.9,381.7 1573.8,531.6 1749.5,531.6 1836.9,381.7 			"/>
			<polygon class="st40" points="1561.8,438.7 1573.8,531.6 1674.9,381.7 			"/>
			<polygon class="st41" points="1417,581.3 1595.7,656.7 1573.8,531.6 			"/>
			<polygon class="st42" points="1462.4,421.9 1561.8,438.7 1573.8,531.6 1417,581.3 			"/>
			<polygon class="st23" points="1286,441.4 1276.8,571.6 1417,581.3 1462.4,421.9 			"/>
			<polygon class="st43" points="1417,581.3 1437.8,693.6 1595.7,656.7 			"/>
			<polygon class="st44" points="1331.1,644.4 1417,581.3 1437.8,693.6 			"/>
			<polygon class="st45" points="1276.8,571.6 1331.1,644.4 1417,581.3 			"/>
			<polygon class="st46" points="1286,441.4 1190.6,524.1 1276.8,571.6 			"/>
			<polygon class="st47" points="1179,394.2 1026.6,418.8 1190.6,524.1 			"/>
			<polygon class="st48" points="924.1,644.4 877.6,524.1 736.8,571.6 			"/>
			<polygon class="st23" points="1026.6,807.1 1081.3,686.8 924.1,644.4 			"/>
			<polygon class="st49" points="812,716.9 736.8,571.6 653.4,656.7 			"/>
			<polygon class="st50" points="632.9,524.1 626.7,394.2 479.1,383 			"/>
			<polygon class="st51" points="801,410.6 801,306.1 868,410.6 			"/>
			<polygon class="st52" points="638,256.8 534.4,306.1 547.8,148.2 			"/>
			<polygon class="st53" points="801,306.1 812,172.8 638,256.8 			"/>
			<polygon class="st54" points="405.2,256.8 388.8,118.4 217.6,136.9 			"/>
			<polygon class="st55" points="345.8,394.2 350.9,524.1 275,438.3 			"/>
			<polygon class="st56" points="422.7,644.4 496.5,576.7 350.9,524.1 			"/>
			<polygon class="st57" points="653.4,656.7 496.5,576.7 632.9,524.1 			"/>
			<polygon class="st58" points="1066.6,273.3 1017.4,126.6 915.9,286.6 			"/>
			<polygon class="st59" points="1168.1,318.4 1310.6,286.6 1179,394.2 			"/>
			<polygon class="st60" points="1286,441.4 1310.6,286.6 1179,394.2 			"/>
			<polygon class="st61" points="479.1,383 534.4,306.1 405.2,256.8 			"/>
			<polygon class="st62" points="479.1,383 496.5,576.7 350.9,524.1 			"/>
			<polygon class="st36" points="1462.4,421.9 1310.6,286.6 1286,441.4 			"/>
			<polygon class="st48" points="1041.6,552.8 1026.6,418.8 877.6,524.1 			"/>
			<polygon class="st63" points="1190.6,524.1 1041.6,552.8 1081.3,686.8 			"/>
			<polygon class="st64" points="1026.6,807.1 905.6,807.1 924.1,644.4 			"/>
			<polygon class="st65" points="350.9,524.1 285.3,590.4 275,438.3 			"/>
			<polygon class="st66" points="626.7,394.2 638,256.8 801,306.1 			"/>
			<polygon class="st67" points="422.7,644.4 275,699.8 285.3,590.4 			"/>
			<polygon class="st68" points="275,438.3 99.7,410.6 217.6,298.9 			"/>
			<polygon class="st69" points="877.6,524.1 801,410.6 736.8,571.6 			"/>
			<polygon class="st70" points="638,256.8 650.6,111.2 812,172.8 			"/>
			<polygon class="st71" points="626.7,394.2 534.4,306.1 638,256.8 			"/>
			<polygon class="st72" points="653.4,656.7 496.5,723.4 496.5,576.7 			"/>
			<polygon class="st73" points="812,716.9 736.8,571.6 924.1,644.4 			"/>
			<polygon class="st74" points="496.5,723.4 422.7,644.4 496.5,576.7 			"/>
			<polygon class="st75" points="130.5,716.9 285.3,590.4 91.5,584.3 			"/>
			<polygon class="st76" points="99.7,410.6 1.9,438.3 91.5,584.3 			"/>
			<polygon class="st77" points="345.8,394.2 217.6,298.9 405.2,256.8 			"/>
			<polygon class="st78" points="99.7,410.6 91.5,287.6 217.6,298.9 			"/>
			<polygon class="st79" points="345.8,394.2 350.9,524.1 479.1,383 			"/>
			<polygon class="st12" points="547.8,148.2 405.2,256.8 534.4,306.1 			"/>
			<polygon class="st80" points="217.6,298.9 217.6,136.9 405.2,256.8 			"/>
			<polygon class="st81" points="1066.6,273.3 1026.6,418.8 915.9,286.6 			"/>
			<polygon class="st82" points="632.9,524.1 626.7,394.2 801,306.1 			"/>
			<polygon class="st83" points="801,410.6 801,306.1 632.9,524.1 			"/>
			<polygon class="st84" points="285.3,590.4 275,438.3 91.5,584.3 			"/>
			<polygon class="st73" points="1190.6,524.1 1026.6,418.8 1041.6,552.8 			"/>
			<polygon class="st85" points="1276.8,184 1437.8,162.5 1310.6,286.6 			"/>
			<polygon class="st86" points="905.6,126.6 915.9,286.6 1017.4,126.6 			"/>
			<polygon class="st87" points="1276.8,184 1168.1,318.4 1179,136.9 			"/>
			<polygon class="st88" points="1462.4,421.9 1462.4,298.9 1618.4,273.3 			"/>
			<polygon class="st89" points="1674.9,381.7 1749.5,319.9 1860.5,298.9 1836.9,381.7 			"/>
			<polygon class="st90" points="338.3,837.9 422.7,644.4 275,699.8 			"/>
			<polygon class="st91" points="1066.6,273.3 1179,136.9 1168.1,318.4 			"/>
			<polygon class="st92" points="632.9,524.1 479.1,383 496.5,576.7 			"/>
			<polygon class="st93" points="138.7,148.2 91.5,287.6 27.2,95.9 			"/>
			<polygon class="st94" points="91.5,584.3 99.7,410.6 275,438.3 			"/>
			<polygon class="st95" points="1310.6,286.6 1276.8,184 1168.1,318.4 			"/>
			<polygon class="st96" points="1462.4,298.9 1561.8,111.2 1618.4,273.3 			"/>
			<polygon class="st97" points="1749.5,319.9 1836.9,116.4 1705.4,126.6 			"/>
			<polygon class="st98" points="1561.8,438.7 1618.4,273.3 1462.4,421.9 			"/>
			<polygon class="st99" points="496.5,723.4 422.7,644.4 338.3,837.9 			"/>
			<polygon class="st100" points="275,699.8 285.3,590.4 130.5,716.9 			"/>
			<polygon class="st101" points="1437.8,162.5 1462.4,298.9 1310.6,286.6 			"/>
			<polygon class="st102" points="915.9,286.6 905.6,126.6 812,172.8 			"/>
			<polygon class="st103" points="1618.4,273.3 1705.4,126.6 1561.8,111.2 			"/>
			<polygon class="st104" points="1905.2,284.6 1905.2,131.8 1836.9,116.4 1749.5,319.9 1860.5,298.9 			"/>
			<polygon class="st105" points="217.6,298.9 138.7,148.2 91.5,287.6 			"/>
			<polygon class="st70" points="405.2,256.8 479.1,383 345.8,394.2 			"/>
			<polygon class="st106" points="1286,441.4 1190.6,524.1 1179,394.2 			"/>
			<polygon class="st107" points="1797.6,571.6 1749.5,531.6 1836.9,381.7 			"/>
			<polygon class="st108" points="1905.2,397.6 1905.2,284.6 1860.5,298.9 1836.9,381.7 			"/>
			<polygon class="st109" points="1905.2,545.7 1905.2,397.6 1836.9,381.7 1797.6,571.6 			"/>
			<polygon class="st110" points="1905.2,644.4 1905.2,545.7 1797.6,571.6 			"/>
			<polygon class="st111" points="1905.2,677.8 1905.2,644.4 1797.6,571.6 1821.2,699.8 			"/>
			<polygon class="st112" points="1905.2,761.9 1905.2,677.8 1821.2,699.8 			"/>
			<polygon class="st113" points="868,410.6 915.9,286.6 801,306.1 			"/>
			<polygon class="st114" points="1026.6,418.8 1066.6,273.3 1168.1,318.4 			"/>
			<polygon class="st115" points="1462.4,298.9 1437.8,162.5 1561.8,111.2 			"/>
			<polygon class="st4" points="1462.4,421.9 1462.4,298.9 1310.6,286.6 			"/>
			<polygon class="st5" points="1618.4,273.3 1705.4,126.6 1749.5,319.9 			"/>
			<polygon class="st6" points="1749.5,319.9 1674.9,381.7 1561.8,438.7 1618.4,273.3 			"/>
			<polygon class="st7" points="1066.6,273.3 1017.4,126.6 1179,136.9 			"/>
			<polygon class="st8" points="1179,394.2 1168.1,318.4 1026.6,418.8 			"/>
			<polygon class="st9" points="1026.6,418.8 915.9,286.6 868,410.6 			"/>
			<polygon class="st10" points="877.6,524.1 801,410.6 868,410.6 			"/>
			<polygon class="st11" points="915.9,286.6 801,306.1 812,172.8 			"/>
			<polygon class="st12" points="650.6,111.2 547.8,148.2 638,256.8 			"/>
			<polygon class="st13" points="547.8,148.2 388.8,118.4 405.2,256.8 			"/>
			<polygon class="st14" points="534.4,306.1 479.1,383 626.7,394.2 			"/>
			<polygon class="st15" points="736.8,571.6 801,410.6 632.9,524.1 			"/>
			<polygon class="st16" points="345.8,394.2 275,438.3 217.6,298.9 			"/>
			<polygon class="st17" points="217.6,298.9 217.6,136.9 138.7,148.2 			"/>
			<polygon class="st18" points="99.7,410.6 91.5,287.6 1.9,438.3 			"/>
			<polygon class="st19" points="422.7,644.4 350.9,524.1 285.3,590.4 			"/>
			<polygon class="st20" points="130.5,716.9 91.5,584.3 -15.1,671.1 			"/>
			<polygon class="st21" points="496.5,723.4 552.2,771.6 653.4,656.7 			"/>
			<polygon class="st22" points="1041.6,552.8 877.6,524.1 924.1,644.4 			"/>
			<polygon class="st23" points="1190.6,524.1 1276.8,571.6 1152.4,699.8 1081.3,686.8 			"/>
			<polygon class="st24" points="1595.7,656.7 1437.8,693.6 1411.1,802.3 1580.3,849.5 			"/>
			<polygon class="st25" points="1749.5,693.6 1595.7,656.7 1580.3,849.5 			"/>
			<polygon class="st26" points="1797.6,571.6 1749.5,531.6 1595.7,656.7 1749.5,693.6 			"/>
			<polygon class="st27" points="1821.2,699.8 1797.6,571.6 1749.5,693.6 			"/>
			<polygon class="st28" points="1437.8,693.6 1331.1,644.4 1411.1,802.3 			"/>
			<polygon class="st29" points="1286,834.1 1331.1,644.4 1411.1,802.3 			"/>
			<polygon class="st30" points="1152.4,699.8 1331.1,644.4 1276.8,571.6 			"/>
			<polygon class="st31" points="1286,834.1 1152.4,699.8 1331.1,644.4 			"/>
			<polygon class="st32" points="905.6,807.1 924.1,644.4 812,716.9 			"/>
			<polygon class="st33" points="653.4,656.7 736.8,571.6 632.9,524.1 			"/>
			<polygon class="st34" points="877.6,524.1 868,410.6 1026.6,418.8 			"/>
			<polygon class="st35" points="650.6,834.1 653.4,656.7 552.2,771.6 			"/>
			<polygon class="st36" points="770.9,813.9 812,716.9 653.4,656.7 650.6,834.1 			"/>
			<polygon class="st37" points="1081.3,686.8 924.1,644.4 1041.6,552.8 			"/>
			<polygon class="st38" points="1749.5,531.6 1573.8,531.6 1595.7,656.7 			"/>
			<polygon class="st39" points="1674.9,381.7 1573.8,531.6 1749.5,531.6 1836.9,381.7 			"/>
			<polygon class="st40" points="1561.8,438.7 1573.8,531.6 1674.9,381.7 			"/>
			<polygon class="st41" points="1417,581.3 1595.7,656.7 1573.8,531.6 			"/>
			<polygon class="st42" points="1462.4,421.9 1561.8,438.7 1573.8,531.6 1417,581.3 			"/>
			<polygon class="st23" points="1286,441.4 1276.8,571.6 1417,581.3 1462.4,421.9 			"/>
			<polygon class="st43" points="1417,581.3 1437.8,693.6 1595.7,656.7 			"/>
			<polygon class="st44" points="1331.1,644.4 1417,581.3 1437.8,693.6 			"/>
			<polygon class="st45" points="1276.8,571.6 1331.1,644.4 1417,581.3 			"/>
			<polygon class="st46" points="1286,441.4 1190.6,524.1 1276.8,571.6 			"/>
			<polygon class="st47" points="1179,394.2 1026.6,418.8 1190.6,524.1 			"/>
			<polygon class="st48" points="924.1,644.4 877.6,524.1 736.8,571.6 			"/>
			<polygon class="st23" points="1026.6,807.1 1081.3,686.8 924.1,644.4 			"/>
			<polygon class="st49" points="812,716.9 736.8,571.6 653.4,656.7 			"/>
			<polygon class="st50" points="632.9,524.1 626.7,394.2 479.1,383 			"/>
			<polygon class="st51" points="801,410.6 801,306.1 868,410.6 			"/>
			<polygon class="st52" points="638,256.8 534.4,306.1 547.8,148.2 			"/>
			<polygon class="st53" points="801,306.1 812,172.8 638,256.8 			"/>
			<polygon class="st54" points="405.2,256.8 388.8,118.4 217.6,136.9 			"/>
			<polygon class="st55" points="345.8,394.2 350.9,524.1 275,438.3 			"/>
			<polygon class="st56" points="422.7,644.4 496.5,576.7 350.9,524.1 			"/>
			<polygon class="st57" points="653.4,656.7 496.5,576.7 632.9,524.1 			"/>
			<polygon class="st58" points="1066.6,273.3 1017.4,126.6 915.9,286.6 			"/>
			<polygon class="st59" points="1168.1,318.4 1310.6,286.6 1179,394.2 			"/>
			<polygon class="st60" points="1286,441.4 1310.6,286.6 1179,394.2 			"/>
			<polygon class="st61" points="479.1,383 534.4,306.1 405.2,256.8 			"/>
			<polygon class="st62" points="479.1,383 496.5,576.7 350.9,524.1 			"/>
			<polygon class="st36" points="1462.4,421.9 1310.6,286.6 1286,441.4 			"/>
			<polygon class="st48" points="1041.6,552.8 1026.6,418.8 877.6,524.1 			"/>
			<polygon class="st63" points="1190.6,524.1 1041.6,552.8 1081.3,686.8 			"/>
			<polygon class="st64" points="1026.6,807.1 905.6,807.1 924.1,644.4 			"/>
			<polygon class="st65" points="350.9,524.1 285.3,590.4 275,438.3 			"/>
			<polygon class="st66" points="626.7,394.2 638,256.8 801,306.1 			"/>
			<polygon class="st67" points="422.7,644.4 275,699.8 285.3,590.4 			"/>
			<polygon class="st68" points="275,438.3 99.7,410.6 217.6,298.9 			"/>
			<polygon class="st69" points="877.6,524.1 801,410.6 736.8,571.6 			"/>
			<polygon class="st70" points="638,256.8 650.6,111.2 812,172.8 			"/>
			<polygon class="st71" points="626.7,394.2 534.4,306.1 638,256.8 			"/>
			<polygon class="st72" points="653.4,656.7 496.5,723.4 496.5,576.7 			"/>
			<polygon class="st73" points="812,716.9 736.8,571.6 924.1,644.4 			"/>
			<polygon class="st74" points="496.5,723.4 422.7,644.4 496.5,576.7 			"/>
			<polygon class="st75" points="130.5,716.9 285.3,590.4 91.5,584.3 			"/>
			<polygon class="st76" points="99.7,410.6 1.9,438.3 91.5,584.3 			"/>
			<polygon class="st77" points="345.8,394.2 217.6,298.9 405.2,256.8 			"/>
			<polygon class="st78" points="99.7,410.6 91.5,287.6 217.6,298.9 			"/>
			<polygon class="st79" points="345.8,394.2 350.9,524.1 479.1,383 			"/>
			<polygon class="st12" points="547.8,148.2 405.2,256.8 534.4,306.1 			"/>
			<polygon class="st80" points="217.6,298.9 217.6,136.9 405.2,256.8 			"/>
			<polygon class="st81" points="1066.6,273.3 1026.6,418.8 915.9,286.6 			"/>
			<polygon class="st82" points="632.9,524.1 626.7,394.2 801,306.1 			"/>
			<polygon class="st83" points="801,410.6 801,306.1 632.9,524.1 			"/>
			<polygon class="st84" points="285.3,590.4 275,438.3 91.5,584.3 			"/>
			<polygon class="st73" points="1190.6,524.1 1026.6,418.8 1041.6,552.8 			"/>
			<polygon class="st85" points="1276.8,184 1437.8,162.5 1310.6,286.6 			"/>
			<polygon class="st86" points="905.6,126.6 915.9,286.6 1017.4,126.6 			"/>
			<polygon class="st87" points="1276.8,184 1168.1,318.4 1179,136.9 			"/>
			<polygon class="st88" points="1462.4,421.9 1462.4,298.9 1618.4,273.3 			"/>
			<polygon class="st89" points="1674.9,381.7 1749.5,319.9 1860.5,298.9 1836.9,381.7 			"/>
			<polygon class="st90" points="338.3,837.9 422.7,644.4 275,699.8 			"/>
			<polygon class="st91" points="1066.6,273.3 1179,136.9 1168.1,318.4 			"/>
			<polygon class="st92" points="632.9,524.1 479.1,383 496.5,576.7 			"/>
			<polygon class="st93" points="138.7,148.2 91.5,287.6 27.2,95.9 			"/>
			<polygon class="st94" points="91.5,584.3 99.7,410.6 275,438.3 			"/>
			<polygon class="st95" points="1310.6,286.6 1276.8,184 1168.1,318.4 			"/>
			<polygon class="st96" points="1462.4,298.9 1561.8,111.2 1618.4,273.3 			"/>
			<polygon class="st97" points="1749.5,319.9 1836.9,116.4 1705.4,126.6 			"/>
			<polygon class="st98" points="1561.8,438.7 1618.4,273.3 1462.4,421.9 			"/>
			<polygon class="st99" points="496.5,723.4 422.7,644.4 338.3,837.9 			"/>
			<polygon class="st100" points="275,699.8 285.3,590.4 130.5,716.9 			"/>
			<polygon class="st101" points="1437.8,162.5 1462.4,298.9 1310.6,286.6 			"/>
			<polygon class="st102" points="915.9,286.6 905.6,126.6 812,172.8 			"/>
			<polygon class="st103" points="1618.4,273.3 1705.4,126.6 1561.8,111.2 			"/>
			<polygon class="st104" points="1905.2,284.6 1905.2,131.8 1836.9,116.4 1749.5,319.9 1860.5,298.9 			"/>
			<polygon class="st105" points="217.6,298.9 138.7,148.2 91.5,287.6 			"/>
			<polygon class="st70" points="405.2,256.8 479.1,383 345.8,394.2 			"/>
			<polygon class="st106" points="1286,441.4 1190.6,524.1 1179,394.2 			"/>
			<polygon class="st107" points="1797.6,571.6 1749.5,531.6 1836.9,381.7 			"/>
			<polygon class="st108" points="1905.2,397.6 1905.2,284.6 1860.5,298.9 1836.9,381.7 			"/>
			<polygon class="st109" points="1905.2,545.7 1905.2,397.6 1836.9,381.7 1797.6,571.6 			"/>
			<polygon class="st110" points="1905.2,644.4 1905.2,545.7 1797.6,571.6 			"/>
			<polygon class="st111" points="1905.2,677.8 1905.2,644.4 1797.6,571.6 1821.2,699.8 			"/>
			<polygon class="st112" points="1905.2,761.9 1905.2,677.8 1821.2,699.8 			"/>
			<polygon class="st113" points="868,410.6 915.9,286.6 801,306.1 			"/>
			<polygon class="st114" points="1026.6,418.8 1066.6,273.3 1168.1,318.4 			"/>
			<polygon class="st115" points="1462.4,298.9 1437.8,162.5 1561.8,111.2 			"/>
		</g>
	</g>
</g>
</svg>
