<?xml version="1.0" encoding="utf-8"?>
<!-- Generator: Adobe Illustrator 26.0.3, SVG Export Plug-In . SVG Version: 6.00 Build 0)  -->
<svg version="1.1" id="Layer_1" xmlns="http://www.w3.org/2000/svg" xmlns:xlink="http://www.w3.org/1999/xlink" x="0px" y="0px"
	 viewBox="0 0 1000 1000" style="enable-background:new 0 0 1000 1000;" xml:space="preserve">
<style type="text/css">
	.st0{fill:#606060;}
</style>
<g>
	<path class="st0" d="M695.4,476.8c-75.2,0-136.3-61.2-136.3-136.3s61.2-136.3,136.3-136.3c75.2,0,136.3,61.2,136.3,136.3
		S770.6,476.8,695.4,476.8z M695.4,244.1c-53.1,0-96.3,43.2-96.3,96.3s43.2,96.3,96.3,96.3s96.3-43.2,96.3-96.3
		S748.5,244.1,695.4,244.1z"/>
	<path class="st0" d="M891.4,755.9c-11,0-20-9-20-20c0-113.6-82.9-206.1-184.9-206.1s-184.9,92.4-184.9,206.1c0,11-9,20-20,20
		s-20-9-20-20c0-65.4,23.1-126.9,65.2-173.3c42.5-46.9,99.2-72.8,159.7-72.8s117.2,25.9,159.7,72.8c42,46.4,65.2,107.9,65.2,173.3
		C911.4,746.9,902.4,755.9,891.4,755.9z"/>
</g>
<path class="st0" d="M954.5,845.7h-904c-10.4,0-18.9-8.4-18.9-18.9V148.9c0-10.4,8.4-18.9,18.9-18.9h904c10.4,0,18.9,8.4,18.9,18.9
	v677.9C973.4,837.2,964.9,845.7,954.5,845.7z M69.4,807.9h866.3V167.8H69.4V807.9z"/>
<path class="st0" d="M376.5,579.5h-224c-11,0-20-9-20-20s9-20,20-20h224c11,0,20,9,20,20S387.5,579.5,376.5,579.5z"/>
<path class="st0" d="M376.5,693h-224c-11,0-20-9-20-20s9-20,20-20h224c11,0,20,9,20,20S387.5,693,376.5,693z"/>
<g>
	<path class="st0" d="M411.8,235.8l-6-6c-26.2-26.2-70.2-24.8-98.1,3.1l-48.5,48.5c13.7-1.7,32.4-0.9,46.3,11.6l31.2-31.2
		c11.9-11.9,30-13.3,40.3-3.1l6,6c10.3,10.3,8.9,28.3-3.1,40.3l-51,51c-11.9,11.9-30,13.3-40.3,3.1l-6-6c-8-8-20.9-8-28.9,0
		c-8,8-8,20.9,0,28.9l6,6c26.2,26.2,70.2,24.8,98.1-3.1l51-51C436.7,306,438,262,411.8,235.8z"/>
	<path class="st0" d="M159.9,465l6,6c26.2,26.2,70.2,24.8,98.1-3.1l48.5-48.5c-13.7,1.7-32.4,0.9-46.3-11.6L235.1,439
		c-11.9,11.9-30,13.3-40.3,3.1l-6-6c-10.3-10.3-8.9-28.3,3.1-40.3l51-51c11.9-11.9,30-13.3,40.3-3.1l6,6c8,8,20.9,8,28.9,0
		s8-20.9,0-28.9l-6-6c-26.2-26.2-70.2-24.8-98.1,3.1l-51,51C135.1,394.7,133.7,438.8,159.9,465z"/>
</g>
</svg>
