<?xml version="1.0" encoding="utf-8"?>
<!-- Generator: Adobe Illustrator 24.1.0, SVG Export Plug-In . SVG Version: 6.00 Build 0)  -->
<svg version="1.1" id="Layer_1" xmlns="http://www.w3.org/2000/svg" xmlns:xlink="http://www.w3.org/1999/xlink" x="0px" y="0px"
	 viewBox="0 0 695.9 569.9" style="enable-background:new 0 0 695.9 569.9;" xml:space="preserve">
<style type="text/css">
	.st0{fill:#FFFFFF;}
</style>
<g>
	<path class="st0" d="M469.2,127.1c0,0.3-0.1,0.7,0.2,0.8c-1.3,0.8-1.7,0.2-3.2,0C466.8,127.2,468,127.1,469.2,127.1L469.2,127.1z"
		/>
	<path class="st0" d="M478.6,149.6c0.4,2.8-0.2,6-0.8,8.8C476.4,155.9,478.5,152.5,478.6,149.6L478.6,149.6z"/>
	<path class="st0" d="M493.9,152.1c0,0.4,0,0.9,0,1.3c-3.4,0.7-4.4,3.8-7.4,4.8c1.5-2.5,4.1-3.9,5.9-6.1
		C492.8,152.1,493.4,152.1,493.9,152.1L493.9,152.1z"/>
	<path class="st0" d="M511.6,161.3c-1.7,0.8-4.4,0.6-6.7,1C506.6,161.3,508.9,161.2,511.6,161.3L511.6,161.3z"/>
	<path class="st0" d="M521.1,166.8c0,0.7-0.5,0.9-0.6,1.5c-1.1-0.1-1.7-0.8-2.7-1.1c0.9-1-0.4-2.1-0.2-2.9
		C519.4,163.9,520.1,166,521.1,166.8L521.1,166.8z"/>
	<path class="st0" d="M269.3,282.2c0.8,0.1,1-0.3,1.7-0.2c0.1,0.7-0.3,0.8-0.2,1.5c-2.2,1-3.3,3-6.3,3.2c-0.5,2.9,2.1,3.4,3.2,5.2
		c-0.8,0.7-3.1,1.1-4,0.6c-0.4,2.2,0.2,5,2.1,5.5c0,0.7-0.9,0.5-0.8,1.3c-0.1,1.1,1.1,0.9,1,2.1c-2.7-0.2-3.6,2.3-3.1,4.4
		c0.4,1.6,2.2,1.4,2.9,2.5c-0.4,1.2-2.6,0.5-3.1,1.5c-0.2,1.4-0.3,3-0.8,4.2c0.8,1.3,1.1,3.2,2.5,4c-0.6,1-2.5,1.9-3.6,1.1
		c-0.2,0.5-0.5,0.9-1,1.1c0.2,0.7,1,0.8,1,1.7c-5.1,1.5-8.3-3.1-9.9-6.9c0.1-0.7,0.4-1.3,0.4-2.1c-1.4-1.4-0.9-4.7-1-7.4
		c0.3-0.6,1.1-0.7,1.3-1.3c-1.1-3-0.4-7.4,1.7-9.3c-1.3-2,0.8-4.3,0.8-6.9c0.6-0.3,1.3-0.5,1.5-1.1c-0.9-2.2,0.6-5.2,3.1-4.6
		c0.4-0.1,0.5-0.6,1-0.8c-0.1-0.5-0.3-0.9-0.2-1.5c1.6-2,7.3-1.9,8.8,0.2C268.2,281.4,268.8,281.8,269.3,282.2L269.3,282.2z"/>
	<path class="st0" d="M461.4,131.7c-0.8,3.2-2.6,7.2-5,9.5C457.1,137.8,458.7,133.7,461.4,131.7L461.4,131.7z"/>
	<path class="st0" d="M481.3,161.7c1.2-0.4,2.5-2.4,4.2-2.9c-1.3,2.8-4,4.2-5.5,6.9c-0.7,0-1,0.4-1.5,0.6c1.7,1.8-1.3,3-1.7,4.6
		c1.7-0.7,3.8-2.5,6.1-3.2c0.2-0.3,0.5-0.5,0.4-1.1c5.4-3.6,15.9-8.9,25-8.8c6.4,0.1,15.1,2.7,18.1,7.2c1.1,1.7,1.6,5.8,0.2,7.8
		c-0.8,1.2-5.3,3.7-7.1,4.4c-4.3,1.8-9.9,1.8-14.3,0.6c1.3-1.9,4.2-2.2,6.5-3.1c-3-2.8-6.1-0.5-10.1-0.2c-1.9,0.2-3.4,0.2-4.8,1
		c-1.5,0.8-4.7,1.9-5.7,3.4c2.1,0.7,5.6,0.6,8.2,1.3c-1.6,1-4.5,2.2-6.9,2.5c-1.1,0.1-2.1-0.4-3.2-0.4c-2.4,0-5.2,0.1-7.3,0.8
		c-3.6,1.1-6.3,4.2-10.1,4.2c-0.7-0.3-0.6-1.4-1-2.1c-1.7,0.5-1.9,2.6-3.6,3.1c-0.4,2-1.5,3.8-1.9,5.7c-0.1,0.4,0.3,0.7,0.2,1.3
		c0,0.1-0.5,0.3-0.6,0.6c-0.5,2.8-1.5,5.3-3.1,8.4c-1.5,2.9-3.3,5.8-6.1,7.1c-4.1,1.8-5.5-2-5.7-5.7c-0.3-6.4,4.8-11.8,6.5-15.8
		c0.4-0.4,1.6,0.1,1.7-0.6c-0.1-1.3-2.1-1.2-3.1-1.1c-4.3,0.4-7.7,5.1-12.4,4.8c-0.4-0.9,0.2-2.3,0.2-3.4c-4.6,0.6-7,5.2-12.4,3.8
		c0-1,0.5-2.2,0-3.1c1.2-1.2,1.3-3,2.3-4.4c4-6.1,15.7-9.4,23.1-4.8c0.2,0.8-0.2,1.1-0.6,1.3c3.1,0.6,5.5,1.8,7.1,4
		c0.7-1-0.3-1.6-0.2-2.9c0.1-0.9,0.9-1.7,1-2.7c0.1-1.1-0.6-2.2-0.4-3.4c0.2-1.3,1-1.9,1.3-3.1c-0.3-0.9-1.5-0.9-2.1-1.5
		c0.5,2.6,1.3,8.8-0.8,10.9c-1.2-0.3-0.3-2.7-0.2-3.4c-0.6,0.1-2,0.2-2.7-0.6c-0.2-1.1,0.3-1.6,0.6-2.3c0.5-5.3-2.8-6.8-4-10.3
		c-3.6-2.3-3.3-7.7-3.6-13.2c-0.1-2.2-1.3-4.7-1.3-6.5c0-8.9,6.3-14.6,10.3-19.3c2.9-1.2,5.1-3.2,9.2-3.2c0.7,0.3,0.1-0.6,0.6-0.6
		c3.8,0.2,5.7,1.8,7.6,4.2c1.5,5.1,2.8,13,3.6,19.5c0.9,6.9-1.4,11.9-4.4,15.8c-2.5,0.7-4,2.5-4.8,5c1.8-0.9,2.6-3.8,4.8-3.8
		c0.9-0.8,1-2.3,2.7-2.3c1.4-2.6,4-4,5-7.1c1.2-0.5,1.3-2.2,3.1-2.1c0,2-2,4.1-3.4,5.5C483.2,159.9,482,160.6,481.3,161.7
		L481.3,161.7z M466.2,127.9c1.5,0.2,2,0.8,3.2,0 M456.5,141.2c2.4-2.3,4.1-6.3,5-9.5 M457,143.9c-0.5,0.5-1,0.9-1.5,1.3
		c-0.1,5.5-0.2,9.7,1.5,14.1C457.9,155,461,147.3,457,143.9L457,143.9z M477.8,158.4c0.6-2.8,1.2-6,0.8-8.8
		C478.5,152.5,476.4,155.9,477.8,158.4L477.8,158.4z M504.9,162.2c2.2-0.3,5-0.1,6.7-1C508.9,161.2,506.6,161.3,504.9,162.2
		L504.9,162.2z M517.7,164.3c-0.2,0.7,1.1,1.8,0.2,2.9c0.9,0.3,1.5,1,2.7,1.1c0.1-0.6,0.6-0.8,0.6-1.5
		C520.1,166,519.4,163.9,517.7,164.3L517.7,164.3z M517.3,171.2c0-0.2,0.2-0.3,0.4-0.4c-0.2-0.7-0.7-1.1-1-1.7
		C516.9,169.5,517,170.7,517.3,171.2L517.3,171.2z"/>
	<path class="st0" d="M516.8,169.1c0.3,0.6,0.8,1,1,1.7c-0.2,0.1-0.3,0.2-0.4,0.4C517,170.7,516.9,169.5,516.8,169.1L516.8,169.1z"
		/>
	<path class="st0" d="M328.8,15.1c0.6,0,1.1,0,1.7,0c1.9,1.2,6.8,0.3,9.3,0.6c2.3,0.3,5,1.1,7.2,1.9c5.9,2.1,9.4,5.3,12.4,10.1
		c2.6,4.1,4.5,7.6,5.5,13.2c0.3,1.4,0.9,2.8,1.1,4.2c1,6,0.5,12.5-0.4,18.7c-0.5,3.3-1.5,6.2-2.5,9.3c-1.8,6.1-3.9,12-6.3,17.6
		c-1.2,2.7-2.6,5.3-3.8,8c-0.6,1.4-1.1,2.8-1.7,4.2c-0.6,1.3-1.6,2.5-2.3,3.8c-2.5,5.1-4.9,11-7.8,16
		c-10.1,17.2-20.3,35.2-31.9,51.3c-1.4,2-4.6,5.7-4.8,7.2c-0.1,1.3,1,4,1.5,5.9c8.6,29.4,19.1,55.4,30.7,81.1
		c3.1-3.5,5.7-7.5,8.4-11.4c8.2-12,15.5-24.5,23.7-36.4c-7.1-21.2-8.3-48.8-4.4-73.5c1.8-11.6,5.5-22.7,9.3-32.2
		c2.9-7.3,6.8-14.2,11.1-20c1.7-2.3,3.7-5.4,5.5-7.1c0.7-0.6,1.9-1,2.9-1.7c1.1-0.8,2-1.7,2.7-2.1c3.6-2,8.7-3.5,13.2-4.8
		c2.9-0.8,10.2-0.6,12.8,0c2,0.5,4.3,1.8,5.7,2.9c2.7,1.9,6.6,5.9,8,9c1.4,3.1,2.1,7.9,2.9,11.1c0.3,1.3,1.1,2.5,1.1,3.8
		c0,1.4-0.5,3.1-0.6,4.8c-0.5,10.8-4.2,20.8-8.4,29.2c-10.3,20.5-19.8,37.8-32.4,55.7c-1.5,2-2.6,4.5-4.2,6.7c-3.3,4.5-6,8.1-9.2,13
		c-1.3,2-4,4.7-4.4,6.7c-0.6,3.3,1.5,9.1,2.3,11.4c3.1,9,5.6,17.2,8.8,25.9c0.6,1.8,1.7,3.8,1.9,5.2c0.1,0.9-0.4,1.7-0.2,2.9
		c0.2,1,0.8,1.7,1.1,2.7c4.8-10.4,9.7-20.6,15.3-30.1c5.3-8,10.6-16,16.2-23.7c1.4-0.3,1.7-2.6,3.1-2.3c-0.8,3.5-3.8,6.2-5,9.2
		c-0.5,1.2-0.3,2.5-0.8,3.6c-0.8,1.8-2.5,3.7-3.6,5.5c-8.5,13.7-16.2,27.5-22.5,42.9c1,2.5,2,5.2,2.9,8c0.9,2.7,2.3,5.6,2.5,8.4
		c0,0.9-0.3,1.9-0.2,2.9c0.2,1.6,1.2,3.4,1.7,5.3c1,3.8,2,7.4,3.2,10.9c0.7,1.9,1,4.1,1.7,5.5c0.5,0.9,1.6,1.4,2.1,2.3
		c0.5,0.9,0.7,2.9,1.1,4.4c2.1,7.8,3.1,15.5,3.8,24c0.4,4.9,1.5,10.9-0.8,13.4c-0.5,4.4-1.8,8-2.3,12.4c-2.7,2-3.1,6.4-5.5,10.1
		c-0.5,0.8-1.3,1-1.9,1.7c-1.6,1.8-2.5,5.9-5,6.3c-2.6,0.4-4.8-1.5-7.2-2.1c-2.4-2.4-4.2-4.3-6.1-7.3c-0.4-0.6-0.7-1.7-1.1-2.3
		c-0.6-0.8-1.3-1.1-1.7-1.9c-0.5-0.9-0.7-2.4-1.3-2.9c0-4-1.4-8.2-2.1-12.6c-1.3-7.9-1.6-16.8,0-24.6c0.7,4.8,0.4,10.5,1.1,16.2
		c0.6,4.9,1.4,11.2,2.9,15.6c0.7,2.1,2.1,3.7,3.1,5.9c0.9,2.2,1.5,5,2.7,6.5c1.7,2.1,5.7,2.8,7.8,1.5c2.9-1.8,4.1-5.6,4.8-9.2
		c2.4-11.9,0.8-26.1-0.6-38.3c-1.9-16.9-6.2-32-10.9-45.4c-4,8.5-4.6,20.1-6.9,29.4c-0.4,1.6-1.1,3.1-1.5,4.6
		c-0.4,1.6-0.1,3.5-1.5,4.6c-1-9.9,0.7-20.1,2.5-29c0.5-2.3,1.3-4.2,2.1-6.3c0.5-1.4,0.9-3.4,1.5-5.3c0.6-1.8,1.7-3.8,1.7-5.2
		c0-0.6-0.6-2-1-3.1c-5-16-11.1-31.3-16.2-46.6c-3.4,5.1-6.6,10.6-10.1,15.5c-1.2,1.7-2.3,3.6-3.6,5c-0.5,0.5-1.1,0.6-1.5,1
		c-0.5,0.5-0.5,1.1-1,1.7c-5,7.3-10.6,14.2-14.9,21.9c6.5,15.1,12.6,31.6,17.6,49.4c2.4,8.4,5.3,17.3,6.7,26.7
		c1.6,10.7,3.1,25.1,1.7,35.3c-0.7,5-0.8,11.3-1.9,15.6c-0.3,1.4-1.3,2.5-1.5,3.6c-1.2,5.1-1.8,9.8-3.8,14.3
		c-1.9,4.3-3.5,8.3-5.9,12.4c-2.2,3.7-4.8,7.3-7.6,10.7c-2.7,3.2-6.1,6.8-9.5,8.8c-3.1,1.8-8.4,3.3-11.3,3.6c-2,0-4.1,0-6.1,0
		c-10.8-1.1-16-7.7-22.5-13c-3.6-6.5-6.9-12.9-9.5-20c-2.7-7.2-3.9-15.3-5.2-24.2c-0.4-3.1-0.2-6.9,0-10.3
		c0.6-9.7,2.7-19.3,5.2-27.5c10.3-34,28.1-61,44.6-87.6c-12.4-27.6-23-57.1-32.1-88.1c-2.1,1.4-3.2,3.8-4.6,5.9
		c-4.1,6.5-8.3,13.2-12.4,20.2c-2.6,4.5-5.4,9-8.4,13.4c-1.5,2.1-2.9,4.5-4.2,6.7c-3.9,6.6-8.6,13.2-12.4,20
		c-2.6,4.6-4.4,9.6-6.9,14.9c-0.3,0.6-0.9,1.1-1.1,1.7c-2.8,6.6-5.9,14-8.6,21.2c-1.5,4-2.8,7.3-3.1,12.4c-0.2,3.7-0.3,7.6,0,10.9
		c0.3,3.1,1.7,5.4,2.7,8.2c1.5,4.5,2.8,8.8,6.3,11.8c4.1,3.6,10.9,4.3,16.2,1.5c5.6-3,9.8-8.1,13.5-13.9c1.7-2.6,3.8-5.2,5.5-8.2
		c1.8-3,2.8-6.5,4-9.7c2.3-6.3,4.6-14.9,3.8-22.9c-0.7-7.6-3-15.6-8.8-18.7c-2.5-1.3-5.9-1.1-8.6,0c-2.1,0.9-3.6,3.3-6.7,3.6
		c-4,2.7-5.8,7.1-8.4,11.4c-0.6,1-0.4,2.5-1.9,2.7c-0.9-7.5,3.1-14.1,8.2-17.2c3.8-2.3,9.6-4.3,14.3-3.8c1.4,0.2,2.8,0.8,4.4,1.5
		c1.4,0.6,3.1,0.8,4.2,1.5c0.8,0.5,1.7,1.7,2.7,2.7c4.5,4.3,8.9,11.4,7.4,21.2c-0.2,1.4-0.7,2.7-1,4.2c-1.8,9.5-4.9,18.2-9.5,25.2
		c-3,4.5-6.1,8.7-9.2,13.2c-1,1.5-1.8,3.2-2.9,4.4c-3.8,4.5-13.6,9.8-20.6,7.8c-6-1.7-10.8-5.9-14.1-10.9
		c-3.4-5.1-5.3-10.7-6.3-18.5c0-1.8,0-3.7,0-5.5c0.2-4.6,1.9-9.5,3.4-13.2c1.1-2.6,2.6-4.9,3.6-7.4c2-4.9,3.7-9.7,5.7-14.5
		c1.9-4.6,4.5-9,6.7-13.5c13-26.8,29.4-51.9,45.6-75.2c-7.4-24.2-10.6-53.6-11.1-83.6c-0.1-5.9-0.1-12.2,1-17.4
		c1,8.3-0.1,16.7,0.4,25c1.4,24.4,8.2,47.6,13.5,69.6c1.1-0.7,1.9-2.1,2.7-3.2c8.6-13.5,17.4-27.4,25.2-42.2
		c8.4-16,16.4-31.9,21.6-51.9c3.3-13,4.1-28.9-0.2-42.2c-3.3-8.1-11.5-15.4-22.5-15.1c-2.5,0.1-5.7,0.8-7.8,1.9
		c-1.4,0.7-2.2,2.1-3.6,3.1c-1.3,0.8-2.6,1.6-4.4,2.1c-0.6,2.6-3.4,3.8-4.8,5.9c-0.6,0.9-0.8,2.4-1.5,3.4c-0.5,0.7-1.6,0.9-2.1,1.7
		c-1.1,1.6-1.2,3.9-2.3,5.3c-0.7,1-1.8,1.3-2.5,2.3c-2.7,3.9-3,10-5,15.1c-1.2,3.2-2,6.2-3.4,9.2c-0.7,1.5-1.3,3.4-2.9,4.4
		c1-10.2,2.8-19.7,7.1-27.1c1-6,3.5-11,6.1-15.5c2.2-3.7,4.5-7.2,6.7-10.9c3.7-0.9,6.6-4.2,10.1-5.9
		C322.5,17.4,325.7,15.8,328.8,15.1L328.8,15.1z M407.8,156.9c6.7-13.1,14.1-27.5,16.6-44.8c0.8-5.8,1.9-13.3-0.4-18.1
		c-2-4.2-8-6.7-13.7-6.3c-9.7,0.7-14.2,5.7-18.9,11.4c-0.9,1.1-2,2.2-2.9,3.4c-0.9,1.3-1.5,2.7-2.5,4c-1.7,2.4-2.9,5.3-4.4,8.2
		c-1.5,3-3,6.2-3.8,9c-0.5,1.6-0.7,3.4-1.1,5.2c-1,3.4-1.9,6.6-2.5,10.3c-2.1,12.9-4.1,29.2-2.9,42.7c0.2,2.3,0.9,4.9,1.1,7.4
		c0.3,2.6,0.9,5.1,1.3,7.2c-0.2,0.8,1.2,0,0.8,1c0.5,3.8,1.2,7.5,2.3,10.9C387.4,192.1,397.9,176.1,407.8,156.9L407.8,156.9z
		 M331.9,292.5c-4.1,6.6-7.8,13.2-11.8,19.7c-2.7,4.3-5.5,8.6-8,13c-2.6,4.5-5,9.1-7.6,13.5c-2.7,4.6-4.5,9.4-6.7,14.3
		c-2.1,4.9-4.2,9.9-5.9,15.3c-2.5,7.9-4.3,17.3-5.2,26.3c-0.3,3-0.9,6.1-1,9c-0.1,3.9,0.8,8.9,1.5,12.8c1.5,8.3,5.2,14.2,8.6,20.2
		c3.5,6.2,8.5,11.4,14.9,14.3c3.4,1.6,7.3,2.1,11.4,1.1c2.2-0.5,3.7-1.7,5.5-2.3c0.8-0.3,1.7-0.2,2.5-0.4c2.3-0.6,4.2-1.7,6.5-2.7
		c7.3-5.9,12.2-12.9,16.4-22.1c7.8-17.3,9.6-40.8,6.7-63c-3.8-29-13.6-53.8-23.3-75.7c0-0.1,0-0.2-0.2-0.2
		C335.2,288.2,333.3,290.2,331.9,292.5L331.9,292.5z"/>
	<path class="st0" d="M155.9,486.2c-0.4,0.3-0.7,0.7-0.9,1.1c-0.1,0.4-0.2,0.7-0.2,1l-0.1,6.7c0,0,0,0.1,0,0.2c0,0.1,0,0.2,0,0.3
		c0,0.6,0.2,1,0.7,1.3c0.9,0.6,2.3,1.4,4.1,2.4s3.4,1.9,4.9,2.7s2.5,1.4,3.2,1.8c-0.1,0-0.1,0-0.1,0.1c0,0.1,0.1,0.3,0.4,0.7
		c0.3,0.3,0.5,0.7,0.7,1c0.2,0.3,0.3,0.6,0.3,0.9s-0.1,0.5-0.2,0.5c-0.1,0.1-0.4,0.2-0.8,0.2l-12.1,0.9c-0.2,0-0.5,0.4-0.7,1.2
		l-0.2,2.7c0,0.4,0.2,0.6,0.7,0.6l17.3,0.1c0.5,0,0.9-0.2,1.1-0.5c0.2-0.3,0.3-0.5,0.3-0.7v-7.2c0-0.7-0.1-1.3-0.4-1.8
		s-0.5-1-0.8-1.3c-0.2-0.3-0.4-0.5-0.5-0.6c-2.6-1.7-5.2-3.5-7.7-5.1c-2.5-1.7-3.8-2.6-3.8-2.7c0-0.1-0.1-0.2-0.2-0.2
		c-0.1-0.1-0.1-0.1-0.1-0.2c0-0.2,0-0.3,0.1-0.4c0-0.1,0.1-0.2,0.3-0.3c0.1-0.1,0.2-0.2,0.3-0.3c0.1-0.2,0.3-0.3,0.7-0.3
		c0.2,0,0.3,0,0.5,0c0.2,0,0.3,0.1,0.3,0.1c1.4-0.1,2.5-0.2,3.5-0.3c1-0.1,2.2-0.2,3.5-0.3c1.4-0.1,2.1-0.2,2.2-0.2
		c0.5,0,0.9-0.2,1.1-0.5c0.2-0.3,0.3-0.5,0.3-0.7l0.4-2.2c0-0.1,0-0.3-0.1-0.5c-0.1-0.2-0.3-0.3-0.7-0.3h-15.3
		C157,485.7,156.3,485.9,155.9,486.2L155.9,486.2z M193.4,512.4c0.1-0.1,0.1-0.2,0.1-0.3c0.1-0.3,0.2-0.8,0.3-1.5
		c0.1-0.7,0.2-1.3,0.2-1.7c0-0.1,0.1-0.2,0.1-0.3c0-0.2-0.2-0.3-0.6-0.3h-1c-2.4,0-4.3-0.1-5.7-0.3c-1.4-0.2-2.2-0.4-2.6-0.5l-1-6.9
		c0-0.1,0-0.3,0-0.6c0-0.6,0.2-1.1,0.6-1.5c0.4-0.4,0.7-0.6,1-0.7c0.2-0.1,0.7-0.3,1.5-0.4c0.7-0.2,1.7-0.3,3-0.3
		c0.8,0,1.6,0,2.4,0.1c0.1,0,0.2,0.1,0.4,0.1c0.2,0,0.3,0,0.4-0.1c0.1-0.1,0.1-0.2,0.2-0.2c0-0.1,0.2-0.6,0.4-1.5
		c0.2-0.8,0.3-1.4,0.3-1.5c0.1-0.2,0.1-0.3,0.1-0.4c0-0.1,0-0.2-0.1-0.2c-0.1-0.1-0.1-0.2-0.2-0.2s-0.1,0-0.1,0c-0.4,0-0.8,0-1,0
		c-0.2,0-0.5,0-0.6,0c-0.2,0-0.3,0-0.4,0c-0.3,0-0.7,0-1.3,0c-0.7,0-1.5,0-2.1,0c-0.7,0-1.6,0.1-2.5,0.2c-1,0.1-1.8,0.1-2.4,0.2
		c-0.6,0.1-1.1,0.1-1.6,0.1c-0.3,0-0.7,0.2-1.3,0.4c-0.5,0.2-0.8,0.5-0.8,0.9c-0.4,0.7-0.6,1.5-0.6,2.3c0,0.2,0,0.3,0,0.5
		c0,0.2,0,0.4,0,0.7c0,2.9,0.1,5.4,0.3,7.5c0.1,2.1,0.3,3.4,0.5,4c0,0.4,0.2,1,0.6,1.7c0.3,0.6,1,1,1.8,1H193
		C193.2,512.6,193.4,512.5,193.4,512.4L193.4,512.4z M211.3,512.6c0.2,0,0.4-0.1,0.7-0.2c0.3-0.2,0.4-0.4,0.4-0.7l0.2-5.9l0-12.2
		c0-0.2,0-0.3,0-0.3c0,0,0,0-0.1-0.1c-0.1,0-0.1,0-0.2-0.1c-1.2,0.1-2.3,0.1-3.3,0.1c-0.1,0-0.1,0.1-0.2,0.2
		c-0.1,0.1-0.1,0.2-0.2,0.4l-0.6,9.4l-0.8,4.3c0,0.2-0.1,0.3-0.5,0.3l-3.3-0.7c0,0-0.1-0.1-0.1-0.2c0-0.1-0.1-0.2-0.1-0.3l-2.3-13.2
		c-0.1-0.1-0.2-0.1-0.3-0.2c-0.2-0.1-0.3-0.1-0.5-0.1h-2.8c-0.1,0-0.1,0-0.2,0.1c-0.1,0.1-0.1,0.2-0.1,0.4l0.2,7.2l1,9.9
		c0,0.3,0.1,0.7,0.2,1.2s0.5,0.7,1,0.7H211.3z M217.3,500.6l0.9,9.9c0,0.3,0.1,0.7,0.2,1.2s0.5,0.7,1,0.7s1.1,0,1.8,0c0.7,0,2,0,4,0
		c2,0,3.5,0,4.5,0.1c1,0,1.5,0,1.5,0c0.5,0,0.8-0.2,0.8-0.6l0.5-5.9v-10.7c0-0.7-0.1-1.2-0.4-1.5c-0.2-0.3-0.5-0.5-0.6-0.6
		c-0.4,0-0.9-0.1-1.6-0.1c-0.6-0.2-1.4-0.3-2.2-0.3c-1.5,0-3,0.1-4.7,0.3c-1.7,0-3,0-4,0.1c-0.3,0.1-0.7,0.2-1.3,0.4
		c-0.5,0.2-0.7,0.5-0.7,1L217.3,500.6z M223.1,507c-0.2-0.2-0.3-0.4-0.3-0.6l-1.1-5.8c-0.1-0.2-0.1-0.4-0.1-0.6
		c0-0.6,0.2-1.1,0.5-1.5c0.4-0.4,0.7-0.6,0.9-0.7c0.7-0.3,1.2-0.5,1.4-0.6c0.2-0.1,0.6-0.1,1.2-0.1c1.3,0,2.1,0.3,2.7,0.8l0,5.4
		l-0.8,4.4c0,0.1-0.1,0.2-0.3,0.3s-0.4,0.2-0.6,0.2l-2.2-0.5C223.7,507.3,223.3,507.1,223.1,507L223.1,507z M242.3,512.2
		c0-0.1,0-0.2-0.1-0.3c-0.1-0.1-0.1-0.2-0.2-0.2c-0.1,0-0.2-0.2-0.4-0.5s-0.2-1-0.2-1.9c0-0.4,0-1.3,0.1-2.8c0-1.5,0.1-2.7,0.1-3.7
		c0-1,0.1-2.3,0.1-3.8c0.1-1.5,0.1-2.7,0.1-3.6c0-1.3-0.1-3-0.2-5.2c-0.2-2.1-0.3-3.3-0.3-3.6c0-0.6-0.3-0.9-1.1-0.9
		c-0.6,0-1.3,0.2-2.2,0.5c-0.8,0.3-1.3,0.6-1.3,0.8l-0.1,24.2c0,0.9,0.2,1.3,0.6,1.3h4.6C242.2,512.5,242.3,512.4,242.3,512.2
		L242.3,512.2z M251.7,503.5c0.3-0.2,0.6-0.3,0.8-0.3c0.4-0.2,1-0.3,1.5-0.3s1.7-0.1,3.4-0.2c0,0.4,0.1,0.8,0.1,1.3
		c0,0.5,0.1,1.5,0.3,3c0,0.4-0.1,0.7-0.4,1.1c-0.3,0.3-0.7,0.5-1.3,0.6c-1.3,0-3,0.1-5.1,0.1c-0.5,0-0.7-0.2-0.7-0.7
		c0.1-2.7,0.3-4,0.7-4c0.1,0,0.1,0,0.1,0c0,0,0,0,0,0.1C251.2,503.8,251.3,503.6,251.7,503.5L251.7,503.5z M255.6,498.7
		c-0.5,0.1-1.3,0.1-2.2,0.2c-0.9,0.1-1.8,0.2-2.7,0.3c-0.9,0.1-1.8,0.2-2.7,0.3l-0.3,0.1c-0.2,0.1-0.3,0.2-0.5,0.3
		c-0.2,0.2-0.3,0.4-0.5,0.7c-0.2,0.7-0.4,1.9-0.5,3.4c-0.1,1.5-0.2,3.8-0.4,7c0,0.6,0.2,1,0.5,1.2c0.3,0.1,0.7,0.2,1.2,0.2h12.9
		c0.3,0,0.7-0.2,1.3-0.5c0.5-0.3,0.7-0.8,0.7-1.6c0-0.3,0.1-0.9,0.1-1.6c0-0.7,0-1.7,0-3c0-1.3,0-2.5-0.1-3.9
		c-0.1-1.3-0.2-2.6-0.5-3.9c-0.2-1.2-0.5-2.2-1-3.2c-0.2-0.4-0.5-0.8-0.8-1.1c-0.3-0.2-0.6-0.4-1-0.5c-0.3-0.1-0.6-0.1-0.8-0.1h-0.2
		c-1.3,0-3.1,0-5.4,0c-1.2,0-2,0-2.7,0c-0.6,0-1.1,0-1.5,0.1c-0.2,0-0.3,0.1-0.4,0.2c-0.1,0.1-0.2,0.2-0.2,0.3
		c-0.2,0.3-0.3,0.8-0.5,1.5c-0.2,0.6-0.3,1.1-0.3,1.4c0.1,0.1,0.5,0.1,1.3,0.2c0.8,0.1,1.9,0.2,3.2,0.3c1.4,0.1,2.5,0.3,3.4,0.4
		c1,0.1,1.4,0.2,1.5,0.3c0.1,0,0.3,0.1,0.4,0.1c0.2,0.1,0.2,0.2,0.2,0.3c0,0.2-0.2,0.4-0.7,0.6C256.4,498.7,256.1,498.7,255.6,498.7
		L255.6,498.7z M279.4,486.2c-0.4,0.3-0.7,0.7-0.9,1.1c-0.1,0.4-0.2,0.7-0.2,1l-0.1,6.7c0,0,0,0.1,0,0.2c0,0.1,0,0.2,0,0.3
		c0,0.6,0.2,1,0.7,1.3c0.9,0.6,2.3,1.4,4.1,2.4c1.8,1,3.4,1.9,4.9,2.7c1.5,0.8,2.5,1.4,3.2,1.8c-0.1,0-0.1,0-0.1,0.1
		c0,0.1,0.1,0.3,0.4,0.7c0.3,0.3,0.5,0.7,0.7,1c0.2,0.3,0.3,0.6,0.3,0.9s-0.1,0.5-0.2,0.5c-0.1,0.1-0.4,0.2-0.8,0.2l-12.1,0.9
		c-0.2,0-0.5,0.4-0.7,1.2l-0.2,2.7c0,0.4,0.2,0.6,0.7,0.6l17.3,0.1c0.5,0,0.9-0.2,1.1-0.5c0.2-0.3,0.3-0.5,0.3-0.7v-7.2
		c0-0.7-0.1-1.3-0.4-1.8c-0.2-0.5-0.5-1-0.8-1.3c-0.2-0.3-0.4-0.5-0.5-0.6c-2.6-1.7-5.2-3.5-7.7-5.1c-2.5-1.7-3.8-2.6-3.8-2.7
		c0-0.1-0.1-0.2-0.2-0.2c-0.1-0.1-0.1-0.1-0.1-0.2c0-0.2,0-0.3,0.1-0.4c0-0.1,0.1-0.2,0.3-0.3c0.1-0.1,0.2-0.2,0.3-0.3
		c0.1-0.2,0.3-0.3,0.7-0.3c0.2,0,0.3,0,0.5,0c0.2,0,0.3,0.1,0.3,0.1c1.4-0.1,2.5-0.2,3.5-0.3c1-0.1,2.2-0.2,3.5-0.3
		c1.4-0.1,2.1-0.2,2.2-0.2c0.5,0,0.9-0.2,1.1-0.5c0.2-0.3,0.3-0.5,0.3-0.7l0.4-2.2c0-0.1,0-0.3-0.1-0.5c-0.1-0.2-0.3-0.3-0.7-0.3
		h-15.3C280.5,485.7,279.8,485.9,279.4,486.2L279.4,486.2z M306.9,485.6l-3.2,0.2c-0.1,0-0.2,0-0.4,0.2c-0.2,0.1-0.2,0.3-0.2,0.7
		c0,0.3,0,0.7-0.1,1.2c-0.1,0.5-0.1,1.1-0.2,1.7c-0.1,0.5-0.1,1.2-0.1,1.8c0,0,0,0.1-0.1,0.2c-0.1,0.1-0.1,0.1-0.3,0.2
		c-0.3,0-0.6,0.1-0.8,0.1c-0.1,0-0.2,0.1-0.4,0.2c-0.2,0.1-0.2,0.3-0.2,0.6c0,0.4,0,1.3,0,2.9c0,0.1,0.1,0.2,0.2,0.4
		c0.1,0.2,0.3,0.2,0.5,0.2c0.3,0,0.6,0.2,0.9,0.6c0.3,0.4,0.4,1.2,0.4,2.4l0.3,13c0,0.1,0.1,0.1,0.1,0.2c0.1,0.1,0.2,0.1,0.3,0.1
		h3.5c0.1,0,0.1,0,0.2-0.1c0.1-0.1,0.2-0.2,0.2-0.4v-12.6c0-2.2,0.6-3.3,1.8-3.3c0.1,0,0.3,0,0.5-0.1c0.2-0.1,0.3-0.3,0.3-0.5
		c0.1-0.3,0.2-0.7,0.3-1.5c0.1-0.7,0.2-1.2,0.2-1.4c0-0.1,0.1-0.2,0.1-0.3c0-0.2-0.1-0.3-0.2-0.4c-0.1-0.1-0.3-0.1-0.3-0.1
		c-0.7-0.1-1.4-0.1-2-0.2c-0.1-0.1-0.2-0.2-0.3-0.2c-0.1-0.1-0.2-0.1-0.3-0.2c-0.1-0.7-0.1-1.6-0.1-2.7c-0.1-1.1-0.1-2-0.2-2.7
		C307.2,485.7,307.1,485.6,306.9,485.6L306.9,485.6z M317.7,501.6c-0.2-0.2-0.2-0.4-0.2-0.6c-0.1-0.4-0.1-0.8-0.1-1.1
		c0-0.8,0.1-1.4,0.4-1.9c0.2-0.4,0.8-0.8,1.9-1.1c1-0.3,2.5-0.4,4.5-0.4c0.2,0,0.4,0.1,0.7,0.2c0.3,0.1,0.5,0.3,0.6,0.5
		c0.2,0.2,0.3,0.5,0.5,0.7c0.1,0.2,0.3,0.4,0.3,0.6c0.1,0.2,0.1,0.4,0.1,0.6c0,0.2,0,0.4-0.1,0.5c0,0.1-0.1,0.2-0.2,0.4
		c-0.1,0.1-0.2,0.3-0.4,0.5c-0.3,0.5-1.1,0.8-2.3,1.1c-1.2,0.2-2.5,0.4-3.9,0.4c-0.4,0-0.7,0-0.9,0
		C318.1,501.9,317.9,501.8,317.7,501.6L317.7,501.6z M330.3,508.8c-0.1-0.1-0.2-0.1-0.4-0.1l-6.4-0.2c-2.1-0.1-3.6-0.2-4.2-0.5
		c-0.7-0.2-1.1-0.6-1.2-1.2c-0.1-0.2-0.2-0.4-0.2-0.5c0-0.3,0.3-0.4,1.1-0.4c1.4,0,2.8-0.1,4.4-0.3c1.6-0.1,3.1-0.3,4.5-0.6
		s2.2-0.6,2.4-1c0.2-0.4,0.4-1.3,0.4-2.7c0-0.9-0.1-1.9-0.2-3.1c-0.2-1.2-0.4-2.2-0.7-3.2c-0.3-0.9-0.6-1.5-0.9-1.8
		c-0.1-0.1-0.5-0.2-1.1-0.3c-0.6-0.1-1.4-0.2-2.3-0.3c-1,0-1.9-0.1-2.7-0.1c-2.1,0-3.9,0.1-5.4,0.4c-1.6,0.2-2.7,0.4-3.3,0.7
		c-0.1,0-0.3,0.1-0.5,0.3c-0.2,0.2-0.3,0.5-0.3,1.1c0,0.2,0,0.4,0,0.8c0,0.4,0,1.1-0.1,1.9c0,0.9,0,1.8-0.1,2.6c0,0.8,0,1.5-0.1,2.1
		v1.2c0,2.4,0.2,4.3,0.5,5.6c0.3,1.3,0.7,2.1,1.2,2.5c0.4,0.4,0.8,0.6,1.2,0.6c0.1,0,0.2,0,0.3,0c0.1,0,0.1,0,0.1,0h12.8
		c0.6,0,1.1-1.1,1.3-3.2C330.4,509.1,330.3,508.9,330.3,508.8L330.3,508.8z M339.5,485.7c0-0.2-0.1-0.3-0.3-0.3l-3,0.3
		c-0.1,0-0.2,0-0.3,0.1c-0.1,0.1-0.2,0.2-0.2,0.4l-0.6,5.2c0,0,0.1,0.1,0.2,0.1c0.1,0.1,0.2,0.1,0.3,0.1l3.8-1.1
		c0.1-0.1,0.2-0.2,0.3-0.3c0.1-0.1,0.1-0.3,0.1-0.5L339.5,485.7C339.5,485.7,339.5,485.7,339.5,485.7L339.5,485.7z M335.2,493.6
		c-0.2,0.2-0.3,0.5-0.3,0.9l-0.3,16.6c0,0.4,0,0.8,0.1,1c0,0.2,0.2,0.4,0.4,0.4c0.6,0,1.2,0,1.8,0c0.6,0,1.2,0,1.8,0
		c0.1,0,0.2-0.1,0.4-0.3c0.2-0.1,0.2-0.4,0.2-0.7c0.1-1.4,0.1-2.7,0.1-3.8c0-1.1,0.1-2.6,0.2-4.7c0.1-2,0.1-4.1,0.2-6.2
		c0.1-2.1,0.1-3.5,0.1-4.1c0-0.3,0-0.5-0.1-0.6c-0.1-0.1-0.2-0.1-0.3-0.1l-3.9,1.1C335.5,493.3,335.4,493.4,335.2,493.6L335.2,493.6
		z M345.6,493.1c-0.3,0-0.6,0.1-0.8,0.1c-0.2,0-0.3,0.1-0.4,0.3c-0.1,0.2-0.3,0.3-0.3,0.5l-0.2,5.9l0,12.2c0,0.2,0,0.3,0,0.3
		c0,0,0.1,0.1,0.1,0.1c0,0,0.1,0,0.2,0.1c0.6,0,1.2-0.1,1.9-0.1c0.7,0,1.2,0,1.4,0c0.1,0,0.1-0.1,0.2-0.2c0.1-0.1,0.2-0.2,0.2-0.3
		l0.6-9.5l0.8-4.5c0-0.2,0.2-0.3,0.5-0.3l3.3,0.7c0,0,0.1,0,0.1,0.1c0.1,0.1,0.1,0.2,0.1,0.4l2.3,13.4c0,0.1,0,0.1,0.1,0.2
		c0,0.1,0.1,0.1,0.3,0.1h3.2c0.1,0,0.1,0,0.2-0.1c0.1-0.1,0.1-0.2,0.1-0.4l-0.2-7.2l-1-10.2c0-0.2-0.1-0.5-0.2-0.7
		c-0.1-0.3-0.2-0.4-0.4-0.4l-7.5-0.5h-3.4C346.4,493.1,346,493.1,345.6,493.1L345.6,493.1z M368,501.6c-0.2-0.2-0.2-0.4-0.2-0.6
		c-0.1-0.4-0.1-0.8-0.1-1.1c0-0.8,0.1-1.4,0.4-1.9c0.2-0.4,0.8-0.8,1.9-1.1c1-0.3,2.5-0.4,4.5-0.4c0.2,0,0.4,0.1,0.7,0.2
		c0.3,0.1,0.5,0.3,0.6,0.5c0.2,0.2,0.3,0.5,0.5,0.7c0.1,0.2,0.3,0.4,0.3,0.6c0.1,0.2,0.1,0.4,0.1,0.6c0,0.2,0,0.4-0.1,0.5
		c0,0.1-0.1,0.2-0.2,0.4c-0.1,0.1-0.2,0.3-0.4,0.5c-0.3,0.5-1.1,0.8-2.3,1.1c-1.2,0.2-2.5,0.4-3.9,0.4c-0.4,0-0.7,0-0.9,0
		C368.4,501.9,368.1,501.8,368,501.6L368,501.6z M380.5,508.8c-0.1-0.1-0.2-0.1-0.4-0.1l-6.4-0.2c-2.1-0.1-3.6-0.2-4.2-0.5
		c-0.7-0.2-1.1-0.6-1.2-1.2c-0.1-0.2-0.2-0.4-0.2-0.5c0-0.3,0.3-0.4,1.1-0.4c1.4,0,2.8-0.1,4.4-0.3c1.6-0.1,3.1-0.3,4.5-0.6
		s2.2-0.6,2.4-1c0.2-0.4,0.4-1.3,0.4-2.7c0-0.9-0.1-1.9-0.2-3.1c-0.2-1.2-0.4-2.2-0.7-3.2c-0.3-0.9-0.6-1.5-0.9-1.8
		c-0.1-0.1-0.5-0.2-1.1-0.3c-0.6-0.1-1.4-0.2-2.3-0.3c-1,0-1.9-0.1-2.7-0.1c-2.1,0-3.9,0.1-5.4,0.4c-1.6,0.2-2.7,0.4-3.3,0.7
		c-0.1,0-0.3,0.1-0.5,0.3c-0.2,0.2-0.3,0.5-0.3,1.1c0,0.2,0,0.4,0,0.8c0,0.4,0,1.1-0.1,1.9c0,0.9,0,1.8-0.1,2.6c0,0.8,0,1.5-0.1,2.1
		v1.2c0,2.4,0.2,4.3,0.5,5.6c0.3,1.3,0.7,2.1,1.2,2.5c0.4,0.4,0.8,0.6,1.2,0.6c0.1,0,0.2,0,0.3,0c0.1,0,0.1,0,0.1,0h12.8
		c0.6,0,1.1-1.1,1.3-3.2C380.7,509.1,380.6,508.9,380.5,508.8L380.5,508.8z M395.2,495.4l0.1-2.4c0-0.3-0.1-0.5-0.2-0.6
		c-0.1-0.1-0.2-0.1-0.3-0.1c-0.6,0-1.5,0.1-2.4,0.3s-1.7,0.4-2.2,0.5v-0.7l-4.7,0.4c-0.1,0-0.2,0-0.4,0.1c-0.2,0.1-0.2,0.3-0.2,0.7
		l0.2,4.2l-0.1,14.3c0,0.4,0.2,0.5,0.5,0.5h3.3c0.1,0,0.2-0.1,0.3-0.1c0.1-0.1,0.2-0.2,0.2-0.4c0-0.9,0.1-2.1,0.2-3.4
		s0.2-2.9,0.3-4.6c0.1-1.6,0.2-2.8,0.2-3.5c0-0.6,0.1-1.4,0.2-2.4c0-0.5,0.6-0.9,1.6-1.3c1.1-0.4,2.1-0.7,3-0.9
		C395,496,395.2,495.8,395.2,495.4L395.2,495.4z M407.2,503.2c0.4,0,0.6-0.1,0.8-0.4s0.2-0.5,0.2-0.7l0.3-1.6
		c0.1-0.2,0.2-0.3,0.2-0.5c0-0.2-0.1-0.3-0.3-0.3c-0.1,0-0.4-0.1-0.9-0.1l-7.3,0.1c-0.5,0-1,0.1-1.2,0.2c-0.3,0.1-0.4,0.4-0.4,0.8
		l-0.4,1.7c0,0-0.1,0.1-0.1,0.2c0,0.1-0.1,0.2-0.1,0.3c0,0.1,0.1,0.2,0.2,0.3s0.5,0.1,0.9,0.1l7.1-0.1
		C406.4,503.2,406.7,503.2,407.2,503.2L407.2,503.2z M431.9,511.7c0,0.1,0.1,0.3,0.3,0.5c0.1,0.2,0.3,0.3,0.5,0.3l6.8-0.1
		c0.3,0,0.5-0.1,0.7-0.4c0.2-0.3,0.3-0.5,0.3-0.7l4.2-20.7c0.1-0.6,0.3-1.1,0.4-1.4c0.2-0.3,0.3-0.5,0.4-0.7
		c0.1-0.1,0.2-0.2,0.2-0.2c0.4-0.6,0.5-1.2,0.5-1.5s-0.3-0.5-0.9-0.5h-3.6c-0.4,0-0.9,0.5-1.3,1.4l-1.1,2.4l-2.8,14.7
		c-0.1,0.5-0.2,0.8-0.4,0.8c-0.1,0-0.2-0.1-0.3-0.3s-0.2-0.4-0.3-0.5l-2.9-17.2c0-0.3-0.1-0.5-0.2-0.7c-0.1-0.1-0.2-0.3-0.4-0.3
		c-0.2-0.1-0.3-0.2-0.4-0.2c-0.1,0-0.1,0-0.2,0c-0.5,0-1.3,0-2.3,0c-1.3,0-2.2,0-2.8,0.1s-1,0.1-1.2,0.2c-0.7,0-1.1,0.5-1.3,1.4
		l-3.1,15.1c0,0.6-0.2,1-0.5,1c-0.2,0-0.3-0.1-0.5-0.2c-0.2-0.2-0.3-0.3-0.3-0.5c0-0.1,0.1-0.2,0.1-0.4l-2.8-15.3
		c-0.1-0.4-0.2-0.6-0.4-0.8s-0.3-0.3-0.5-0.4c-0.2,0-0.3-0.1-0.3-0.1h-3.1c-0.8,0-1.2,0.2-1.2,0.6c0,0,0.3,1.2,0.7,3.7
		c0.4,2.4,0.9,5.4,1.5,8.8s1.1,6.1,1.4,8.1c0.4,2,0.6,3.5,0.8,4.6c0,0.1,0.2,0.3,0.3,0.5c0.1,0.2,0.3,0.3,0.5,0.3l6.8-0.1
		c0.3,0,0.5-0.1,0.7-0.4c0.2-0.3,0.3-0.5,0.3-0.7l3.3-18c0-0.1,0.1-0.3,0.2-0.5c0.1-0.2,0.2-0.3,0.4-0.3c0.2,0,0.4,0.3,0.6,0.9
		L431.9,511.7z M453.9,503.5c0.3-0.2,0.6-0.3,0.8-0.3c0.4-0.2,1-0.3,1.5-0.3c0.6-0.1,1.7-0.1,3.4-0.2c0,0.4,0.1,0.8,0.1,1.3
		s0.1,1.5,0.3,3c0,0.4-0.1,0.7-0.4,1.1c-0.3,0.3-0.7,0.5-1.3,0.6c-1.3,0-3,0.1-5.1,0.1c-0.5,0-0.7-0.2-0.7-0.7c0.1-2.7,0.3-4,0.7-4
		c0.1,0,0.1,0,0.1,0c0,0,0,0,0,0.1C453.4,503.8,453.6,503.6,453.9,503.5L453.9,503.5z M457.8,498.7c-0.5,0.1-1.3,0.1-2.2,0.2
		c-0.9,0.1-1.8,0.2-2.7,0.3c-0.9,0.1-1.8,0.2-2.7,0.3l-0.3,0.1c-0.2,0.1-0.3,0.2-0.5,0.3c-0.2,0.2-0.3,0.4-0.5,0.7
		c-0.2,0.7-0.4,1.9-0.5,3.4c-0.1,1.5-0.2,3.8-0.4,7c0,0.6,0.2,1,0.5,1.2c0.3,0.1,0.7,0.2,1.2,0.2h12.9c0.3,0,0.7-0.2,1.3-0.5
		c0.5-0.3,0.7-0.8,0.7-1.6c0-0.3,0.1-0.9,0.1-1.6c0-0.7,0-1.7,0-3c0-1.3,0-2.5-0.1-3.9c-0.1-1.3-0.2-2.6-0.5-3.9
		c-0.2-1.2-0.5-2.2-1-3.2c-0.2-0.4-0.5-0.8-0.8-1.1c-0.3-0.2-0.6-0.4-1-0.5c-0.3-0.1-0.6-0.1-0.8-0.1h-0.2c-1.3,0-3.1,0-5.4,0
		c-1.2,0-2,0-2.7,0c-0.6,0-1.1,0-1.5,0.1c-0.2,0-0.3,0.1-0.4,0.2c-0.1,0.1-0.2,0.2-0.2,0.3c-0.2,0.3-0.3,0.8-0.5,1.5
		c-0.2,0.6-0.3,1.1-0.3,1.4c0.1,0.1,0.5,0.1,1.3,0.2c0.8,0.1,1.9,0.2,3.2,0.3c1.4,0.1,2.5,0.3,3.4,0.4c1,0.1,1.4,0.2,1.5,0.3
		c0.1,0,0.3,0.1,0.4,0.1s0.2,0.2,0.2,0.3c0,0.2-0.2,0.4-0.7,0.6C458.7,498.7,458.3,498.7,457.8,498.7L457.8,498.7z M474.1,512.2
		c0-0.1,0-0.2-0.1-0.3c-0.1-0.1-0.1-0.2-0.2-0.2c-0.1,0-0.2-0.2-0.4-0.5s-0.2-1-0.2-1.9c0-0.4,0-1.3,0.1-2.8c0-1.5,0.1-2.7,0.1-3.7
		c0-1,0.1-2.3,0.1-3.8c0.1-1.5,0.1-2.7,0.1-3.6c0-1.3-0.1-3-0.2-5.2c-0.2-2.1-0.3-3.3-0.3-3.6c0-0.6-0.3-0.9-1.1-0.9
		c-0.6,0-1.3,0.2-2.2,0.5c-0.8,0.3-1.3,0.6-1.3,0.8l-0.1,24.2c0,0.9,0.2,1.3,0.6,1.3h4.6C474,512.5,474.1,512.4,474.1,512.2
		L474.1,512.2z M494.1,486.3c0-0.4-0.1-0.5-0.4-0.5c-0.2-0.1-0.7-0.1-1.6-0.2c-0.8-0.1-1.4-0.1-1.6-0.2c-0.1,0-0.1,0-0.2,0.1
		c-0.1,0-0.2,0.1-0.2,0.2c-0.1,0.1-0.1,0.2-0.1,0.4c-0.1,1.8-0.3,4.4-0.5,7.7c-2.5-0.4-4.7-0.6-6.5-0.6c-1.1,0-2,0-2.4,0
		c-0.5,0.2-0.8,0.4-0.9,0.5c-0.2,0.1-0.4,0.3-0.6,0.6c-0.2,0.3-0.4,0.8-0.4,1.5c0,0.2-0.1,0.8-0.2,1.6s-0.1,1.9-0.1,3.3
		c0,0.8,0,1.8,0.1,2.8c0,1.1,0.1,2.2,0.2,3.5c0.1,1.3,0.2,2.6,0.4,4.1c0.1,0.2,0.2,0.5,0.5,0.8c0.2,0.4,0.6,0.6,1.1,0.7
		c0.6,0,2.2,0,4.7-0.1c2.5,0,4.1,0,4.7,0s1.2,0,1.9,0c0.5,0,0.8-0.2,1-0.7c0.1-0.4,0.2-0.8,0.2-1.2c0.2-0.1,0.3-1.1,0.5-3.1
		c0.1-1.9,0.2-4.2,0.3-6.8c0.1-2.5,0.1-5.1,0.2-7.5c0.1-2.4,0.1-4.6,0.1-6.6C494.1,486.5,494.1,486.4,494.1,486.3L494.1,486.3z
		 M488.2,507.3c-0.1,0.1-0.2,0.2-0.3,0.2l-3.6,0.7c-0.2,0-0.4,0-0.6-0.2c-0.2-0.1-0.3-0.2-0.3-0.3c-0.3-0.9-0.5-1.7-0.7-2.5
		c-0.2-0.7-0.3-1.5-0.3-2.3c-0.1-0.7-0.1-1.3-0.1-1.9c0-0.7,0-1.4,0.1-2c0.1-0.6,0.2-0.9,0.2-1.1c0.5-0.5,1.3-0.8,2.3-0.8
		c1,0,2,0.2,3.3,0.7c0.1,0.1,0.3,0.3,0.4,0.6c0.2,0.2,0.3,0.4,0.3,0.5c0,0.1,0.1,0.4,0.2,0.7c0.1,0.3,0.1,0.9,0.1,1.6
		c0,1.6-0.3,3.4-0.9,5.4C488.3,507,488.2,507.2,488.2,507.3L488.2,507.3z M498.6,500.6l0.9,9.9c0,0.3,0.1,0.7,0.2,1.2s0.5,0.7,1,0.7
		c0.5,0,1.1,0,1.8,0c0.7,0,2,0,4,0c2,0,3.5,0,4.5,0.1c1,0,1.5,0,1.5,0c0.5,0,0.8-0.2,0.8-0.6l0.5-5.9v-10.7c0-0.7-0.1-1.2-0.4-1.5
		c-0.2-0.3-0.5-0.5-0.6-0.6c-0.4,0-0.9-0.1-1.6-0.1c-0.6-0.2-1.4-0.3-2.2-0.3c-1.5,0-3,0.1-4.7,0.3c-1.7,0-3,0-4,0.1
		c-0.3,0.1-0.7,0.2-1.3,0.4c-0.5,0.2-0.7,0.5-0.7,1L498.6,500.6z M504.4,507c-0.2-0.2-0.3-0.4-0.3-0.6l-1.1-5.8
		c-0.1-0.2-0.1-0.4-0.1-0.6c0-0.6,0.2-1.1,0.5-1.5c0.4-0.4,0.7-0.6,0.9-0.7c0.7-0.3,1.2-0.5,1.4-0.6c0.2-0.1,0.6-0.1,1.2-0.1
		c1.3,0,2.1,0.3,2.7,0.8l0,5.4l-0.8,4.4c0,0.1-0.1,0.2-0.3,0.3c-0.2,0.1-0.4,0.2-0.6,0.2l-2.2-0.5C505,507.3,504.6,507.1,504.4,507
		L504.4,507z M528,495.4l0.1-2.4c0-0.3-0.1-0.5-0.2-0.6c-0.1-0.1-0.2-0.1-0.3-0.1c-0.6,0-1.5,0.1-2.4,0.3s-1.7,0.4-2.2,0.5v-0.7
		l-4.7,0.4c-0.1,0-0.2,0-0.4,0.1c-0.2,0.1-0.2,0.3-0.2,0.7l0.2,4.2l-0.1,14.3c0,0.4,0.2,0.5,0.5,0.5h3.3c0.1,0,0.2-0.1,0.3-0.1
		c0.1-0.1,0.2-0.2,0.2-0.4c0-0.9,0.1-2.1,0.2-3.4s0.2-2.9,0.3-4.6c0.1-1.6,0.2-2.8,0.2-3.5c0-0.6,0.1-1.4,0.2-2.4
		c0-0.5,0.6-0.9,1.6-1.3c1.1-0.4,2.1-0.7,3-0.9C527.8,496,528,495.8,528,495.4L528,495.4z M537,516.5v-17.2c0-0.8,0.1-1.6,0.4-2.2
		c0.2-0.6,0.7-1,1.4-1l0.5,0.1c0,0,0.1,0,0.1-0.1c0,0,0-0.1,0.1-0.3c0-0.1,0.1-0.3,0.1-0.4c0.1-0.3,0.2-0.8,0.3-1.6
		c0.2-0.8,0.2-1.2,0.3-1.2c0.1-0.2,0.2-0.4,0.2-0.5c0-0.2-0.2-0.2-0.6-0.2c-1.5-0.2-2.4-0.3-2.6-0.3v-1c0-0.3,0.1-0.5,0.3-0.7
		c0.2-0.1,0.4-0.2,0.5-0.3c0.5-0.1,1.2-0.2,2.1-0.2c0.7,0,1.4,0,1.8,0.1c0.4,0,0.6,0,0.7-0.1c0.1-0.1,0.2-0.2,0.2-0.3
		c0.1-0.2,0.2-0.5,0.3-1c0.1-0.5,0.2-1.1,0.3-1.7c0.1-0.1,0.1-0.2,0.1-0.3c0-0.2-0.1-0.3-0.2-0.3c-0.2,0-0.3-0.1-0.4-0.1
		c-0.6-0.1-1.1-0.1-1.5-0.1c-0.4,0-0.9,0-1.4,0c-2.1,0-4.4,0.1-7,0.4c-0.1,0-0.2,0.1-0.4,0.4c-0.2,0.1-0.2,0.3-0.2,0.7
		c0,0.1,0,1.7,0.1,4.9c-0.5,0-1,0.1-1.2,0.1c-0.1,0-0.2,0.1-0.4,0.2c-0.1,0.1-0.2,0.3-0.2,0.6c0,0.3,0,1.3,0,2.9
		c0,0.1,0.1,0.2,0.2,0.4c0.1,0.2,0.3,0.2,0.5,0.2c0.2,0,0.4,0.2,0.6,0.6c0.2,0.4,0.4,1.2,0.4,2.4l0.4,19c0,0.1,0.1,0.2,0.2,0.3
		c0,0.1,0.1,0.2,0.2,0.2c0,0,0,0,0.1,0c0,0,0.1,0,0.1-0.1l3.3-1.4C536.8,517.2,537,516.9,537,516.5L537,516.5z"/>
	<g>
		<path class="st0" d="M305.3,544.3l3.4-14l1-2.5c0.4-1,0.9-1.5,1.5-1.5h4.1c0.2,0,0.3,0.1,0.3,0.3c0,0.4-0.2,1.1-0.6,1.9
			c-0.1,0.3-0.2,0.6-0.3,0.8c-0.1,0.3-0.3,0.6-0.4,0.9l-4.9,21.7c-0.1,0.2-0.2,0.4-0.4,0.7c-0.2,0.3-0.5,0.4-0.8,0.4l-7.6,0.1
			c-0.2,0-0.4-0.1-0.6-0.3c-0.2-0.2-0.3-0.4-0.4-0.5c-0.8-4-1.5-8-2.3-11.8c-0.7-3.9-1.3-6.5-1.6-8c-0.3-1.5-0.6-2.6-0.7-3.4
			c-0.2-0.8-0.4-1.5-0.6-2.2c0-0.3,0.1-0.5,0.3-0.6c0.2-0.1,0.4-0.1,0.5-0.2h3.7c0.2,0,0.4,0.1,0.8,0.2c0.3,0.2,0.5,0.5,0.6,1.1
			l3.6,16.6c0,0.3,0.1,0.6,0.2,0.8c0.1,0.3,0.3,0.4,0.5,0.4C304.9,545.4,305.2,545.1,305.3,544.3z"/>
		<path class="st0" d="M334.9,550.1c-0.2,2.1-0.7,3.2-1.3,3.2h-12.8c0,0-0.1,0-0.1,0s-0.2,0-0.3,0c-0.4,0-0.8-0.2-1.2-0.6
			c-0.4-0.4-0.8-1.3-1.1-2.6c-0.3-1.3-0.5-3.2-0.5-5.6v-1.2c0-0.6,0-1.2,0.1-2.1c0-0.8,0-1.7,0.1-2.6c0-0.9,0-1.6,0.1-2
			c0-0.4,0-0.6,0-0.8c0-0.5,0.1-0.9,0.3-1c0.2-0.2,0.4-0.3,0.5-0.3c0.6-0.2,1.7-0.5,3.3-0.7c1.5-0.2,3.3-0.4,5.4-0.4
			c0.8,0,1.7,0,2.7,0.1c1,0.1,1.8,0.2,2.4,0.3c0.6,0.1,0.9,0.2,1.1,0.3c0.3,0.3,0.6,0.9,0.9,1.8c0.3,0.9,0.5,2,0.7,3.2
			c0.2,1.2,0.2,2.2,0.2,3.1c0,1.4-0.1,2.4-0.4,2.7c-0.2,0.4-1,0.7-2.4,0.9c-1.4,0.3-2.9,0.5-4.5,0.6c-1.6,0.1-3.1,0.2-4.4,0.3
			c-0.7,0-1,0.1-1,0.4c0,0.1,0.1,0.3,0.2,0.5c0.1,0.5,0.5,0.9,1.2,1.2c0.7,0.2,2.1,0.4,4.2,0.5l6.4,0.2c0.2,0,0.4,0,0.4,0.1
			C334.9,549.6,334.9,549.8,334.9,550.1z M323.1,542.7c0.2,0,0.5,0,0.9,0c1.4,0,2.7-0.1,3.9-0.4c1.2-0.2,2-0.6,2.4-1.1
			c0.1-0.2,0.3-0.3,0.4-0.5c0.1-0.1,0.2-0.3,0.2-0.4c0-0.1,0.1-0.3,0.1-0.5c0-0.3,0-0.5-0.1-0.6c-0.1-0.2-0.2-0.4-0.3-0.6
			c-0.2-0.2-0.3-0.5-0.5-0.7c-0.1-0.2-0.3-0.3-0.6-0.5c-0.3-0.1-0.5-0.2-0.7-0.2c-2,0-3.6,0.1-4.6,0.4c-1,0.2-1.6,0.6-1.9,1
			c-0.3,0.5-0.4,1.1-0.4,1.9c0,0.3,0,0.7,0.1,1.1c0,0.2,0.1,0.4,0.2,0.6C322.4,542.6,322.7,542.7,323.1,542.7z"/>
		<path class="st0" d="M349,536.7c-0.9,0.2-1.9,0.5-3,0.9c-1.1,0.4-1.6,0.9-1.6,1.3c-0.1,1-0.1,1.8-0.2,2.5c0,0.7-0.1,1.8-0.2,3.5
			c-0.1,1.7-0.2,3.2-0.3,4.6c-0.1,1.4-0.2,2.5-0.2,3.4c0,0.2-0.1,0.3-0.2,0.4c-0.1,0-0.2,0.1-0.3,0.1h-3.2c-0.3,0-0.5-0.2-0.5-0.5
			l0.1-14.3l-0.2-4.2c0-0.3,0.1-0.6,0.2-0.7c0.2-0.1,0.3-0.1,0.4-0.1l4.7-0.4v0.6c0.5-0.1,1.2-0.3,2.2-0.4c0.9-0.2,1.7-0.3,2.4-0.3
			c0.1,0,0.2,0,0.3,0.1c0.1,0.1,0.2,0.3,0.2,0.6l-0.1,2.4C349.4,536.5,349.3,536.7,349,536.7z"/>
		<path class="st0" d="M352.1,535.3c0-0.4,0.2-0.7,0.7-1c0.5-0.2,0.9-0.4,1.3-0.4c1-0.1,2.4-0.2,4-0.3c1.6-0.1,3.2-0.1,4.6-0.1
			c0.8,0,1.5,0,2.2,0.1c0.7,0.1,1.2,0.2,1.6,0.3c0.2,0.1,0.4,0.3,0.6,0.6c0.3,0.3,0.4,0.8,0.4,1.5v10.7l-0.5,5.9
			c0,0.4-0.3,0.6-0.8,0.6c0,0-0.5,0-1.5,0c-1,0-2.5,0-4.5-0.1c-2,0-3.3,0-4,0c-0.7,0-1.3,0-1.8,0c-0.5,0-0.8-0.2-1-0.7
			s-0.2-0.8-0.2-1.2l-0.9-9.9L352.1,535.3z M359.4,548.3l2.2,0.5c0.2,0,0.4-0.1,0.6-0.2c0.2-0.1,0.3-0.2,0.3-0.3l0.8-4.4l0-5.4
			c-0.6-0.5-1.5-0.8-2.7-0.8c-0.6,0-1,0-1.2,0.1c-0.2,0.1-0.7,0.3-1.4,0.6c-0.2,0.1-0.5,0.4-0.9,0.7c-0.4,0.4-0.5,0.9-0.5,1.5
			c0,0.2,0,0.4,0.1,0.6l1.1,5.8c0,0.3,0.1,0.5,0.3,0.6C358.3,547.9,358.7,548.1,359.4,548.3z"/>
		<path class="st0" d="M374.6,533.6h3.4l7.5,0.5c0.2,0,0.3,0.2,0.4,0.4c0.1,0.3,0.2,0.6,0.2,0.8l1,10.3l0.2,7.3c0,0.2,0,0.3-0.1,0.4
			c-0.1,0-0.2,0.1-0.2,0.1h-3.2c-0.1,0-0.2,0-0.3-0.1c-0.1-0.1-0.1-0.2-0.1-0.2l-2.3-13.4c0-0.2-0.1-0.3-0.1-0.4
			c0-0.1-0.1-0.1-0.1-0.1l-3.3-0.7c-0.3,0-0.5,0.1-0.5,0.3l-0.8,4.5l-0.6,9.5c0,0.1-0.1,0.2-0.2,0.3c-0.1,0.1-0.2,0.2-0.2,0.2
			c-0.2,0-0.6,0-1.4,0c-0.7,0-1.4,0-1.9,0.1c-0.1,0-0.2-0.1-0.2-0.1c0,0-0.1-0.1-0.1-0.1c0,0,0-0.1,0-0.3l0-12.3l0.2-6
			c0.1-0.1,0.2-0.3,0.3-0.5c0.1-0.2,0.3-0.3,0.4-0.3c0.2,0,0.5-0.1,0.8-0.1C373.7,533.7,374.1,533.6,374.6,533.6z"/>
		<path class="st0" d="M401.6,539.2c0.5-0.2,0.7-0.4,0.7-0.6c0-0.1-0.1-0.2-0.3-0.3c-0.2-0.1-0.3-0.1-0.4-0.1c0-0.1-0.5-0.2-1.5-0.4
			c-0.9-0.1-2-0.2-3.4-0.4c-1.3-0.1-2.4-0.2-3.2-0.3c-0.8-0.1-1.2-0.1-1.3-0.2c0-0.3,0.1-0.8,0.3-1.4c0.2-0.6,0.3-1.1,0.5-1.5
			c0-0.1,0.1-0.2,0.2-0.3c0.1-0.1,0.2-0.2,0.4-0.2c0.3,0,0.8,0,1.5-0.1c0.6,0,1.5,0,2.7,0c2.3,0,4.1,0.1,5.4,0.2h0.2
			c0.2,0,0.5,0,0.8,0.1c0.3,0.1,0.6,0.3,1,0.5c0.3,0.3,0.5,0.6,0.8,1.1c0.4,0.9,0.7,2,0.9,3.2c0.2,1.3,0.4,2.5,0.5,3.9
			c0.1,1.3,0.1,2.6,0.1,3.9c0,1.3,0,2.3,0,3c0,0.7-0.1,1.3-0.1,1.6c0,0.8-0.2,1.3-0.7,1.6c-0.5,0.3-0.9,0.5-1.3,0.5h-12.9
			c-0.5,0-0.9-0.1-1.2-0.2c-0.3-0.2-0.5-0.6-0.5-1.2c0.1-3.3,0.2-5.6,0.4-7.1c0.1-1.5,0.3-2.7,0.5-3.4c0.1-0.3,0.3-0.5,0.5-0.7
			c0.2-0.1,0.4-0.2,0.5-0.3l0.3-0.1c0.9-0.1,1.8-0.2,2.7-0.3c0.9-0.1,1.8-0.2,2.7-0.4c0.9-0.1,1.6-0.2,2.2-0.2
			C401,539.3,401.4,539.2,401.6,539.2z M396.1,544.8C396.1,544.8,396.1,544.8,396.1,544.8c-0.1-0.1-0.1-0.1-0.2-0.1
			c-0.4,0-0.6,1.3-0.7,4c0,0.5,0.2,0.7,0.7,0.7c2.1,0,3.8,0,5.1-0.1c0.5,0,1-0.2,1.3-0.6c0.3-0.3,0.4-0.7,0.4-1.1
			c-0.1-1.5-0.2-2.6-0.3-3c0-0.5-0.1-0.9-0.1-1.3c-1.7,0.1-2.8,0.1-3.4,0.2s-1.1,0.2-1.5,0.3c-0.2,0.1-0.5,0.2-0.8,0.3
			C396.3,544.4,396.1,544.6,396.1,544.8z"/>
	</g>
</g>
</svg>
