<?xml version="1.0" encoding="utf-8"?>
<!-- Generator: Adobe Illustrator 25.3.0, SVG Export Plug-In . SVG Version: 6.00 Build 0)  -->
<svg version="1.1" id="Layer_1" xmlns="http://www.w3.org/2000/svg" xmlns:xlink="http://www.w3.org/1999/xlink" x="0px" y="0px"
	 viewBox="0 0 192.6 120.8" style="enable-background:new 0 0 192.6 120.8;" xml:space="preserve">
<style type="text/css">
	.st0{fill:#FFFFFF;}
</style>
<g>
	<path class="st0" d="M66.7,67.3c0-1.7-0.1-3.4-0.1-5c-0.2-3.2-0.7-3.5-0.7-3.5c0.6-0.2,1.1-0.3,1.6-0.3c1.5,0,2.6,0.8,2.6,1.8
		c0,0.4-0.1,0.8-0.1,0.8l0.1,0c0.6-1.6,3-2.7,5.2-2.7c3.1,0,4.4,1.2,4.5,2.7l0.1,0c0.7-1.6,3.1-2.7,5.3-2.7c4.4,0,4.9,2.3,4.9,4.6
		c0,2.4-0.1,4.6-0.1,7.5c0,1.5,0,3.5,1.7,3.5c0.7,0,1.3-0.5,1.3-0.5l0.1,0.1c0,0-0.8,2.1-3.7,2.1c-1.5,0-3-0.7-3-2.7
		c0-2.9,0.1-4.9,0.1-8.3c0-2.2-0.1-4.3-2.8-4.3c-3,0-3.5,4.3-3.5,5.9c0,0.1,0.1,5.8,0.1,6c0,2.4-0.8,2.9-1.3,3.5
		c-1.2-0.2-2.4-0.3-2.4-2.6c0-2.9,0.1-5,0.1-8.4c0-2.2-0.1-4.3-2.9-4.3c-1.4,0-3.3,1.6-3.3,4.6c0,3,0.1,5.3,0.1,8.4
		c0,1.8-0.9,2.3-2.1,2.3c-0.7,0-1.6-0.2-2.4-0.3C66.1,75.4,66.7,73.3,66.7,67.3z"/>
	<path class="st0" d="M96.9,67.4c0-7.6-0.8-8.6-0.8-8.6c0.6-0.2,1.1-0.3,1.6-0.3c1.5,0,2.8,0.8,2.8,2.1c0,3.5-0.2,7.5-0.2,10
		c0,1.5,0,3.5,1.7,3.5c0.7,0,1.3-0.5,1.3-0.5l0.1,0.1c0,0-0.8,2.1-3.7,2.1c-1.5,0-3-0.7-3-2.7C96.8,71.2,96.9,69.3,96.9,67.4z
		 M96.4,53.4c0-1.2,1-2.3,2.2-2.3c1.2,0,2.3,1,2.3,2.3c0,1.2-1,2.2-2.3,2.2C97.4,55.7,96.4,54.6,96.4,53.4z"/>
	<path class="st0" d="M115.7,58.3c1.4,0,5.4,0.6,5.4,2.4c0,0.7-0.6,1.6-1.2,2.2h-0.2c0,0-1.9-3-4.8-3c-3.3,0-4.5,3.7-4.5,6.5
		c0,3.9,2.2,7.1,5.6,7.1c2.6,0,5.4-2.2,5.4-2.2l0.1,0.1c0,0-1.4,4.5-6.9,4.5c-4.4,0-8-3.6-8-8.3C106.7,62.6,110.3,58.3,115.7,58.3z"
		/>
	<path class="st0" d="M126.6,66.3v-6c0-3.1-0.1-9.3-0.7-10l0.1-0.1c4.2,0,4.4,1.5,4.4,5.5c0,1.8-0.1,3.8-0.4,5.6l0.1,0
		c0.8-1.7,3.4-2.9,5.8-2.9c4.4,0,4.9,2.3,4.9,4.6c0,2.5-0.1,4.7-0.1,7.7c0,1.5,0,3.5,1.7,3.5c0.7,0,1.3-0.5,1.3-0.5l0.1,0.1
		c0,0-0.8,2.1-3.7,2.1c-1.5,0-3-0.7-3-2.7c0-2.9,0.1-5,0.1-8.4c0-2.2-0.1-4.3-2.9-4.3c-1.8,0-4,1.6-4,4.8c0,3,0.1,5.3,0.1,8.4
		c0,1.8-0.9,2.3-2.1,2.3c-0.7,0-1.6-0.2-2.4-0.3C125.8,75.5,126.6,74.7,126.6,66.3z"/>
	<path class="st0" d="M155.7,65.2v-0.3c0-2.8-0.6-4.4-3.2-4.4c-1.6,0-3.4,0.9-4.6,2l-0.1-0.1c0.5-2,3.2-4.1,6.2-4.1
		c4.7,0,5.4,2.8,5.4,5.9c0,1.8-0.1,4-0.1,5.8v0.4c0,1.3,0,3.7,1.7,3.7c0.7,0,1.3-0.5,1.3-0.5l0.1,0.1c0,0-0.8,2.1-3.7,2.1
		c-1.4,0-2.8-0.6-2.8-2.3l-0.1-0.1c-0.8,1.4-2.4,2.6-4.5,2.6c-2.8,0-4.4-2-4.4-4.5C146.6,66.7,152.1,65.3,155.7,65.2z M152.6,73.6
		c1.1,0,3-1,3-2.3c0-1.3,0.1-3.1,0.1-4.8c-1.4,0.2-5.3,0.8-5.3,4.4C150.4,72.9,151.5,73.6,152.6,73.6z"/>
	<path class="st0" d="M172.4,58.3c4.4,0,6.1,2.5,6.1,4.8c0,3.3-3.5,4.5-6.4,4.5c-1.9,0-3.7-0.9-3.7-0.9l-0.1,0.1
		c0,4,1.9,6.7,5.3,6.7c2.7,0,5.2-1.9,5.2-1.9l0.2,0.2c0,0-1.1,4.2-6.7,4.2c-4.5,0-7.8-3.5-7.8-8.4C164.6,63,167.6,58.3,172.4,58.3z
		 M171.5,66c1.5,0,3.1-0.8,3.1-2.9c0-1.6-0.7-3.2-2.6-3.2c-2.4,0-3.6,4-3.6,5.3C168.4,65.4,170.1,66,171.5,66z"/>
	<path class="st0" d="M183.9,62.3c0-3.1-0.1-6.1-0.2-8.3c-0.2-3.1-0.6-3.7-0.6-3.7l0.1-0.1c2.2,0,4.3,0.4,4.3,2.5
		c0,3.4-0.1,6.9-0.1,10.4c0,3,0,6,0.1,8.9c0,1.1,0.3,2.2,1.5,2.2c0.7,0,1.3-0.5,1.3-0.5l0.1,0.1c0,0-0.8,2.1-3.7,2.1
		c-1.5,0-3-0.7-3-2.9C183.7,70.2,183.9,66.1,183.9,62.3z"/>
</g>
<g>
	<defs>
		<path id="SVGID_1_" d="M1.3,85.7c0.1,0,0.2-0.1,0.5-0.3L1.3,85.7z M16.8,70.5c-0.3,0.3-0.5,0.5,0.3-0.3c0,0,0,0,0,0
			C17,70.2,16.9,70.3,16.8,70.5 M28.8,58c-0.2,0.2-0.1,0.4,0.4-0.2c0,0,0,0,0,0C29,57.8,28.8,57.9,28.8,58 M24.2,56.2
			c0.3,0.2,0.4,0.1,0.3,0c0,0-0.1-0.1-0.1-0.1C24.3,56.1,24.3,56.2,24.2,56.2 M50.9,33.2c0.2,0.1,0.2,0.1,0.2,0
			C51,33.2,51,33.1,50.9,33.2C50.9,33.1,50.9,33.1,50.9,33.2 M13.2,73.9c1.2-1.3,2.4-2.6,3.6-3.9c0.1,0.1,0.2,0.1,0.2,0.2
			c-1.2,1.3-2.5,2.5-3.7,3.8C13.4,74,13.3,73.9,13.2,73.9 M29.2,57.8c-1.1,1.3,0.1,1.4,1,2.2c-0.1,0.1-0.1,0.1-0.2,0.2
			c-0.7-0.4-1.3-0.8-2-1.2c0,0.1-0.1,0.1-0.1,0.2c0.1,0.1,0.2,0.3,0.3,0.5c-2.7-0.5-5.9,6.1-8.5,7.3C22.1,64.2,25.2,57.5,29.2,57.8
			 M24.2,56.2c0.4-0.2,0.8-0.4,1.2-0.7c0.1,0.1,0.1,0.1,0.2,0.2c-0.1,0.1-0.2,0.3-0.2,0.3c0.4,0.4,0.8,0.7,1.1,1c0,0,0,0.1-0.1,0.1
			C25.6,57.1,24.8,56.7,24.2,56.2L24.2,56.2 M51.9,30.2c1-0.6,1.2,0.6,1.5,1.2c-0.1,0-0.3,0-0.7,0.1c0.5,0.4,0.9,0.7,1.5,1.2h-1.3
			c0.7,0.4,1.3,0.7,2,1.1c-0.8,0.5-1.4,0.9-1.9,1.3c-0.7,0.6,0.3,1.3,0.6,1.8c-1.7,1.2-3.2,2.4-4.9,3.6c0.3-3.2,5.9-4.3,2.2-7.2
			c0.1-0.2,0.3-0.4,0.4-0.7c-0.1,0-0.1-0.1-0.2-0.1c-0.1,0.1-0.2,0.3-0.3,0.5C50.5,31.7,50.9,30.8,51.9,30.2 M42.8,19.6
			c-6.6,0.8-11,10.1-13.9,15.1C22.6,45.9,17.2,57.5,6.6,66.6c3.6-0.1,6.5-3.1,9.4-3.5c2.1-0.3,5.2-3.7,5.6-5.7
			c-1.8,1.7-3.4,3.2-5.1,4.7c-0.1,0-0.1-0.1-0.2-0.1c1.2-1.9,2.4-3.7,3.6-5.6c-0.1,0-0.1-0.1-0.2-0.1c-1.7,1.8-3.8,3.8-5.8,5.1
			c0.2-2.1,4.1-6,5.7-7.6c2.9-3,6-8,7.9-10.6c2.7-3.9,7.2-14.9,13.3-17.5c3.1-1.4,8.5,0.3,9.5,2.9c0.5,1.5-1.6,2.7-0.7,4.4
			c0.6,0.5,1,1.2,1.3,1.9c-0.6,2.4-3.4,1.8-5.3,2.5c-2.2,0.8-4.2,4.3-5.5,6c-2.3,3-7.5,13-11.9,13.1c-0.5,0-1,0.1-1.2-0.4
			c-0.2-0.3-0.1-0.8-0.1-1.3c-1-0.9-3,0.6-3.2,1.5c-0.2,1,1.2,1.4,1.8,1.6C26.2,58.2,15.3,70.6,14,72c-0.9,1-9.9,11.2-12.2,13.3
			l2-1.3c4.1-4.3,8.4-8.4,12.5-12.7c3.1-3.3,9.2-7.9,11.7-11.4c0.6,0.5,1.2,0.9,1.8,1.3c2,1.3,3.7-2.6,0.4-2.7
			c-0.1,0-0.1,0.1-0.2,0.1c0.2,0.1,0.4,0.2,0.5,0.3c-0.1,0.1-0.1,0.1-0.2,0.2c-0.3-0.3-0.6-0.7-0.9-0.9c3.3-3.9,6.5-7.8,9.8-11.7
			c1.4-1.7,5.4-8.9,8.2-8.3c0.8,0.2-0.2,3.9-0.1,4.5c2.2-0.9,4.4-5.4,7.2-5.2c2.5,0.2,2.6,1.8,2.9,3.8c0.1,0,0.2,0,0.3,0
			c1.9-3-1.1-4.1-3.3-5c0.1-0.1,0.2-0.2,0.3-0.3c-0.2,0-0.3-0.1-0.7-0.2c3.5-2.6-0.4-2.2,1-4c1.8-2.3,4.4-3.5,7.4-3.4
			c6,0.3,4.4,8.9,2.4,12.3c-4.2,7-7.1,17.4-7.3,21.6c-0.1,1.4,0.1,3.7,0.3,4.9c0.3,3.4,0.8,6.6,1.5,9.9c-2.3-1.9-2.4-6.3-2.8-8.9
			c-0.1,0-0.2,0-0.2,0c0,1.9,0.4,4.1-0.3,5.8c-0.2-0.1-0.2-0.4-0.3-0.5c0-0.2-0.1-0.3-0.1-0.4c0,0,0,0,0,0c0-0.1,0-0.1,0,0
			c-0.5-0.9-1.4-10.7-1.1-12.4c-0.1,0-0.2,0-0.3-0.1c-0.5,2-1.1,4.1-1.6,6.1c-0.1,0-0.2,0-0.2,0c-0.8-2.8,0-5.7-1.2-8.4
			c-1.7,1.9-0.8,8.2,1,9.7c0.6,0.5,0.7-0.4,0.7-0.7c0.1,0,0.1,0,0.2,0c1.1,3.3,1.3,6.2,3.4,9.3c0.1,0,0.2-0.1,0.3-0.1
			c0.2-0.4,0.3-0.9,0.5-1.3c0.1,0,0.1,0,0.2,0c0.8,1.3,1.2,2.3,2.7,2.7c0.5,0.2,0.9-0.6,1.3-0.8c-5.3-12.2,0.7-23.7,6.1-34.7
			c2.6-5.3,6.8-14.4,2.5-18c-5.5-4.5-12.7,1.7-15.8,5.1c-0.1-1-0.7-1.7-1.9-1.9c-0.6-3.9-3.5-8.2-8.3-8.2
			C43.4,19.5,43.1,19.5,42.8,19.6"/>
	</defs>
	<use xlink:href="#SVGID_1_"  style="overflow:visible;fill:#FFFFFF;"/>
	<clipPath id="SVGID_2_">
		<use xlink:href="#SVGID_1_"  style="overflow:visible;"/>
	</clipPath>
</g>
<g>
	<path class="st0" d="M3.4,88.3L3.2,90c0.1,0.1,0.8,0.4,2.1,1c1.3,0.5,2.1,1,2.3,1.4c0.1,0.1,0.1,0.3,0.1,0.6c0,0.8-0.2,1.8-0.5,2.8
		c0,0-0.1,0.2-0.5,0.7c-0.8,0.2-1.7,0.4-2.9,0.4c-0.8,0-1.6-0.1-2.3-0.2l-0.1-1c0.3,0.1,0.7,0.1,1.1,0.1c1.2,0,2.2-0.3,3-0.8
		c0.1,0,0.1-0.2,0.1-0.4c0-0.3-0.1-0.8-0.2-1.5c-0.1-0.1-0.8-0.4-2-0.9c-1.2-0.5-1.8-0.9-1.9-1.1c-0.2-0.3-0.2-1-0.2-2.2
		c0-0.7,0-1.2,0.1-1.3L1.9,87c0.1-0.2,0.7-0.3,1.7-0.3c1,0,2.2,0.1,3.6,0.2l-0.3,1.1c0,0-0.2,0-0.6,0c-0.5,0-0.8,0-1.1,0
		C4.3,88,3.7,88.1,3.4,88.3z"/>
	<path class="st0" d="M16,88.3c-0.7-0.1-1.3-0.2-1.8-0.2c-0.7,0-1.2,0.1-1.7,0.3c-0.6,0.3-0.9,0.7-1,1.3c0,0.4,0,0.8,0,1.2
		c0,1.6,0.2,3,0.5,4c0.1,0.3,0.4,0.6,0.8,0.7c0.4,0.2,0.7,0.2,1.1,0.2c0.3,0,0.7,0,1.1-0.1c0.6-0.1,1-0.1,1.1-0.2l-0.3,1.1L13.4,97
		c-0.5-0.1-0.9-0.1-1.2-0.2c-0.8-0.2-1.3-0.3-1.5-0.5c-0.3-0.4-0.6-1.1-0.8-2c-0.3-1-0.4-2.2-0.5-3.5c0-0.3,0.1-0.6,0.2-0.9
		c0.1-0.7,0.3-1.3,0.5-1.7c0.2-0.2,0.3-0.4,0.5-0.5c0.4-0.3,0.7-0.6,1-0.6c0.4-0.1,1-0.2,1.8-0.2c1.4,0,2.4,0.1,3.1,0.3L16,88.3z"/>
	<path class="st0" d="M25.6,94.3c-0.2,0.4-0.3,0.8-0.5,1.1c-0.4,0.8-0.9,1.2-1.3,1.4c-0.3,0.1-1,0.2-1.9,0.2c-1.1,0-1.9-0.1-2.2-0.3
		c-0.3-0.2-0.6-0.7-0.9-1.6c-0.3-0.9-0.4-1.5-0.4-1.8c0-0.7,0-1.7-0.1-3.1c-0.1-1.3-0.1-2.4-0.1-3.1l2.1-0.2c0,0.7,0,2,0,4
		c0,2,0.1,3.2,0.1,3.4c0.1,0.4,0.2,0.6,0.3,0.8c0.2,0.3,0.6,0.5,1.2,0.5c0.3,0,0.5,0,0.8-0.1c0.3-0.1,0.5-0.2,0.5-0.3
		c0.3-0.7,0.5-1.4,0.6-2.3c0.1-0.5,0.1-1.2,0.1-2.2c0-0.4,0-1,0.1-1.9c0.1-0.8,0.1-1.4,0.1-1.9l2.3-0.1L25.6,94.3z"/>
	<path class="st0" d="M34.7,96.3c-0.2,0.2-0.9,0.4-1.9,0.7c-0.4,0-0.7,0-1-0.1c-0.7-0.1-1.1-0.1-1.3-0.3c-0.7-0.6-1.1-1.2-1.4-1.8
		c-0.2-0.4-0.4-1.2-0.6-2.4c-0.1-1.7-0.2-2.7-0.1-3c0.2-0.6,0.4-1.1,0.6-1.5c0.3-0.5,0.7-0.8,1.3-1c0.7-0.2,1.5-0.4,2.3-0.4
		c1.3,0,2.2,0.2,2.8,0.7c0.4,0.3,0.7,0.7,0.9,1.2c0.2,0.4,0.2,1,0.2,1.8c0,0.4,0,1-0.1,1.8c0,0.5-0.2,1.2-0.6,2.1
		C35.4,95.3,35,96,34.7,96.3z M33.9,88.4c-0.2-0.1-0.9-0.2-2.2-0.3c-0.2,0-0.5,0.2-0.8,0.5c-0.3,0.3-0.5,0.5-0.5,0.7
		c0,0.6,0,1.3-0.1,1.9c0,0.9,0,1.5,0,1.9c0.1,0.6,0.4,1.2,0.8,1.8c0.1,0.2,0.6,0.2,1.4,0.2c0.4,0,0.8,0,1-0.1
		c0.2-0.1,0.3-0.6,0.6-1.6c0.2-1.1,0.4-2.1,0.4-3C34.6,89.3,34.4,88.7,33.9,88.4z"/>
	<path class="st0" d="M39.2,97c0-0.1,0-1,0.1-2.5c0-1,0-2.3-0.1-3.8c-0.1-2.3-0.1-3.6-0.1-3.8l2.6-0.2c-0.1,0.5-0.2,1.3-0.3,2.4
		c-0.1,1.8-0.2,3.9-0.3,6.3l3.6,0.2l-0.2,1L39.2,97z"/>
	<path class="st0" d="M47.3,96.9l-1.5,0c0.2-1,0.3-2,0.5-2.8c0.4-2,0.6-3.3,0.9-4c0.2-0.5,0.4-1.1,0.5-1.6c0.1-0.4,0.4-0.9,0.7-1.6
		l3.3-0.2c0.9,3,1.5,5.5,1.9,7.5l0,2.8l-1.7-0.2l-0.2-1.9L49,95.1l-1.1-0.3L47.3,96.9z M51.3,93.6c0-0.2,0-0.4,0-0.5
		c0-0.3-0.1-1.2-0.4-2.5c-0.3-1.4-0.5-2.1-0.6-2.3l-1.2,0.1c-0.6,1.7-0.8,2.9-0.8,3.6l-0.1,1.8L51.3,93.6z"/>
	<path class="st0" d="M63.3,88.3L63,90c0.1,0.1,0.8,0.4,2.1,1c1.3,0.5,2.1,1,2.3,1.4c0.1,0.1,0.1,0.3,0.1,0.6c0,0.8-0.2,1.8-0.5,2.8
		c0,0-0.1,0.2-0.5,0.7c-0.8,0.2-1.7,0.4-2.9,0.4c-0.8,0-1.6-0.1-2.3-0.2l-0.1-1c0.3,0.1,0.7,0.1,1.1,0.1c1.2,0,2.2-0.3,3-0.8
		c0.1,0,0.1-0.2,0.1-0.4c0-0.3-0.1-0.8-0.2-1.5c-0.1-0.1-0.8-0.4-2-0.9c-1.2-0.5-1.8-0.9-1.9-1.1c-0.2-0.3-0.2-1-0.2-2.2
		c0-0.7,0-1.2,0.1-1.3l0.5-0.6c0.1-0.2,0.7-0.3,1.7-0.3c1,0,2.2,0.1,3.6,0.2l-0.3,1.1c0,0-0.2,0-0.6,0c-0.5,0-0.8,0-1.1,0
		C64.1,88,63.5,88.1,63.3,88.3z"/>
	<path class="st0" d="M75.6,88l-2.3,0.4L73,88.7c0,1.8-0.1,4.5-0.2,8l-1.6,0.3c0-0.3,0-0.7,0-1.1c0-0.5,0-1.3-0.1-2.5
		c-0.1-1.1-0.1-1.9-0.1-2.5c0-0.5-0.1-1.3-0.2-2.4l-0.4-0.2l-2-0.3l0.2-1l1.9-0.1c0.9,0,2.5-0.1,4.8-0.1L75.6,88z"/>
	<path class="st0" d="M82.9,92.5l-3.3,0.3c0,0.5,0,0.9,0,1.2c0.1,0.8,0.1,1.3,0.3,1.4c0.2,0.2,1.3,0.2,3.5,0.2l-0.2,1
		c-2,0.2-3.5,0.3-4.4,0.3c-0.5,0-0.8,0-0.8-0.1c-0.2-0.2-0.3-1.4-0.3-3.6l-0.1-2.5c-0.1-2.2,0-3.5,0.2-3.7c0.2-0.2,2.1-0.3,5.7-0.4
		l-0.2,1.1c-0.6,0-1.1,0.1-1.5,0.1c-1,0.1-1.6,0.2-1.8,0.4c-0.2,0.2-0.2,1.1-0.2,2.8l0.2,0.3l3.2,0.1L82.9,92.5z"/>
	<path class="st0" d="M87.9,96.8l-1.5,0.1L86,89.5c0-0.5-0.1-1.3-0.1-2.4l2.5-0.2c-0.1,1.7-0.2,3.4-0.3,5
		C88,93.8,87.9,95.4,87.9,96.8z"/>
	<path class="st0" d="M98.7,96.6l-1.5,0.4c-1.1-3.2-2.2-5.8-3.5-7.7l-0.5,0.2c-0.1,1.9-0.2,4.3-0.2,7.3L91.6,97l-0.4-7.9l0.3-2
		l2.7-0.2c0.9,1.5,1.5,2.6,1.9,3.2c0.7,1.2,1.1,2.3,1.4,3.2l-0.1-5.6l0.1-0.9l2.1-0.1c-0.2,1.3-0.3,2.5-0.4,3.7
		C98.9,93.2,98.7,95.2,98.7,96.6z"/>
	<path class="st0" d="M107.6,92.5l-3.3,0.3c0,0.5,0,0.9,0,1.2c0.1,0.8,0.1,1.3,0.3,1.4c0.2,0.2,1.3,0.2,3.5,0.2l-0.2,1
		c-2,0.2-3.5,0.3-4.4,0.3c-0.5,0-0.8,0-0.8-0.1c-0.2-0.2-0.3-1.4-0.3-3.6l-0.1-2.5c-0.1-2.2,0-3.5,0.2-3.7c0.2-0.2,2.1-0.3,5.7-0.4
		l-0.2,1.1c-0.6,0-1.1,0.1-1.5,0.1c-1,0.1-1.6,0.2-1.8,0.4c-0.2,0.2-0.2,1.1-0.2,2.8l0.2,0.3l3.2,0.1L107.6,92.5z"/>
	<path class="st0" d="M117.1,97.3c-0.5-0.5-1.7-1.8-3.5-4l-1,0.2c0,1.4,0,2.5,0,3.1l-2.1,0.2c0.1-0.8,0.1-2,0.1-3.7l0-1.2l-0.1-5
		l2.5-0.2c0.8,0.1,1.7,0.1,2.8,0.2l1,0.8c0.4,2,0.5,3.1,0.5,3.3c-0.3,0.3-0.6,0.7-0.9,1c-0.4,0.4-0.6,0.6-0.9,0.7
		c0.5,0.9,1.5,2.3,2.9,4.1L117.1,97.3z M115,88.1l-2.6,0.2c0.1,1.3,0.1,2.6,0.2,4c0.7-0.2,1.3-0.4,1.8-0.7l0.9-0.8L115,88.1z"/>
	<path class="st0" d="M135,91l-0.9,5.7l-2.3,0.2c-0.3-0.6-0.7-1.5-0.9-2.5c-0.3-1.2-0.6-2.5-0.9-3.7l-0.2,0.3
		c-0.1,0.7-0.3,1.4-0.4,2.1c-0.4,1.6-0.7,2.8-1,3.8l-2.5,0.1c-0.7-4.3-1.2-7.6-1.3-10l1.6-0.1l0.6,0.6c0.1,1.9,0.2,4.4,0.4,7.7
		l0.3-0.2l1.7-6.6l1.9-0.2c0.3,0.7,0.5,1.5,0.7,2.6c0.1,0.4,0.3,1.8,0.7,4.1l0.5-0.5l0.5-5c0.1-0.6,0.1-1.4,0.1-2.3l2.1-0.2
		c0,0.9-0.1,1.7-0.4,2.6C135.1,90.3,135,90.9,135,91z"/>
	<path class="st0" d="M138.9,96.9l-1.5,0c0.2-1,0.3-2,0.5-2.8c0.4-2,0.6-3.3,0.9-4c0.2-0.5,0.4-1.1,0.5-1.6c0.1-0.4,0.4-0.9,0.7-1.6
		l3.3-0.2c0.9,3,1.5,5.5,1.9,7.5l0,2.8l-1.7-0.2l-0.2-1.9l-2.5,0.2l-1.1-0.3L138.9,96.9z M142.9,93.6c0-0.2,0-0.4,0-0.5
		c0-0.3-0.1-1.2-0.4-2.5c-0.3-1.4-0.5-2.1-0.6-2.3l-1.2,0.1c-0.6,1.7-0.8,2.9-0.8,3.6l-0.1,1.8L142.9,93.6z"/>
	<path class="st0" d="M147.8,97c0-0.1,0-1,0.1-2.5c0-1,0-2.3-0.1-3.8c-0.1-2.3-0.1-3.6-0.1-3.8l2.6-0.2c-0.1,0.5-0.2,1.3-0.3,2.4
		c-0.1,1.8-0.2,3.9-0.3,6.3l3.6,0.2l-0.2,1L147.8,97z"/>
	<path class="st0" d="M160.9,96.2c-0.2,0.2-0.7,0.4-1.3,0.5c-0.5,0.1-1,0.2-1.4,0.2c-0.5,0-1.4,0-2.9-0.1c-0.1-1.3-0.2-3.3-0.3-5.8
		c0-0.9-0.1-2.2-0.1-4.1l3.7-0.2c0.1,0,0.6,0.1,1.3,0.2c0.9,0.2,1.5,0.4,1.7,0.6c0.2,0.3,0.4,0.6,0.6,0.9c0.2,0.4,0.3,0.9,0.3,1.5
		C162.4,93.1,161.9,95.2,160.9,96.2z M160.3,89l-1.3-0.8l-1.8,0.1l-0.1,1.4c0,0.7,0,2.8,0,6.1l0.9,0l1.8-0.6
		c0.4-1.2,0.6-2.9,0.6-5.1C160.4,89.6,160.4,89.3,160.3,89z"/>
	<path class="st0" d="M170.8,96.3c-0.2,0.2-0.9,0.4-1.9,0.7c-0.4,0-0.7,0-1-0.1c-0.7-0.1-1.1-0.1-1.3-0.3c-0.7-0.6-1.1-1.2-1.4-1.8
		c-0.2-0.4-0.4-1.2-0.6-2.4c-0.1-1.7-0.2-2.7-0.1-3c0.2-0.6,0.4-1.1,0.6-1.5c0.3-0.5,0.7-0.8,1.3-1c0.7-0.2,1.5-0.4,2.3-0.4
		c1.3,0,2.2,0.2,2.8,0.7c0.4,0.3,0.7,0.7,0.9,1.2c0.2,0.4,0.2,1,0.2,1.8c0,0.4,0,1-0.1,1.8c0,0.5-0.2,1.2-0.6,2.1
		C171.6,95.3,171.2,96,170.8,96.3z M170.1,88.4c-0.2-0.1-0.9-0.2-2.2-0.3c-0.2,0-0.5,0.2-0.8,0.5c-0.3,0.3-0.5,0.5-0.5,0.7
		c0,0.6,0,1.3-0.1,1.9c0,0.9,0,1.5,0,1.9c0.1,0.6,0.4,1.2,0.8,1.8c0.1,0.2,0.6,0.2,1.4,0.2c0.4,0,0.8,0,1-0.1
		c0.2-0.1,0.3-0.6,0.6-1.6c0.2-1.1,0.4-2.1,0.4-3C170.7,89.3,170.5,88.7,170.1,88.4z"/>
	<path class="st0" d="M181.8,97.3c-0.5-0.5-1.7-1.8-3.5-4l-1,0.2c0,1.4,0,2.5,0,3.1l-2.1,0.2c0.1-0.8,0.1-2,0.1-3.7l0-1.2l-0.1-5
		l2.5-0.2c0.8,0.1,1.7,0.1,2.8,0.2l1,0.8c0.4,2,0.5,3.1,0.5,3.3c-0.3,0.3-0.6,0.7-0.9,1c-0.4,0.4-0.6,0.6-0.9,0.7
		c0.5,0.9,1.5,2.3,2.9,4.1L181.8,97.3z M179.6,88.1l-2.6,0.2c0.1,1.3,0.1,2.6,0.2,4c0.7-0.2,1.3-0.4,1.8-0.7l0.9-0.8L179.6,88.1z"/>
	<path class="st0" d="M190.1,92.5l-3.4,0.3l-0.1,4l-1.7,0.2c0-1.4-0.1-3.7-0.3-6.9l-0.1-2.5l0.3-0.6l5.7-0.2l-0.5,1l-3,0.4l-0.4,0.3
		c0,0.4,0,0.8-0.1,1.2c0,0.6,0,1.1,0,1.5l3.6,0L190.1,92.5z"/>
</g>
</svg>
