<?xml version="1.0" encoding="utf-8"?>
<!-- Generator: Adobe Illustrator 16.0.0, SVG Export Plug-In . SVG Version: 6.00 Build 0)  -->
<!DOCTYPE svg PUBLIC "-//W3C//DTD SVG 1.1//EN" "http://www.w3.org/Graphics/SVG/1.1/DTD/svg11.dtd">
<svg version="1.1" id="Layer_1" xmlns="http://www.w3.org/2000/svg" xmlns:xlink="http://www.w3.org/1999/xlink" x="0px" y="0px"
	 width="1000px" height="1000px" viewBox="0 0 1000 1000" enable-background="new 0 0 1000 1000" xml:space="preserve">
<g>
	<path fill="#FFFFFF" d="M787.422,604.156c-54.869,0-99.508-44.639-99.508-99.508s44.639-99.509,99.508-99.509
		s99.508,44.64,99.508,99.509S842.291,604.156,787.422,604.156z M787.422,445.14c-32.812,0-59.508,26.695-59.508,59.509
		c0,32.812,26.695,59.508,59.508,59.508s59.508-26.695,59.508-59.508C846.93,471.835,820.234,445.14,787.422,445.14z"/>
	<path fill="#FFFFFF" d="M921.332,794.858c-11.046,0-20-8.954-20-20c0-3.021-0.091-6.082-0.27-9.097
		c-1.708-28.702-11.886-56.566-28.658-78.455c-16.312-21.284-38.59-36.621-62.728-43.183c-24.975-6.79-51.705-4.343-75.261,6.894
		c-22.91,10.931-42.684,30.116-55.678,54.021c-5.275,9.705-17.419,13.296-27.123,8.021c-9.705-5.275-13.296-17.419-8.021-27.123
		c16.993-31.263,43.131-56.485,73.599-71.021c32.191-15.358,68.762-18.693,102.979-9.392c32.544,8.848,62.37,29.251,83.982,57.452
		c21.578,28.16,34.661,63.82,36.839,100.412c0.226,3.804,0.34,7.661,0.34,11.47C941.332,785.904,932.378,794.858,921.332,794.858z"
		/>
</g>
<g>
	<path fill="#FFFFFF" d="M508.93,596.817c-75.176,0-136.336-61.16-136.336-136.336c0-75.176,61.16-136.336,136.336-136.336
		s136.336,61.16,136.336,136.336C645.266,535.657,584.105,596.817,508.93,596.817z M508.93,364.145
		c-53.12,0-96.336,43.216-96.336,96.336s43.216,96.336,96.336,96.336c53.12,0,96.336-43.216,96.336-96.336
		S562.05,364.145,508.93,364.145z"/>
	<path fill="#FFFFFF" d="M704.87,875.855c-11.046,0-20-8.954-20-20c0-113.635-82.932-206.084-184.869-206.084
		s-184.87,92.449-184.87,206.084c0,11.046-8.954,20-20,20s-20-8.954-20-20c0-65.363,23.15-126.907,65.186-173.295
		c42.535-46.938,99.245-72.789,159.685-72.789c60.44,0,117.15,25.851,159.685,72.789c42.035,46.388,65.185,107.932,65.185,173.295
		C724.87,866.901,715.916,875.855,704.87,875.855z"/>
</g>
<g>
	<path fill="#FFFFFF" d="M212.578,604.156c-54.869,0-99.508-44.639-99.508-99.508s44.639-99.509,99.508-99.509
		c54.869,0,99.508,44.64,99.508,99.509S267.447,604.156,212.578,604.156z M212.578,445.14c-32.813,0-59.508,26.695-59.508,59.509
		c0,32.812,26.695,59.508,59.508,59.508c32.812,0,59.508-26.695,59.508-59.508C272.086,471.835,245.391,445.14,212.578,445.14z"/>
	<path fill="#FFFFFF" d="M78.667,794.858c-11.046,0-20-8.954-20-20c0-3.803,0.114-7.661,0.34-11.466
		c2.179-36.597,15.262-72.256,36.838-100.414c21.613-28.203,51.438-48.606,83.984-57.454c34.217-9.303,70.787-5.967,102.977,9.392
		c30.466,14.534,56.604,39.757,73.599,71.021c5.275,9.705,1.685,21.849-8.02,27.123c-9.704,5.275-21.848,1.686-27.124-8.02
		c-12.996-23.907-32.77-43.093-55.679-54.022c-23.553-11.235-50.282-13.687-75.261-6.894c-24.138,6.562-46.415,21.898-62.727,43.184
		c-16.771,21.888-26.949,49.752-28.659,78.458c-0.179,3.016-0.27,6.076-0.27,9.093C98.667,785.904,89.713,794.858,78.667,794.858z"
		/>
</g>
<path fill="#FFFFFF" d="M967.5,40.059h-935c-11.34,0-20.532,9.192-20.532,20.532v599.782c0,11.34,9.192,20.532,20.532,20.532H124
	v-41.064H53.032V81.123h893.936v558.718H876v41.064h91.5c11.34,0,20.532-9.192,20.532-20.532V60.591
	C988.032,49.251,978.84,40.059,967.5,40.059z"/>
</svg>
