<?xml version="1.0" encoding="utf-8"?>
<!-- Generator: Adobe Illustrator 16.0.0, SVG Export Plug-In . SVG Version: 6.00 Build 0)  -->
<!DOCTYPE svg PUBLIC "-//W3C//DTD SVG 1.1//EN" "http://www.w3.org/Graphics/SVG/1.1/DTD/svg11.dtd">
<svg version="1.1" id="Layer_1" xmlns="http://www.w3.org/2000/svg" xmlns:xlink="http://www.w3.org/1999/xlink" x="0px" y="0px"
	 width="1000px" height="1000px" viewBox="0 0 1000 1000" enable-background="new 0 0 1000 1000" xml:space="preserve">
<g>
	<path fill="#FFFFFF" d="M787.422,484.156c-54.869,0-99.508-44.639-99.508-99.508c0-54.869,44.639-99.508,99.508-99.508
		s99.508,44.639,99.508,99.508C886.93,439.517,842.291,484.156,787.422,484.156z M787.422,325.14
		c-32.812,0-59.508,26.695-59.508,59.508c0,32.813,26.695,59.508,59.508,59.508s59.508-26.695,59.508-59.508
		C846.93,351.835,820.234,325.14,787.422,325.14z"/>
	<path fill="#FFFFFF" d="M921.332,674.858c-11.046,0-20-8.954-20-20c0-3.021-0.091-6.082-0.27-9.097
		c-1.708-28.703-11.886-56.567-28.658-78.456c-16.312-21.284-38.59-36.62-62.728-43.182c-24.978-6.792-51.707-4.343-75.261,6.894
		c-22.91,10.93-42.684,30.115-55.678,54.021c-5.275,9.706-17.419,13.296-27.123,8.021c-9.705-5.275-13.296-17.419-8.021-27.123
		c16.994-31.265,43.132-56.487,73.6-71.022c32.193-15.357,68.765-18.692,102.978-9.391c32.544,8.847,62.369,29.25,83.982,57.451
		c21.578,28.16,34.661,63.821,36.839,100.413c0.226,3.804,0.34,7.661,0.34,11.47C941.332,665.904,932.378,674.858,921.332,674.858z"
		/>
</g>
<g>
	<path fill="#FFFFFF" d="M508.93,476.817c-75.176,0-136.336-61.16-136.336-136.336c0-75.176,61.16-136.336,136.336-136.336
		s136.336,61.16,136.336,136.336C645.266,415.657,584.105,476.817,508.93,476.817z M508.93,244.145
		c-53.12,0-96.336,43.216-96.336,96.336c0,53.12,43.216,96.336,96.336,96.336c53.12,0,96.336-43.216,96.336-96.336
		C605.266,287.361,562.05,244.145,508.93,244.145z"/>
	<path fill="#FFFFFF" d="M704.87,755.855c-11.046,0-20-8.954-20-20c0-113.635-82.932-206.084-184.869-206.084
		s-184.87,92.449-184.87,206.084c0,11.046-8.954,20-20,20s-20-8.954-20-20c0-65.363,23.15-126.907,65.186-173.295
		c42.535-46.938,99.245-72.789,159.684-72.789c60.44,0,117.151,25.851,159.685,72.789c42.035,46.388,65.185,107.932,65.185,173.295
		C724.87,746.901,715.916,755.855,704.87,755.855z"/>
</g>
<g>
	<path fill="#FFFFFF" d="M212.578,484.156c-54.869,0-99.508-44.639-99.508-99.508c0-54.869,44.639-99.508,99.508-99.508
		c54.869,0,99.508,44.639,99.508,99.508C312.086,439.517,267.447,484.156,212.578,484.156z M212.578,325.14
		c-32.813,0-59.508,26.695-59.508,59.508c0,32.813,26.695,59.508,59.508,59.508c32.812,0,59.508-26.695,59.508-59.508
		C272.086,351.835,245.391,325.14,212.578,325.14z"/>
	<path fill="#FFFFFF" d="M78.667,674.858c-11.046,0-20-8.954-20-20c0-3.803,0.114-7.661,0.34-11.466
		c2.179-36.597,15.262-72.257,36.838-100.415c21.613-28.202,51.439-48.605,83.984-57.453c34.217-9.301,70.787-5.965,102.977,9.392
		c30.465,14.532,56.604,39.755,73.599,71.021c5.275,9.705,1.685,21.849-8.02,27.123c-9.704,5.276-21.848,1.687-27.124-8.02
		c-12.996-23.908-32.77-43.094-55.678-54.021c-23.554-11.237-50.283-13.687-75.261-6.895c-24.138,6.562-46.415,21.897-62.727,43.184
		c-16.771,21.887-26.95,49.751-28.659,78.458c-0.179,3.016-0.27,6.076-0.27,9.093C98.667,665.904,89.713,674.858,78.667,674.858z"/>
</g>
<path fill="#FFFFFF" d="M508.93,584.771L508.93,584.771c-6.266,0-12.122-3.11-15.63-8.302l-34.278-50.729
	c-3.907-5.782-4.303-13.248-1.029-19.41c3.273-6.163,9.681-10.015,16.659-10.015h68.558c6.978,0,13.386,3.853,16.659,10.015
	c3.273,6.162,2.877,13.629-1.029,19.41l-34.279,50.729C521.052,581.66,515.194,584.771,508.93,584.771z"/>
<path fill="#FFFFFF" d="M560.854,732.326l-34.279-154.254c-1.837-8.265-9.163-14.146-17.628-14.155h-0.018
	c-8.458,0-15.787,5.867-17.638,14.121l-34.278,152.876c-1.442,6.43,0.729,13.135,5.667,17.498l34.278,30.3
	c3.415,3.019,7.691,4.533,11.972,4.533c4.141,0,8.285-1.418,11.655-4.261l34.279-28.922
	C560.006,745.725,562.313,738.892,560.854,732.326z"/>
<path fill="#FFFFFF" d="M212.578,545.329c-4.146,0-8.021-2.059-10.343-5.494l-22.685-33.57c-2.585-3.826-2.848-8.767-0.681-12.845
	c2.166-4.078,6.407-6.627,11.024-6.627h45.37c4.618,0,8.858,2.549,11.024,6.627c2.167,4.078,1.904,9.019-0.681,12.845l-22.685,33.57
	C220.6,543.271,216.724,545.329,212.578,545.329z"/>
<path fill="#FFFFFF" d="M246.94,642.977l-22.685-102.08c-1.215-5.469-6.063-9.362-11.666-9.367h-0.011
	c-5.597,0-10.447,3.882-11.672,9.345l-22.685,101.168c-0.954,4.255,0.482,8.691,3.75,11.58l22.685,20.052
	c2.26,1.997,5.09,2.999,7.923,2.999c2.74,0,5.483-0.938,7.713-2.819l22.685-19.14C246.379,651.844,247.906,647.321,246.94,642.977z"
	/>
<path fill="#FFFFFF" d="M787.422,545.329c-4.146,0-8.021-2.059-10.343-5.494l-22.686-33.57c-2.586-3.826-2.848-8.767-0.682-12.845
	c2.166-4.078,6.406-6.627,11.024-6.627h45.37c4.618,0,8.858,2.549,11.024,6.627s1.904,9.019-0.682,12.845l-22.685,33.57
	C795.443,543.271,791.568,545.329,787.422,545.329z"/>
<path fill="#FFFFFF" d="M821.783,642.977l-22.685-102.08c-1.215-5.469-6.063-9.362-11.665-9.367h-0.012
	c-5.597,0-10.447,3.882-11.672,9.345l-22.686,101.168c-0.954,4.255,0.482,8.692,3.75,11.58l22.686,20.052
	c2.26,1.997,5.09,2.999,7.923,2.999c2.74,0,5.482-0.938,7.713-2.819l22.685-19.14C821.223,651.844,822.749,647.321,821.783,642.977z
	"/>
</svg>
