<?xml version="1.0" encoding="utf-8"?>
<!-- Generator: Adobe Illustrator 16.0.0, SVG Export Plug-In . SVG Version: 6.00 Build 0)  -->
<!DOCTYPE svg PUBLIC "-//W3C//DTD SVG 1.1//EN" "http://www.w3.org/Graphics/SVG/1.1/DTD/svg11.dtd">
<svg version="1.1" id="Layer_1" xmlns="http://www.w3.org/2000/svg" xmlns:xlink="http://www.w3.org/1999/xlink" x="0px" y="0px"
	 width="1000px" height="1000px" viewBox="0 0 1000 1000" enable-background="new 0 0 1000 1000" xml:space="preserve">
<g id="Layer_2">
</g>
<path fill="#FFFFFF" d="M806.107,206.5c11.046,0,20,8.954,20,20v431.835c0,11.046-8.954,20-20,20H193.893c-11.046,0-20-8.954-20-20
	V226.5c0-11.046,8.954-20,20-20H806.107 M806.107,166.5H193.893c-33.084,0-60,26.916-60,60v431.835c0,33.084,26.916,60,60,60
	h612.215c33.084,0,60-26.916,60-60V226.5C866.107,193.416,839.191,166.5,806.107,166.5L806.107,166.5z"/>
<rect x="480" y="694.5" fill="#FFFFFF" width="40" height="152.296"/>
<path fill="#FFFFFF" d="M643.492,866.796H356.507c-11.046,0-20-8.954-20-20s8.954-20,20-20h286.985c11.046,0,20,8.954,20,20
	S654.538,866.796,643.492,866.796z"/>
<path fill="#FFFFFF" d="M500,626.058c-95.7,0-173.558-77.857-173.558-173.558S404.3,278.942,500,278.942
	S673.558,356.8,673.558,452.5S595.7,626.058,500,626.058z M500,318.942c-73.644,0-133.558,59.914-133.558,133.558
	c0,73.644,59.914,133.558,133.558,133.558c73.644,0,133.558-59.914,133.558-133.558C633.558,378.856,573.644,318.942,500,318.942z"
	/>
<path fill="#FFFFFF" d="M452.974,547.585c-3.453,0-6.906-0.893-10-2.68c-6.188-3.572-10-10.175-10-17.32l0-150.17
	c0-7.146,3.812-13.748,10-17.32c6.188-3.573,13.812-3.573,20,0l130.051,75.085c6.188,3.572,10,10.175,10,17.32
	s-3.812,13.748-10,17.32l-130.051,75.085C459.88,546.691,456.427,547.585,452.974,547.585z M472.975,412.056l0,80.888l70.051-40.444
	L472.975,412.056z"/>
</svg>
