<?xml version="1.0" encoding="utf-8"?>
<!-- Generator: Adobe Illustrator 26.0.3, SVG Export Plug-In . SVG Version: 6.00 Build 0)  -->
<svg version="1.1" id="Layer_1" xmlns="http://www.w3.org/2000/svg" xmlns:xlink="http://www.w3.org/1999/xlink" x="0px" y="0px"
	 viewBox="0 0 1000 1000" style="enable-background:new 0 0 1000 1000;" xml:space="preserve">
<style type="text/css">
	.st0{fill:#FFFFFF;}
</style>
<g>
	<path class="st0" d="M787.4,581.8c-54.9,0-99.5-44.6-99.5-99.5c0-54.9,44.6-99.5,99.5-99.5s99.5,44.6,99.5,99.5
		S842.3,581.8,787.4,581.8z M787.4,422.8c-32.8,0-59.5,26.7-59.5,59.5c0,32.8,26.7,59.5,59.5,59.5s59.5-26.7,59.5-59.5
		C846.9,449.5,820.2,422.8,787.4,422.8z"/>
	<path class="st0" d="M921.3,772.5c-11,0-20-9-20-20c0-3-0.1-6.1-0.3-9.1c-1.7-28.7-11.9-56.6-28.7-78.5
		c-16.3-21.3-38.6-36.6-62.7-43.2c-25-6.8-51.7-4.3-75.3,6.9c-22.9,10.9-42.7,30.1-55.7,54c-5.3,9.7-17.4,13.3-27.1,8
		c-9.7-5.3-13.3-17.4-8-27.1c17-31.3,43.1-56.5,73.6-71c32.2-15.4,68.8-18.7,103-9.4c32.5,8.8,62.4,29.3,84,57.5
		c21.6,28.2,34.7,63.8,36.8,100.4c0.2,3.8,0.3,7.7,0.3,11.5C941.3,763.5,932.4,772.5,921.3,772.5z"/>
</g>
<g>
	<path class="st0" d="M508.9,574.4c-75.2,0-136.3-61.2-136.3-136.3c0-75.2,61.2-136.3,136.3-136.3s136.3,61.2,136.3,136.3
		S584.1,574.4,508.9,574.4z M508.9,341.8c-53.1,0-96.3,43.2-96.3,96.3c0,53.1,43.2,96.3,96.3,96.3s96.3-43.2,96.3-96.3
		C605.3,385,562,341.8,508.9,341.8z"/>
	<path class="st0" d="M704.9,853.5c-11,0-20-9-20-20c0-113.6-82.9-206.1-184.9-206.1s-184.9,92.4-184.9,206.1c0,11-9,20-20,20
		s-20-9-20-20c0-65.4,23.1-126.9,65.2-173.3c42.5-46.9,99.2-72.8,159.7-72.8c60.4,0,117.2,25.9,159.7,72.8
		c42,46.4,65.2,107.9,65.2,173.3C724.9,844.5,715.9,853.5,704.9,853.5z"/>
</g>
<g>
	<path class="st0" d="M212.6,581.8c-54.9,0-99.5-44.6-99.5-99.5c0-54.9,44.6-99.5,99.5-99.5s99.5,44.6,99.5,99.5
		S267.4,581.8,212.6,581.8z M212.6,422.8c-32.8,0-59.5,26.7-59.5,59.5c0,32.8,26.7,59.5,59.5,59.5c32.8,0,59.5-26.7,59.5-59.5
		C272.1,449.5,245.4,422.8,212.6,422.8z"/>
	<path class="st0" d="M78.7,772.5c-11,0-20-9-20-20c0-3.8,0.1-7.7,0.3-11.5c2.2-36.6,15.3-72.3,36.8-100.4
		c21.6-28.2,51.4-48.6,84-57.5c34.2-9.3,70.8-6,103,9.4c30.5,14.5,56.6,39.8,73.6,71c5.3,9.7,1.7,21.8-8,27.1
		c-9.7,5.3-21.8,1.7-27.1-8c-13-23.9-32.8-43.1-55.7-54c-23.6-11.2-50.3-13.7-75.3-6.9c-24.1,6.6-46.4,21.9-62.7,43.2
		c-16.8,21.9-26.9,49.8-28.7,78.5c-0.2,3-0.3,6.1-0.3,9.1C98.7,763.5,89.7,772.5,78.7,772.5z"/>
</g>
<path class="st0" d="M346.3,93.7l-6-6C314,61.5,270,62.9,242.1,90.8l-48.5,48.5c13.7-1.7,32.4-0.9,46.3,11.6l31.2-31.2
	c11.9-11.9,30-13.3,40.3-3.1l6,6c10.3,10.3,8.9,28.3-3.1,40.3l-51,51c-11.9,11.9-30,13.3-40.3,3.1l-6-6c-8-8-20.9-8-28.9,0
	s-8,20.9,0,28.9l6,6c26.2,26.2,70.2,24.8,98.1-3.1l51-51C371.1,164,372.5,119.9,346.3,93.7z"/>
<path class="st0" d="M94.3,322.9l6,6c26.2,26.2,70.2,24.8,98.1-3.1l48.5-48.5c-13.7,1.7-32.4,0.9-46.3-11.6l-31.2,31.2
	c-11.9,11.9-30,13.3-40.3,3.1l-6-6c-10.3-10.3-8.9-28.3,3.1-40.3l51-51c11.9-11.9,30-13.3,40.3-3.1l6,6c8,8,20.9,8,28.9,0
	s8-20.9,0-28.9l-6-6c-26.2-26.2-70.2-24.8-98.1,3.1l-51,51C69.5,252.6,68.1,296.7,94.3,322.9z"/>
</svg>
