<?xml version="1.0" encoding="utf-8"?>
<!-- Generator: Adobe Illustrator 26.0.3, SVG Export Plug-In . SVG Version: 6.00 Build 0)  -->
<svg version="1.1" id="Layer_1" xmlns="http://www.w3.org/2000/svg" xmlns:xlink="http://www.w3.org/1999/xlink" x="0px" y="0px"
	 viewBox="0 0 1000 1000" style="enable-background:new 0 0 1000 1000;" xml:space="preserve">
<style type="text/css">
	.st0{fill:#FFFFFF;}
</style>
<g id="Layer_2_00000080890529034663692960000015499296444398190223_">
</g>
<path class="st0" d="M318.2,360.8c-0.2,0-0.3,0-0.5,0c-4-0.2-7.7-2.2-9.9-5.5l-41.1-60.7c-3.9-5.8-2.4-13.6,3.4-17.6
	c5.8-3.9,13.6-2.4,17.6,3.4l31.5,46.5l75.1-93.2c4.4-5.4,12.3-6.3,17.8-1.9c5.4,4.4,6.3,12.3,1.9,17.8L328,356
	C325.6,359,322,360.8,318.2,360.8z"/>
<rect x="384.8" y="62.9" class="st0" width="229.8" height="3"/>
<path class="st0" d="M842.7,66H654.6v40h168.1V894H177.3h0V106h167.5V66H157.3c-11,0-20,9-20,20V914c0,11,9,20,20,20h685.4
	c11,0,20-9,20-20V86C862.7,74.9,853.8,66,842.7,66z"/>
<polygon class="st0" points="614.6,149 384.8,149 384.8,106 344.8,106 344.8,189 654.6,189 654.6,106 614.6,106 "/>
<polygon class="st0" points="384.8,62.9 614.6,62.9 614.6,66 654.6,66 654.6,22.9 344.8,22.9 344.8,66 384.8,66 "/>
<rect x="614.6" y="66" class="st0" width="40" height="40"/>
<rect x="344.8" y="66" class="st0" width="40" height="40"/>
<path class="st0" d="M705.5,334.9h-224c-11,0-20-9-20-20s9-20,20-20h224c11,0,20,9,20,20S716.6,334.9,705.5,334.9z"/>
<path class="st0" d="M318.2,513.9c-0.2,0-0.3,0-0.5,0c-4-0.2-7.7-2.2-9.9-5.5l-41.1-60.7c-3.9-5.8-2.4-13.6,3.4-17.6
	c5.8-3.9,13.6-2.4,17.6,3.4l31.5,46.5l75.1-93.2c4.4-5.4,12.3-6.3,17.8-1.9c5.4,4.4,6.3,12.3,1.9,17.8L328,509.2
	C325.6,512.2,322,513.9,318.2,513.9z"/>
<path class="st0" d="M705.5,488h-224c-11,0-20-9-20-20s9-20,20-20h224c11,0,20,9,20,20S716.6,488,705.5,488z"/>
<path class="st0" d="M318.2,667.1c-0.2,0-0.3,0-0.5,0c-4-0.2-7.7-2.2-9.9-5.5l-41.1-60.7c-3.9-5.8-2.4-13.6,3.4-17.6
	c5.8-3.9,13.6-2.4,17.6,3.4l31.5,46.5l75.1-93.2c4.4-5.4,12.3-6.3,17.8-1.9c5.4,4.4,6.3,12.3,1.9,17.8L328,662.4
	C325.6,665.4,322,667.1,318.2,667.1z"/>
<path class="st0" d="M705.5,641.2h-224c-11,0-20-9-20-20c0-11,9-20,20-20h224c11,0,20,9,20,20C725.5,632.3,716.6,641.2,705.5,641.2z
	"/>
<path class="st0" d="M318.2,820.3c-0.2,0-0.3,0-0.5,0c-4-0.2-7.7-2.2-9.9-5.5L266.6,754c-3.9-5.8-2.4-13.6,3.4-17.6
	c5.8-3.9,13.6-2.4,17.6,3.4l31.5,46.5l75.1-93.2c4.4-5.4,12.3-6.3,17.8-1.9c5.4,4.4,6.3,12.3,1.9,17.8L328,815.6
	C325.6,818.5,322,820.3,318.2,820.3z"/>
<path class="st0" d="M705.5,794.4h-224c-11,0-20-9-20-20c0-11,9-20,20-20h224c11,0,20,9,20,20C725.5,785.4,716.6,794.4,705.5,794.4z
	"/>
</svg>
