<?xml version="1.0" encoding="utf-8"?>
<!-- Generator: Adobe Illustrator 16.0.0, SVG Export Plug-In . SVG Version: 6.00 Build 0)  -->
<!DOCTYPE svg PUBLIC "-//W3C//DTD SVG 1.1//EN" "http://www.w3.org/Graphics/SVG/1.1/DTD/svg11.dtd">
<svg version="1.1" id="Layer_1" xmlns="http://www.w3.org/2000/svg" xmlns:xlink="http://www.w3.org/1999/xlink" x="0px" y="0px"
	 width="1000px" height="1000px" viewBox="0 0 1000 1000" enable-background="new 0 0 1000 1000" xml:space="preserve">
<path fill="#FFFFFF" d="M965.522,500c0-14.347-6.722-27.115-17.179-35.355L783.873,300.173c-17.574-17.573-46.067-17.574-63.64,0
	c-17.574,17.573-17.574,46.066-0.001,63.64L811.419,455H466.791c-24.853,0-45,20.147-45,45c0,24.853,20.147,45,45,45h345.554
	l-92.392,92.392c-17.574,17.574-17.574,46.066,0,63.641c8.786,8.786,20.303,13.18,31.819,13.18s23.033-4.394,31.82-13.18
	l168.748-168.75c8.843-8.843,13.231-20.45,13.176-32.04C965.517,500.161,965.522,500.081,965.522,500z"/>
<path fill="#FFFFFF" d="M804.806,722.245c-11.687,11.686-26.551,19.025-42.642,21.243v161.676H153.507V81.582h608.657v176.101
	c16.198,2.17,31.168,9.524,42.921,21.276l17.079,17.079V51.582c0-16.569-13.432-30-30-30H123.507c-16.568,0-30,13.431-30,30v883.582
	c0,16.568,13.432,30,30,30h668.657c16.568,0,30-13.432,30-30V704.887L804.806,722.245z"/>
</svg>
