<?xml version="1.0" encoding="utf-8"?>
<!-- Generator: Adobe Illustrator 16.0.0, SVG Export Plug-In . SVG Version: 6.00 Build 0)  -->
<!DOCTYPE svg PUBLIC "-//W3C//DTD SVG 1.1//EN" "http://www.w3.org/Graphics/SVG/1.1/DTD/svg11.dtd">
<svg version="1.1" id="Layer_1" xmlns="http://www.w3.org/2000/svg" xmlns:xlink="http://www.w3.org/1999/xlink" x="0px" y="0px"
	 width="900px" height="205px" viewBox="0 0 900 205" enable-background="new 0 0 900 205" xml:space="preserve">
<circle fill="#3A66A6" cx="105.288" cy="550.978" r="100"/>
<circle fill="#3A66A6" cx="794.712" cy="550.978" r="100"/>
<circle fill="#3A66A6" cx="622.356" cy="550.978" r="100"/>
<circle fill="#3A66A6" cx="450" cy="550.978" r="100"/>
<circle fill="#3A66A6" cx="277.644" cy="550.978" r="100"/>
<rect x="47.104" y="-295.315" fill="none" width="100" height="125.333"/>
<text transform="matrix(1 0 0 1 55.1045 -190.3159)" font-family="'Titillium-Bold'" font-size="150">1</text>
<rect x="227.506" y="-295.315" fill="none" width="100" height="125.333"/>
<text transform="matrix(1 0 0 1 235.5063 -190.3159)" font-family="'Titillium-Bold'" font-size="150">2</text>
<rect x="400.908" y="-295.315" fill="none" width="100" height="125.333"/>
<text transform="matrix(1 0 0 1 408.9082 -190.3159)" font-family="'Titillium-Bold'" font-size="150">3</text>
<rect x="570.311" y="-295.315" fill="none" width="100" height="125.333"/>
<text transform="matrix(1 0 0 1 578.3105 -190.3159)" font-family="'Titillium-Bold'" font-size="150">4</text>
<rect x="744.712" y="-295.315" fill="none" width="100" height="125.333"/>
<text transform="matrix(1 0 0 1 752.7119 -190.3159)" font-family="'Titillium-Bold'" font-size="150">5</text>
<path opacity="0.25" fill="#3A66A6" d="M284.395,2.5c-55.229,0-100.001,44.771-100.001,100c0,55.229,44.771,100,100.001,100
	c55.228,0,99.999-44.771,99.999-100C384.394,47.271,339.623,2.5,284.395,2.5z M316.204,149.295h-64.197v-17.549l21.149-21.449
	c12.899-13.199,20.099-20.849,20.099-30.449c0-10.049-4.65-13.049-16.2-13.049c-10.199,0-23.399,2.25-23.399,2.25l-1.05-16.049
	c0,0,14.699-4.5,29.699-4.5c22.649,0,32.249,9.899,32.249,28.349c0,15.3-5.85,23.999-22.199,38.849l-17.25,15.599h41.098V149.295z"
	/>
<path opacity="0.25" fill="#3A66A6" d="M450.001,2.5C394.771,2.5,350,47.271,350,102.5c0,55.229,44.771,100,100.001,100
	c55.228,0,99.999-44.771,99.999-100C550,47.271,505.229,2.5,450.001,2.5z M449.707,151.095c-14.699,0-32.249-5.1-32.249-5.1
	l1.05-15.75c0,0,16.799,2.85,28.199,2.85c10.2,0,15.45-4.05,15.45-13.2c0-7.35-5.85-12.149-14.399-12.149h-19.949V90.647h19.949
	c6.749,0,12.599-6.75,12.599-13.5c0-7.05-4.648-10.649-14.849-10.649c-11.7,0-25.949,2.7-25.949,2.7l-1.35-15.299
	c0,0,13.799-5.4,28.799-5.4c26.099,0,34.648,8.85,34.648,27.299c0,10.8-4.351,17.399-11.55,22.199c8.25,4.5,13.35,8.1,13.35,21.449
	C483.455,140.295,473.855,151.095,449.707,151.095z"/>
<path opacity="0.25" fill="#3A66A6" d="M615.606,2.5c-55.229,0-100.001,44.771-100.001,100c0,55.229,44.772,100,100.001,100
	s100-44.771,100-100C715.606,47.271,670.835,2.5,615.606,2.5z M649.707,132.946h-9.449v16.349h-20.699v-16.349H577.56v-15.75
	l24.449-66.897h22.8l-26.55,64.647h21.3V87.197h20.699v27.749h9.449V132.946z"/>
<path fill="#3A66A6" d="M781.212,2.5c-55.229,0-100,44.771-100,100c0,55.229,44.771,100,100,100s100-44.771,100-100
	C881.212,47.271,836.44,2.5,781.212,2.5z M781.811,151.095c-15.449,0-35.1-5.55-35.1-5.55l2.25-15.299c0,0,18.15,2.85,30.299,2.85
	c9.75,0,15.15-5.4,15.15-14.85c0-10.049-4.35-14.099-13.8-14.099c-10.499,0-18.749,2.55-18.749,2.55l-12.3-2.85l2.7-53.548h60.447
	v18h-44.248l-2.551,21.449c0,0,9.301-3.6,17.699-3.6c20.25,0,32.1,9,32.1,29.849C815.709,138.345,803.409,151.095,781.811,151.095z"
	/>
<path opacity="0.25" fill="#3A66A6" d="M118.788,2.5c-55.229,0-100,44.771-100,100c0,55.228,44.771,100,100,100s100-44.771,100-100
	C218.788,47.271,174.017,2.5,118.788,2.5z M131.302,149.295h-20.699V73.698l-21.449,13.8l-9.45-15.45l32.699-21.749h18.899V149.295z
	"/>
<line fill="#3A66A6" x1="-184.715" y1="561.662" x2="-219.271" y2="527.105"/>
<path fill="#3A66A6" d="M-205.129,610.361c-3.778,3.777-8.801,5.857-14.143,5.857c-1.686,0-3.332-0.23-4.925-0.632v4.071
	c0,5.514-4.486,10-10,10h-73.994c-5.514,0-10-4.486-10-10V503.666c0-5.514,4.486-10,10-10h73.994c5.514,0,10,4.486,10,10v4.071
	c1.593-0.401,3.239-0.632,4.925-0.632c5.342,0,10.364,2.08,14.142,5.856l0.934,0.934v-10.229c0-16.543-13.458-30-30-30h-73.994
	c-16.542,0-30,13.457-30,30v115.992c0,16.541,13.458,30,30,30h73.994c16.542,0,30-13.459,30-30v-10.229L-205.129,610.361z"/>
<path fill="#3A66A6" d="M-177.644,554.591l-34.557-34.557c-3.905-3.904-10.237-3.904-14.143,0c-3.905,3.905-3.905,10.237,0,14.143
	l17.485,17.485h-62.336c-5.523,0-10,4.478-10,10s4.477,10,10,10h62.336l-17.485,17.485c-3.905,3.905-3.905,10.237,0,14.143
	c3.905,3.904,10.237,3.904,14.143,0l34.557-34.557C-173.739,564.828-173.739,558.496-177.644,554.591z"/>
<path fill="#50C8EC" d="M529.356-97.001c-19.018,0-34.434,15.416-34.434,34.434c0,19.016,15.416,34.432,34.434,34.432
	c19.016,0,34.432-15.416,34.432-34.432C563.788-81.585,548.372-97.001,529.356-97.001z M540.309-46.456h-22.104v-6.043l7.281-7.386
	c4.441-4.545,6.922-7.179,6.922-10.484c0-3.46-1.602-4.493-5.578-4.493c-3.512,0-8.058,0.774-8.058,0.774l-0.361-5.525
	c0,0,5.062-1.55,10.226-1.55c7.799,0,11.104,3.409,11.104,9.761c0,5.269-2.015,8.264-7.644,13.377l-5.939,5.371h14.151V-46.456z"/>
<path fill="#50C8EC" d="M529.355-81.583c-19.017,0-34.433,15.416-34.433,34.434c0,19.017,15.416,34.433,34.433,34.433
	s34.433-15.416,34.433-34.433C563.788-66.167,548.372-81.583,529.355-81.583z M529.255-30.417c-5.062,0-11.104-1.756-11.104-1.756
	l0.361-5.424c0,0,5.784,0.981,9.71,0.981c3.512,0,5.319-1.395,5.319-4.545c0-2.53-2.015-4.183-4.958-4.183h-6.869v-5.889h6.869
	c2.324,0,4.338-2.324,4.338-4.647c0-2.428-1.601-3.667-5.113-3.667c-4.027,0-8.935,0.93-8.935,0.93l-0.465-5.269
	c0,0,4.752-1.859,9.917-1.859c8.986,0,11.93,3.048,11.93,9.4c0,3.719-1.498,5.991-3.977,7.644c2.841,1.549,4.597,2.789,4.597,7.386
	C540.875-34.135,537.569-30.417,529.255-30.417z"/>
<path fill="#50C8EC" d="M529.355-246.626c-19.017,0-34.433,15.416-34.433,34.433c0,19.017,15.416,34.433,34.433,34.433
	s34.433-15.416,34.433-34.433C563.788-231.21,548.372-246.626,529.355-246.626z M541.097-201.71h-3.254v5.629h-7.127v-5.629h-14.461
	v-5.423l8.418-23.035h7.852l-9.143,22.26h7.334v-9.555h7.127v9.555h3.254V-201.71z"/>
<path fill="#50C8EC" d="M529.355-379.188c-19.017,0-34.433,15.416-34.433,34.433c0,19.018,15.416,34.434,34.433,34.434
	s34.433-15.416,34.433-34.434C563.788-363.772,548.372-379.188,529.355-379.188z M529.562-328.023c-5.319,0-12.086-1.91-12.086-1.91
	l0.775-5.269c0,0,6.25,0.981,10.432,0.981c3.357,0,5.217-1.859,5.217-5.113c0-3.46-1.497-4.854-4.751-4.854
	c-3.615,0-6.456,0.878-6.456,0.878l-4.234-0.981l0.93-18.438H540.2v6.198h-15.235l-0.878,7.386c0,0,3.202-1.24,6.094-1.24
	c6.973,0,11.053,3.1,11.053,10.278C541.233-332.412,536.999-328.023,529.562-328.023z"/>
<path fill="#50C8EC" d="M529.354-150.448c-19.017,0-34.433,15.416-34.433,34.433s15.416,34.433,34.433,34.433
	c19.018,0,34.434-15.416,34.434-34.433S548.372-150.448,529.354-150.448z M533.663-99.903h-7.127v-26.029l-7.385,4.751l-3.254-5.319
	l11.259-7.489h6.507V-99.903z"/>
<linearGradient id="SVGID_1_" gradientUnits="userSpaceOnUse" x1="450.0015" y1="361.2886" x2="450.0015" y2="305.5197">
	<stop  offset="0" style="stop-color:#FFFFFF"/>
	<stop  offset="1" style="stop-color:#FFFFFF;stop-opacity:0"/>
</linearGradient>
<path opacity="0.8" fill="url(#SVGID_1_)" d="M470.241,262.555c-0.065,0.044-0.127,0.091-0.192,0.135
	c8.25,4.5,13.35,8.1,13.35,21.449c0,20.849-9.6,31.648-33.749,31.648c-14.699,0-32.249-5.1-32.249-5.1l1.05-15.75
	c0,0,16.799,2.85,28.199,2.85c10.2,0,15.45-4.05,15.45-13.2c0-7.35-5.85-12.149-14.399-12.149h-19.949v-9.354
	c-24.94,7.077-42.75,25.707-42.75,47.579c0,27.959,29.102,50.625,65,50.625s65-22.666,65-50.625
	C515.001,288.21,496.226,269.183,470.241,262.555z"/>
<linearGradient id="SVGID_2_" gradientUnits="userSpaceOnUse" x1="118.7881" y1="326.3364" x2="118.7881" y2="269.3921">
	<stop  offset="0" style="stop-color:#FFFFFF"/>
	<stop  offset="1" style="stop-color:#FFFFFF;stop-opacity:0"/>
</linearGradient>
<path opacity="0.8" fill="url(#SVGID_2_)" d="M131.087,226.003v53.581h-20.699v-54.063c-31.927,3.211-56.6,24.449-56.6,50.19
	c0,27.959,29.102,50.625,65,50.625s65-22.666,65-50.625C183.788,251.028,161.102,230.482,131.087,226.003z"/>
<linearGradient id="SVGID_3_" gradientUnits="userSpaceOnUse" x1="284.394" y1="334.9321" x2="284.394" y2="277.742">
	<stop  offset="0" style="stop-color:#FFFFFF"/>
	<stop  offset="1" style="stop-color:#FFFFFF;stop-opacity:0"/>
</linearGradient>
<path opacity="0.8" fill="url(#SVGID_3_)" d="M308.612,237.328c-3.526,5.283-8.711,10.663-15.968,17.254l-17.25,15.599h41.098v18
	h-64.197v-17.549l21.149-21.449c5.944-6.082,10.66-10.979,14.036-15.439c-1.023-0.037-2.052-0.061-3.087-0.061
	c-35.898,0-65,22.666-65,50.625s29.102,50.625,65,50.625s65-22.666,65-50.625C349.394,263.017,332.512,244.809,308.612,237.328z"/>
<g>
	<linearGradient id="SVGID_4_" gradientUnits="userSpaceOnUse" x1="608.8809" y1="351.7778" x2="608.8809" y2="295.3998">
		<stop  offset="0" style="stop-color:#FFFFFF"/>
		<stop  offset="1" style="stop-color:#FFFFFF;stop-opacity:0"/>
	</linearGradient>
	<path opacity="0.8" fill="url(#SVGID_4_)" d="M619.531,249.575c-1.3-0.06-2.606-0.1-3.926-0.1c-3.164,0-6.271,0.185-9.314,0.525
		l-8.06,19.624h21.3V249.575z"/>
	<linearGradient id="SVGID_5_" gradientUnits="userSpaceOnUse" x1="615.6055" y1="351.7778" x2="615.6055" y2="295.3998">
		<stop  offset="0" style="stop-color:#FFFFFF"/>
		<stop  offset="1" style="stop-color:#FFFFFF;stop-opacity:0"/>
	</linearGradient>
	<path opacity="0.8" fill="url(#SVGID_5_)" d="M640.23,253.246v16.379h9.449v18h-9.449v16.349h-20.699v-16.349h-41.999v-15.75
		l5.73-15.68c-19.51,8.737-32.657,25.12-32.657,43.906c0,27.959,29.102,50.625,65,50.625s65-22.666,65-50.625
		C680.605,278.93,663.916,260.805,640.23,253.246z"/>
</g>
<linearGradient id="SVGID_6_" gradientUnits="userSpaceOnUse" x1="781.2119" y1="196.5" x2="781.2119" y2="142.9069">
	<stop  offset="0" style="stop-color:#FFFFFF"/>
	<stop  offset="1" style="stop-color:#FFFFFF;stop-opacity:0"/>
</linearGradient>
<path opacity="0.8" fill="url(#SVGID_6_)" d="M813.479,101.936c1.467,3.809,2.231,8.329,2.231,13.614
	c0,22.349-12.3,35.099-33.898,35.099c-15.449,0-35.1-5.55-35.1-5.55l2.25-15.299c0,0,18.15,2.85,30.299,2.85
	c9.75,0,15.15-5.4,15.15-14.85c0-10.049-4.35-14.099-13.8-14.099c-10.499,0-18.749,2.55-18.749,2.55l-12.3-2.85l0.09-1.782
	c-19.942,8.645-33.441,25.22-33.441,44.257c0,27.959,29.102,50.625,65,50.625s65-22.666,65-50.625
	C846.212,127.065,833.03,110.664,813.479,101.936z"/>
</svg>
