<?xml version="1.0" encoding="utf-8"?>
<!-- Generator: Adobe Illustrator 24.1.0, SVG Export Plug-In . SVG Version: 6.00 Build 0)  -->
<svg version="1.1" id="Layer_1" xmlns="http://www.w3.org/2000/svg" xmlns:xlink="http://www.w3.org/1999/xlink" x="0px" y="0px"
	 viewBox="0 0 192.6 66.8" style="enable-background:new 0 0 192.6 66.8;" xml:space="preserve">
<style type="text/css">
	.st0{fill:#FFFFFF;}
</style>
<path class="st0" d="M135,9.1c0.4,0.1,0.9,0.1,1.3,0.2c1,0.1,2,0.4,3,0.8c2.1,0.9,3.3,2.4,3.7,4.6c0.3,1.6,0.3,3.2,0.3,4.7
	c0,1-0.1,1.9-0.1,2.9c0,1.1-0.3,2.2-0.6,3.2c-0.6,1.7-1.2,3.3-2,4.9c-0.1,0.1-0.1,0.3-0.2,0.4c-0.7,1.5-1.8,2.5-3.5,3
	c-0.9,0.2-1.8,0.5-2.7,0.8c-0.1,0-0.2,0-0.2,0c-1.4-0.1-2.9-0.1-4.3-0.4c-0.7-0.1-1.2-0.4-1.7-0.9c-1.3-1.2-2.5-2.6-3-4.3
	c-0.4-1.3-0.7-2.6-1-3.9c-0.4-1.7-0.4-3.4-0.5-5.1c-0.1-1.2-0.1-2.5-0.1-3.7c0-0.3,0-0.6,0.1-0.9c0.2-0.7,0.5-1.3,0.8-2
	c0.9-2.1,2.4-3.3,4.6-3.9c1.1-0.3,2.3-0.5,3.4-0.6c0.1,0,0.1,0,0.2,0C133.3,9.1,134.2,9.1,135,9.1z M128.2,20.3c0,1.4,0,2.8,0,4.1
	c0,2.1,0.8,3.9,2,5.5c0.3,0.4,0.6,0.6,1,0.7c1.2,0.3,2.5,0.3,3.7,0.2c0.3,0,0.6-0.1,0.9-0.2c0.4-0.1,0.6-0.3,0.7-0.6
	c0.1-0.3,0.2-0.5,0.3-0.8c0.4-2,0.9-4,1.3-6c0.4-2.1,0.6-4.2,0.4-6.4c-0.1-0.8-0.2-1.6-0.6-2.4c-0.3-0.5-0.7-0.9-1.4-1
	c-1.5-0.2-3.1-0.3-4.6-0.5c-0.4,0-0.7,0.1-1.1,0.2c-0.8,0.5-1.5,1.1-2.1,1.9c-0.2,0.3-0.4,0.7-0.4,1.1
	C128.3,17.5,128.2,19,128.2,20.3z"/>
<path class="st0" d="M0.9,47.7c0.1-0.3,0.1-0.7,0.2-1c0-0.2,0.1-0.3,0.3-0.4c2-0.8,4.1-1.3,6.2-1.8c0.9-0.2,1.8-0.3,2.7-0.4
	c1.6-0.2,3.2-0.4,4.8-0.6c1.5-0.2,3.1-0.4,4.6-0.5c1.4-0.2,2.8-0.3,4.3-0.5c0.4,0,0.8,0,1.2,0c2.3,0.1,4.5,0.2,6.8,0.4
	c1.1,0.1,2.2,0.3,3.2,0.5c1.5,0.3,2.9,0.5,4.4,0.8c0.4,0.1,0.8,0.2,1.1,0.4c1.8,0.7,3.6,1.5,5.5,2.2c0.1,0,0.2,0.1,0.2,0.1
	c-0.5-0.1-1-0.2-1.6-0.3c-2.7-0.4-5.3-1-8-1.2c-1.4-0.1-2.7-0.3-4.1-0.5c-0.3,0-0.5,0-0.8-0.1c-2.5,0-5-0.1-7.5-0.1
	c-0.7,0-1.5,0.1-2.2,0.2c-1.8,0.2-3.6,0.5-5.3,0.7c-1.9,0.3-3.8,0.5-5.7,0.8c-0.7,0.1-1.4,0.1-2.1,0.3c-1,0.2-2.1,0.5-3.1,0.8
	c-1.2,0.4-2.4,0.8-3.6,1.2c-0.1,0-0.2,0-0.4-0.1c-0.3-0.3-0.7-0.6-1-0.9C0.9,47.9,0.9,47.8,0.9,47.7z"/>
<path class="st0" d="M106,34c-1.7,0.2-3.4,0.4-5.1,0.5c0.5-8.2,0.3-16.4,0.1-24.7c0.6,0,1.1-0.1,1.6-0.1c1.4-0.1,2.9-0.2,4.3-0.2
	c1.2,0,2.4,0.1,3.6,0.2c1.1,0.1,2.2,0.2,3.3,0.3c0.1,0,0.3,0.1,0.4,0.2c0.7,0.6,1.4,1.2,2,1.8c0.1,0.1,0.2,0.2,0.2,0.3
	c0.4,2.5,0.8,4.9,1.1,7.4c0.1,0.4,0,0.7-0.3,1c-0.8,0.9-1.6,1.8-2.4,2.7c-0.5,0.5-1,0.9-1.7,1.1c2.1,3.6,4.7,6.8,7.3,10.1
	c-0.1,0-0.1,0.1-0.2,0.1c-0.9,0.3-1.8,0.5-2.7,0.8c-0.2,0.1-0.3,0-0.4-0.1c-1.7-1.6-3.3-3.4-4.8-5.2c-1.2-1.4-2.4-2.9-3.5-4.3
	c-0.1-0.1-0.2-0.2-0.4-0.1c-0.8,0.2-1.5,0.3-2.3,0.5c-0.2,0-0.2,0.1-0.2,0.3c0,2.2,0,4.4,0,6.5C105.9,33.4,106,33.7,106,34z
	 M106.1,23.3c0.1,0,0.2,0,0.2,0c0.5-0.1,1.1-0.3,1.6-0.5c1.5-0.5,2.9-1.2,4-2.4c0.2-0.2,0.5-0.5,0.8-0.7c0.3-0.2,0.3-0.4,0.3-0.7
	c-0.2-1.3-0.3-2.7-0.5-4c-0.1-0.8-0.2-1.5-0.3-2.3c-2.2,0.1-4.4,0.3-6.6,0.4c0.1,1.3,0.2,2.5,0.3,3.8c0.1,1.3,0.2,2.6,0.3,3.9
	C106.1,21.6,106.1,22.5,106.1,23.3z"/>
<path class="st0" d="M154.8,34c-1.7,0.2-3.4,0.4-5.1,0.5c0.5-8.2,0.3-16.4,0.1-24.7c0.6,0,1.1-0.1,1.6-0.1c1.4-0.1,2.9-0.2,4.3-0.2
	c1,0,2,0.1,3,0.1c1.3,0.1,2.7,0.2,4,0.4c0.1,0,0.3,0.1,0.4,0.2c0.7,0.6,1.4,1.2,2,1.8c0.1,0.1,0.2,0.2,0.2,0.4
	c0.3,2.1,0.7,4.3,1,6.4c0.1,0.4,0.1,0.9,0.1,1.3c0,0.1,0,0.2-0.1,0.3c-0.9,1-1.8,2-2.7,3c-0.4,0.5-1,0.9-1.6,1.1
	c1,1.8,2.2,3.5,3.5,5.2c1.2,1.7,2.5,3.3,3.8,5c-0.8,0.2-1.6,0.4-2.4,0.7c-0.6,0.2-0.9,0.1-1.3-0.3c-2-2.1-3.9-4.3-5.7-6.5
	c-0.7-0.9-1.5-1.8-2.2-2.6c-0.1-0.1-0.2-0.2-0.4-0.1c-0.8,0.2-1.5,0.3-2.3,0.5c-0.2,0-0.2,0.1-0.2,0.3c0,2.3,0,4.5,0,6.8
	C154.7,33.5,154.8,33.7,154.8,34z M154.8,23.3c0.1,0,0.2,0,0.2,0c0.7-0.2,1.4-0.4,2.1-0.7c1.2-0.5,2.4-1.1,3.3-2
	c0.3-0.3,0.6-0.6,0.9-0.8c0.2-0.2,0.3-0.4,0.2-0.7c-0.2-1.5-0.4-3-0.6-4.5c-0.1-0.6-0.2-1.3-0.2-1.9c-2.2,0.1-4.4,0.3-6.6,0.4
	c0,0.1,0,0.2,0,0.3c0.1,1.2,0.1,2.4,0.2,3.6c0.1,1.3,0.2,2.6,0.3,3.9C154.9,21.7,154.8,22.5,154.8,23.3z"/>
<path class="st0" d="M89.5,9.9c1.8-0.1,3.7-0.2,5.5-0.4c-0.1,0.6-0.1,1.2-0.2,1.7c-0.1,1.5-0.3,2.9-0.4,4.4
	c-0.2,1.6-0.3,3.3-0.5,4.9c-0.1,1.4-0.3,2.9-0.4,4.3c-0.1,1-0.2,2.1-0.3,3.1c0,0.1,0,0.2,0,0.2c-0.7,1.7-1.5,3.3-2.7,4.8
	c-0.6,0.7-1.3,1.3-2.3,1.4c-0.6,0.1-1.1,0.2-1.7,0.2c-1.8,0-3.6,0-5.3-0.1c-0.7,0-1.3-0.2-2-0.3c-0.6-0.1-1.1-0.5-1.4-1
	c-0.4-0.8-0.8-1.5-1.1-2.3c-0.6-1.5-1.1-3-1.4-4.5c-0.1-0.3-0.1-0.6-0.1-1c-0.1-2.5-0.2-5.1-0.3-7.6c-0.1-2.4-0.2-4.8-0.3-7.2
	c0-0.1,0-0.2,0-0.4c1.7-0.1,3.3-0.3,5-0.4c0,0.4,0,0.8,0,1.1c0,3.2,0,6.3,0,9.5c0,2,0.1,3.9,0.1,5.9c0,0.9,0.2,1.8,0.3,2.7
	c0.3,1.4,1.2,2.2,2.6,2.5c1.3,0.3,2.5,0.2,3.7-0.3c0.5-0.2,0.8-0.5,1-0.9c0.8-1.9,1.3-3.8,1.4-5.8c0.1-2,0.2-4.1,0.3-6.1
	c0.1-1.6,0.2-3.3,0.3-4.9c0.1-1.1,0.1-2.1,0.1-3.2C89.5,10.2,89.5,10.1,89.5,9.9z"/>
<path class="st0" d="M190.7,34.5c-1.1-0.1-2.1-0.2-3.2-0.4c-0.3,0-0.5,0-0.8-0.1c-0.1,0-0.2-0.1-0.2-0.2c-0.2-1.3-0.3-2.7-0.5-4
	c0-0.2,0-0.3-0.1-0.5c-0.4,0-0.9,0.1-1.3,0.1c-1.6,0.2-3.3,0.3-4.9,0.5c-0.1,0-0.3,0-0.4-0.1c-0.8-0.2-1.6-0.4-2.4-0.6
	c-0.5,1.7-1,3.5-1.5,5.2c-1.2,0-2.4-0.1-3.7-0.1c0.1-0.5,0.1-0.9,0.2-1.4c0.4-2.7,0.9-5.4,1.4-8c0.5-2.6,0.9-5.2,1.8-7.7
	c0.7-2.1,1.4-4.3,2.4-6.3c0.2-0.4,0.4-0.8,0.6-1.2c0.1-0.1,0.2-0.2,0.3-0.2c1.9-0.1,3.8-0.2,5.8-0.4c0.6,0,1.2-0.1,1.8-0.1
	c0.2,0,0.3,0,0.3,0.2c1.6,5.5,3.1,11,4.2,16.5c0.3,1.5,0.3,3,0.3,4.5c0,1.3,0,2.6,0,3.9C190.7,34.4,190.7,34.5,190.7,34.5z
	 M185.7,26.4c0.2-0.9,0.2-1.8,0-2.7c-0.5-2.8-1.1-5.7-1.8-8.5c-0.2-0.7-0.4-1.3-0.6-2c-0.1-0.2-0.2-0.3-0.4-0.3
	c-0.8,0.1-1.7,0.2-2.5,0.2c-0.2,0-0.3,0.1-0.3,0.2c-0.3,0.9-0.6,1.8-0.8,2.8c-0.5,1.7-0.9,3.3-1.1,5c-0.2,1.7-0.3,3.4-0.4,5.1
	c0,0.2,0,0.4,0,0.6C180.3,26.7,183,26.6,185.7,26.4z"/>
<path class="st0" d="M49.8,34.4c0.1-0.6,0.2-1.2,0.3-1.7c0.4-2.2,0.7-4.5,1.1-6.7c0.5-2.8,1-5.7,1.9-8.4c0.8-2.4,1.6-4.8,2.7-7.1
	c0.3-0.6,0.6-0.8,1.2-0.9c2.3-0.1,4.6-0.3,6.9-0.4c0.2,0,0.3,0.1,0.4,0.3c1.3,4.5,2.5,8.9,3.5,13.5c0.3,1.5,0.6,3,0.9,4.6
	c0,0.1,0,0.2,0,0.3c0,2.2,0,4.4-0.1,6.6c0,0.1,0,0.1,0,0.2c-0.7-0.1-1.4-0.2-2.1-0.2c-0.6-0.1-1.2-0.2-1.8-0.2
	c-0.2,0-0.2-0.1-0.3-0.3c-0.2-1.4-0.3-2.8-0.5-4.3c0,0,0-0.1,0-0.2c-0.7,0.1-1.3,0.1-2,0.2c-1.4,0.1-2.8,0.3-4.2,0.4
	c-0.1,0-0.3,0-0.4-0.1c-0.8-0.2-1.6-0.4-2.4-0.6c-0.5,1.7-1,3.5-1.5,5.2C52.3,34.5,51.1,34.5,49.8,34.4z M63.7,26.4
	c0.2-0.9,0.2-1.8,0-2.7c-0.5-2.9-1.1-5.7-1.8-8.5c-0.2-0.7-0.4-1.4-0.6-2c0-0.1-0.1-0.2-0.3-0.2c-0.9,0.1-1.7,0.2-2.6,0.3
	c-0.2,0-0.3,0.1-0.4,0.3c-0.3,0.9-0.6,1.8-0.8,2.8c-0.5,1.7-0.9,3.3-1.1,5.1c-0.2,1.7-0.3,3.3-0.4,5c0,0.2,0,0.4-0.1,0.6
	C58.3,26.7,61,26.6,63.7,26.4z"/>
<path class="st0" d="M8.5,47.6c0.5-0.1,1-0.2,1.5-0.2c0.6-0.1,1.3-0.2,1.9-0.3c0.2,0,0.2,0,0.3,0.2c0.2,1.1,0.4,2.1,0.6,3.2
	c0,0.1,0.1,0.2,0.1,0.3c0.9,1.1,1.8,2.2,2.6,3.3c0,0.1,0.1,0.1,0.1,0.1c0.7,0.4,1.3,0.9,2,1.2c0.8,0.3,1.7,0.5,2.5,0.7
	c1,0.2,2.1,0.1,3.1-0.1c0.2,0,0.4-0.1,0.7-0.1c1-0.1,1.7-0.6,2.6-1c0.8-0.4,1.6-0.7,2.5-1.1c0.1-0.1,0.3-0.2,0.4-0.3
	c1-1.1,2-2.1,3-3.2c0.1-0.1,0.1-0.2,0.2-0.2c0.7-1.3,1.4-2.6,1.7-4c0.1-0.2,0.2-0.3,0.4-0.3c0.9,0.1,1.7,0.2,2.6,0.3
	c0.1,0,0.1,0,0.2,0c-0.3,1.1-0.5,2.2-1,3.2c-0.2,0.5-0.5,1-0.7,1.5c-0.3,0.7-0.7,1.4-1.3,1.9c-1.1,1.2-2.1,2.3-3.2,3.5
	c-0.1,0.1-0.2,0.2-0.4,0.3c-1.7,0.8-3.4,1.7-5.2,2.5c-0.5,0.2-1,0.2-1.5,0.4c-1.4,0.3-2.8,0.5-4.3,0.3c-0.9-0.1-1.8-0.5-2.8-0.6
	c-1-0.2-1.7-0.7-2.6-1.2c-0.9-0.5-1.6-1.1-2.2-1.9c-1-1.3-2-2.5-3-3.7c-0.1-0.1-0.2-0.3-0.2-0.5C9.1,50.5,8.8,49.1,8.5,47.6z"/>
<path class="st0" d="M29.5,42.2c-0.6,0-1.2-0.1-1.8-0.1c-0.8,0-1.6-0.1-2.4-0.1c-0.2,0-0.3-0.1-0.3-0.2c-0.3-0.6-0.8-1.1-1.3-1.5
	c-0.1-0.1-0.2-0.1-0.3-0.1c-0.9-0.4-1.9-0.8-2.8-1.1c-0.1,0-0.3,0-0.4,0c-2.2,1-4.4,2.1-6.6,3.1c-0.2,0.1-0.3,0.3-0.3,0.5
	c-0.1,0.5-0.3,0.6-0.8,0.7c-1.1,0.1-2.1,0.2-3.2,0.4c-0.1,0-0.1,0-0.3,0c0-0.1,0-0.2,0.1-0.3c0.4-1.1,0.7-2.1,1.1-3.2
	c0-0.1,0.1-0.3,0.2-0.4c0.6-0.7,1.2-1.4,1.8-2c0.1-0.1,0.2-0.2,0.3-0.2c0.5-0.3,0.9-0.6,1.4-0.9c1.2-0.9,2.5-1.3,3.9-1.6
	c1-0.2,1.9-0.2,2.9-0.2c0.1,0,0.2,0,0.3,0.1c1.7,0.6,3.4,1.3,5,2c0.5,0.2,0.9,0.7,1.3,1.1c1,0.9,1.5,2.1,2.1,3.2
	C29.5,41.5,29.5,41.9,29.5,42.2z"/>
<path class="st0" d="M38,43.4c-0.1,0-0.1,0-0.2,0c-0.9-0.2-1.8-0.3-2.7-0.5c0.1-0.6,0.2-1.2,0.3-1.8c0.3-1.7,0.6-3.3,0.8-5
	c0.2-1.6,0.3-3.2,0.5-4.8c0.1-1.4,0.2-2.8,0.4-4.2c0.2-1,0.5-2,0.7-3c0.4-1.5,0.7-3.1,1.2-4.6c0.3-0.9,0.6-1.7,1-2.6
	c0.9-2.2,2.1-4.2,3.3-6.1c0.3-0.5,0.7-0.8,1-1.3c0,0,0.1,0,0.1,0.1c-0.1,0.5-0.2,1-0.4,1.5c-0.2,0.7-0.5,1.4-0.8,2.1
	c-0.7,1.5-0.9,3.1-1.4,4.7c-0.8,3-1.5,6.1-2.3,9.1c-0.1,0.5-0.1,1-0.2,1.4c-0.1,2.3-0.2,4.5-0.4,6.8c-0.1,1.4-0.3,2.8-0.4,4.1
	c-0.2,1.3-0.3,2.6-0.5,3.9C38,43.3,38,43.3,38,43.4z"/>
<path class="st0" d="M26.1,45.6c0.9,0,1.8,0,2.6,0c0.4,0,0.8,0,1.1,0c0.2,0,0.2,0.1,0.2,0.2c0.1,0.3,0,0.6-0.1,0.9
	c-0.4,1.2-0.9,2.4-1.3,3.7c0,0.1-0.1,0.3-0.2,0.4c-0.8,0.9-1.7,1.7-2.6,2.6c-0.1,0.1-0.2,0.2-0.4,0.2c-1,0.4-1.9,0.7-2.9,1.1
	c-0.7,0.2-1.5,0.2-2.3,0.1c-1.2-0.2-2.1-0.9-3.1-1.4c-0.1,0-0.1-0.1-0.2-0.2c-0.3-0.4-0.5-0.8-0.8-1.2c-0.4-0.5-0.4-1-0.5-1.5
	c0-0.1,0-0.2,0.1-0.2c0.7-0.9,1.5-1.9,2.2-2.8c0,0,0,0,0.1,0c0.6,0.7,1.2,1.5,1.7,2.2c0.2,0.3,0.4,0.6,0.6,0.9
	c0.1,0.1,0.2,0.1,0.3,0.1c0.8,0.2,1.5-0.1,2.2-0.4c0.4-0.1,0.7-0.4,1-0.6c0.9-0.8,1.5-1.7,1.8-2.9c0-0.2,0.1-0.4,0.2-0.5
	C26,45.9,26,45.8,26.1,45.6z"/>
<path class="st0" d="M146.1,40.4c0.6,1.8,0.7,3.7,1.1,5.5c0.2-0.2,0.4-0.3,0.4-0.7c0.2-1.9,0.3-3.7,0.5-5.6c0,0,0-0.1,0-0.1
	c0.6-0.1,1.1-0.1,1.7-0.2c-0.1,0.5-0.1,0.9-0.2,1.3c-0.6,2.2-0.8,4.4-1.2,6.6c0,0.2-0.1,0.2-0.3,0.2c-0.5,0-0.9,0.1-1.4,0.1
	c-0.2,0-0.3,0-0.3-0.2c-0.2-0.7-0.5-1.4-0.7-2.2c-0.2-0.8-0.4-1.7-0.6-2.6c0-0.1,0-0.1-0.1-0.3c-0.1,0.2-0.2,0.3-0.2,0.5
	c-0.3,1.4-0.7,2.9-1,4.3c-0.1,0.2-0.1,0.3-0.4,0.3c-0.6,0-1.1,0-1.7,0.1c-0.4-2.7-0.9-5.4-1.1-8.1c0.4,0,0.8-0.1,1.2-0.1
	c0.2,0,0.6,0.5,0.6,0.6c0.1,1.7,0.2,3.3,0.2,5c0,0.4,0,0.7,0.1,1.1c0.2-0.1,0.3-0.2,0.3-0.4c0.4-1.6,0.9-3.3,1.3-4.9
	c0.1-0.2,0.1-0.3,0.4-0.3C145.2,40.5,145.6,40.5,146.1,40.4z"/>
<path class="st0" d="M118.2,41.5c-0.3,0-0.3,0.2-0.3,0.4c0,1.8,0,3.6-0.1,5.4c0,0.1,0,0.1,0,0.2c-0.4,0-0.8,0.1-1.2,0.1
	c0-0.5-0.1-1-0.1-1.4c-0.1-1.6-0.3-3.1-0.3-4.7c0-0.7,0.2-1.3,0.3-2c0.7,0,1.3-0.1,1.9-0.1c0.1,0,0.2,0.1,0.3,0.1
	c1,1.6,2.1,3.2,2.9,5.1c0-1.8-0.1-3.5-0.1-5.3c0.6,0,1.2,0,1.7,0c-0.1,1.1-0.2,2.2-0.3,3.4c-0.1,1.4-0.2,2.9-0.3,4.3
	c0,0.2-0.1,0.3-0.3,0.3c-0.3,0.1-0.6,0.1-0.9,0.2C120.5,45.4,119.5,43.4,118.2,41.5z"/>
<path class="st0" d="M163.6,39.5c0.4,0,0.8,0,1.2-0.1c1.1-0.1,2.2-0.1,3.4,0.2c1,0.3,1.5,1.1,1.6,1.8c0.1,1.4,0,2.8-0.4,4.1
	c-0.4,1.3-1.2,1.9-2.5,2c-0.9,0-1.9,0-2.9,0C163.8,44.9,163.7,42.2,163.6,39.5z M165.4,46.8c0.4-0.1,0.8-0.1,1.1-0.2
	c0.3-0.1,0.5-0.2,0.8-0.3c0.2-0.1,0.3-0.2,0.4-0.4c0.4-1.3,0.4-2.7,0.4-4c0-0.5-0.1-0.9-0.6-1.1c-0.1,0-0.1-0.1-0.2-0.1
	c-0.2-0.1-0.3-0.2-0.5-0.2c-0.5,0-1,0-1.5,0.1C165.4,42.6,165.4,44.6,165.4,46.8z"/>
<path class="st0" d="M177.5,42.8c0.1,1.3-0.4,2.5-1,3.7c-0.2,0.5-0.6,0.7-1.1,0.9c-0.8,0.3-1.6,0.3-2.4,0.1c-0.2,0-0.4-0.1-0.5-0.3
	c-0.9-0.7-1.3-1.8-1.4-2.9c-0.1-0.9-0.2-1.8-0.2-2.7c0.1-1,0.7-1.8,1.5-2.1c1.1-0.4,2.3-0.4,3.4-0.1c1.1,0.3,1.6,1,1.7,2.3
	C177.5,42.1,177.5,42.4,177.5,42.8z M172.6,42.9C172.6,42.9,172.6,42.9,172.6,42.9c0,0.4-0.1,0.9,0,1.3c0,0.7,0.2,1.2,0.6,1.7
	c0.1,0.1,0.3,0.3,0.5,0.3c0.4,0.1,0.8,0,1.2,0c0.3,0,0.4-0.2,0.5-0.4c0.2-1,0.4-1.9,0.5-2.9c0.1-0.6,0-1.1,0-1.7
	c-0.1-0.5-0.3-0.7-0.8-0.7c-0.4,0-0.8-0.1-1.2-0.1c-0.6,0-1.3,0.6-1.3,1.2C172.6,42.1,172.6,42.5,172.6,42.9z"/>
<path class="st0" d="M76.5,42.5c0.1,1.4-0.3,2.6-0.9,3.9c-0.3,0.5-0.6,0.8-1.2,1c-0.8,0.3-1.6,0.3-2.4,0.1c-0.2,0-0.3-0.1-0.5-0.3
	c-0.9-0.8-1.3-1.8-1.4-2.9c-0.1-0.9-0.2-1.8-0.2-2.7c0-0.9,0.8-1.9,1.6-2.1c1-0.3,2-0.4,3-0.1c1.3,0.3,1.8,1,1.9,2.3
	C76.5,41.9,76.5,42.2,76.5,42.5z M71.6,42.9C71.6,42.9,71.5,42.9,71.6,42.9c-0.1,0.4-0.1,0.8-0.1,1.2c0,0.7,0.2,1.3,0.6,1.9
	c0.1,0.1,0.3,0.3,0.5,0.3c0.4,0.1,0.7,0.1,1.1,0.1c0.5,0,0.6-0.1,0.7-0.6c0.3-1.1,0.5-2.2,0.5-3.4c0-0.4-0.1-0.8-0.1-1.2
	c-0.1-0.3-0.3-0.5-0.6-0.6c-0.4,0-0.9-0.1-1.3-0.1c-0.6-0.1-1.3,0.6-1.3,1.2C71.6,42.1,71.6,42.5,71.6,42.9z"/>
<path class="st0" d="M130.8,39.5c1.2-0.1,2.4-0.1,3.6,0c0.6,0.1,1,0.3,1.3,0.7c0.1,0.1,0.1,0.1,0.1,0.2c0.1,0.8,0.2,1.6,0.4,2.4
	c0,0.1,0,0.2-0.1,0.3c-0.4,0.5-0.8,1-1.4,1.4c0.8,1.1,1.6,2.2,2.4,3.3c-0.3,0.1-0.6,0.2-0.9,0.3c-0.1,0-0.2-0.1-0.3-0.1
	c-0.7-0.8-1.5-1.7-2.2-2.5c-0.5-0.5-0.5-0.5-1.1-0.4c-0.2,0-0.2,0.1-0.2,0.3c0,0.8,0,1.5,0,2.3c-0.5,0.1-1.1,0.1-1.6,0.2
	C130.8,44.9,130.8,42.2,130.8,39.5z M134.4,40.4c-0.7,0-1.4,0.1-2,0.1c-0.1,0-0.2,0.2-0.1,0.2c0.1,1,0.1,2.1,0.2,3.1
	c0.8-0.1,1.6-0.5,2.1-1.2c0,0,0-0.1,0-0.2C134.6,41.8,134.5,41.2,134.4,40.4z"/>
<path class="st0" d="M183.1,44.4c0.8,1.1,1.6,2.2,2.4,3.3c-0.3,0.1-0.6,0.2-0.9,0.3c-0.1,0-0.2-0.1-0.2-0.1
	c-0.8-0.9-1.6-1.9-2.5-2.8c-0.2-0.2-0.3-0.2-0.5-0.2c-0.6,0.1-0.6,0.1-0.6,0.7c0,0.6,0,1.3,0,1.9c-0.5,0.1-1.1,0.1-1.6,0.2
	c0-2.7,0-5.4,0-8.1c0.4,0,0.8,0,1.2-0.1c1-0.1,1.9,0,2.9,0.1c0.1,0,0.3,0.1,0.4,0.2c0.4,0.3,0.6,0.6,0.7,1.1c0,0.6,0.2,1.2,0.3,1.8
	c0,0.1,0,0.2,0,0.3C184.1,43.5,183.8,44,183.1,44.4z M180.8,43.9c0.6-0.2,1.2-0.4,1.7-0.8c0.4-0.3,0.5-0.6,0.4-1.1
	c-0.1-0.5-0.1-1.1-0.2-1.6c-0.7,0-1.4,0.1-2.2,0.1C180.7,41.7,180.8,42.8,180.8,43.9z"/>
<path class="st0" d="M63.7,39.5c0,0.3,0,0.7,0,1c0,1.6,0,3.2,0.1,4.8c0,1.2,0.7,1.5,1.8,1.3c0.4-0.1,0.6-0.2,0.7-0.6
	c0.4-1,0.4-1.9,0.5-2.9c0-1.2,0.1-2.3,0.2-3.5c0.6,0,1.2-0.1,1.8-0.1c-0.1,0.5-0.1,1.1-0.1,1.6c-0.1,1.5-0.2,2.9-0.5,4.4
	c-0.1,0.8-0.6,1.5-1.2,2c-0.2,0.1-0.5,0.2-0.7,0.2c-0.8,0-1.7,0-2.5-0.1c-0.3,0-0.5-0.2-0.7-0.5c-0.4-0.9-0.8-1.8-0.8-2.7
	c0-1.3-0.1-2.7-0.2-4c0-0.6,0-0.6,0.6-0.7c0.2,0,0.3,0,0.5,0C63.4,39.5,63.5,39.5,63.7,39.5z"/>
<path class="st0" d="M89.3,47.6c-0.5-0.1-0.9-0.1-1.3-0.2c-0.1,0-0.1-0.1-0.1-0.2c-0.1-0.4-0.1-0.9-0.2-1.3c-1,0-2,0.4-3-0.1
	c-0.1,0.5-0.3,0.9-0.4,1.4c-0.1,0.3-0.2,0.3-0.4,0.3c-0.3,0-0.6,0-0.9,0c0.1-0.6,0.1-1.1,0.2-1.6c0.2-1.2,0.4-2.4,0.7-3.6
	c0.3-0.9,0.7-1.8,1-2.8c0-0.1,0.1-0.2,0.2-0.2c0.8-0.1,1.7-0.1,2.5-0.2c0.2,0.8,0.4,1.5,0.6,2.3c0.3,1.2,0.6,2.4,0.8,3.6
	c0.1,0.3,0,0.6,0,0.9C89.3,46.5,89.3,47,89.3,47.6z M87.6,44.9c0-0.2,0-0.4,0-0.6c-0.1-0.6-0.2-1.2-0.3-1.8
	c-0.1-0.6-0.3-1.1-0.4-1.6c0-0.1-0.1-0.3-0.2-0.3c-0.3,0-0.5,0-0.8,0.1c-0.1,0-0.1,0.1-0.1,0.1c-0.5,1.4-0.7,2.8-0.8,4.4
	C85.8,45,86.7,45,87.6,44.9z"/>
<path class="st0" d="M156.8,47.6c-0.5-0.1-0.9-0.1-1.4-0.2c-0.1-0.5-0.1-1-0.2-1.5c-1,0-2,0.4-3-0.1c-0.2,0.5-0.3,1-0.4,1.5
	c0,0.2-0.1,0.2-0.3,0.2c-0.3,0-0.6,0-1,0c0.1-0.7,0.2-1.4,0.3-2c0.3-1.7,0.6-3.4,1.3-5.1c0.1-0.3,0.2-0.6,0.4-0.9
	c0.1-0.1,0.2-0.2,0.3-0.2c0.7-0.1,1.5-0.1,2.2-0.1c0.1,0,0.2,0,0.3,0.2c0.5,1.9,1,3.8,1.4,5.8C156.9,46,156.8,46.8,156.8,47.6z
	 M155.1,44.9c0.1-0.6,0-1.1-0.1-1.7c-0.2-0.8-0.4-1.7-0.6-2.5c0-0.1-0.1-0.3-0.2-0.3c-0.3,0-0.6,0-0.9,0.1c0,0-0.1,0.1-0.1,0.2
	c-0.1,0.3-0.2,0.7-0.3,1c-0.3,1.1-0.4,2.2-0.5,3.3C153.4,45,154.2,45,155.1,44.9z"/>
<path class="st0" d="M94,46.7c0.6,0,1.1,0.1,1.6,0c0.5-0.1,1-0.3,1.6-0.5c0.2-0.1,0.3-0.2,0.3-0.4c0-0.4-0.1-0.8-0.1-1.1
	c0-0.1-0.1-0.2-0.2-0.2c-0.6-0.3-1.1-0.5-1.7-0.8c-0.3-0.2-0.7-0.3-1-0.5c-0.2-0.1-0.4-0.3-0.4-0.6c0-0.7-0.1-1.5,0-2.2
	c0-0.5,0.4-1,1.1-1c0.9,0,1.8,0,2.7,0.1c0.3,0,0.6,0.1,0.9,0.1c-0.1,0.2-0.1,0.5-0.2,0.7c0,0.1-0.2,0.1-0.3,0.1c-0.5,0-1.1,0-1.6,0
	c-0.3,0-0.6,0.1-0.8,0.1c-0.1,0-0.2,0.2-0.2,0.2c-0.1,0.4-0.1,0.7-0.1,1.1c0,0.2,0.1,0.3,0.2,0.4c0.5,0.2,1.1,0.5,1.6,0.7
	c0.5,0.2,0.9,0.5,1.4,0.7c0.3,0.2,0.4,0.5,0.4,0.8c0,0.9-0.2,1.8-0.6,2.6c-0.1,0.1-0.2,0.3-0.4,0.3c-0.8,0.3-1.7,0.3-2.6,0.3
	c-0.4,0-0.8-0.1-1.2-0.1c-0.2,0-0.3-0.1-0.3-0.3C94.1,47.1,94,46.9,94,46.7z"/>
<path class="st0" d="M129.3,39.3c-0.1,0.3-0.1,0.6-0.2,0.8c-0.1,0.1-0.5,0.1-0.7,0.1c-0.5,0.1-1,0.1-1.6,0.2c-0.3,0-0.5,0.2-0.5,0.5
	c0,0.6-0.1,1.3-0.1,1.9c0,0.2,0.1,0.3,0.4,0.3c0.7,0,1.4,0,2.1,0.1c0.1,0,0.2,0,0.3,0c0,0.2,0,0.5-0.1,0.6c0,0.1-0.2,0.1-0.2,0.1
	c-0.7,0.1-1.4,0.1-2.2,0.2c-0.1,0-0.1,0-0.3,0.1c0.1,0.7,0.1,1.3,0.2,2c0,0.2,0.1,0.3,0.3,0.3c0.7,0,1.4,0,2.1,0.1
	c0.1,0,0.3,0,0.4,0c0,0,0,0.1,0,0.1c-0.1,0.6-0.1,0.7-0.7,0.7c-1.1,0.1-2.2,0.1-3.3,0.2c-0.4,0-0.4,0-0.5-0.4
	c-0.1-0.9-0.2-1.8-0.2-2.8c0-1.3-0.1-2.5-0.1-3.8c0-0.2,0-0.5,0.1-0.7c0-0.3,0.2-0.4,0.5-0.5c0.3,0,0.5-0.1,0.8-0.1
	C127,39.4,128.1,39.4,129.3,39.3z"/>
<path class="st0" d="M54.3,39.5c-0.1,0.3-0.1,0.6-0.2,0.8c-0.3,0-0.7,0-1,0c-0.5,0-1,0-1.5,0.1c-0.2,0-0.4,0.1-0.4,0.4
	c0,0.3-0.1,0.7-0.1,1c0,0.2,0,0.3,0.2,0.4c0.5,0.2,0.9,0.4,1.4,0.6c0.5,0.3,1.1,0.5,1.6,0.8c0.3,0.2,0.5,0.5,0.5,0.9
	c0,0.9-0.2,1.7-0.5,2.6c-0.1,0.2-0.2,0.3-0.4,0.4c-1.1,0.3-2.2,0.3-3.3,0.2c-0.2,0-0.4,0-0.7-0.1c0-0.3-0.1-0.5-0.1-0.8
	c0.1,0,0.2,0,0.3,0c1,0.1,1.9,0,2.8-0.5c0.2-0.1,0.3-0.2,0.3-0.5c0,0,0,0,0-0.1c0-1.2,0-1.2-1.1-1.6c-0.6-0.3-1.2-0.6-1.7-0.8
	c-0.4-0.2-0.7-0.5-0.7-1c0-0.7,0-1.3,0-2c0-0.5,0.4-0.9,0.9-1c0.6,0,1.3,0,2,0C53,39.4,53.6,39.5,54.3,39.5z"/>
<path class="st0" d="M110.6,43.3c0,0.3-0.1,0.5-0.1,0.8c-0.9,0.1-1.8,0.2-2.7,0.2c0.1,0.7,0.1,1.3,0.2,2c0,0.2,0.1,0.3,0.4,0.3
	c0.7,0,1.4,0,2.1,0.1c0.1,0,0.3,0,0.4,0c-0.1,0.7-0.1,0.7-0.7,0.8c-1.1,0.1-2.1,0.2-3.2,0.2c-0.5,0-0.5,0-0.5-0.5
	c-0.1-1-0.2-1.9-0.2-2.9c0-1.2-0.1-2.3-0.1-3.5c0-0.3,0-0.5,0.1-0.8c0-0.3,0.2-0.4,0.5-0.5c0.8,0,1.7-0.1,2.5-0.2c0.6,0,1.1,0,1.7,0
	c0,0,0,0,0,0c-0.1,0.8-0.1,0.7-0.9,0.8c-0.5,0.1-1.1,0.1-1.6,0.2c-0.3,0-0.4,0.2-0.5,0.5c0,0.6-0.1,1.3-0.1,1.9
	c0,0.2,0.1,0.3,0.4,0.3C109,43.2,109.8,43.2,110.6,43.3z"/>
<path class="st0" d="M61,46.6c-0.1,0.3-0.1,0.5-0.2,0.7c0,0.1-0.1,0.1-0.2,0.1c-0.5,0.1-1.1,0.2-1.6,0.2c-0.7,0-1.5-0.1-2.1-0.4
	c-0.2-0.1-0.3-0.3-0.4-0.5c-0.4-0.7-0.6-1.5-0.7-2.3c-0.1-0.4-0.1-0.8-0.2-1.3c-0.1-0.9,0.1-1.8,0.5-2.6c0.3-0.5,0.8-0.9,1.4-1
	c1.2-0.2,2.4-0.2,3.7,0.1c0,0,0.1,0,0.1,0c-0.2,0.9-0.2,0.9-1.1,0.8c-0.6-0.1-1.2-0.1-1.9,0.1c-0.7,0.2-1,0.7-1,1.4
	c0,1.1,0,2.3,0.2,3.4c0.2,0.9,0.7,1.4,1.6,1.4c0.5,0,0.9-0.1,1.4-0.1C60.7,46.6,60.8,46.6,61,46.6z"/>
<path class="st0" d="M191.1,39.5C191.1,39.5,191.1,39.5,191.1,39.5c-0.1,0.6-0.4,0.9-1.1,0.9c-0.5,0-1,0.1-1.5,0.2
	c-0.4,0.1-0.5,0.2-0.6,0.6c0,0.5,0,1.1-0.1,1.6c0,0.1,0,0.2,0,0.4c1,0,2,0,2.9,0c0,0.3-0.1,0.5-0.1,0.7c0,0.1-0.2,0.2-0.2,0.2
	c-0.7,0.1-1.4,0.1-2.1,0.2c-0.1,0-0.3,0-0.5,0.1c0,1.1,0,2.1,0,3.2c-0.5,0.1-0.9,0.1-1.3,0.1c0-0.1,0-0.1,0-0.2
	c-0.1-2.4-0.2-4.8-0.3-7.2c0-0.1,0-0.2,0.1-0.3c0.1-0.3,0.3-0.4,0.6-0.4c1.3,0,2.6-0.1,3.9-0.1C190.8,39.5,190.9,39.5,191.1,39.5z"
	/>
<path class="st0" d="M162.7,47.4c-1.4,0.1-2.8,0.2-4.2,0.3c0-2.7-0.1-5.5-0.1-8.2c0.6-0.1,1.3-0.1,1.9-0.2c-0.1,2.4-0.3,4.7-0.4,7.1
	c1,0.1,2,0.1,2.9,0.2C162.8,46.9,162.7,47.1,162.7,47.4z"/>
<path class="st0" d="M79.7,46.5c1,0.1,1.9,0.1,2.9,0.2c0,0.3-0.1,0.5-0.1,0.8c-1.4,0.1-2.8,0.2-4.2,0.3c0-2.8-0.1-5.5-0.1-8.2
	c0.6-0.1,1.3-0.1,1.9-0.2C79.9,41.7,79.8,44.1,79.7,46.5z"/>
<path class="st0" d="M102.9,47.5c-0.4,0.1-0.8,0.2-1.2,0.2c0,0,0-0.1,0-0.1c0-1.6-0.1-3.3-0.1-4.9c0-0.5-0.1-1-0.1-1.6
	c0-0.3-0.2-0.5-0.5-0.5c-0.5-0.1-1-0.2-1.5-0.3c0-0.3,0.1-0.5,0.1-0.8c1.8-0.1,3.6-0.1,5.4-0.2c0,0.3,0.1,0.6,0.1,0.8
	c-0.5,0.1-1,0.2-1.5,0.3c-0.4,0.1-0.5,0.2-0.5,0.6c-0.1,2.1-0.1,4.1-0.2,6.2C102.9,47.4,102.9,47.4,102.9,47.5z"/>
<path class="st0" d="M114.1,47.5c-0.1,0-0.1,0-0.2,0c-0.3,0-0.6,0-0.9,0.1c-0.1-2.7-0.3-5.3-0.4-8.1c0.7-0.1,1.3-0.1,2-0.2
	C114.3,42.1,114.2,44.8,114.1,47.5z"/>
<path class="st0" d="M118.6,59.2c0.1,0,0.2,0,0.3,0.1c1.7,0.8,3.5,0,3.9-1.9c0.1-0.4,0.1-0.9,0.2-1.3c0,0,0,0-0.1,0
	c-0.1,0.1-0.1,0.1-0.2,0.2c-0.9,0.7-1.8,0.9-2.9,0.7c-1.1-0.3-1.7-1.2-1.6-2.4c0.2-1.1,0.8-1.8,1.9-2.1c1.2-0.2,2.3,0.2,2.8,1.2
	c0.4,0.6,0.5,1.3,0.5,2c0,0.6,0,1.3-0.2,1.9c-0.5,1.9-1.9,2.6-3.6,2.4c-0.2,0-0.5-0.1-0.7-0.1C118.5,59.7,118.5,59.7,118.6,59.2z
	 M120.6,56.6c0.8,0,1.5-0.3,2.1-0.9c0.1-0.1,0.2-0.2,0.2-0.3c-0.1-0.4-0.1-0.8-0.3-1.2c-0.4-1-1.3-1.5-2.4-1.2
	c-1.3,0.3-1.6,1.4-1.4,2.4c0.1,0.5,0.4,0.9,1,1.1C120.1,56.6,120.3,56.6,120.6,56.6z"/>
<path class="st0" d="M112.5,59.2c0.1,0,0.2,0,0.3,0.1c1.7,0.8,3.5-0.1,3.9-2c0.1-0.4,0.1-0.8,0.2-1.3c-0.1,0.1-0.2,0.2-0.2,0.2
	c-0.9,0.8-1.9,1-3,0.7c-1.1-0.3-1.7-1.3-1.5-2.5c0.2-1.3,1.3-2.1,2.7-2c1.2,0.1,2,0.8,2.3,1.9c0.4,1.2,0.4,2.3,0,3.5
	c-0.6,1.7-2,2.3-3.6,2.1c-0.2,0-0.5-0.1-0.7-0.1C112.5,59.8,112.5,59.7,112.5,59.2z M114.6,56.6c0.8,0,1.6-0.3,2.1-0.9
	c0.1-0.1,0.1-0.2,0.1-0.3c0-0.5-0.1-1-0.4-1.5c-0.4-0.8-1.3-1.1-2.2-0.9c-0.8,0.2-1.3,0.7-1.5,1.7c-0.1,1,0.4,1.8,1.3,1.9
	C114.3,56.6,114.4,56.6,114.6,56.6z"/>
<path class="st0" d="M124.3,56.2c0-0.7,0.1-1.4,0.4-2c0.5-1.1,1.4-1.7,2.6-1.7c1.2,0,2.1,0.6,2.6,1.7c0.6,1.3,0.6,2.7,0,4
	c-0.5,1.2-1.5,1.8-2.7,1.8c-1.2,0-2.2-0.7-2.6-1.9c-0.1-0.3-0.2-0.6-0.2-0.9C124.3,57,124.3,56.6,124.3,56.2z M129.7,56.4
	c0-0.8-0.1-1.4-0.3-2c-0.4-0.9-1.1-1.4-2.1-1.4c-1,0-1.7,0.5-2.1,1.4c-0.5,1.3-0.5,2.6,0,3.9c0.4,0.9,1.1,1.4,2,1.4
	c1,0,1.7-0.4,2.1-1.3C129.7,57.6,129.7,56.9,129.7,56.4z"/>
<path class="st0" d="M97.4,55c0-0.9,0-1.7,0-2.5c0.4-0.1,0.5,0,0.5,0.4c0,2.3,0,4.6,0,7c0,0,0,0,0,0.1c-0.4,0.1-0.5,0-0.5-0.4
	c0-0.1,0-0.3,0-0.5c-0.1,0.1-0.2,0.2-0.3,0.3c-0.7,0.6-1.4,0.9-2.3,0.7c-0.8-0.2-1.2-0.7-1.5-1.4c-0.3-0.9-0.3-1.7,0-2.6
	c0.5-1.6,2.4-2.2,3.8-1.2C97.2,54.9,97.3,54.9,97.4,55z M97.4,57c0-0.3,0-0.7,0-1c0.1-0.4-0.1-0.6-0.5-0.9c-1.1-0.8-2.7-0.4-3.1,0.9
	c-0.3,0.8-0.3,1.6,0,2.5c0.2,0.8,0.8,1.2,1.7,1.1c0.7,0,1.3-0.4,1.7-0.9c0.1-0.1,0.1-0.3,0.1-0.4C97.4,57.9,97.4,57.4,97.4,57z"/>
<path class="st0" d="M74,52.5c0.5,0,0.6,0,0.6,0.6c0,2.2,0,4.4,0,6.7c0,0.1,0,0.1,0,0.2c-0.5,0.1-0.5,0-0.5-0.4c0-0.1,0-0.3,0-0.5
	c-0.1,0.1-0.2,0.2-0.2,0.2c-0.5,0.5-1,0.7-1.7,0.8c-1.1,0.1-1.9-0.5-2.2-1.6c-0.2-0.8-0.2-1.5,0-2.3c0.5-1.7,2.5-2.4,3.9-1.3
	c0.1,0,0.1,0.1,0.2,0.2C74,54.2,74,53.4,74,52.5z M74.1,57c0-0.3,0-0.6,0-0.9c0.1-0.6-0.2-0.9-0.7-1.1c-0.4-0.1-0.8-0.2-1.2-0.2
	c-0.6,0-1.2,0.3-1.5,0.9c-0.5,1-0.5,2.1,0,3.1c0.2,0.5,0.7,0.8,1.3,0.8c0.8,0,1.4-0.3,1.9-0.9c0.1-0.1,0.1-0.3,0.1-0.4
	C74.1,57.9,74.1,57.4,74.1,57z"/>
<path class="st0" d="M103.3,60c-0.4,0.1-0.5,0-0.5-0.7c-0.1,0.1-0.2,0.1-0.2,0.2c-0.7,0.6-1.5,0.7-2.4,0.5c-0.7-0.2-1-0.7-1.1-1.4
	c0-0.7,0.3-1.2,0.9-1.5c0.8-0.3,1.6-0.3,2.5-0.1c0.1,0,0.2,0,0.3,0c0-0.4,0-0.9,0-1.3c-0.1-0.5-0.4-0.8-0.9-0.9
	c-0.7-0.1-1.4,0-2,0.4c-0.1,0.1-0.2,0.1-0.3,0.1c-0.1-0.4-0.1-0.5,0.3-0.6c0.7-0.3,1.5-0.4,2.3-0.3c0.8,0.1,1.2,0.6,1.2,1.4
	C103.3,57.2,103.3,58.5,103.3,60C103.3,59.9,103.3,59.9,103.3,60z M102.8,58.1c-0.1-0.7,0-0.7-0.7-0.8c-0.6-0.1-1.2-0.1-1.8,0.1
	c-0.5,0.2-0.7,0.6-0.7,1.3c0.1,0.5,0.4,0.9,1,1c0.3,0,0.5,0,0.8,0c0.5-0.1,0.9-0.3,1.2-0.7C102.8,58.6,102.8,58.3,102.8,58.1z"/>
<path class="st0" d="M68.2,56.9c0-0.5,0-0.9,0-1.3c0-0.4-0.4-0.7-0.9-0.8c-0.7-0.1-1.4,0-2,0.4c-0.1,0-0.2,0.1-0.3,0.1
	c-0.1-0.5-0.1-0.5,0.3-0.6c0.8-0.3,1.6-0.4,2.4-0.2c0.7,0.1,1.1,0.6,1.1,1.3c0,1.4,0,2.7,0,4.1c0,0,0,0.1,0,0.1
	c-0.4,0-0.4,0-0.6-0.7c-0.1,0.1-0.1,0.1-0.2,0.2c-0.7,0.6-1.5,0.7-2.4,0.4c-0.7-0.2-1-0.7-1.1-1.4c0-0.7,0.3-1.2,0.9-1.5
	c0.8-0.3,1.6-0.3,2.5-0.1C68,56.9,68.1,56.9,68.2,56.9z M68.2,58.1C68.2,58.1,68.2,58.1,68.2,58.1c-0.1-0.2,0-0.4-0.1-0.6
	c0-0.1-0.1-0.2-0.1-0.2c-0.7-0.1-1.4-0.2-2.2,0c-0.6,0.2-0.9,0.6-0.8,1.2c0.1,0.6,0.4,1,1.1,1.1c0.2,0,0.5,0,0.7,0
	c0.5-0.1,0.9-0.3,1.2-0.7C68.2,58.7,68.2,58.3,68.2,58.1z"/>
<path class="st0" d="M85.7,55.3c-0.1-0.5-0.1-0.5,0.3-0.6c0.8-0.3,1.6-0.4,2.4-0.2c0.7,0.1,1.1,0.6,1.1,1.3c0,1.4,0,2.8,0,4.2
	C89.1,60,89.1,60,89,59.3c-0.1,0.1-0.1,0.1-0.2,0.2c-0.7,0.6-1.5,0.7-2.3,0.5c-0.7-0.2-1.1-0.7-1.1-1.5c0-0.7,0.3-1.2,1-1.5
	c0.8-0.3,1.6-0.2,2.4-0.1c0.1,0,0.2,0,0.3,0c0-0.5,0-0.9,0-1.3c-0.1-0.5-0.4-0.7-0.9-0.8c-0.7-0.1-1.4,0-2,0.4
	C85.9,55.3,85.8,55.3,85.7,55.3z M89,58.1c0-0.2,0-0.4,0-0.5c0-0.1-0.1-0.2-0.1-0.2c-0.7-0.1-1.4-0.2-2.2,0
	c-0.6,0.2-0.9,0.6-0.9,1.3c0.1,0.6,0.4,1,1.1,1c0.2,0,0.5,0,0.7,0c0.5-0.1,0.9-0.3,1.2-0.7C89,58.6,89,58.3,89,58.1z"/>
<path class="st0" d="M55.3,58.7c0.1,0.4,0,0.5-0.2,0.7c-1.2,0.9-3.1,0.9-4.2,0c-0.7-0.6-1-1.5-1.1-2.4c-0.1-0.9,0-1.7,0.3-2.5
	c0.6-1.3,1.8-2.1,3.2-2c0.6,0,1.2,0.2,1.7,0.5c0.3,0.2,0.3,0.2,0.3,0.7c-0.1,0-0.2,0-0.3-0.1c-0.9-0.8-1.9-0.8-3-0.4
	c-1,0.4-1.5,1.3-1.6,2.4c-0.1,0.8,0,1.7,0.3,2.4c0.4,1,1.3,1.6,2.4,1.6c0.8,0,1.5-0.2,2.1-0.8C55.1,58.7,55.2,58.7,55.3,58.7z"/>
<path class="st0" d="M80.5,57.2c-1.4,0-2.8,0-4.2,0c-0.2,1.3,0.6,2.3,1.8,2.4c0.7,0,1.3-0.1,1.9-0.5c0.1-0.1,0.2-0.1,0.3-0.1
	c0.1,0.3,0,0.5-0.3,0.6c-0.9,0.5-1.8,0.6-2.8,0.2c-0.6-0.2-1.1-0.6-1.3-1.2c-0.4-1-0.4-1.9,0-2.9c0.7-1.5,2.3-1.6,3.3-1.2
	c0.8,0.4,1.1,1.1,1.1,1.9C80.5,56.7,80.5,56.9,80.5,57.2z M79.9,56.8c0-1.3-0.7-2.1-1.8-2c-1,0-1.9,1-1.8,2
	C77.5,56.8,78.7,56.8,79.9,56.8z"/>
<path class="st0" d="M64,59.6c0,0.1,0,0.3,0,0.4c-0.4,0-0.7,0-1,0c-0.7-0.1-1.1-0.5-1.1-1.2c0-1.2,0-2.4,0-3.6c0-0.1,0-0.2,0-0.3
	c-0.2,0-0.5,0-0.7,0c0-0.1,0-0.3,0-0.4c0.2,0,0.5,0,0.7,0c0-0.5,0-1,0-1.5c0.2,0,0.4,0,0.5,0c0,0.5,0,1,0,1.5c0.5,0,1,0,1.5,0
	c0,0.1,0,0.3,0,0.4c-0.5,0-0.9,0-1.4,0c0,0.1,0,0.2,0,0.3c0,1.2,0,2.4,0,3.6c0,0.7,0.2,0.9,0.9,0.9C63.6,59.6,63.8,59.6,64,59.6z"/>
<path class="st0" d="M60.8,59.6c0,0.1,0,0.3,0,0.4c-0.5,0.1-0.9,0.1-1.4,0c-0.4-0.1-0.6-0.4-0.7-0.8c0-0.2,0-0.4,0-0.6
	c0-1.2,0-2.3,0-3.5c0-0.1,0-0.2,0-0.3c-0.3,0-0.5,0-0.7,0c0-0.1,0-0.2,0-0.4c0.2,0,0.4,0,0.7,0c0-0.5,0-1,0-1.5c0.2,0,0.4,0,0.5,0
	c0,0.5,0,1,0,1.5c0.5,0,1,0,1.5,0c0,0.1,0,0.3,0,0.4c-0.5,0-0.9,0-1.4,0c0,0.1,0,0.1,0,0.1c0,1.3,0,2.6,0,3.9c0,0.5,0.3,0.8,0.8,0.8
	C60.3,59.6,60.6,59.6,60.8,59.6z"/>
<path class="st0" d="M110.2,53.2c-0.5,0.2-0.9,0.6-1.4,0.7c-0.1-0.3,0-0.4,0.2-0.5c0.4-0.2,0.7-0.4,1.1-0.6c0.2-0.1,0.4-0.1,0.6-0.2
	c0,2.5,0,5,0,7.5c-0.2,0-0.3,0-0.6,0C110.2,57.7,110.2,55.5,110.2,53.2z"/>
<path class="st0" d="M105.3,60c-0.2,0-0.3,0-0.5,0c0-2.5,0-5,0-7.4c0.4-0.1,0.5,0,0.5,0.4c0,2.3,0,4.6,0,6.9
	C105.4,59.9,105.3,59.9,105.3,60z"/>
<path class="st0" d="M83.7,52.5c0.4,0,0.5,0,0.5,0.4c0,2.3,0,4.6,0,6.9c0,0,0,0.1,0,0.2c-0.2,0-0.3,0-0.5,0
	C83.7,57.5,83.7,55,83.7,52.5z"/>
<path class="st0" d="M82.1,60c-0.2,0-0.3,0-0.5,0c0-2.5,0-5,0-7.4c0.4-0.1,0.5,0,0.5,0.4c0,2.3,0,4.6,0,6.9
	C82.1,59.9,82.1,59.9,82.1,60z"/>
<path class="st0" d="M56.5,54.5c0.4,0,0.5,0,0.5,0.4c0,1.7,0,3.4,0,5.1c0,0,0,0.1,0,0.1c-0.2,0-0.3,0-0.5,0
	C56.5,58.1,56.5,56.3,56.5,54.5z"/>
<path class="st0" d="M57.2,53.2c0,0.2-0.1,0.4-0.4,0.4c-0.2,0-0.3-0.1-0.4-0.4c0-0.2,0.2-0.4,0.4-0.4C57,52.9,57.1,53,57.2,53.2z"/>
</svg>
